<!-- Generated by IcoMoon.io -->
<svg version="1.1" xmlns="http://www.w3.org/2000/svg" width="32" height="32" viewBox="0 0 32 32">
<title>business-competition-bro-1</title>
<path fill="#000" opacity="0.010000000000000002" d="M1.487 14.859c0.252 0.050 0.812-0.085 0.812-0.085s-0.201-0.342-0.216-0.362c-0.18-0.232-0.664-0.576-0.972-0.461-0.051 0.020-0.097 0.051-0.135 0.090s-0.068 0.085-0.087 0.137c-0.019 0.051-0.027 0.106-0.023 0.16s0.018 0.107 0.044 0.156c0.1 0.209 0.362 0.323 0.577 0.366z"></path>
<path fill="#000" opacity="0.010000000000000002" d="M2.037 16.448c0.246-0.017 0.716-0.272 0.754-0.293 0.145 0.269 0.308 0.529 0.488 0.776 0.104 0.145 0.213 0.287 0.324 0.429-0.061-0.057-0.115-0.108-0.124-0.114-0.234-0.175-0.791-0.377-1.059-0.188-0.044 0.033-0.080 0.074-0.106 0.122s-0.043 0.1-0.047 0.155c-0.005 0.054 0.002 0.109 0.020 0.161s0.046 0.099 0.083 0.139c0.152 0.174 0.435 0.216 0.653 0.2s0.627-0.225 0.733-0.282c0.044 0.054 0.086 0.108 0.128 0.162 0.209 0.256 0.418 0.512 0.616 0.772 0.070 0.091 0.134 0.183 0.2 0.275-0.054-0.051-0.099-0.093-0.107-0.099-0.235-0.176-0.791-0.378-1.059-0.188-0.044 0.033-0.080 0.074-0.107 0.122s-0.043 0.1-0.047 0.155c-0.005 0.054 0.002 0.109 0.020 0.161s0.046 0.099 0.084 0.139c0.152 0.175 0.435 0.216 0.653 0.2s0.588-0.205 0.714-0.271c0.064 0.096 0.128 0.192 0.187 0.288 0.038 0.064 0.079 0.128 0.114 0.197l0.106 0.2c0.064 0.128 0.128 0.264 0.186 0.392 0.041 0.089 0.079 0.174 0.116 0.261-0.068-0.092-0.205-0.268-0.219-0.281-0.205-0.209-0.724-0.492-1.018-0.346-0.048 0.026-0.090 0.061-0.123 0.104s-0.057 0.093-0.070 0.146-0.015 0.108-0.005 0.162c0.010 0.054 0.031 0.105 0.061 0.15 0.124 0.196 0.397 0.279 0.615 0.297 0.24 0.020 0.725-0.152 0.785-0.173 0.064 0.143 0.122 0.282 0.175 0.414 0.041 0.097 0.078 0.191 0.113 0.282l0.2-0.044c-0.043-0.1-0.087-0.205-0.134-0.315-0.064-0.145-0.132-0.298-0.206-0.455 0.137-0.093 0.269-0.194 0.394-0.302 0.203 0.142 0.669 0.256 0.729 0.273-0.027 0.153-0.054 0.301-0.082 0.442-0.015 0.074-0.029 0.144-0.044 0.214l0.211-0.046c0.008-0.044 0.016-0.086 0.024-0.132 0.028-0.156 0.054-0.32 0.080-0.493 0.064 0 0.576-0.008 0.797-0.11 0.198-0.093 0.425-0.266 0.474-0.492 0.013-0.053 0.015-0.108 0.006-0.162s-0.030-0.105-0.061-0.15c-0.031-0.045-0.070-0.083-0.117-0.112s-0.098-0.048-0.152-0.055c-0.326-0.036-0.715 0.41-0.832 0.678-0.007 0.016-0.064 0.196-0.099 0.31 0.010-0.070 0.021-0.138 0.029-0.211 0.020-0.143 0.035-0.285 0.052-0.44 0.006-0.074 0.012-0.15 0.017-0.226s0.006-0.155 0.009-0.234c0-0.183 0-0.368-0.011-0.554 0.128 0.017 0.57 0.070 0.781 0.009s0.461-0.198 0.543-0.415c0.021-0.050 0.031-0.104 0.030-0.159s-0.014-0.108-0.037-0.157c-0.023-0.049-0.057-0.093-0.098-0.129s-0.090-0.062-0.142-0.077c-0.32-0.085-0.768 0.297-0.928 0.543-0.010 0.015-0.104 0.205-0.154 0.31-0.006-0.112-0.013-0.223-0.023-0.337-0.030-0.326-0.070-0.656-0.109-0.985-0.012-0.101-0.023-0.202-0.034-0.302 0.044 0.006 0.572 0.082 0.808 0.013 0.21-0.064 0.46-0.198 0.543-0.415 0.021-0.050 0.031-0.104 0.030-0.159s-0.014-0.108-0.037-0.157c-0.023-0.049-0.057-0.093-0.098-0.129s-0.090-0.062-0.142-0.077c-0.32-0.085-0.768 0.298-0.927 0.543-0.012 0.019-0.147 0.292-0.178 0.363-0.024-0.222-0.047-0.443-0.060-0.662-0.019-0.295-0.019-0.592 0-0.887 0.021 0.003 0.571 0.084 0.813 0.013 0.21-0.064 0.461-0.198 0.543-0.415 0.021-0.050 0.031-0.104 0.030-0.159s-0.014-0.108-0.037-0.157c-0.023-0.049-0.057-0.093-0.098-0.129s-0.090-0.062-0.142-0.078c-0.32-0.084-0.768 0.298-0.928 0.544-0.012 0.019-0.157 0.312-0.18 0.368 0-0.017 0-0.035 0-0.052 0.027-0.296 0.081-0.588 0.161-0.874 0.042-0.159 0.091-0.308 0.141-0.452 0.101 0.026 0.564 0.138 0.788 0.098s0.479-0.147 0.585-0.353c0.026-0.048 0.042-0.1 0.047-0.155s-0.002-0.109-0.020-0.16c-0.018-0.052-0.046-0.099-0.084-0.138s-0.082-0.071-0.133-0.092c-0.306-0.12-0.797 0.211-0.982 0.438-0.010 0.012-0.098 0.149-0.161 0.25 0.024-0.064 0.047-0.132 0.072-0.192 0.090-0.231 0.187-0.437 0.274-0.62 0.051-0.103 0.098-0.192 0.143-0.281 0.112-0.026 0.563-0.139 0.741-0.275s0.358-0.351 0.357-0.582c0.002-0.055-0.008-0.109-0.029-0.159s-0.052-0.096-0.092-0.133c-0.040-0.037-0.087-0.066-0.138-0.085s-0.106-0.025-0.16-0.021c-0.326 0.035-0.61 0.554-0.669 0.842-0.005 0.024-0.041 0.422-0.035 0.421h0.006c-0.045 0.082-0.093 0.17-0.143 0.267-0.091 0.181-0.192 0.384-0.288 0.615-0.105 0.245-0.195 0.496-0.271 0.751-0.087 0.288-0.148 0.583-0.182 0.882-0 0.004-0 0.007 0 0.011-0.019-0.094-0.081-0.356-0.088-0.376-0.099-0.276-0.451-0.751-0.78-0.741-0.054 0.003-0.107 0.018-0.156 0.043s-0.091 0.060-0.125 0.103-0.058 0.092-0.072 0.144c-0.014 0.053-0.016 0.108-0.007 0.161 0.031 0.229 0.243 0.419 0.434 0.527 0.215 0.121 0.748 0.168 0.79 0.172-0.027 0.305-0.034 0.611-0.021 0.917 0.007 0.178 0.019 0.357 0.034 0.537-0.019-0.081-0.037-0.154-0.040-0.163-0.099-0.276-0.452-0.751-0.779-0.74-0.054 0.003-0.107 0.018-0.156 0.043s-0.091 0.060-0.125 0.103-0.059 0.092-0.072 0.145c-0.014 0.053-0.016 0.108-0.007 0.161 0.031 0.23 0.243 0.42 0.434 0.527s0.647 0.159 0.768 0.17c0.006 0.069 0.011 0.138 0.019 0.206 0.031 0.33 0.064 0.659 0.087 0.984 0.008 0.114 0.011 0.227 0.016 0.339-0.017-0.072-0.032-0.132-0.035-0.141-0.099-0.276-0.448-0.751-0.78-0.741-0.054 0.003-0.108 0.018-0.156 0.043s-0.091 0.060-0.125 0.103c-0.034 0.043-0.059 0.092-0.072 0.145s-0.016 0.108-0.007 0.162c0.031 0.23 0.244 0.42 0.434 0.527s0.603 0.154 0.746 0.168c0 0.115 0 0.231 0 0.343-0.005 0.077-0.005 0.15-0.013 0.227s-0.015 0.151-0.022 0.225c-0.020 0.143-0.038 0.291-0.064 0.429-0.015 0.097-0.031 0.189-0.047 0.282-0.006-0.114-0.024-0.337-0.028-0.355-0.059-0.251-0.182-0.483-0.356-0.673-0.005-0.028-0.013-0.056-0.024-0.083-0.018-0.051-0.047-0.098-0.084-0.138s-0.083-0.071-0.133-0.092c-0.050-0.021-0.105-0.031-0.159-0.029s-0.108 0.015-0.157 0.038c-0.292 0.15-0.37 0.737-0.32 1.024 0 0.017 0.054 0.198 0.088 0.312-0.030-0.064-0.059-0.128-0.091-0.192-0.064-0.128-0.128-0.256-0.199-0.395l-0.11-0.198c-0.036-0.064-0.081-0.133-0.122-0.2-0.098-0.154-0.205-0.306-0.316-0.456 0.114-0.055 0.512-0.256 0.657-0.424s0.275-0.419 0.224-0.645c-0.010-0.053-0.032-0.104-0.063-0.149s-0.071-0.082-0.118-0.11c-0.047-0.028-0.099-0.046-0.153-0.053s-0.109-0.002-0.161 0.014c-0.311 0.104-0.477 0.673-0.474 0.965 0 0.019 0.026 0.229 0.042 0.344-0.064-0.090-0.134-0.18-0.205-0.269-0.205-0.256-0.42-0.508-0.634-0.761-0.064-0.077-0.128-0.155-0.192-0.233 0.040-0.019 0.522-0.248 0.681-0.436 0.141-0.167 0.275-0.419 0.224-0.645-0.010-0.054-0.031-0.104-0.063-0.149s-0.071-0.083-0.118-0.111c-0.047-0.028-0.099-0.046-0.153-0.053s-0.109-0.002-0.161 0.014c-0.311 0.104-0.477 0.672-0.474 0.965 0 0.022 0.038 0.324 0.051 0.4-0.142-0.171-0.283-0.343-0.414-0.518-0.179-0.236-0.342-0.483-0.489-0.74 0.019-0.009 0.522-0.245 0.685-0.438 0.141-0.167 0.275-0.419 0.224-0.645-0.010-0.053-0.031-0.104-0.063-0.149s-0.071-0.082-0.118-0.111c-0.047-0.028-0.099-0.046-0.153-0.053s-0.109-0.002-0.161 0.014c-0.312 0.104-0.477 0.672-0.474 0.965 0 0.023 0.042 0.348 0.053 0.406-0.008-0.015-0.019-0.029-0.028-0.045-0.14-0.262-0.256-0.536-0.348-0.818-0.052-0.155-0.094-0.307-0.128-0.455 0.099-0.034 0.546-0.196 0.712-0.353s0.32-0.384 0.293-0.616c-0.004-0.054-0.020-0.107-0.046-0.155s-0.062-0.090-0.105-0.123c-0.043-0.033-0.093-0.057-0.146-0.070s-0.108-0.014-0.162-0.004c-0.32 0.069-0.548 0.616-0.576 0.908 0 0.016 0 0.179 0.004 0.298-0.016-0.067-0.033-0.136-0.047-0.201-0.052-0.243-0.086-0.468-0.113-0.668-0.015-0.114-0.026-0.217-0.035-0.314 0.079-0.084 0.392-0.427 0.466-0.64s0.105-0.49-0.024-0.682c-0.029-0.046-0.067-0.086-0.112-0.117s-0.096-0.051-0.15-0.061-0.109-0.008-0.162 0.005c-0.053 0.013-0.103 0.037-0.146 0.071-0.252 0.209-0.202 0.799-0.093 1.071 0.009 0.024 0.198 0.374 0.202 0.37l0.005-0.005c0.007 0.093 0.016 0.192 0.028 0.302 0.024 0.2 0.052 0.427 0.099 0.672 0.049 0.264 0.113 0.525 0.192 0.782 0.086 0.288 0.199 0.567 0.335 0.835 0 0 0.004 0.006 0.005 0.010-0.064-0.069-0.263-0.253-0.28-0.265-0.235-0.176-0.791-0.378-1.059-0.188-0.044 0.033-0.080 0.074-0.107 0.122s-0.043 0.1-0.048 0.155c-0.005 0.054 0.002 0.109 0.020 0.161s0.046 0.099 0.084 0.139c0.141 0.175 0.423 0.216 0.641 0.203z"></path>
<path fill="#000" opacity="0.010000000000000002" d="M7.205 13.741c0.006 0 0.021-0.396 0.019-0.421-0.022-0.292-0.237-0.844-0.556-0.92-0.053-0.011-0.109-0.011-0.162 0s-0.104 0.034-0.148 0.066c-0.044 0.032-0.081 0.073-0.108 0.121s-0.044 0.1-0.049 0.154c-0.031 0.23 0.124 0.469 0.279 0.623 0.182 0.181 0.724 0.377 0.724 0.377z"></path>
<path fill="#000" opacity="0.010000000000000002" d="M30.020 20.371c-0.216 0.008-0.664-0.179-0.664-0.179s0.212-0.256 0.229-0.272c0.18-0.168 0.627-0.387 0.868-0.256 0.039 0.024 0.073 0.055 0.1 0.093s0.045 0.080 0.054 0.125c0.009 0.045 0.008 0.091-0.002 0.136s-0.029 0.087-0.057 0.124c-0.112 0.163-0.344 0.223-0.528 0.23z"></path>
<path fill="#000" opacity="0.010000000000000002" d="M29.351 21.616c-0.202-0.047-0.559-0.32-0.588-0.344-0.157 0.205-0.328 0.398-0.512 0.58-0.106 0.107-0.215 0.211-0.326 0.314 0.058-0.040 0.109-0.074 0.118-0.078 0.218-0.115 0.707-0.208 0.904-0.015 0.032 0.033 0.056 0.072 0.072 0.116s0.022 0.089 0.019 0.135-0.016 0.090-0.038 0.131c-0.022 0.040-0.052 0.076-0.088 0.104-0.15 0.125-0.39 0.121-0.569 0.079s-0.491-0.271-0.572-0.332c-0.044 0.039-0.086 0.079-0.128 0.117-0.207 0.187-0.415 0.372-0.614 0.56-0.070 0.064-0.136 0.134-0.203 0.201 0.051-0.035 0.095-0.064 0.102-0.068 0.218-0.115 0.708-0.207 0.905-0.014 0.032 0.033 0.056 0.072 0.072 0.115s0.022 0.089 0.019 0.135c-0.003 0.046-0.016 0.090-0.038 0.131s-0.052 0.076-0.088 0.104c-0.15 0.128-0.39 0.122-0.57 0.080s-0.461-0.249-0.557-0.32c-0.064 0.071-0.133 0.143-0.192 0.214-0.041 0.050-0.083 0.095-0.121 0.148l-0.115 0.152c-0.069 0.099-0.141 0.202-0.207 0.3-0.046 0.068-0.088 0.134-0.132 0.201 0.069-0.067 0.207-0.192 0.22-0.204 0.198-0.147 0.668-0.312 0.892-0.152 0.036 0.028 0.067 0.063 0.089 0.103s0.035 0.085 0.039 0.131c0.004 0.046-0.002 0.092-0.017 0.135s-0.039 0.083-0.071 0.116c-0.128 0.146-0.367 0.179-0.551 0.165-0.202-0.015-0.582-0.223-0.629-0.249-0.071 0.11-0.139 0.218-0.201 0.32-0.046 0.076-0.090 0.149-0.132 0.22l-0.16-0.064c0.048-0.078 0.099-0.159 0.153-0.244 0.072-0.112 0.15-0.23 0.232-0.351-0.102-0.095-0.197-0.197-0.287-0.303-0.188 0.091-0.59 0.128-0.64 0.128 0 0.128 0.005 0.256 0.010 0.378 0 0.064 0.005 0.124 0.008 0.184l-0.169-0.064c0-0.038 0-0.074 0-0.113 0-0.133 0-0.275 0-0.421-0.052-0.009-0.48-0.084-0.648-0.198-0.152-0.104-0.32-0.278-0.328-0.472-0.004-0.046 0.002-0.092 0.017-0.135s0.039-0.083 0.070-0.117c0.031-0.033 0.070-0.060 0.112-0.078s0.088-0.026 0.134-0.025c0.275 0.014 0.539 0.436 0.603 0.675 0.004 0.014 0.027 0.171 0.041 0.271 0-0.060 0-0.118 0.003-0.179 0-0.121 0.009-0.242 0.015-0.372 0.006-0.064 0.011-0.128 0.016-0.192s0.016-0.128 0.024-0.196c0.021-0.152 0.051-0.305 0.083-0.459-0.106 0-0.483-0.017-0.65-0.097s-0.356-0.226-0.395-0.417c-0.011-0.045-0.012-0.091-0.004-0.136s0.026-0.088 0.052-0.126c0.026-0.038 0.059-0.070 0.099-0.094s0.083-0.039 0.128-0.045c0.275-0.028 0.599 0.349 0.698 0.576 0.006 0.014 0.060 0.184 0.086 0.278 0.020-0.092 0.040-0.184 0.064-0.276 0.069-0.267 0.146-0.536 0.222-0.804 0.024-0.083 0.045-0.164 0.069-0.246-0.038 0-0.486-0.008-0.673-0.097-0.166-0.079-0.357-0.227-0.395-0.417-0.011-0.045-0.012-0.091-0.004-0.136s0.026-0.088 0.052-0.126c0.026-0.038 0.060-0.070 0.099-0.094s0.083-0.039 0.128-0.045c0.275-0.028 0.599 0.349 0.698 0.576 0.007 0.017 0.083 0.262 0.099 0.325 0.050-0.18 0.098-0.362 0.138-0.541 0.055-0.243 0.095-0.489 0.118-0.737-0.018 0-0.486-0.006-0.677-0.098-0.166-0.079-0.357-0.226-0.396-0.417-0.011-0.045-0.012-0.091-0.004-0.136s0.026-0.088 0.052-0.126c0.026-0.038 0.060-0.070 0.099-0.094s0.083-0.039 0.128-0.045c0.275-0.028 0.599 0.35 0.698 0.576 0.008 0.018 0.090 0.282 0.101 0.33 0-0.015 0.004-0.029 0.005-0.044 0.017-0.249 0.011-0.5-0.017-0.748-0.013-0.137-0.034-0.268-0.057-0.394-0.087 0.008-0.486 0.039-0.668-0.024s-0.379-0.186-0.439-0.371c-0.016-0.043-0.022-0.089-0.019-0.135s0.016-0.090 0.038-0.131c0.022-0.040 0.052-0.076 0.088-0.104s0.078-0.048 0.123-0.059c0.269-0.058 0.634 0.282 0.757 0.495 0.006 0.012 0.064 0.137 0.101 0.229-0.011-0.057-0.022-0.116-0.033-0.17-0.044-0.204-0.097-0.388-0.145-0.551-0.028-0.092-0.056-0.175-0.082-0.256-0.090-0.037-0.448-0.192-0.576-0.328s-0.251-0.339-0.219-0.531c0.006-0.046 0.021-0.089 0.045-0.129s0.056-0.073 0.094-0.099c0.038-0.026 0.081-0.044 0.126-0.052s0.092-0.007 0.136 0.004c0.266 0.073 0.433 0.542 0.444 0.788 0 0.022-0.022 0.356-0.027 0.354h-0.006c0.027 0.074 0.055 0.154 0.084 0.241 0.052 0.162 0.109 0.346 0.157 0.549 0.055 0.219 0.098 0.441 0.128 0.666 0.034 0.251 0.045 0.504 0.034 0.757-0 0.003-0 0.006 0 0.009 0.028-0.076 0.115-0.285 0.123-0.301 0.118-0.216 0.475-0.564 0.746-0.512 0.045 0.010 0.087 0.029 0.124 0.057s0.067 0.062 0.090 0.102 0.036 0.084 0.041 0.13c0.004 0.046-0.001 0.092-0.016 0.135-0.056 0.187-0.256 0.32-0.431 0.384-0.195 0.072-0.645 0.040-0.68 0.037-0.022 0.257-0.061 0.511-0.116 0.763-0.029 0.147-0.064 0.294-0.1 0.442 0.026-0.064 0.051-0.122 0.055-0.128 0.119-0.216 0.476-0.564 0.746-0.512 0.045 0.010 0.087 0.029 0.124 0.056s0.068 0.062 0.090 0.102c0.023 0.040 0.036 0.084 0.041 0.13s-0.001 0.092-0.016 0.135c-0.056 0.186-0.256 0.316-0.431 0.38s-0.559 0.045-0.66 0.038c-0.014 0.056-0.028 0.113-0.043 0.169-0.070 0.27-0.141 0.54-0.203 0.806-0.022 0.094-0.040 0.187-0.058 0.28 0.024-0.058 0.044-0.106 0.047-0.113 0.119-0.216 0.476-0.564 0.747-0.512 0.045 0.010 0.087 0.029 0.124 0.057s0.067 0.062 0.090 0.102 0.036 0.084 0.041 0.13c0.004 0.046-0.001 0.092-0.016 0.135-0.056 0.186-0.256 0.316-0.431 0.38s-0.521 0.047-0.64 0.040c-0.016 0.096-0.032 0.192-0.044 0.286-0.006 0.064-0.016 0.128-0.019 0.192l-0.012 0.192c-0.003 0.122-0.007 0.246-0.007 0.365 0 0.083 0 0.161 0 0.24 0.020-0.093 0.064-0.276 0.070-0.291 0.082-0.201 0.214-0.377 0.384-0.512 0.008-0.022 0.018-0.044 0.031-0.064 0.022-0.040 0.052-0.075 0.089-0.103s0.078-0.048 0.123-0.058c0.045-0.011 0.091-0.012 0.136-0.003s0.088 0.026 0.125 0.052c0.223 0.164 0.209 0.662 0.128 0.896-0.004 0.013-0.071 0.158-0.115 0.248 0.034-0.049 0.064-0.097 0.101-0.148 0.069-0.099 0.141-0.197 0.218-0.302l0.118-0.15c0.038-0.051 0.085-0.1 0.128-0.15 0.102-0.115 0.211-0.227 0.323-0.337-0.088-0.061-0.394-0.281-0.489-0.439s-0.173-0.384-0.1-0.566c0.016-0.043 0.040-0.082 0.072-0.115s0.070-0.059 0.112-0.076 0.088-0.025 0.133-0.024c0.046 0.001 0.090 0.012 0.131 0.032 0.244 0.128 0.307 0.622 0.265 0.865 0 0.015-0.052 0.186-0.081 0.279 0.068-0.064 0.135-0.131 0.206-0.195 0.205-0.186 0.417-0.367 0.628-0.548l0.192-0.168c-0.031-0.021-0.401-0.275-0.508-0.453-0.095-0.157-0.172-0.384-0.1-0.566 0.016-0.043 0.040-0.082 0.072-0.115s0.070-0.059 0.112-0.076c0.042-0.017 0.087-0.025 0.133-0.024s0.090 0.012 0.131 0.032c0.244 0.128 0.307 0.622 0.265 0.865 0 0.019-0.075 0.264-0.096 0.326 0.141-0.123 0.281-0.248 0.413-0.376 0.183-0.173 0.355-0.359 0.513-0.555-0.015-0.010-0.401-0.273-0.512-0.455-0.095-0.158-0.173-0.384-0.101-0.566 0.016-0.043 0.040-0.082 0.072-0.115s0.070-0.059 0.113-0.076c0.043-0.017 0.088-0.025 0.134-0.024s0.091 0.013 0.132 0.033c0.244 0.128 0.307 0.622 0.265 0.865-0.003 0.019-0.081 0.284-0.098 0.33 0.009-0.011 0.019-0.022 0.028-0.033 0.151-0.199 0.285-0.411 0.399-0.633 0.064-0.122 0.119-0.243 0.17-0.36-0.077-0.042-0.428-0.236-0.544-0.388s-0.214-0.364-0.162-0.552c0.011-0.045 0.031-0.087 0.059-0.123s0.063-0.067 0.104-0.088 0.085-0.035 0.131-0.038c0.046-0.003 0.092 0.003 0.135 0.018 0.256 0.101 0.373 0.584 0.358 0.832 0 0.013-0.024 0.148-0.042 0.246 0.022-0.053 0.045-0.108 0.064-0.16 0.076-0.192 0.133-0.378 0.183-0.54 0.028-0.092 0.051-0.177 0.071-0.256-0.054-0.081-0.269-0.407-0.302-0.593s-0.022-0.422 0.111-0.564c0.030-0.035 0.067-0.063 0.109-0.082s0.087-0.030 0.133-0.031 0.091 0.008 0.134 0.026c0.042 0.018 0.080 0.045 0.111 0.078 0.182 0.208 0.064 0.691-0.064 0.902-0.011 0.019-0.215 0.285-0.218 0.281l-0.004-0.005c-0.018 0.077-0.039 0.158-0.064 0.247-0.040 0.159-0.097 0.346-0.168 0.543-0.075 0.213-0.163 0.422-0.262 0.625-0.11 0.228-0.241 0.445-0.39 0.65-0.002 0.003-0.004 0.005-0.006 0.007 0.064-0.047 0.253-0.175 0.268-0.183 0.218-0.115 0.708-0.208 0.905-0.015 0.032 0.033 0.056 0.072 0.072 0.116s0.022 0.089 0.019 0.135c-0.003 0.046-0.016 0.090-0.038 0.131s-0.052 0.076-0.088 0.104c-0.15 0.125-0.39 0.122-0.57 0.079z"></path>
<path fill="#000" opacity="0.010000000000000002" d="M25.417 18.68c-0.005 0 0.035-0.332 0.040-0.353 0.058-0.239 0.31-0.669 0.585-0.69 0.046-0.002 0.092 0.005 0.134 0.022s0.081 0.042 0.114 0.075 0.057 0.072 0.073 0.115c0.016 0.043 0.023 0.089 0.020 0.135-0.005 0.192-0.165 0.373-0.315 0.481-0.176 0.126-0.652 0.216-0.652 0.217z"></path>
<path fill="#fff" d="M15.753 3.75l-0.597 0.137-0.546 1.080-0.865-0.247-0.024 0.236 1.075 0.446 0.385-0.534v0.931l1.155 0.050 0.236-1.055 0.422 0.372v0.98h0.248l0.149-1.229-0.658-1.068-0.98-0.1z"></path>
<path fill="#000" d="M15.744 4.096l0.162 0.304c0 0 0.448 0.142 0.527 0.162s0.325-0.061 0.527-0.101c0.202-0.040 0.852 0.284 0.852 0.284l0.568 0.020-0.304-0.365-1.095-0.163-0.568 0.183-0.384-0.102 0.082-0.159-0.182-0.284-0.184 0.22z"></path>
<path fill="#fff" d="M15.802 3.663c-0.033-0.006-0.067 0.001-0.095 0.019s-0.047 0.048-0.054 0.080c-0.024 0.124-0.049 0.435-0.049 0.435l0.298-0.087 0.348 0.149c0 0 0.111-0.323 0.049-0.435s-0.348-0.261-0.497-0.162z"></path>
<path fill="#fff" d="M15.74 3.49c0 0 0.037 0.348 0.050 0.472s0.087 0.31 0.136 0.273c0.049-0.037 0.223-0.384 0.223-0.384l0.087-0.236-0.497-0.125z"></path>
<path fill="#fff" d="M15.744 2.982c0 0-0.109-0.010-0.109 0.168s0.079 0.188 0.079 0.188l0.030-0.356z"></path>
<path fill="#fff" d="M16.472 3.131c0.014 0.001 0.028 0.005 0.040 0.011s0.023 0.016 0.032 0.027c0.008 0.011 0.014 0.024 0.017 0.038s0.003 0.028-0 0.042c-0.020 0.109-0.207 0.256-0.207 0.256l0.118-0.374z"></path>
<path fill="#fff" d="M16.113 2.624c0 0-0.198-0.050-0.31 0.186s-0.087 0.522-0.064 0.683c0.023 0.161 0.174 0.236 0.323 0.236s0.372-0.31 0.422-0.546c0.050-0.236 0.014-0.559-0.371-0.559z"></path>
<path fill="#fff" d="M13.506 4.582l0.049 0.372 0.223 0.025-0.037-0.422-0.236 0.025z"></path>
<path fill="#fff" d="M13.746 4.577l0.090-0.012 0.018 0.198-0.090 0.012-0.018-0.198z"></path>
<path fill="#fff" d="M16.994 6.147l-0.136 0.213 0.035 0.213 0.118-0.011 0.202-0.071 0.029-0.343h-0.248z"></path>
<path fill="#263238" d="M15.181 5.799l-0.088 0.383-0.972 1.279 0.652 1.836 0.166-0.036-0.142-1.753 0.794-0.841 0.095 0.059 0.003 0.938 0.909 1.537 0.189-0.048-0.426-1.48 0.024-1.575-0.049-0.25-1.155-0.050z"></path>
<path fill="#fff" d="M14.774 9.297l-0.142 0.201c0 0-0.225 0.107-0.261 0.166s0.192 0.047 0.192 0.047l0.261-0.024 0.273-0.177-0.154-0.249-0.168 0.036z"></path>
<path fill="#000" d="M13.387 2.406c0 0-0.119 0.271-0.611 0.458s-1.203 0.288-1.389 0.678c-0.186 0.39-0.186 0.356-0.22 0.576-0.018 0.128-0.078 0.247-0.17 0.339 0 0 0.17 0.017 0.256-0.101s0.119-0.458 0.256-0.509c0.137-0.051 0.386-0.134 0.386-0.134s-0.237 0.204-0.256 0.305c-0.019 0.102-0.034 0.339-0.068 0.492-0.015 0.083-0.055 0.16-0.116 0.219 0 0 0.22 0 0.288-0.152s0-0.356 0.22-0.509c0.22-0.153 0.458-0.084 0.832-0.068s0.729-0.203 0.729-0.203l-0.138-1.39z"></path>
<path fill="#fff" d="M16.598 9.202l-0.163 0.542 0.405-0.016-0.052-0.574-0.189 0.048z"></path>
<path fill="#263238" d="M15.977 3.099c-0.007 0.032-0.029 0.054-0.051 0.050s-0.033-0.035-0.026-0.064c0.007-0.029 0.029-0.054 0.051-0.050s0.033 0.032 0.026 0.064z"></path>
<path fill="#263238" d="M16.273 3.169c-0.007 0.032-0.029 0.054-0.051 0.050s-0.033-0.035-0.026-0.064 0.029-0.054 0.051-0.050c0.022 0.004 0.033 0.031 0.026 0.064z"></path>
<path fill="#263238" d="M15.701 2.904l0.711-0.088c0 0-0.029 0.118 0.010 0.148s0.049 0.168 0.049 0.168l-0.029 0.158 0.158-0.276c0 0 0.049-0.218 0.010-0.287-0.013-0.021-0.030-0.039-0.051-0.052s-0.044-0.023-0.068-0.027c-0.042-0.064-0.102-0.115-0.172-0.146s-0.148-0.042-0.224-0.031c-0.276 0.029-0.395 0.168-0.395 0.276v0.157z"></path>
<path fill="#808080" d="M15.176 29.773l1.254-7.198-4.735-4.345 1.718-5.855-1.839 0.041-0.777 0.695-1.624-0.040-0.22 0.792-0.445-0.056-0.154 0.278-0.76 1.517-0.395 1.515-1.472 1.84-0.161 4.342-2.373 3.425-0.746 3.049h12.728z"></path>
<path fill="#ababab" d="M25.86 29.773l-1.571-3.445 2.56 1.706v-2.73l-1.505-1.782 0.223-2.005-2.285-4.345-0.114-1.504-0.779-0.725-4.001 0.289-0.285-1.405-2.56-1.448-1.536 3.719-1.415 0.626 0.997 1.367-0.161 1.084 0.333 1.673-5.568 1.226c0 0-0.056 2.674-0.056 2.897s-1.114 1.504-1.114 1.504l-0.052 3.299h18.89z"></path>
<path fill="#ccc" d="M28.961 29.773l-0.665-0.291-0.836-1.782-1.003-0.724-0.445-1.059-0.445-0.836-2.381-1.163 0.369 5.855h5.406z"></path>
<path fill="#ccc" d="M4.042 29.766h2.977l0.054-1.732-0.278-1.002v-2.674l-0.668-0.111-0.557 0.613-0.891 0.502-1.931 4.413h1.295v-0.007z"></path>
<path fill="#fff" d="M7.018 29.766l0.054-1.732-0.278-1.002v-2.674l-0.557 3.565-0.502 0.167-0.167 1.003-0.104 0.674h1.554z"></path>
<path fill="#fff" d="M16.551 27.79c0.317-0.043 0.626-0.127 0.921-0.251 0.235-0.096 0.442-0.25 0.602-0.448 0.019-0.025 0.036-0.051 0.052-0.077l-0.44-1.984-0.867-0.756-0.145-0.649-0.832-0.649-0.288 1.010-0.469 0.649-0.036 2.38 0.448 0.856c0.353-0.003 0.705-0.030 1.053-0.081z"></path>
<path fill="#ccc" d="M13.584 27.737c0.598 0.091 1.203 0.136 1.808 0.134 0.122 0 0.241-0.003 0.358-0.008l-0.013-0.669-0.216-0.288v-2.056l0.361-0.361-0.036-1.514-0.433 0.794-0.576 0.504-0.361 1.046-0.576 0.685-0.145 0.721-0.685 0.576-0.273 0.291c0.258 0.055 0.521 0.103 0.787 0.143z"></path>
<path fill="#fff" d="M24.006 29.773l3.024-0.006-3.916-2.346-0.947-2.284-0.78-0.111-0.668-0.891-0.335 0.334 0.223 1.949-0.835 1.393v0.892l-0.39 1.002 1.884 0.068h2.739z"></path>
<path fill="#ccc" d="M22.49 29.769l-0.143-0.797 0.225-0.47-0.061-0.92 0.184 0.184 1.247 2.003h-1.451z"></path>
<path fill="#fff" d="M22.51 27.582l0.879 0.429 0.347 0.429 1.002 0.511 0.695 0.429 0.427 0.392-1.919-0.004-1.431-2.187z"></path>
<path fill="#ccc" d="M19.773 27.811v0.892l-0.42 1.053 1.59 0.020-0.335-1.909 0.669-0.613-0.892-2.785 0.223 1.949-0.835 1.393z"></path>
<path fill="#ccc" d="M13.999 12.24l-1.306 1.428-0.045-2.618 1.3-1.578 0.051 2.768z"></path>
<path fill="#ccc" d="M13.093 17.956l1.335-1.178c0.096-0.083 0.202-0.153 0.317-0.207 0.144-0.068 0.294-0.122 0.448-0.16 0.198-0.048 0.399-0.081 0.602-0.1 0.255-0.024 0.512-0.033 0.768-0.028 0.62 0.008 1.238 0.063 1.85 0.163 0.508 0.084 1.011 0.2 1.505 0.348 0.444 0.133 0.832 0.275 1.167 0.406s0.611 0.252 0.835 0.34l-1.732 1.123c-0.212-0.083-0.475-0.196-0.79-0.32s-0.683-0.256-1.104-0.384c-0.467-0.139-0.942-0.248-1.423-0.326-0.579-0.094-1.164-0.145-1.751-0.151-0.243-0.004-0.486 0.005-0.728 0.028-0.192 0.018-0.382 0.050-0.569 0.095-0.147 0.036-0.29 0.087-0.427 0.152-0.109 0.052-0.21 0.119-0.3 0.199z"></path>
<path fill="#ccc" d="M17.344 27.591l-1.507 0.576c0.132-0.049 0.258-0.112 0.376-0.187 0.105-0.067 0.199-0.149 0.28-0.244 0.076-0.090 0.135-0.193 0.174-0.304 0.040-0.118 0.059-0.243 0.055-0.368-0.001-0.218-0.068-0.431-0.192-0.61-0.159-0.211-0.362-0.385-0.595-0.509-0.336-0.183-0.689-0.333-1.053-0.448-0.435-0.147-0.96-0.291-1.578-0.442-0.841-0.196-1.665-0.46-2.463-0.791-0.721-0.295-1.397-0.689-2.010-1.169-0.563-0.44-1.027-0.994-1.361-1.626-0.339-0.671-0.514-1.413-0.512-2.165-0.003-0.305 0.018-0.611 0.064-0.913 0.044-0.29 0.112-0.576 0.205-0.855 0.091-0.273 0.206-0.538 0.344-0.79 0.139-0.253 0.299-0.494 0.479-0.719l1.037-1.301c-0.383 0.476-0.677 1.017-0.869 1.596-0.099 0.295-0.172 0.597-0.219 0.904-0.047 0.32-0.069 0.643-0.064 0.966-0.001 0.797 0.187 1.583 0.547 2.294 0.354 0.67 0.846 1.257 1.443 1.724 0.607 0.488 1.328 0.896 2.13 1.237 0.844 0.351 1.716 0.632 2.606 0.841 0.656 0.16 1.208 0.314 1.669 0.47 0.386 0.123 0.759 0.283 1.114 0.479 0.287 0.167 0.492 0.344 0.628 0.538 0.132 0.189 0.204 0.415 0.205 0.646 0.004 0.132-0.015 0.264-0.058 0.39-0.041 0.117-0.103 0.225-0.183 0.32-0.085 0.1-0.185 0.186-0.296 0.256-0.125 0.081-0.258 0.148-0.397 0.201z"></path>
<path fill="#fff" d="M9.926 22.213c0.607 0.488 1.328 0.896 2.13 1.237 0.844 0.351 1.716 0.632 2.606 0.841 0.656 0.16 1.208 0.314 1.668 0.47 0.386 0.123 0.759 0.283 1.114 0.479 0.287 0.167 0.492 0.344 0.628 0.538 0.132 0.189 0.204 0.415 0.205 0.646 0.011 0.24-0.062 0.476-0.206 0.668-0.159 0.198-0.366 0.352-0.602 0.448-0.294 0.123-0.603 0.208-0.919 0.251-0.384 0.056-0.771 0.083-1.159 0.081-0.605 0.001-1.21-0.043-1.808-0.134-0.575-0.087-1.143-0.209-1.703-0.365-0.544-0.152-1.062-0.327-1.544-0.512s-0.931-0.384-1.334-0.576l-0.818 3.475h14.7c0.458-0.51 0.816-1.102 1.057-1.744 0.252-0.684 0.369-1.411 0.344-2.139-0.022-0.779-0.14-1.472-0.372-2.093-0.231-0.621-0.591-1.187-1.056-1.659-0.478-0.49-1.088-0.922-1.847-1.308s-1.673-0.726-2.752-1.034c-0.695-0.202-1.302-0.396-1.822-0.582-0.444-0.154-0.877-0.337-1.297-0.549-0.346-0.181-0.605-0.361-0.778-0.545s-0.261-0.372-0.265-0.569c-0.005-0.161 0.030-0.321 0.101-0.466 0.089-0.168 0.222-0.309 0.384-0.408 0.233-0.141 0.491-0.237 0.759-0.285 0.404-0.076 0.816-0.108 1.227-0.095 0.62 0.008 1.238 0.063 1.85 0.163 0.508 0.084 1.011 0.2 1.505 0.348 0.444 0.133 0.832 0.275 1.167 0.406s0.611 0.252 0.835 0.34l0.952-4.288c-0.299-0.128-0.621-0.256-0.974-0.378s-0.737-0.236-1.158-0.339c-0.422-0.103-0.883-0.192-1.389-0.269s-1.062-0.132-1.67-0.168l-0.056-2.536-3.677-0.089 0.051 2.768c-0.894 0.123-1.767 0.371-2.592 0.737-0.711 0.314-1.359 0.753-1.915 1.295-0.509 0.502-0.909 1.104-1.175 1.768-0.269 0.686-0.399 1.418-0.384 2.155-0.001 0.797 0.187 1.583 0.547 2.294 0.354 0.67 0.846 1.257 1.443 1.724v0z"></path>
<path fill="#ccc" d="M8.184 29.76l0.818-3.477-1.048 0.655-0.667 2.822h0.897z"></path>
<path fill="#263238" d="M25.866 28.921c-0.064-0.012-0.131 0.001-0.186 0.037l0.287 0.172c0.008-0.020 0.011-0.042 0.010-0.063s-0.006-0.043-0.016-0.062c-0.009-0.020-0.023-0.037-0.039-0.051s-0.035-0.025-0.056-0.032v0z"></path>
<path fill="#263238" d="M25.946 26.655c0 0 0.038-0.161 0.040-0.172 0.013-0.121-0.034-0.363-0.159-0.419-0.021-0.009-0.044-0.013-0.066-0.012s-0.045 0.006-0.065 0.016c-0.020 0.010-0.039 0.024-0.053 0.041s-0.025 0.038-0.032 0.059c-0.030 0.091 0.015 0.201 0.067 0.276 0.061 0.088 0.268 0.209 0.268 0.209z"></path>
<path fill="#263238" d="M27.844 27.64c0.078-0.094 0.172-0.32 0.099-0.436-0.013-0.019-0.029-0.035-0.048-0.047s-0.041-0.020-0.063-0.023c-0.023-0.003-0.045-0.001-0.067 0.005s-0.042 0.017-0.059 0.032c-0.035 0.035-0.061 0.077-0.078 0.123s-0.023 0.096-0.018 0.144c0 0.107 0.108 0.32 0.109 0.32s0.123-0.111 0.127-0.119z"></path>
<path fill="#263238" d="M25.207 28.529c0.090 0.058 0.189 0.101 0.293 0.128-0.008 0.047-0.017 0.095-0.027 0.14 0 0.012-0.006 0.023-0.008 0.035l0.060 0.036c0.004-0.019 0.008-0.038 0.012-0.056 0.015-0.075 0.027-0.151 0.037-0.228 0.103 0.038 0.211 0.059 0.32 0.064 0.049-0.001 0.098-0.013 0.142-0.036s0.083-0.054 0.114-0.092c0.012-0.019 0.020-0.041 0.024-0.063s0.002-0.046-0.004-0.067c-0.006-0.022-0.017-0.042-0.031-0.060s-0.032-0.032-0.053-0.042c-0.124-0.058-0.337 0.064-0.421 0.153-0.005 0.006-0.058 0.076-0.086 0.116 0.006-0.047 0.012-0.093 0.016-0.14 0.012-0.136 0.020-0.274 0.029-0.412 0-0.042 0.006-0.084 0.009-0.128 0.018 0.006 0.228 0.077 0.33 0.064 0.090-0.010 0.204-0.047 0.256-0.128 0.012-0.019 0.020-0.041 0.024-0.063s0.002-0.045-0.004-0.067c-0.006-0.022-0.017-0.042-0.031-0.060s-0.032-0.032-0.053-0.042c-0.123-0.058-0.337 0.064-0.421 0.153-0.006 0.007-0.082 0.109-0.1 0.135 0.006-0.092 0.014-0.184 0.025-0.275 0.014-0.122 0.035-0.243 0.064-0.363 0.008 0 0.228 0.077 0.332 0.064 0.091-0.010 0.204-0.047 0.256-0.128 0.012-0.019 0.020-0.041 0.024-0.063s0.002-0.045-0.004-0.067c-0.006-0.022-0.017-0.042-0.031-0.060s-0.032-0.032-0.053-0.042c-0.123-0.059-0.337 0.064-0.42 0.153-0.007 0.007-0.088 0.116-0.102 0.137 0-0.007 0.003-0.014 0.005-0.021 0.033-0.119 0.077-0.235 0.131-0.346 0.029-0.064 0.060-0.12 0.091-0.175 0.040 0.018 0.221 0.099 0.316 0.099s0.207-0.024 0.266-0.101c0.014-0.018 0.025-0.038 0.031-0.060s0.007-0.045 0.004-0.067-0.012-0.044-0.024-0.063c-0.012-0.019-0.028-0.035-0.047-0.048-0.116-0.072-0.342 0.027-0.435 0.106-0.005 0.005-0.052 0.054-0.085 0.090 0.015-0.025 0.029-0.051 0.044-0.074 0.054-0.088 0.109-0.164 0.159-0.233 0.028-0.038 0.054-0.072 0.079-0.104 0.11-0.002 0.22-0.021 0.325-0.057 0.081-0.042 0.173-0.117 0.192-0.212 0.004-0.022 0.004-0.045-0.001-0.067s-0.014-0.043-0.028-0.061c-0.013-0.018-0.030-0.033-0.050-0.044s-0.041-0.018-0.063-0.021c-0.136-0.010-0.291 0.182-0.337 0.294-0.004 0.010-0.049 0.17-0.046 0.17h0.003c-0.025 0.030-0.051 0.064-0.079 0.099-0.051 0.067-0.108 0.143-0.164 0.23-0.061 0.093-0.118 0.19-0.168 0.289-0.057 0.111-0.104 0.228-0.141 0.348 0 0 0 0.003 0 0.004 0-0.040-0.006-0.152-0.007-0.161-0.020-0.12-0.128-0.341-0.264-0.362-0.023-0.003-0.045-0.001-0.067 0.006s-0.042 0.018-0.059 0.033c-0.017 0.015-0.031 0.033-0.041 0.054s-0.015 0.043-0.015 0.066c-0.005 0.097 0.068 0.192 0.138 0.249 0.079 0.064 0.294 0.128 0.311 0.128-0.034 0.123-0.060 0.248-0.077 0.374-0.011 0.074-0.019 0.148-0.026 0.223 0-0.035-0.004-0.064-0.005-0.070-0.020-0.12-0.128-0.342-0.264-0.362-0.023-0.003-0.045-0.001-0.067 0.006s-0.042 0.018-0.059 0.033c-0.017 0.015-0.031 0.033-0.040 0.054s-0.015 0.043-0.015 0.066c-0.004 0.096 0.069 0.192 0.138 0.248 0.093 0.058 0.195 0.101 0.301 0.128 0 0.028-0.006 0.057-0.008 0.086-0.012 0.138-0.023 0.275-0.038 0.409-0.005 0.047-0.012 0.094-0.019 0.14 0-0.031 0-0.056 0-0.060-0.020-0.12-0.128-0.341-0.264-0.362-0.023-0.003-0.045-0.001-0.067 0.006s-0.042 0.018-0.059 0.033c-0.017 0.015-0.031 0.033-0.040 0.054s-0.015 0.043-0.015 0.066c-0.012 0.092 0.061 0.186 0.131 0.244z"></path>
<path fill="#263238" d="M28.781 27.395c-0.108-0.084-0.343-0.010-0.444 0.059-0.009 0.006-0.134 0.115-0.132 0.116-0.037 0.011-0.077 0.024-0.12 0.038-0.079 0.028-0.169 0.060-0.264 0.102-0.103 0.043-0.203 0.093-0.3 0.148-0.109 0.061-0.213 0.132-0.309 0.212l-0.003 0.003c0.021-0.034 0.079-0.128 0.082-0.138 0.050-0.111 0.081-0.356-0.020-0.448-0.017-0.015-0.037-0.026-0.059-0.032s-0.045-0.008-0.067-0.005c-0.022 0.003-0.044 0.011-0.063 0.023s-0.036 0.028-0.049 0.047c-0.057 0.077-0.048 0.196-0.022 0.284 0.030 0.099 0.176 0.266 0.188 0.28-0.097 0.083-0.187 0.173-0.271 0.269-0.050 0.056-0.098 0.113-0.145 0.171 0.018-0.029 0.033-0.056 0.035-0.060 0.050-0.111 0.081-0.356-0.020-0.448-0.017-0.015-0.037-0.026-0.059-0.032s-0.045-0.008-0.067-0.005c-0.022 0.003-0.044 0.011-0.063 0.023s-0.036 0.028-0.049 0.047c-0.057 0.077-0.048 0.197-0.022 0.284 0.046 0.099 0.107 0.191 0.181 0.272l-0.054 0.064c-0.086 0.109-0.171 0.217-0.256 0.32-0.030 0.036-0.064 0.072-0.093 0.106l0.030-0.052c0.050-0.111 0.081-0.355-0.020-0.448-0.017-0.015-0.037-0.026-0.059-0.032s-0.045-0.008-0.067-0.005c-0.022 0.003-0.044 0.011-0.063 0.023s-0.036 0.028-0.049 0.047c-0.057 0.077-0.048 0.196-0.022 0.284 0.043 0.101 0.102 0.194 0.174 0.276l-0.064 0.069 0.056 0.034c0.039-0.040 0.077-0.083 0.115-0.128 0.065 0.087 0.143 0.164 0.232 0.228 0.042 0.026 0.089 0.042 0.138 0.047s0.098 0 0.145-0.015c0.021-0.009 0.039-0.022 0.055-0.039s0.027-0.036 0.034-0.058c0.007-0.021 0.010-0.044 0.008-0.067s-0.009-0.044-0.020-0.064c-0.071-0.117-0.32-0.133-0.435-0.104-0.008 0-0.090 0.031-0.136 0.049 0.030-0.036 0.061-0.071 0.090-0.108 0.085-0.106 0.168-0.217 0.252-0.327l0.077-0.1c0.012 0.015 0.148 0.192 0.239 0.237 0.042 0.026 0.089 0.042 0.138 0.047s0.098 0 0.145-0.015c0.021-0.009 0.039-0.022 0.055-0.039s0.027-0.036 0.034-0.058c0.007-0.021 0.010-0.044 0.008-0.067s-0.009-0.044-0.020-0.064c-0.070-0.117-0.316-0.133-0.435-0.105-0.009 0-0.128 0.045-0.157 0.058 0.056-0.074 0.113-0.146 0.173-0.216 0.079-0.094 0.165-0.183 0.256-0.266 0.005 0.007 0.147 0.192 0.24 0.239 0.081 0.042 0.195 0.074 0.282 0.032 0.021-0.009 0.040-0.022 0.055-0.039s0.027-0.036 0.034-0.058c0.007-0.021 0.010-0.044 0.008-0.067s-0.009-0.044-0.020-0.064c-0.071-0.117-0.317-0.133-0.435-0.105-0.010 0-0.138 0.049-0.161 0.059l0.016-0.015c0.093-0.081 0.194-0.153 0.3-0.216 0.058-0.036 0.116-0.064 0.173-0.095 0.023 0.036 0.128 0.203 0.209 0.256s0.186 0.094 0.277 0.064c0.022-0.007 0.042-0.018 0.059-0.033s0.031-0.033 0.040-0.054 0.015-0.043 0.015-0.066c0-0.023-0.004-0.045-0.013-0.066-0.058-0.124-0.3-0.166-0.421-0.152-0.007 0-0.073 0.017-0.121 0.029 0.026-0.013 0.052-0.026 0.077-0.038 0.094-0.044 0.182-0.077 0.261-0.107l0.124-0.043c0.093 0.059 0.195 0.103 0.301 0.131 0.048 0.009 0.098 0.007 0.146-0.006s0.092-0.035 0.13-0.067c0.016-0.016 0.028-0.035 0.036-0.056s0.011-0.044 0.010-0.066c-0.001-0.022-0.007-0.044-0.018-0.064s-0.025-0.038-0.042-0.052z"></path>
<path fill="#263238" d="M25.518 29.77l0.074 0.045 0.045-0.033 0.017-0.013-0.136 0.001z"></path>
<path fill="#263238" d="M4.314 25.536c-0.019 0.012-0.035 0.029-0.048 0.048s-0.021 0.040-0.024 0.063c-0.004 0.022-0.002 0.045 0.003 0.067s0.016 0.042 0.030 0.060c0.046 0.053 0.11 0.087 0.179 0.095l0.138-0.314c-0.097-0.044-0.208-0.064-0.279-0.018z"></path>
<path fill="#263238" d="M4.951 25.123c-0.043 0.032-0.074 0.079-0.087 0.131l0.241-0.135c-0.024-0.013-0.051-0.020-0.078-0.019s-0.054 0.009-0.077 0.023v0z"></path>
<path fill="#263238" d="M4.992 22.836c0.082 0.069 0.313 0.132 0.313 0.132s-0.004-0.165-0.006-0.175c-0.019-0.12-0.128-0.342-0.262-0.363-0.023-0.003-0.045-0.001-0.067 0.005s-0.042 0.018-0.059 0.032c-0.017 0.015-0.031 0.033-0.041 0.054s-0.015 0.043-0.015 0.066c-0.003 0.096 0.073 0.19 0.137 0.249z"></path>
<path fill="#263238" d="M3.307 23.562c0 0-0.095-0.135-0.102-0.143-0.082-0.090-0.294-0.215-0.419-0.158-0.020 0.010-0.038 0.024-0.053 0.042s-0.025 0.038-0.031 0.060c-0.006 0.022-0.007 0.045-0.004 0.067s0.011 0.044 0.024 0.063c0.049 0.083 0.161 0.122 0.252 0.132 0.106 0.012 0.333-0.063 0.333-0.063z"></path>
<path fill="#263238" d="M3.187 23.051c0.006 0.038 0.013 0.079 0.022 0.124 0.017 0.083 0.036 0.175 0.064 0.275 0.029 0.109 0.064 0.216 0.105 0.32 0.046 0.116 0.102 0.229 0.167 0.335v0.004c-0.030-0.026-0.118-0.096-0.128-0.101-0.103-0.064-0.341-0.128-0.448-0.042-0.017 0.015-0.030 0.034-0.040 0.054s-0.014 0.043-0.014 0.066c0 0.023 0.005 0.045 0.014 0.066s0.023 0.039 0.040 0.054c0.069 0.067 0.188 0.075 0.278 0.064 0.102-0.015 0.288-0.138 0.303-0.147 0.070 0.107 0.146 0.209 0.229 0.306 0.048 0.056 0.098 0.112 0.149 0.167l-0.055-0.044c-0.103-0.064-0.341-0.128-0.448-0.042-0.017 0.015-0.030 0.034-0.040 0.054s-0.014 0.043-0.014 0.066c0 0.023 0.005 0.045 0.014 0.066s0.023 0.039 0.040 0.054c0.039 0.030 0.084 0.051 0.132 0.061s0.098 0.010 0.146-0c0.105-0.032 0.204-0.080 0.295-0.141 0.020 0.020 0.039 0.042 0.059 0.064 0.095 0.1 0.192 0.199 0.282 0.299 0.032 0.035 0.064 0.071 0.093 0.107l-0.048-0.037c-0.103-0.064-0.341-0.128-0.448-0.042-0.017 0.015-0.030 0.034-0.040 0.054s-0.014 0.043-0.014 0.066c0 0.023 0.005 0.045 0.014 0.066s0.023 0.039 0.040 0.054c0.069 0.067 0.188 0.075 0.278 0.064 0.102-0.031 0.199-0.077 0.287-0.137 0.030 0.037 0.060 0.075 0.088 0.113 0.018 0.026 0.037 0.050 0.054 0.077v0.004l0.024-0.055 0.014-0.008-0.042-0.056c-0.046-0.061-0.095-0.12-0.147-0.179 0.095-0.053 0.181-0.119 0.256-0.198 0.031-0.038 0.054-0.082 0.066-0.13s0.014-0.097 0.005-0.146c-0.006-0.022-0.017-0.042-0.031-0.060s-0.032-0.032-0.053-0.042-0.042-0.016-0.065-0.017c-0.023-0.001-0.045 0.003-0.066 0.011-0.128 0.054-0.175 0.295-0.164 0.416 0 0.008 0.019 0.094 0.029 0.141-0.031-0.035-0.064-0.070-0.094-0.105-0.094-0.099-0.192-0.197-0.289-0.294l-0.088-0.090c0.016-0.010 0.208-0.12 0.268-0.204 0.035-0.037 0.061-0.082 0.077-0.131s0.019-0.101 0.011-0.152c-0.006-0.022-0.017-0.042-0.031-0.060s-0.032-0.032-0.053-0.042-0.042-0.016-0.065-0.017c-0.023-0.001-0.045 0.003-0.066 0.011-0.128 0.054-0.175 0.295-0.164 0.417 0 0.009 0.026 0.133 0.035 0.165-0.064-0.064-0.128-0.133-0.192-0.201-0.082-0.092-0.158-0.189-0.228-0.291 0.008-0.005 0.209-0.12 0.269-0.205 0.031-0.038 0.054-0.082 0.066-0.13s0.014-0.097 0.005-0.145c-0.006-0.022-0.016-0.043-0.030-0.061s-0.032-0.033-0.053-0.043c-0.020-0.010-0.043-0.016-0.066-0.017s-0.046 0.003-0.067 0.011c-0.128 0.054-0.175 0.295-0.164 0.417 0 0.010 0.029 0.143 0.035 0.166l-0.013-0.017c-0.067-0.104-0.124-0.214-0.172-0.328-0.027-0.064-0.049-0.124-0.070-0.184 0.103-0.042 0.198-0.1 0.284-0.171 0.035-0.034 0.062-0.076 0.079-0.122s0.024-0.095 0.021-0.144c-0.004-0.022-0.012-0.043-0.025-0.062s-0.029-0.035-0.048-0.047c-0.019-0.012-0.040-0.020-0.063-0.023s-0.045-0.002-0.067 0.004c-0.128 0.040-0.206 0.274-0.209 0.396 0 0.006 0.006 0.074 0.012 0.123-0.008-0.027-0.018-0.056-0.026-0.082-0.030-0.099-0.051-0.192-0.069-0.273-0.010-0.047-0.019-0.089-0.026-0.128 0.071-0.084 0.129-0.179 0.172-0.281 0.016-0.047 0.021-0.096 0.015-0.145s-0.022-0.096-0.048-0.137c-0.014-0.018-0.031-0.033-0.050-0.045s-0.042-0.018-0.064-0.020c-0.023-0.002-0.045 0.001-0.067 0.008s-0.041 0.019-0.058 0.034c-0.098 0.095-0.058 0.338 0 0.448 0.004 0.004 0.094 0.145 0.095 0.143z"></path>
<path fill="#263238" d="M4.876 23.525c0.093 0.043 0.316 0.044 0.334 0.045-0.001 0.128 0.006 0.257 0.022 0.384 0.009 0.074 0.020 0.148 0.033 0.221-0.011-0.033-0.020-0.064-0.022-0.064-0.050-0.111-0.212-0.296-0.348-0.281-0.022 0.003-0.044 0.011-0.063 0.023s-0.036 0.028-0.048 0.047c-0.013 0.019-0.021 0.040-0.025 0.062s-0.003 0.045 0.002 0.067c0.020 0.094 0.115 0.166 0.198 0.204 0.105 0.032 0.214 0.047 0.324 0.045 0.005 0.028 0.010 0.056 0.015 0.084 0.024 0.136 0.049 0.271 0.070 0.405 0.007 0.047 0.012 0.094 0.018 0.141l-0.019-0.058c-0.051-0.111-0.213-0.296-0.349-0.281-0.022 0.003-0.043 0.011-0.062 0.023s-0.035 0.028-0.048 0.046c-0.013 0.019-0.021 0.040-0.025 0.062s-0.003 0.045 0.002 0.067c0.020 0.094 0.115 0.166 0.198 0.204 0.070 0.025 0.144 0.038 0.219 0.040l0.149-0.084 0.118-0.064 0.322-0.353c-0.007-0.003-0.015-0.005-0.022-0.006-0.134-0.024-0.309 0.149-0.367 0.256 0 0.007-0.036 0.089-0.053 0.134-0.006-0.046-0.013-0.092-0.021-0.139-0.023-0.134-0.051-0.269-0.078-0.405-0.009-0.041-0.017-0.083-0.024-0.124 0.019 0 0.24 0.015 0.335-0.022 0.085-0.033 0.185-0.098 0.211-0.192 0.007-0.022 0.009-0.044 0.006-0.067s-0.010-0.044-0.022-0.063c-0.012-0.019-0.027-0.036-0.046-0.049s-0.039-0.022-0.062-0.026c-0.134-0.024-0.308 0.149-0.366 0.256-0.004 0.008-0.051 0.128-0.064 0.157-0.017-0.091-0.034-0.182-0.047-0.273-0.018-0.122-0.028-0.245-0.030-0.368 0.009 0 0.24 0.015 0.338-0.022 0.047-0.015 0.090-0.040 0.127-0.073s0.065-0.074 0.084-0.119c0.007-0.022 0.009-0.044 0.007-0.067s-0.009-0.044-0.021-0.064c-0.011-0.020-0.027-0.037-0.045-0.050s-0.039-0.023-0.062-0.027c-0.134-0.025-0.309 0.149-0.367 0.256-0.004 0.008-0.054 0.135-0.064 0.159 0-0.007 0-0.015 0-0.022 0.002-0.123 0.014-0.247 0.037-0.368 0.012-0.067 0.028-0.128 0.044-0.192 0.043 0.007 0.239 0.038 0.33 0.013s0.192-0.077 0.231-0.166c0.009-0.021 0.014-0.043 0.014-0.066s-0.005-0.045-0.014-0.066c-0.009-0.021-0.022-0.039-0.039-0.055s-0.037-0.027-0.058-0.034c-0.128-0.039-0.32 0.115-0.392 0.215-0.004 0.005-0.036 0.064-0.059 0.109 0.008-0.027 0.015-0.056 0.023-0.083 0.030-0.099 0.064-0.188 0.093-0.266 0.018-0.044 0.035-0.084 0.050-0.121 0.046-0.015 0.229-0.077 0.298-0.14s0.137-0.158 0.128-0.256c-0.001-0.023-0.007-0.045-0.018-0.065s-0.025-0.038-0.043-0.052c-0.018-0.014-0.038-0.025-0.060-0.030s-0.045-0.007-0.067-0.003c-0.134 0.026-0.234 0.251-0.25 0.372 0 0.011 0 0.177 0 0.176-0.016 0.036-0.033 0.074-0.051 0.116-0.031 0.078-0.064 0.166-0.099 0.265-0.035 0.106-0.065 0.214-0.088 0.323-0.024 0.123-0.037 0.248-0.040 0.374v0.005c-0.011-0.038-0.045-0.145-0.049-0.153-0.051-0.111-0.213-0.296-0.349-0.281-0.022 0.003-0.044 0.011-0.063 0.023s-0.036 0.028-0.048 0.047-0.021 0.040-0.025 0.063c-0.004 0.022-0.003 0.045 0.003 0.067 0.020 0.093 0.115 0.166 0.198 0.203z"></path>
<path fill="#263238" d="M14.158 24.945c-0.022 0.003-0.044 0.011-0.063 0.023s-0.036 0.028-0.048 0.047-0.021 0.040-0.025 0.063c-0.004 0.022-0.003 0.045 0.003 0.067 0.016 0.046 0.042 0.089 0.076 0.124s0.076 0.063 0.122 0.080c0.063 0.023 0.129 0.036 0.196 0.038l0.057-0.068 0.032-0.093c-0.051-0.112-0.213-0.297-0.349-0.282z"></path>
<path fill="#263238" d="M13.456 25.912c-0.019 0.012-0.035 0.029-0.048 0.048s-0.021 0.040-0.024 0.063c-0.004 0.022-0.002 0.045 0.003 0.067s0.016 0.042 0.030 0.060c0.058 0.077 0.174 0.102 0.265 0.102 0.059-0.004 0.118-0.018 0.173-0.040l0.037-0.187-0.004-0.004c-0.092-0.080-0.317-0.18-0.434-0.109z"></path>
<path fill="#263238" d="M14.093 25.502c-0.104 0.064-0.125 0.27-0.106 0.397l0.307-0.364c-0.024-0.028-0.058-0.047-0.094-0.053s-0.074 0.001-0.106 0.020z"></path>
<path fill="#263238" d="M13.148 25.044c0.020 0.020 0.039 0.042 0.059 0.064 0.095 0.1 0.192 0.199 0.282 0.299 0.032 0.035 0.064 0.071 0.093 0.107l-0.048-0.037c-0.103-0.064-0.341-0.128-0.448-0.042-0.017 0.015-0.030 0.034-0.040 0.055s-0.014 0.043-0.014 0.066 0.005 0.045 0.014 0.066c0.009 0.021 0.023 0.039 0.040 0.054 0.069 0.067 0.188 0.075 0.278 0.064 0.102-0.031 0.199-0.077 0.287-0.137 0.030 0.038 0.060 0.075 0.088 0.113 0.018 0.026 0.037 0.050 0.054 0.077l0.051 0.079c0.023 0.040 0.047 0.079 0.069 0.118l0.049-0.058c-0.019-0.032-0.039-0.064-0.060-0.098l-0.052-0.079c-0.017-0.026-0.038-0.052-0.057-0.079-0.046-0.064-0.095-0.12-0.147-0.179 0.095-0.053 0.181-0.119 0.256-0.198 0.031-0.038 0.054-0.082 0.066-0.13s0.014-0.097 0.005-0.146c-0.006-0.022-0.016-0.042-0.030-0.060s-0.031-0.032-0.051-0.042c-0.020-0.010-0.042-0.017-0.064-0.018s-0.045 0.002-0.066 0.009c-0.128 0.054-0.175 0.295-0.164 0.416 0 0.008 0.019 0.094 0.029 0.141-0.031-0.035-0.064-0.070-0.094-0.104-0.094-0.099-0.192-0.197-0.289-0.295l-0.088-0.090c0.016-0.010 0.208-0.12 0.268-0.204 0.031-0.038 0.054-0.082 0.066-0.13s0.014-0.097 0.005-0.145c-0.006-0.022-0.017-0.042-0.031-0.060s-0.032-0.032-0.053-0.042-0.042-0.016-0.065-0.017c-0.023-0.001-0.045 0.003-0.066 0.011-0.128 0.054-0.175 0.295-0.164 0.417 0 0.009 0.026 0.133 0.035 0.164-0.064-0.064-0.128-0.133-0.192-0.201-0.082-0.092-0.158-0.189-0.228-0.291 0.008-0.005 0.209-0.12 0.269-0.205 0.031-0.038 0.054-0.082 0.066-0.13s0.014-0.097 0.005-0.145c-0.006-0.022-0.017-0.042-0.031-0.060s-0.032-0.032-0.053-0.042-0.042-0.016-0.065-0.017c-0.023-0.001-0.045 0.003-0.066 0.011-0.128 0.054-0.175 0.295-0.164 0.417 0 0.010 0.029 0.143 0.035 0.166l-0.013-0.017c-0.067-0.104-0.124-0.214-0.172-0.328-0.027-0.064-0.049-0.124-0.070-0.184 0.103-0.042 0.198-0.099 0.284-0.17 0.061-0.069 0.119-0.172 0.1-0.266-0.004-0.022-0.012-0.043-0.025-0.062s-0.029-0.035-0.048-0.047c-0.019-0.012-0.040-0.020-0.063-0.023s-0.045-0.002-0.067 0.004c-0.128 0.040-0.206 0.275-0.209 0.396 0 0.006 0.006 0.074 0.011 0.124-0.008-0.028-0.018-0.056-0.026-0.082-0.030-0.099-0.051-0.192-0.069-0.273-0.010-0.047-0.019-0.089-0.026-0.128 0.071-0.084 0.129-0.179 0.171-0.281 0.016-0.047 0.021-0.096 0.015-0.145s-0.022-0.096-0.048-0.137c-0.013-0.018-0.031-0.033-0.050-0.045s-0.042-0.018-0.064-0.020c-0.023-0.002-0.045 0.001-0.067 0.008s-0.041 0.019-0.058 0.035c-0.098 0.095-0.058 0.339 0 0.448 0.005 0.010 0.095 0.148 0.097 0.147 0.006 0.038 0.013 0.079 0.022 0.124 0.017 0.083 0.036 0.175 0.064 0.275 0.028 0.109 0.064 0.216 0.105 0.32 0.046 0.117 0.102 0.229 0.167 0.336 0 0.001 0 0.002 0 0.003-0.030-0.026-0.118-0.096-0.125-0.1-0.103-0.064-0.341-0.128-0.448-0.042-0.017 0.015-0.030 0.034-0.040 0.054s-0.014 0.043-0.014 0.066c0 0.023 0.005 0.045 0.014 0.066s0.023 0.039 0.040 0.054c0.069 0.068 0.188 0.075 0.278 0.064 0.102-0.015 0.288-0.138 0.303-0.147 0.070 0.107 0.146 0.209 0.229 0.306 0.048 0.056 0.098 0.112 0.149 0.167l-0.055-0.044c-0.103-0.064-0.341-0.128-0.448-0.042-0.017 0.015-0.031 0.034-0.040 0.054s-0.014 0.043-0.014 0.066c0 0.023 0.005 0.045 0.014 0.066s0.023 0.039 0.040 0.054c0.068 0.067 0.188 0.075 0.277 0.061 0.107-0.035 0.208-0.086 0.3-0.152z"></path>
<path fill="#263238" d="M14.136 23.215c0.082 0.069 0.313 0.132 0.313 0.132s-0.005-0.165-0.006-0.175c-0.019-0.12-0.128-0.342-0.262-0.363-0.023-0.003-0.045-0.001-0.067 0.006s-0.042 0.018-0.059 0.033c-0.017 0.015-0.031 0.033-0.041 0.054s-0.015 0.043-0.015 0.066c-0.005 0.096 0.067 0.19 0.137 0.249z"></path>
<path fill="#263238" d="M12.449 23.941c0 0-0.095-0.136-0.102-0.143-0.082-0.090-0.294-0.215-0.419-0.158-0.020 0.010-0.038 0.024-0.053 0.042s-0.025 0.038-0.031 0.060-0.007 0.045-0.004 0.067c0.003 0.022 0.012 0.044 0.024 0.063 0.049 0.083 0.161 0.122 0.252 0.133 0.109 0.012 0.333-0.063 0.333-0.063z"></path>
<path fill="#263238" d="M14.016 23.904c0.093 0.043 0.316 0.045 0.334 0.045-0.001 0.127 0.006 0.254 0.022 0.381 0.009 0.074 0.021 0.148 0.033 0.222-0.011-0.033-0.021-0.064-0.022-0.064-0.050-0.111-0.213-0.296-0.348-0.281-0.022 0.003-0.044 0.011-0.063 0.023s-0.036 0.028-0.048 0.047c-0.013 0.019-0.021 0.040-0.025 0.062s-0.003 0.045 0.002 0.067c0.020 0.094 0.115 0.166 0.198 0.204 0.105 0.032 0.214 0.047 0.324 0.045 0.005 0.028 0.010 0.056 0.015 0.084 0.024 0.136 0.049 0.272 0.070 0.405 0 0.020 0.005 0.040 0.007 0.059l0.040-0.115c-0.022-0.119-0.046-0.239-0.070-0.358-0.008-0.041-0.017-0.083-0.024-0.123 0.087 0.005 0.175 0.003 0.262-0.006l0.113-0.326 0.089-0.077c-0.012-0.006-0.024-0.010-0.037-0.012-0.134-0.024-0.309 0.149-0.366 0.256-0.005 0.008-0.051 0.128-0.064 0.157-0.017-0.092-0.034-0.182-0.047-0.273-0.018-0.122-0.028-0.245-0.030-0.368 0.009 0 0.24 0.015 0.338-0.022 0.047-0.015 0.090-0.040 0.127-0.073s0.065-0.074 0.084-0.119c0.007-0.022 0.009-0.044 0.007-0.067s-0.009-0.044-0.021-0.064c-0.011-0.020-0.027-0.037-0.045-0.050s-0.039-0.023-0.062-0.027c-0.134-0.025-0.309 0.149-0.367 0.256-0.005 0.008-0.054 0.135-0.064 0.159 0-0.007 0-0.014 0-0.022 0.002-0.123 0.014-0.247 0.037-0.368 0.012-0.064 0.027-0.128 0.043-0.192 0.043 0.007 0.239 0.038 0.33 0.013s0.192-0.077 0.231-0.166c0.009-0.021 0.014-0.043 0.014-0.066s-0.005-0.045-0.014-0.066c-0.009-0.021-0.022-0.039-0.039-0.055s-0.037-0.027-0.058-0.034c-0.128-0.039-0.32 0.115-0.392 0.215-0.004 0.005-0.036 0.064-0.059 0.109 0.008-0.027 0.015-0.056 0.023-0.083 0.030-0.099 0.064-0.188 0.093-0.266 0.018-0.044 0.035-0.084 0.050-0.121 0.046-0.015 0.229-0.077 0.298-0.14s0.137-0.158 0.128-0.256c-0.001-0.023-0.007-0.045-0.018-0.065s-0.025-0.038-0.043-0.052c-0.018-0.014-0.038-0.025-0.060-0.030s-0.045-0.007-0.067-0.003c-0.134 0.026-0.234 0.251-0.249 0.372 0 0.011-0.003 0.177 0 0.176-0.016 0.036-0.033 0.074-0.050 0.116-0.032 0.078-0.067 0.166-0.099 0.265-0.035 0.106-0.065 0.214-0.088 0.323-0.026 0.123-0.041 0.247-0.045 0.372v0.007c-0.011-0.038-0.045-0.145-0.049-0.153-0.051-0.111-0.213-0.296-0.349-0.281-0.022 0.003-0.044 0.011-0.063 0.023s-0.036 0.028-0.048 0.047-0.021 0.040-0.025 0.062c-0.004 0.022-0.003 0.045 0.003 0.067 0.027 0.092 0.122 0.164 0.203 0.202z"></path>
<path fill="#fff" d="M23.721 18.314l-0.255-0.317 0.23-0.181 0.154 0.193-0.052 0.122 0.044 0.097-0.090 0.065z"></path>
<path fill="#000" d="M25.792 18.864c0 0-0.175-0.156-0.24-0.146s-0.922 0.154-0.922 0.154l-0.788-0.643-0.12 0.086 0.754 0.946 0.819-0.051-0.176 0.896-0.746 0.567 1.216 0.726 0.245-0.773 0.968-0.954-0.376-0.472-0.635-0.336z"></path>
<path fill="#fff" d="M26.042 18.657l-0.138 0.289-0.051-0.046-0.097 0.703 0.671-0.406-0.067-0.106 0.015-0.22-0.334-0.214z"></path>
<path fill="#fff" d="M25.757 19.604l0.392-0.238-0.328-0.23-0.065 0.468z"></path>
<path fill="#263238" d="M26.816 17.968c0 0 0.296-0.347 0.598-0.128s0.218 0.433 0.433 0.316c0.215-0.117 0.619-0.415 0.862-0.036s0.056 0.776-0.097 0.867c-0.153 0.091-0.113-0.083-0.109-0.166s-0.248-0.192-0.303-0.019c-0.056 0.173-0.348 0.439-0.719 0.414s-0.443-0.481-0.435-0.749c-0.001-0.081-0.022-0.159-0.062-0.229s-0.098-0.128-0.167-0.168l0.001-0.1z"></path>
<path fill="#fff" d="M26.106 17.896c0 0-0.186 0.413-0.147 0.657s0.018 0.431 0.142 0.479c0.124 0.047 0.536-0.202 0.627-0.366s0.221-0.402 0.185-0.63c-0.036-0.228-0.472-0.559-0.806-0.14z"></path>
<path fill="#263238" d="M26.176 18.33c-0.010 0.032-0.030 0.054-0.046 0.049s-0.021-0.035-0.012-0.064c0.010-0.029 0.030-0.054 0.046-0.049s0.019 0.032 0.012 0.064z"></path>
<path fill="#263238" d="M26.472 18.453c-0.010 0.032-0.031 0.054-0.047 0.049s-0.021-0.035-0.012-0.064 0.031-0.054 0.047-0.049c0.016 0.005 0.021 0.032 0.012 0.064z"></path>
<path fill="#263238" d="M26.106 17.896c0 0-0.027 0.064-0.059 0.152 0.108-0.056 0.294-0.12 0.465-0.015s0.256 0.346 0.291 0.494c0.072-0.147 0.137-0.32 0.111-0.491-0.036-0.228-0.472-0.559-0.806-0.14z"></path>
<path fill="#fff" d="M26.757 18.521c0 0 0.133-0.122 0.128-0.011s-0.158 0.177-0.192 0.182c-0.034 0.005-0.031-0.038-0.031-0.038z"></path>
<path fill="#000" d="M26.803 19.672l-0.205 1.46c-0.004 0.031-0.020 0.060-0.043 0.081s-0.053 0.033-0.085 0.034h-0.044c-0.034 0.001-0.067-0.011-0.093-0.033s-0.042-0.054-0.045-0.088l-0.080-0.878 0.595-0.575z"></path>
<path fill="#000" d="M26.432 20.932l-0.657-0.58-0.147 0.123 0.631 0.73c0.014 0.015 0.031 0.026 0.050 0.034s0.039 0.010 0.060 0.008h0.052c0.020-0.001 0.039-0.006 0.057-0.015s0.033-0.022 0.045-0.038 0.020-0.034 0.024-0.054c0.004-0.020 0.003-0.040-0.002-0.059z"></path>
<path fill="#fff" d="M25.775 20.351l-0.154-0.246-0.347-0.038 0.002 0.207 0.166 0.139 0.106 0.015 0.080 0.048 0.147-0.124z"></path>
<path fill="#fff" d="M23.917 21.12c0 0-0.724 0.943-0.685 1.099s1.098 1.809 1.098 1.809l0.147-0.097-0.582-1.816 1.169-0.465-1.148-0.529z"></path>
<path fill="#263238" d="M24.501 21.469l0.086 0.377 0.387-0.148-0.473-0.228z"></path>
<path fill="#fff" d="M24.331 24.025l-0.192 0.32c0 0-0.153 0.229-0.108 0.243 0.098 0.031 0.351-0.135 0.424-0.186s0.15-0.085 0.198-0.119c0.048-0.034 0.144-0.054 0.013-0.175-0.044-0.040-0.184-0.18-0.184-0.18l-0.15 0.097z"></path>
<path fill="#263238" d="M25.527 20.819c-0.326-0.13-0.66-0.241-0.999-0.331-0.587-0.159-1.021-0.283-1.012-0.136s1.076 2.508 1.076 2.508l0.183-0.058-0.279-1.302c0 0 0.448 0.314 0.779 0.158s0.457-0.576 0.434-0.719z"></path>
<path fill="#fff" d="M24.403 20.454c-0.522-0.141-0.896-0.239-0.888-0.102 0.008 0.147 1.076 2.508 1.076 2.508l0.183-0.058-0.279-1.302c0.095-0.232-0.006-0.721-0.092-1.045z"></path>
<path fill="#fff" d="M24.591 22.86l-0.172 0.323c0 0-0.346 0.335-0.269 0.353s0.728-0.262 0.776-0.329c0.049-0.067-0.152-0.405-0.152-0.405l-0.183 0.058z"></path>
<path fill="#fff" d="M8.089 18.575c0 0 0.301-0.035 0.325 0.035 0.013 0.057 0.013 0.116 0 0.173 0 0 0.173 0.186 0.173 0.313s-0.185 0.186-0.185 0.186l-0.035 0.301-0.463 0.023-0.058-0.359c0 0-0.174-0.683 0.243-0.672z"></path>
<path fill="#263238" d="M8.182 19.072l-0.128-0.186c0.043-0.070 0.067-0.15 0.069-0.232 0-0.128-0.011-0.359-0.278-0.359s-0.44 0.209-0.498 0.66c-0.058 0.452 0.208 0.672 0.591 0.591s0.244-0.475 0.244-0.475z"></path>
<path fill="#fff" d="M8.17 18.993c0 0-0.197-0.023-0.186 0.128 0.003 0.032 0.016 0.063 0.037 0.088s0.049 0.043 0.080 0.052c0.031 0.009 0.065 0.008 0.096-0.003s0.058-0.030 0.077-0.056z"></path>
<path fill="#263238" d="M7.896 19.72l-0.427 0.12c0 0-0.033 0.083-0.083 0.192-0.067 0.148-0.252 0.448-0.252 0.448l-0.854 0.244-0.275 0.885-0.061 0.366 0.488-0.244 0.031-0.854 0.768-0.118 0.33-0.832 0.336-0.207z"></path>
<path fill="#000" d="M8.576 19.595c0 0-0.336-0.15-0.591-0.116s-0.232 0.163-0.232 0.163l0.012 0.173c0 0 0.427-0.127 0.811-0.22z"></path>
<path fill="#000" d="M7.428 20.441l0.24 1.11c0.002 0.013 0.007 0.026 0.015 0.037s0.018 0.020 0.030 0.026c0.012 0.006 0.025 0.010 0.039 0.010s0.027-0.003 0.039-0.009l0.542-0.271-0.904-0.903z"></path>
<path fill="#263238" d="M9.155 22.155l0.7 1.157-0.093 1.565 0.336-0.012 0.336-1.866-0.491-1.308-0.788 0.463z"></path>
<path fill="#000" d="M7.764 19.815c0 0-0.336 0.579-0.336 0.626s1.309 1.309 1.309 1.309l0.996-0.66-0.626-1.088 0.901-0.884 0.069-1.194-0.162-0.012-0.29 0.869-0.96 0.756-0.902 0.278z"></path>
<path fill="#fff" d="M9.917 17.912l0.011-0.266 0.289-0.22 0.024 0.058v0.174l0.011 0.139-0.174 0.127-0.162-0.012z"></path>
<path fill="#263238" d="M8.738 21.75c0 0 0.22 0.371 0.384 0.486s0.67-0.243 0.798-0.348 0.614-0.73 0.614-0.73l0.452 1.925 0.278-0.116c0 0-0.163-2.56-0.244-2.632s-1.332 0.741-1.332 0.741l-0.95 0.673z"></path>
<path fill="#fff" d="M11.264 22.968h0.394c0.070 0 0.243-0.104 0.256-0.023s-0.336 0.301-0.476 0.371c-0.134 0.052-0.274 0.087-0.417 0.104l-0.035-0.336 0.278-0.116z"></path>
<path fill="#fff" d="M10.097 24.866l0.197 0.359c0 0 0.243 0.104 0.243 0.151s-0.394 0.023-0.429 0.023c-0.035 0-0.428-0.384-0.428-0.384l0.081-0.14 0.336-0.010z"></path>
</svg>
