<!-- Generated by IcoMoon.io -->
<svg version="1.1" xmlns="http://www.w3.org/2000/svg" width="32" height="32" viewBox="0 0 32 32">
<title>contact</title>
<path fill="#263238" d="M15.035 16.532c-0.64 0.043-1.262-0.231-1.493-0.372h-0.107l-0.107 0.585v0.638l0.267 0.692c0 0 0.213 0.266 0.267 0.266s-0.747 1.649-0.747 1.649v2.979l-0.16 1.436 0.213 0.585c-0.196-0.053-0.288-0.064 0.907 0.319s1.742-0.798 1.867-1.436c0.053-0.709 0.16-2.085 0.16-1.915s0.747 0.497 1.12 0.638c0.889 0.284 2.752 0.851 3.093 0.851s0.747-0.142 0.907-0.213c0.533-0.479 0.213-1.809 0.16-1.968-0.043-0.128-0.302-0.337-0.427-0.426-0.172-0.098-0.3-0.156-0.64-0.266l-1.44-0.372-0.107 0.266c-0.005-0.049-0.039-0.084-0.16-0.16l-0.213-0.372-0.213 0.266-0.213 0.106v-0.16l0.107-0.319-0.107-0.16c-0.036-0.018-0.117-0.064-0.16-0.106s-0.089-0.124-0.107-0.16l-0.053-0.479c0.13-0.246 0.399-0.86 0.587-1.277 0.189-0.42 0.213-1.259 0.16-1.649l-0.427-0.585c-1.76 1.224-2.133 1.064-2.933 1.117z"></path>
<path fill="#263238" d="M13.777 18.438c-0.010-0-0.019-0.002-0.028-0.007s-0.016-0.011-0.022-0.019c-0.167-0.234-0.474-0.917-0.506-1.232s0.148-1.064 0.156-1.098c0.004-0.016 0.014-0.029 0.028-0.037s0.030-0.011 0.046-0.007c0.016 0.004 0.029 0.013 0.038 0.027s0.012 0.030 0.009 0.046c0 0.008-0.182 0.764-0.154 1.064s0.327 0.958 0.483 1.17c0.005 0.007 0.008 0.014 0.010 0.022s0.002 0.016 0.001 0.024c-0.001 0.008-0.004 0.016-0.008 0.023s-0.010 0.013-0.016 0.018c-0.011 0.006-0.024 0.009-0.036 0.007z"></path>
<path fill="#fff" d="M14.655 25.394l-0.406-0.029c0.44-0.118 0.714-0.826 0.884-1.312 0.032-0.092 0.063-0.179 0.094-0.259 0.152-0.395 0.165-1.624 0.157-2.096-0.063-0.222-0.232-0.764-0.352-0.939-0.025-0.036-0.042-0.076-0.051-0.118s-0.009-0.086-0-0.129c0.037-0.179 0.221-0.295 0.382-0.396 0.054-0.032 0.107-0.068 0.157-0.106 0.036-0.228 0.302-0.299 0.499-0.351 0.062-0.017 0.12-0.033 0.166-0.050 0.191-0.174 1.027-1.768 1.211-2.625 0.156-0.722-0.107-0.978-0.107-0.98l0.241-0.281c0.045 0.037 0.434 0.394 0.231 1.339-0.158 0.734-1.072 2.745-1.42 2.884-0.073 0.027-0.148 0.050-0.224 0.069-0.080 0.018-0.157 0.044-0.231 0.078-0.023 0.149-0.168 0.241-0.32 0.337-0.075 0.041-0.146 0.090-0.211 0.145 0.175 0.283 0.37 0.966 0.393 1.046l0.006 0.046c0 0.174 0.028 1.717-0.181 2.26-0.029 0.077-0.059 0.16-0.090 0.247-0.191 0.551-0.197 1.052-0.828 1.22z"></path>
<path fill="#fff" d="M21.53 21.704c-0.291-0.143-1.050-0.292-1.504-0.387-0.194-0.040-0.362-0.077-0.487-0.106-0.209-0.049-0.429-0.023-0.62 0.075-0.057 0.025-0.115 0.045-0.175 0.062-0.23 0.057-0.387-0.168-0.5-0.333-0.013-0.018-0.027-0.039-0.042-0.059-0.144 0.084-0.342 0.199-0.533 0.145-0.044-0.013-0.085-0.036-0.121-0.065s-0.064-0.067-0.084-0.108c-0.049-0.105-0.084-0.215-0.107-0.328-0.035-0.148-0.060-0.242-0.133-0.3-0.252-0.2-0.251-0.295-0.256-0.319l0.189-0.308c0.085 0.126 0.186 0.241 0.299 0.343 0.145 0.131 0.238 0.31 0.262 0.504 0.016 0.078 0.040 0.155 0.070 0.229 0.079-0.026 0.154-0.062 0.224-0.106 0.052-0.034 0.109-0.062 0.169-0.081 0.167-0.041 0.27 0.106 0.368 0.248 0.040 0.062 0.086 0.121 0.136 0.174 0.027-0.008 0.059-0.021 0.094-0.036 0.265-0.129 0.567-0.16 0.853-0.089 0.118 0.030 0.283 0.064 0.473 0.106 0.452 0.086 0.893 0.223 1.314 0.409l0.111 0.332z"></path>
<path fill="#263238" d="M23.631 23.706c-0.012 0-0.024-0.003-0.034-0.010-0.689-0.448-2.24-0.575-2.257-0.576-0.009 0-0.017-0.001-0.025-0.005s-0.015-0.008-0.021-0.015c-0.006-0.006-0.011-0.014-0.013-0.022s-0.004-0.017-0.003-0.025c0.001-0.009 0.003-0.017 0.007-0.025s0.010-0.014 0.017-0.020c0.007-0.005 0.015-0.009 0.023-0.011s0.017-0.002 0.026-0.001c0.065 0 1.6 0.13 2.315 0.595 0.007 0.004 0.013 0.010 0.017 0.017s0.008 0.014 0.010 0.022c0.002 0.008 0.002 0.016 0 0.024s-0.005 0.016-0.009 0.022c-0.006 0.008-0.013 0.015-0.022 0.020s-0.019 0.007-0.029 0.007z"></path>
<path fill="#263238" d="M23.076 22.495c-0.048-0.001-0.096-0.009-0.142-0.023-0.221-0.063-1.387-0.687-1.434-0.714-0.014-0.008-0.025-0.021-0.030-0.036s-0.003-0.032 0.004-0.047c0.008-0.014 0.021-0.025 0.037-0.030s0.033-0.003 0.047 0.004c0.415 0.223 1.243 0.657 1.408 0.704 0.044 0.018 0.093 0.023 0.14 0.014 0.004-0.014 0.013-0.027 0.025-0.035s0.027-0.012 0.042-0.010c0.015 0.002 0.028 0.009 0.038 0.019s0.016 0.025 0.016 0.040c-0.001 0.016-0.005 0.032-0.013 0.047s-0.019 0.027-0.032 0.036c-0.032 0.022-0.069 0.033-0.108 0.031z"></path>
<path fill="#263238" d="M23.728 21.673c0 0-0.587 0.57-0.587 0.632s0.417 0.431 0.448 0.554c0.031 0.123 0.309-0.031 0.386 0s0.062 0.247-0.155 0.293c-0.216 0.046-0.2 0.601-0.124 0.678s0.747 0.416 1.113 0.801c0.366 0.385 0.572 0.77 0.725 0.832s0.309 0.106 0.355-0.2c0.046-0.306 0.093-0.97-0.308-1.448s-0.572-0.525-0.695-0.525-0.32 0.016-0.246-0.153c0.074-0.169 0.246-0.319 0.185-0.463s-0.545-1.047-1.097-1.001z"></path>
<path fill="#263238" d="M25.87 25.688c-0.045 0.002-0.090-0.008-0.13-0.029s-0.073-0.053-0.096-0.092c-0.004-0.007-0.006-0.015-0.006-0.023s0.001-0.016 0.003-0.024c0.003-0.008 0.007-0.015 0.012-0.021s0.012-0.011 0.019-0.015c0.014-0.007 0.031-0.008 0.047-0.003s0.028 0.016 0.036 0.030c0.005 0.008 0.047 0.078 0.177 0.046 0.178-0.045 0.32-0.096 0.356-0.306 0.050-0.46-0.044-0.924-0.27-1.328-0.137-0.206-0.301-0.393-0.489-0.555-0.167-0.156-0.299-0.28-0.308-0.412 0-0.048 0-0.096-0.005-0.146 0.009-0.191-0.028-0.381-0.107-0.555-0.14-0.278-0.471-0.638-0.786-0.771-0.289-0.118-0.42-0.066-0.533 0.213-0.006 0.015-0.018 0.027-0.034 0.033s-0.032 0.006-0.047-0c-0.015-0.006-0.027-0.018-0.033-0.034s-0.006-0.032 0-0.047c0.144-0.343 0.347-0.426 0.699-0.28s0.702 0.532 0.853 0.831c0.089 0.189 0.132 0.397 0.124 0.607 0 0.048 0.002 0.095 0.006 0.14 0.005 0.083 0.128 0.198 0.269 0.33 0.196 0.17 0.367 0.366 0.51 0.582 0.242 0.43 0.342 0.924 0.286 1.414-0.053 0.282-0.251 0.354-0.448 0.403-0.034 0.009-0.069 0.014-0.105 0.013z"></path>
<path fill="#263238" d="M14.875 16.036c-0.304 0-0.853-0.039-1.14-0.305-0.115-0.106-0.215-0.226-0.299-0.357-0.055-0.091-0.122-0.174-0.2-0.248-0.069-0.059-0.118-0.137-0.142-0.224s-0.022-0.179 0.007-0.265c0.006-0.015 0.018-0.027 0.033-0.033s0.032-0.007 0.047-0.001c0.008 0.003 0.015 0.007 0.021 0.013s0.011 0.012 0.014 0.020 0.005 0.015 0.005 0.024c0 0.008-0.001 0.016-0.004 0.024-0.019 0.063-0.019 0.13-0 0.193s0.056 0.119 0.107 0.161c0.082 0.081 0.154 0.171 0.213 0.27 0.078 0.124 0.172 0.236 0.279 0.335 0.297 0.275 0.96 0.278 1.15 0.271 0.016 0 0.032 0.006 0.044 0.018s0.018 0.027 0.018 0.044-0.007 0.032-0.018 0.044c-0.012 0.012-0.027 0.018-0.044 0.018l-0.091 0.001z"></path>
<path fill="#263238" d="M15.329 16.585c-0.514 0.006-1.025-0.074-1.512-0.236-0.654-0.255-0.64-0.532-0.613-0.608 0.008-0.028 0.018-0.055 0.029-0.082 0.026-0.064 0.035-0.087 0-0.145-0.087-0.132-0.016-0.418-0.007-0.45 0.004-0.016 0.014-0.029 0.028-0.038s0.031-0.011 0.046-0.007c0.016 0.004 0.029 0.014 0.038 0.029s0.011 0.031 0.007 0.047c-0.029 0.106-0.050 0.289-0.009 0.351 0.027 0.037 0.043 0.081 0.046 0.127s-0.008 0.092-0.030 0.132c-0.010 0.022-0.018 0.045-0.024 0.069-0.029 0.106 0.095 0.286 0.533 0.46 0.533 0.213 1.894 0.389 2.7 0 1.307-0.628 1.4-0.86 1.396-0.916s-0.009-0.106-0.015-0.17c-0.032-0.17-0.026-0.346 0.019-0.513 0.072-0.187 0.145-0.373 0.070-0.606-0.050-0.213-0.075-0.431-0.076-0.65-0.007-0.145-0.014-0.282-0.029-0.386-0.018-0.188-0.078-0.37-0.174-0.532-0.006-0.005-0.012-0.011-0.015-0.018s-0.006-0.015-0.007-0.023c-0.001-0.008 0-0.016 0.002-0.024s0.006-0.015 0.011-0.021c0.011-0.012 0.026-0.020 0.042-0.022s0.033 0.003 0.045 0.013c0.090 0.076 0.181 0.371 0.213 0.614 0.017 0.106 0.023 0.25 0.031 0.398 0 0.208 0.024 0.416 0.070 0.619 0.087 0.274 0 0.491-0.070 0.681-0.039 0.151-0.044 0.309-0.015 0.463 0.006 0.062 0.013 0.121 0.016 0.177 0.006 0.138-0.138 0.396-1.467 1.033-0.356 0.17-0.822 0.235-1.281 0.235z"></path>
<path fill="#263238" d="M20.887 16.691c-0.277-0.007-0.553-0.043-0.822-0.106-0.248-0.057-0.298-0.382-0.334-0.619-0.006-0.082-0.026-0.163-0.059-0.239-0.147-0.098-0.171-0.184-0.171-0.41-0.012-0.116-0.063-0.225-0.145-0.309-0.052-0.067-0.098-0.138-0.137-0.213-0.086-0.172-0.386-1.015-0.314-1.258 0.051-0.169-0.156-0.552-0.497-0.684-0.371-0.145-1.112-0.602-1.143-0.621-0.007-0.004-0.013-0.010-0.018-0.016s-0.008-0.014-0.010-0.022c-0.002-0.008-0.002-0.016-0.001-0.024s0.004-0.016 0.008-0.023c0.009-0.014 0.023-0.024 0.039-0.027s0.033-0.001 0.047 0.007c0.008 0 0.763 0.471 1.123 0.612 0.389 0.151 0.64 0.593 0.571 0.834-0.052 0.177 0.197 0.951 0.305 1.17 0.038 0.068 0.082 0.132 0.131 0.193 0.098 0.105 0.158 0.24 0.17 0.383 0 0.213 0.020 0.244 0.116 0.307 0.068 0.046 0.086 0.162 0.107 0.319 0.033 0.213 0.074 0.479 0.239 0.517 0.572 0.131 1.218 0.165 1.286-0.067 0.058-0.195 0.033-0.503 0.011-0.776-0.021-0.169-0.025-0.34-0.013-0.51 0.027-0.188-0.32-1.498-0.533-2.28-0.101-0.381-0.181-0.681-0.207-0.8-0.075-0.351-2.231-1.909-2.784-2.128-0.476-0.193-1.186-0.446-1.869-0.426-0.009 0.001-0.018-0.001-0.027-0.004s-0.016-0.009-0.021-0.016c-0.102-0.119-0.216-0.228-0.339-0.325l-0.037 0.040c-0.147 0.159-0.492 0.532-0.986 0.468-0.271-0.029-0.537-0.097-0.789-0.202 0.002 0.057-0.018 0.112-0.056 0.154l-0.010 0.007c-0.011 0.007-0.263 0.165-0.96 0.106-0.672-0.061-1.041-0.094-1.685-0.736-0.18-0.18-0.389-0.399-0.612-0.632-0.514-0.55-1.101-1.164-1.325-1.276-0.256-0.128-0.717-0.179-0.883-0.194-0.018 0.195-0.113 0.763-0.595 0.958 0 0.077 0.034 0.302 0.33 0.688l0.163 0.213c0.498 0.658 1.666 2.197 2.036 2.356 0.12 0.051 0.32 0.122 0.548 0.204 0.624 0.223 1.402 0.501 1.633 0.733 0.196 0.195 0.365 0.938 0.514 1.596 0.088 0.383 0.178 0.78 0.232 0.844 0.109 0.104 0.237 0.187 0.375 0.246 0.093 0.035 0.177 0.090 0.246 0.161 0.009 0.014 0.012 0.030 0.008 0.046s-0.013 0.030-0.027 0.039c-0.014 0.009-0.030 0.012-0.046 0.009s-0.030-0.012-0.039-0.026c-0.060-0.048-0.127-0.088-0.198-0.119-0.154-0.066-0.295-0.16-0.415-0.277-0.069-0.082-0.139-0.379-0.257-0.895-0.128-0.581-0.31-1.368-0.481-1.54-0.213-0.213-1.007-0.497-1.587-0.704-0.232-0.083-0.427-0.154-0.556-0.213-0.4-0.171-1.539-1.673-2.085-2.394l-0.163-0.213c-0.407-0.532-0.357-0.795-0.35-0.822 0.002-0.010 0.007-0.019 0.014-0.027s0.016-0.013 0.026-0.017c0.533-0.179 0.555-0.912 0.556-0.919s0.002-0.016 0.006-0.024 0.008-0.014 0.014-0.020c0.006-0.006 0.013-0.010 0.021-0.013s0.016-0.004 0.024-0.004c0.027 0 0.655 0.044 0.992 0.213 0.242 0.126 0.812 0.72 1.362 1.296 0.222 0.232 0.427 0.451 0.61 0.63 0.612 0.611 0.945 0.638 1.608 0.701 0.584 0.053 0.83-0.057 0.871-0.080 0.013-0.029 0.018-0.061 0.016-0.093 0-0.035 0-0.116 0.076-0.116 0.027 0.003 0.052 0.012 0.076 0.024 0.247 0.106 0.508 0.174 0.776 0.202 0.427 0.054 0.747-0.285 0.88-0.426 0.024-0.030 0.052-0.056 0.083-0.078 0.036-0.017 0.107-0.050 0.457 0.343 0.695-0.013 1.411 0.242 1.891 0.436 0.556 0.227 2.766 1.787 2.858 2.222 0.025 0.116 0.107 0.415 0.206 0.794 0.31 1.158 0.564 2.128 0.533 2.329-0.011 0.161-0.006 0.323 0.014 0.483 0.022 0.283 0.048 0.603-0.016 0.819-0.055 0.196-0.317 0.255-0.606 0.255z"></path>
<path fill="#263238" d="M14.564 10.155c-0.19 0.001-0.38-0.030-0.56-0.090-0.616-0.213-0.61-0.42-0.603-0.46 0.003-0.016 0.011-0.031 0.025-0.040s0.030-0.014 0.046-0.011c0.016 0.003 0.031 0.011 0.041 0.025s0.014 0.030 0.011 0.046c0 0.011 0.025 0.153 0.521 0.319 0.336 0.107 0.697 0.11 1.034 0.007s0.635-0.306 0.854-0.583c0.005-0.006 0.011-0.012 0.018-0.016s0.015-0.006 0.023-0.007c0.008-0.001 0.016-0 0.024 0.002s0.015 0.006 0.021 0.011c0.013 0.010 0.021 0.025 0.023 0.042s-0.003 0.033-0.013 0.046c-0.175 0.22-0.397 0.399-0.651 0.522s-0.532 0.187-0.813 0.188z"></path>
<path fill="#e8e8e8" d="M9.165 5.282l-7.639-1.335 7.062 0.247 0.577 1.088z"></path>
<path fill="#d9d9d9" d="M7.907 4.169v-0.346l-6.382 0.123 6.382 0.222z"></path>
<path fill="#e8e8e8" d="M8.321 3.816l-1.318-0.691-5.477 0.821 6.796-0.131z"></path>
<path fill="#263238" d="M7.6 7.839c-0.009 0-0.018-0.001-0.026-0.005s-0.015-0.009-0.021-0.016c-0.010-0.011-0.947-1.097-1.227-1.316-0.058-0.045-0.117-0.094-0.179-0.144-0.249-0.223-0.527-0.411-0.827-0.56-0.384-0.162-0.875-0.949-0.895-0.983-0.004-0.007-0.007-0.015-0.008-0.023s-0.001-0.016 0.001-0.024c0.002-0.008 0.005-0.015 0.010-0.022s0.011-0.012 0.018-0.016c0.007-0.004 0.015-0.007 0.023-0.008s0.016-0.001 0.024 0.001c0.008 0.002 0.015 0.005 0.022 0.010s0.012 0.011 0.016 0.018c0 0.007 0.491 0.786 0.839 0.934 0.305 0.129 0.597 0.367 0.853 0.577l0.177 0.143c0.29 0.227 1.205 1.287 1.245 1.333 0.005 0.006 0.009 0.013 0.012 0.021s0.004 0.016 0.003 0.024c-0.001 0.008-0.003 0.016-0.006 0.023s-0.009 0.014-0.015 0.019c-0.011 0.010-0.026 0.015-0.041 0.015v0z"></path>
<path fill="#9e9e9e" d="M5.728 4.673l-4.038-0.726 4.186 1.255-0.147-0.53z"></path>
<path fill="#9e9e9e" d="M6.491 5.387l1.501 0.45 0.107-0.739-1.783-0.319c0 0 0.039 0.231 0.062 0.319 0.031 0.099 0.069 0.196 0.114 0.289v0z"></path>
<path fill="#263238" d="M14.021 9.519h-0.017c-0.008-0.002-0.015-0.006-0.022-0.011s-0.012-0.011-0.016-0.018c-0.004-0.007-0.006-0.015-0.007-0.023s-0-0.016 0.002-0.024c0 0 0.116-0.41 0-0.692-0.004-0.008-0.006-0.016-0.007-0.025s0.001-0.017 0.004-0.026c0.003-0.008 0.008-0.016 0.014-0.022s0.013-0.011 0.021-0.014c0.008-0.003 0.017-0.005 0.025-0.004s0.017 0.002 0.025 0.006c0.008 0.004 0.015 0.009 0.020 0.016s0.010 0.014 0.012 0.023c0.131 0.319 0.008 0.753 0 0.771-0.004 0.012-0.011 0.022-0.021 0.030s-0.021 0.012-0.034 0.013v0z"></path>
<path fill="#263238" d="M15.4 9.304c-0.010 0-0.020-0.002-0.028-0.007s-0.016-0.011-0.022-0.019c-0.169-0.232-0.45-0.638-0.439-0.752 0.002-0.016 0.010-0.031 0.022-0.041s0.029-0.015 0.045-0.014c0.016 0.002 0.031 0.010 0.042 0.022s0.016 0.028 0.015 0.045c0 0.065 0.213 0.398 0.416 0.668 0.005 0.007 0.008 0.014 0.010 0.022s0.002 0.016 0.001 0.024c-0.001 0.008-0.004 0.016-0.008 0.023s-0.010 0.013-0.016 0.018c-0.011 0.007-0.023 0.012-0.036 0.012z"></path>
<path fill="#263238" d="M22.302 18.888c-0.015-0-0.029-0.002-0.044-0.005-0.171-0.037-0.838-0.719-0.96-0.885-0.094-0.119-0.214-0.214-0.351-0.279-0.068 0.094-0.111 0.204-0.124 0.319-0.013 0.157-0.037 0.312-0.129 0.375-0.022 0.014-0.047 0.024-0.073 0.027s-0.053 0-0.077-0.009c-0.19-0.057-0.161-0.233-0.121-0.476l0.014-0.086c0.042-0.19 0.114-0.372 0.213-0.539 0.017-0.032 0.035-0.067 0.045-0.088-0.049-0.082-0.25-0.412-0.387-0.638-0.008-0.014-0.011-0.031-0.007-0.047s0.014-0.030 0.027-0.038c0.007-0.004 0.015-0.007 0.023-0.008s0.016-0.001 0.024 0.001c0.008 0.002 0.015 0.005 0.022 0.010s0.012 0.011 0.016 0.018c0.065 0.106 0.387 0.631 0.402 0.662s0 0.073-0.057 0.183c-0.092 0.156-0.16 0.325-0.199 0.502l-0.015 0.086c-0.042 0.253-0.044 0.314 0.034 0.337 0.030 0.010 0.041 0 0.046 0 0.056-0.037 0.070-0.221 0.076-0.282 0.011-0.159 0.078-0.31 0.189-0.426 0.011-0.008 0.024-0.013 0.037-0.015s0.027-0.001 0.040 0.002c0.167 0.073 0.314 0.186 0.427 0.33 0.164 0.213 0.787 0.817 0.891 0.84 0.012 0 0.032 0.005 0.037-0.005s0-0.096-0.092-0.182c-0.123-0.106-0.527-0.638-0.492-0.761 0.004-0.013 0.011-0.025 0.021-0.035s0.023-0.016 0.036-0.018c0.058-0.012 0.115 0.030 0.445 0.319 0.17 0.15 0.427 0.376 0.491 0.388 0.025 0.005 0.050 0.008 0.075 0.011-0.013-0.024-0.028-0.046-0.045-0.068-0.051-0.071-0.152-0.182-0.251-0.289-0.12-0.121-0.229-0.252-0.325-0.392-0.008-0.014-0.009-0.031-0.004-0.047s0.016-0.029 0.030-0.036c0.015-0.008 0.031-0.009 0.047-0.005s0.029 0.015 0.037 0.029c0.092 0.13 0.194 0.253 0.306 0.367 0.107 0.115 0.205 0.223 0.26 0.3s0.107 0.156 0.063 0.213c-0.044 0.056-0.13 0.051-0.213 0.033s-0.268-0.169-0.548-0.416c-0.075-0.066-0.164-0.146-0.237-0.205 0.11 0.186 0.241 0.359 0.39 0.516 0.118 0.106 0.166 0.238 0.12 0.329-0.011 0.026-0.030 0.048-0.054 0.063s-0.052 0.023-0.080 0.022z"></path>
<path fill="#263238" d="M22.927 18.373c-0.087-0.005-0.173-0.029-0.25-0.070-0.012-0.009-0.020-0.022-0.024-0.037s-0.001-0.030 0.007-0.043c0.007-0.013 0.019-0.023 0.034-0.028s0.030-0.004 0.044 0.001c0.065 0.037 0.139 0.055 0.213 0.052l0.005-0.006c0 0 0-0.036-0.118-0.144-0.192-0.201-0.37-0.414-0.533-0.638-0.009-0.012-0.014-0.027-0.014-0.042s0.005-0.030 0.014-0.042c0.074-0.089 0.703 0.204 0.709 0.213 0.004 0.001 0.009 0.001 0.013 0 0 0 0-0.050-0.079-0.116-0.098-0.080-0.648-0.281-1.471-0.538l-0.015-0.005c-0.175-0.054-0.249-0.302-0.256-0.33-0.002-0.015 0.001-0.030 0.009-0.043s0.021-0.022 0.035-0.026 0.030-0.003 0.044 0.004c0.014 0.007 0.024 0.018 0.030 0.032 0.017 0.057 0.080 0.213 0.174 0.246h0.015c0.61 0.191 1.368 0.444 1.512 0.561s0.141 0.221 0.107 0.281c-0.018 0.026-0.045 0.045-0.077 0.052s-0.064 0.002-0.092-0.014c-0.064-0.032-0.301-0.126-0.459-0.18 0.131 0.174 0.274 0.339 0.427 0.495 0.112 0.106 0.159 0.178 0.157 0.241-0.002 0.020-0.007 0.039-0.017 0.056s-0.023 0.032-0.039 0.043c-0.031 0.021-0.069 0.030-0.107 0.026z"></path>
<path fill="#263238" d="M13.14 4.17c0 0-0.764 0.196-0.866 0.613s0 0.851 0.33 0.808c0.33-0.044 0.762-0.329 1.050-0.309s0.227 0.129 0.124 0.311c-0.104 0.182 0.082 0.49 0.597 0.347s0.533-0.411 0.906-0.309c0.372 0.102 0.033 0.945 0.119 1.064s0.107 0.287 0.301 0c0.194-0.287 0.486-0.678 0.795-0.575s-0.288 0.698-0.596 0.821l-0.309 0.123c0 0-0.124 0.862-0.309 0.985 0 0 1.236-0.164 1.707-0.596s0.062-0.426 0.144-0.656 0.556-0.243 0.556-0.522c0-0.28-0.062-0.238-0.494-0.444s-0.309-0.308-0.247-0.411c0.062-0.103 0.124-0.287-0.226-0.39s-1.173-0.349-1.022-0.575c0.152-0.226 0.23-0.678-0.301-0.638s-1.039 0.384-1.341 0.347c-0.302-0.037-0.58-0.117-0.915 0.005z"></path>
<path fill="#263238" d="M14.148 8.815h-0.015l-0.139-0.031c-0.359-0.079-1.107-0.242-1.506-0.523-0.487-0.345-0.399-1.202-0.311-1.476s0.285-1.198 0.287-1.212c0.002-0.008 0.005-0.016 0.010-0.023s0.011-0.013 0.018-0.017c0.007-0.005 0.014-0.008 0.023-0.009s0.016-0.001 0.024 0.001c0.012 0.001 0.025 0.001 0.037 0 0.006-0.003 0.013-0.005 0.020-0.006 0.162-0.031 0.32-0.082 0.469-0.151 0.213-0.087 0.42-0.17 0.592-0.157 0.095 0.007 0.213 0.024 0.252 0.106s-0.010 0.178-0.078 0.298c-0.015 0.030-0.022 0.063-0.018 0.096s0.017 0.064 0.038 0.090c0.085 0.106 0.275 0.137 0.506 0.072 0.156-0.043 0.304-0.113 0.437-0.205 0.147-0.095 0.262-0.169 0.502-0.106 0.297 0.083 0.228 0.505 0.179 0.815-0.022 0.091-0.030 0.185-0.026 0.279 0.016 0.022 0.030 0.047 0.044 0.070 0.011 0.023 0.025 0.044 0.043 0.063 0.042-0.039 0.078-0.085 0.107-0.134 0.174-0.252 0.497-0.721 0.866-0.598 0.036 0.009 0.068 0.030 0.091 0.059s0.036 0.065 0.037 0.102c0.007 0.244-0.451 0.667-0.722 0.775l-0.279 0.112c-0.037 0.149-0.197 0.772-0.307 0.97l-0.021 0.040c-0.068 0.134-0.213 0.415-0.487 0.56-0.014 0.008-0.031 0.009-0.047 0.004s-0.029-0.015-0.036-0.030c-0.008-0.014-0.009-0.031-0.004-0.047s0.016-0.029 0.030-0.037c0.241-0.127 0.372-0.383 0.435-0.507l0.023-0.044c0.113-0.206 0.301-0.958 0.303-0.97 0.002-0.009 0.007-0.018 0.013-0.026s0.014-0.013 0.023-0.017l0.309-0.123c0.238-0.095 0.65-0.49 0.64-0.658 0-0.016 0-0.035-0.044-0.049-0.246-0.082-0.494 0.213-0.724 0.552-0.095 0.137-0.161 0.188-0.225 0.186s-0.107-0.067-0.14-0.124c-0.012-0.020-0.023-0.042-0.037-0.062-0.043-0.060-0.028-0.167 0-0.368 0.043-0.263 0.1-0.622-0.090-0.676s-0.262 0-0.402 0.087c-0.138 0.101-0.293 0.179-0.457 0.23-0.404 0.113-0.58-0.043-0.64-0.115-0.036-0.044-0.059-0.098-0.064-0.155s0.006-0.114 0.033-0.164c0.037-0.067 0.088-0.157 0.076-0.181 0 0-0.019-0.029-0.15-0.038s-0.343 0.070-0.533 0.149c-0.157 0.070-0.32 0.123-0.489 0.157-0.016 0.006-0.034 0.009-0.051 0.008-0.046 0.213-0.204 0.93-0.278 1.162s-0.16 1.036 0.266 1.338c0.378 0.267 1.109 0.426 1.46 0.503l0.142 0.031c0.008 0.002 0.015 0.005 0.022 0.010s0.012 0.011 0.016 0.018c0.004 0.007 0.007 0.015 0.008 0.023s0.001 0.016-0.001 0.024c-0.003 0.013-0.011 0.025-0.022 0.033s-0.024 0.013-0.038 0.012z"></path>
<path fill="#263238" d="M12.333 6.497c-0.010 0-0.020-0.002-0.029-0.007-0.141-0.082-0.264-0.191-0.362-0.321s-0.168-0.279-0.207-0.437c-0.032-0.092-0.032-0.192 0-0.284 0.016-0.024 0.039-0.043 0.066-0.054s0.056-0.016 0.085-0.012c0.107 0.010 0.245 0.106 0.343 0.335 0.056 0.143 0.127 0.28 0.213 0.407 0.010 0.013 0.014 0.029 0.012 0.046s-0.011 0.031-0.024 0.041c-0.013 0.010-0.030 0.014-0.046 0.012s-0.031-0.011-0.041-0.024c-0.095-0.135-0.173-0.281-0.234-0.434-0.083-0.197-0.191-0.257-0.242-0.262-0.025 0-0.033 0.008-0.035 0.012-0.035 0.078 0.090 0.638 0.525 0.865 0.012 0.006 0.022 0.017 0.027 0.029s0.007 0.027 0.004 0.040-0.011 0.025-0.022 0.034c-0.011 0.008-0.024 0.013-0.038 0.013h0.003z"></path>
<path fill="#263238" d="M14.851 6.327h-0.032c-0.027-0.005-0.051-0.017-0.070-0.036s-0.032-0.043-0.036-0.070c-0.017-0.072-0.171-0.176-0.275-0.226-0.007-0.004-0.014-0.008-0.020-0.015s-0.010-0.013-0.012-0.021c-0.003-0.008-0.004-0.016-0.003-0.024s0.003-0.016 0.006-0.023c0.003-0.007 0.008-0.014 0.014-0.019s0.013-0.010 0.021-0.012 0.016-0.004 0.024-0.003c0.008 0 0.016 0.003 0.023 0.006 0.051 0.024 0.306 0.155 0.342 0.31 0 0.010 0 0.010 0.009 0.011 0.013 0 0.027-0.002 0.039-0.008s0.023-0.015 0.030-0.026c0.007-0.010 0.010-0.022 0.010-0.034s-0.004-0.024-0.010-0.034c-0.081-0.15-0.137-0.234-0.205-0.252-0.008-0.002-0.016-0.005-0.023-0.009s-0.013-0.011-0.018-0.018c-0.005-0.007-0.008-0.015-0.009-0.024s-0.001-0.017 0.001-0.025c0.002-0.008 0.006-0.016 0.011-0.023s0.012-0.012 0.019-0.016c0.007-0.004 0.016-0.006 0.024-0.007s0.017 0 0.025 0.003c0.124 0.032 0.198 0.155 0.283 0.314 0.018 0.031 0.026 0.067 0.024 0.102s-0.016 0.070-0.037 0.098c-0.018 0.024-0.041 0.045-0.068 0.059s-0.056 0.023-0.087 0.024v0z"></path>
<path fill="#263238" d="M12.635 5.898c-0.007 0.001-0.014 0.001-0.020 0-0.032-0.007-0.061-0.022-0.086-0.044s-0.043-0.050-0.053-0.081c-0.005-0.031-0.003-0.063 0.006-0.093s0.024-0.058 0.045-0.082c0.012-0.011 0.027-0.018 0.044-0.018s0.032 0.006 0.044 0.018c0.011 0.012 0.018 0.027 0.018 0.043s-0.006 0.032-0.018 0.043c-0.011 0.013-0.029 0.044-0.023 0.061s0.016 0.021 0.036 0.031c0.114-0.052 0.236-0.082 0.361-0.089 0.018-0.001 0.036-0.007 0.050-0.018s0.025-0.026 0.031-0.044c0.016-0.037 0.019-0.077 0.009-0.116-0.014 0.002-0.028-0.001-0.041-0.008s-0.022-0.018-0.027-0.032c-0.006-0.015-0.005-0.031 0.001-0.045s0.018-0.026 0.032-0.032c0.019-0.008 0.041-0.010 0.062-0.006s0.040 0.014 0.055 0.029c0.026 0.036 0.043 0.077 0.047 0.121s-0.002 0.088-0.021 0.129c-0.014 0.041-0.039 0.077-0.074 0.103s-0.076 0.041-0.119 0.043c-0.116 0.007-0.229 0.037-0.334 0.087-0.008 0.002-0.016 0.002-0.024 0z"></path>
<path fill="#263238" d="M12.789 6.265c-0.062-0.026-0.127-0.047-0.192-0.063-0.028-0.008-0.057-0.014-0.086-0.018-0.033-0.006-0.068-0.010-0.114-0.022 0.024-0.038 0.060-0.067 0.102-0.084s0.088-0.019 0.132-0.008c0.045 0.009 0.085 0.034 0.114 0.069s0.045 0.080 0.045 0.125z"></path>
<path fill="#263238" d="M13.915 6.436c0.039-0.052 0.093-0.089 0.156-0.106 0.063-0.018 0.129-0.020 0.193-0.006s0.122 0.044 0.171 0.086c0.049 0.040 0.086 0.094 0.107 0.154-0.061-0.021-0.107-0.046-0.16-0.064-0.047-0.019-0.096-0.033-0.145-0.044-0.049-0.012-0.099-0.019-0.149-0.021-0.058 0-0.112 0-0.172 0.001z"></path>
<path fill="#263238" d="M13.15 7.169h-0.012c-0.109-0.022-0.217-0.054-0.32-0.096-0.019-0.008-0.036-0.021-0.050-0.036s-0.024-0.034-0.029-0.054c-0.010-0.075 0.009-0.151 0.053-0.213l0.305-0.599 0.011-0.015c0.020-0.024 0.046-0.042 0.074-0.054s0.060-0.017 0.091-0.015c0.033 0.007 0.064 0.020 0.092 0.040s0.050 0.045 0.067 0.074c0.007 0.012 0.009 0.027 0.008 0.040 0 0-0.069 0.453-0.077 0.638 0.003 0.063-0.014 0.125-0.050 0.177s-0.086 0.092-0.146 0.112h-0.018zM13.2 6.232l-0.304 0.597c-0.026 0.034-0.040 0.076-0.041 0.119 0 0 0 0.007 0.012 0.012 0.090 0.037 0.182 0.064 0.277 0.083 0.030-0.017 0.055-0.042 0.071-0.072s0.024-0.064 0.021-0.098c0.007-0.17 0.060-0.532 0.075-0.629-0.014-0.018-0.033-0.032-0.055-0.038-0.011 0-0.021 0.003-0.031 0.008s-0.018 0.011-0.025 0.020v-0.001z"></path>
<path fill="#263238" d="M12.397 6.432c0.024-0.008 0.050-0.011 0.075-0.008s0.050 0.010 0.072 0.023c0.068 0.037 0.122 0.095 0.155 0.165s0.042 0.149 0.027 0.224c-0.034 0.087-0.145-0.012-0.305-0.074-0.052-0.020-0.058 0-0.107-0.017l0.084-0.313z"></path>
<path fill="#263238" d="M13.661 7.027c-0.018 0.106 0.179 0.081 0.411 0.118s0.407 0.128 0.427 0.017c0.019-0.111-0.13-0.383-0.36-0.42s-0.459 0.175-0.477 0.285z"></path>
<path fill="#263238" d="M13.084 7.634c0.14-0.043 0.258-0.064 0.371-0.099 0.057-0.016 0.112-0.036 0.166-0.060 0.057-0.022 0.107-0.054 0.177-0.087-0.014 0.073-0.052 0.14-0.107 0.19s-0.121 0.086-0.192 0.106c-0.069 0.020-0.142 0.026-0.213 0.018-0.072-0.005-0.142-0.029-0.203-0.069z"></path>
<path fill="#e8e8e8" d="M15.795 12.781c0 0.589-0.248 1.064-1.134 1.064-0.625 0-1.002-0.477-1.002-1.064s0.252-1.064 1.002-1.064c0.75 0 1.134 0.476 1.134 1.064z"></path>
<path fill="#263238" d="M14.555 12.914h-0.020c-0.034 0-0.099 0-0.118-0.059s0.025-0.086 0.054-0.106c0.015-0.012 0.029-0.026 0.042-0.040l-0.010-0.006c-0.080-0.055-0.615-0.038-1.087 0.011-0.008 0.001-0.016 0-0.024-0.002s-0.015-0.006-0.021-0.011c-0.006-0.005-0.012-0.011-0.016-0.019s-0.006-0.015-0.007-0.023c-0.002-0.016 0.004-0.033 0.014-0.045s0.025-0.021 0.042-0.023c0.168-0.017 1.012-0.099 1.173 0.011 0.019 0.011 0.034 0.027 0.045 0.045s0.017 0.040 0.018 0.061c0 0.017-0.002 0.034-0.008 0.049s-0.015 0.030-0.027 0.042c0.051 0 0.122-0.012 0.203-0.021 0.357-0.043 0.96-0.114 1.483 0.026 0.015 0.005 0.028 0.015 0.036 0.029s0.010 0.030 0.006 0.046c-0.004 0.015-0.014 0.029-0.028 0.037s-0.030 0.011-0.046 0.007c-0.505-0.133-1.087-0.064-1.436-0.022-0.122 0.002-0.21 0.014-0.267 0.014z"></path>
<path fill="#263238" d="M5.932 5.713c-0.012 0-0.024-0.003-0.034-0.010s-0.018-0.016-0.023-0.027c-0.045-0.151-0.066-0.308-0.062-0.465l-0.146-0.513c-0.003-0.010-0.003-0.021-0-0.031s0.007-0.019 0.014-0.027c0.007-0.008 0.016-0.014 0.026-0.017s0.020-0.005 0.031-0.003l0.516 0.090c0.026 0 0.149 0.040 0.172 0.319 0.010 0.118 0.051 0.232 0.117 0.33 0.004 0.007 0.007 0.015 0.009 0.023s0.001 0.016-0.001 0.024c-0.002 0.008-0.006 0.015-0.011 0.022s-0.011 0.012-0.018 0.016c-0.007 0.004-0.015 0.007-0.023 0.008s-0.016 0.001-0.024-0.001c-0.008-0.002-0.015-0.005-0.022-0.010s-0.012-0.011-0.016-0.018c-0.077-0.114-0.123-0.245-0.134-0.382-0.015-0.184-0.075-0.213-0.076-0.213l-0.414-0.072 0.122 0.426c0 0.006 0 0.012 0 0.018-0.005 0.144 0.013 0.287 0.051 0.426 0.006 0.015 0.007 0.032 0.001 0.047s-0.018 0.027-0.033 0.034c-0.007 0.004-0.015 0.006-0.022 0.007z"></path>
<path fill="#263238" d="M8.197 6.863c-0.011 0-0.022-0.003-0.032-0.008-0.141-0.083-1.38-0.826-1.547-1.132-0.006-0.010-0.008-0.020-0.008-0.031s0.003-0.022 0.008-0.031c0.035-0.062 0.055-0.131 0.061-0.202 0.001-0.008 0.003-0.016 0.007-0.023s0.009-0.014 0.015-0.019c0.006-0.005 0.013-0.009 0.021-0.012s0.016-0.003 0.024-0.003c0.008 0.001 0.016 0.003 0.023 0.007s0.014 0.009 0.019 0.015c0.005 0.006 0.009 0.013 0.012 0.021s0.003 0.016 0.003 0.024c-0.007 0.077-0.028 0.152-0.061 0.222 0.181 0.252 1.123 0.844 1.484 1.064 0.007 0.004 0.013 0.009 0.018 0.016s0.009 0.014 0.011 0.022c0.002 0.008 0.002 0.016 0.001 0.024s-0.004 0.016-0.009 0.023c-0.006 0.008-0.013 0.014-0.022 0.018s-0.018 0.006-0.028 0.006z"></path>
<path fill="#263238" d="M14.472 27.957c0 0-0.059-0.9-0.107-0.944s-0.661 0.039-0.787-0.023c-0.126-0.063-0.195 0.281-0.276 0.319s-0.252-0.126-0.135-0.339c0.116-0.214-0.362-0.598-0.481-0.588s-0.881 0.319-1.47 0.355c-0.589 0.036-1.057-0.075-1.219 0.011s-0.313 0.181-0.086 0.44c0.226 0.26 0.747 0.773 1.438 0.78s0.853-0.106 0.939-0.206 0.213-0.282 0.306-0.096c0.093 0.186 0.095 0.438 0.256 0.486s1.264 0.303 1.624-0.195z"></path>
<path fill="#263238" d="M13.441 28.874c-0.162 0.001-0.323-0.016-0.48-0.052-0.222-0.062-0.426-0.175-0.596-0.33-0.040-0.033-0.081-0.066-0.122-0.096-0.077-0.056-0.262-0.036-0.476-0.013-0.283 0.042-0.57 0.045-0.853 0.008-0.532-0.105-1.018-0.375-1.387-0.771-0.197-0.244-0.116-0.458-0.017-0.657 0.023-0.061 0.066-0.113 0.123-0.147s0.123-0.046 0.188-0.036c0.014 0.005 0.026 0.016 0.033 0.029s0.009 0.029 0.006 0.044c-0.004 0.015-0.012 0.028-0.025 0.036s-0.028 0.012-0.043 0.011c-0.011 0-0.107-0.017-0.173 0.119-0.091 0.182-0.148 0.336 0 0.523 0.351 0.373 0.81 0.627 1.313 0.728 0.272 0.034 0.548 0.030 0.819-0.010 0.249-0.028 0.446-0.049 0.561 0.036 0.043 0.031 0.084 0.065 0.127 0.099 0.156 0.144 0.344 0.249 0.548 0.306 0.335 0.083 0.882 0.066 1.217-0.106 0.31-0.16 0.361-0.309 0.213-0.612-0.003-0.013-0.001-0.027 0.004-0.040s0.016-0.022 0.028-0.029c0.012-0.006 0.026-0.008 0.040-0.006s0.026 0.009 0.035 0.020c0.181 0.362 0.107 0.586-0.262 0.775-0.258 0.118-0.539 0.176-0.822 0.169z"></path>
<path fill="#263238" d="M12.907 26.805c-0.011 0-0.023-0.003-0.032-0.009s-0.017-0.015-0.022-0.025c-0.004-0.007-0.006-0.015-0.007-0.022s0-0.016 0.003-0.023c0.002-0.008 0.006-0.014 0.011-0.020s0.011-0.011 0.018-0.015c0.009-0.006 0.287-0.196 0.591-1.443 0.001-0.009 0.004-0.017 0.008-0.024s0.011-0.014 0.018-0.019c0.007-0.005 0.015-0.008 0.024-0.010s0.017-0.001 0.026 0.001c0.008 0.002 0.016 0.006 0.023 0.011s0.013 0.012 0.017 0.020c0.004 0.008 0.007 0.016 0.007 0.025s-0.001 0.017-0.004 0.026c-0.32 1.324-0.621 1.507-0.654 1.523-0.009 0.004-0.018 0.006-0.028 0.006z"></path>
<path fill="#263238" d="M14.16 27.235c-0.016 0-0.031-0.006-0.042-0.017s-0.018-0.025-0.019-0.041c-0.030-0.464 0.585-1.749 0.611-1.803 0.009-0.010 0.021-0.017 0.034-0.019s0.027-0.001 0.039 0.005c0.012 0.006 0.022 0.016 0.028 0.028s0.008 0.026 0.005 0.039c-0.006 0.013-0.626 1.311-0.6 1.742 0.001 0.008-0 0.016-0.003 0.024s-0.007 0.015-0.012 0.021c-0.005 0.006-0.012 0.011-0.019 0.015s-0.015 0.006-0.023 0.006z"></path>
<path fill="#263238" d="M14.642 25.469c-0.405 0-1.134-0.213-1.483-0.418-0.365-0.213-0.254-0.998-0.157-1.692 0.012-0.085 0.023-0.169 0.034-0.249 0.043-0.33 0.032-0.964 0.020-1.578-0.013-0.725-0.025-1.41 0.043-1.694 0.124-0.532 1.196-2.49 1.242-2.573 0.004-0.007 0.009-0.014 0.015-0.019s0.013-0.009 0.021-0.011c0.008-0.002 0.016-0.003 0.024-0.002s0.016 0.003 0.023 0.008c0.007 0.004 0.013 0.009 0.019 0.015s0.009 0.013 0.011 0.021c0.002 0.008 0.003 0.016 0.002 0.024s-0.003 0.016-0.007 0.023c-0.011 0.020-1.109 2.032-1.23 2.542-0.063 0.269-0.050 0.979-0.038 1.664 0.011 0.618 0.022 1.258-0.021 1.596-0.011 0.081-0.022 0.165-0.035 0.25-0.086 0.622-0.195 1.398 0.097 1.568 0.364 0.213 1.218 0.45 1.533 0.393 0.155-0.028 0.679-0.179 0.973-0.947 0.239-0.625 0.305-2.691 0.305-2.906-0.042-0.125-0.101-0.244-0.176-0.352-0.148-0.249-0.213-0.371-0.154-0.44s0.138-0.017 0.17 0c0.134 0.067 0.259 0.151 0.372 0.249l0.073 0.056c0 0 0-0.012 0-0.018-0.027-0.097-0.057-0.183-0.081-0.252-0.051-0.15-0.080-0.233-0.032-0.288 0.016-0.015 0.036-0.026 0.057-0.031s0.044-0.004 0.065 0.003c0.162 0.032 0.251 0.020 0.32-0.045 0.083-0.089 1.548-2.447 1.651-2.958 0.117-0.566 0.107-1.196-0.022-1.402-0.151-0.242-0.335-0.486-0.337-0.488-0.010-0.013-0.014-0.030-0.011-0.046s0.011-0.031 0.024-0.040c0.006-0.005 0.014-0.009 0.022-0.011s0.016-0.003 0.024-0.002 0.016 0.004 0.023 0.008c0.007 0.004 0.013 0.010 0.018 0.016 0 0 0.189 0.251 0.342 0.497 0.17 0.271 0.147 0.971 0.039 1.49s-1.603 2.933-1.695 3.025c-0.119 0.119-0.274 0.106-0.427 0.079 0.013 0.053 0.029 0.105 0.048 0.155 0.024 0.071 0.055 0.16 0.083 0.261 0.021 0.080 0.037 0.161-0.019 0.197s-0.127-0.012-0.245-0.106c-0.106-0.092-0.222-0.17-0.347-0.233h-0.006c0.043 0.094 0.093 0.184 0.148 0.271 0.119 0.202 0.193 0.331 0.193 0.415 0 0.021-0.048 2.256-0.312 2.949-0.32 0.829-0.896 0.994-1.067 1.025-0.044 0.005-0.088 0.006-0.131 0.003z"></path>
<path fill="#263238" d="M20.253 23.527c-0.054 0-0.107 0-0.148-0.006-0.256-0.019-1.146-0.311-1.931-0.567-0.472-0.154-0.916-0.3-1.138-0.359-0.385-0.112-0.729-0.334-0.99-0.638-0.006-0.006-0.011-0.014-0.014-0.022s-0.004-0.017-0.004-0.025c0.001-0.009 0.003-0.017 0.007-0.025s0.010-0.015 0.016-0.020c0.007-0.005 0.015-0.009 0.023-0.012s0.017-0.003 0.026-0.001c0.009 0.002 0.017 0.005 0.024 0.010s0.013 0.011 0.018 0.018c0.245 0.282 0.566 0.488 0.925 0.595 0.226 0.060 0.673 0.205 1.146 0.361 0.74 0.242 1.661 0.544 1.902 0.562 0.36 0.028 0.972-0.049 1.173-0.372s0.234-1.112 0.178-1.305l-0.008-0.027c-0.066-0.233-0.221-0.781-0.725-0.948-0.631-0.213-1.733-0.512-1.851-0.492-0.025 0-0.051 0.066-0.067 0.101-0.025 0.055-0.050 0.112-0.107 0.113s-0.094-0.065-0.107-0.093c-0.022-0.045-0.045-0.097-0.067-0.151-0.034-0.082-0.107-0.252-0.146-0.262-0.051 0.047-0.097 0.098-0.138 0.154-0.098 0.126-0.164 0.213-0.239 0.182s-0.066-0.106-0.066-0.136c0.002-0.075 0.011-0.149 0.028-0.221 0.034-0.172 0.035-0.232-0.080-0.276-0.273-0.106-0.334-0.554-0.334-0.719 0-0.016 0.006-0.032 0.018-0.044s0.027-0.018 0.044-0.018c0.016 0 0.032 0.007 0.044 0.018s0.018 0.027 0.018 0.044c0 0.106 0.044 0.526 0.254 0.604s0.188 0.259 0.158 0.414c-0.011 0.061-0.018 0.123-0.020 0.185 0.027-0.030 0.059-0.071 0.083-0.106 0.045-0.064 0.098-0.123 0.157-0.174 0.015-0.012 0.032-0.020 0.051-0.024s0.038-0.004 0.056 0c0.098 0.027 0.158 0.169 0.227 0.333 0.019 0.046 0.038 0.091 0.057 0.131 0.029-0.064 0.068-0.15 0.151-0.171 0.158-0.038 1.503 0.356 1.92 0.495 0.565 0.188 0.739 0.801 0.804 1.032l0.007 0.026c0.064 0.221 0.041 1.041-0.192 1.406-0.221 0.344-0.781 0.432-1.143 0.432z"></path>
<path fill="#263238" d="M28.497 27.553c-0.022 0.002-0.043 0.002-0.065 0-0.016-0.002-0.031-0.011-0.041-0.024s-0.014-0.030-0.012-0.046 0.011-0.031 0.024-0.041c0.013-0.010 0.030-0.014 0.046-0.012 0.009 0 0.747 0.089 1.396-1.151 0.56-1.064 0.587-1.383 0.578-1.464-0.020 0.015-0.047 0.039-0.072 0.062-0.063 0.065-0.138 0.117-0.22 0.155-0.123 0.049-1.446 1.17-1.717 2.351-0.002 0.008-0.005 0.015-0.010 0.022s-0.011 0.012-0.017 0.016c-0.007 0.004-0.014 0.007-0.022 0.008s-0.016 0.001-0.024-0.001c-0.008-0.002-0.016-0.005-0.022-0.009s-0.012-0.011-0.017-0.017-0.007-0.015-0.009-0.023c-0.001-0.008-0.001-0.016 0.001-0.024 0.284-1.236 1.647-2.38 1.792-2.439 0.068-0.032 0.129-0.076 0.181-0.131 0.041-0.049 0.096-0.086 0.157-0.106 0.018-0.004 0.036-0.002 0.053 0.004s0.031 0.018 0.041 0.033c0.147 0.196-0.29 1.097-0.564 1.616-0.592 1.124-1.251 1.219-1.458 1.219z"></path>
<path fill="#263238" d="M28.591 27.409c-0.009-0-0.018-0.002-0.026-0.006s-0.015-0.009-0.021-0.016c-0.005-0.006-0.009-0.013-0.012-0.021s-0.003-0.016-0.003-0.024 0.003-0.016 0.007-0.023c0.004-0.007 0.009-0.014 0.015-0.019 0.008-0.006 0.844-0.714 1.205-1.48 0.007-0.014 0.020-0.025 0.035-0.030s0.032-0.004 0.046 0.003c0.014 0.007 0.026 0.019 0.031 0.033s0.006 0.031-0 0.046c-0.373 0.792-1.202 1.49-1.237 1.523-0.011 0.010-0.026 0.015-0.041 0.015z"></path>
<path fill="#263238" d="M28.445 25.922h-0.005c-0.008-0.001-0.016-0.003-0.023-0.006s-0.014-0.009-0.019-0.015c-0.005-0.006-0.009-0.013-0.012-0.021s-0.003-0.016-0.003-0.024c0.084-1.012 0.579-2.056 1.471-3.1 0.037-0.045 0.063-0.075 0.074-0.089 0.021-0.034 0.041-0.070 0.059-0.106 0.073-0.136 0.131-0.243 0.213-0.219s0.107 0.106 0.084 0.532c-0.045 0.851-0.626 2.498-0.651 2.567-0.002 0.008-0.006 0.016-0.011 0.023s-0.012 0.012-0.019 0.017c-0.008 0.004-0.016 0.007-0.025 0.007s-0.017-0-0.025-0.003-0.016-0.007-0.022-0.013c-0.006-0.006-0.011-0.013-0.015-0.021s-0.005-0.016-0.005-0.025c0-0.009 0.002-0.017 0.006-0.025 0.006-0.017 0.6-1.697 0.64-2.533 0.010-0.122 0.010-0.245 0-0.367-0.022 0.035-0.049 0.085-0.066 0.117s-0.047 0.088-0.066 0.116-0.041 0.050-0.082 0.099c-0.875 1.026-1.359 2.045-1.441 3.030-0 0.015-0.006 0.030-0.017 0.041s-0.025 0.018-0.040 0.019z"></path>
<path fill="#263238" d="M28.476 26.533h-0.017c-0.016-0.005-0.029-0.015-0.037-0.030s-0.010-0.031-0.005-0.047c0.36-1.228 1.198-2.766 1.206-2.785 0.004-0.007 0.009-0.013 0.015-0.019s0.013-0.009 0.021-0.011c0.008-0.002 0.016-0.003 0.024-0.002s0.016 0.003 0.023 0.007c0.007 0.004 0.013 0.009 0.019 0.015s0.009 0.013 0.011 0.021c0.002 0.008 0.003 0.016 0.002 0.024s-0.003 0.016-0.007 0.023c-0.009 0.016-0.839 1.547-1.196 2.766-0.005 0.012-0.013 0.021-0.024 0.028s-0.023 0.010-0.036 0.009z"></path>
<path fill="#263238" d="M28.101 27.429c-0.016 0-0.031-0.006-0.043-0.017-0.043-0.040-1.041-1.016-0.925-2.234 0.101-1.064 0.361-2.065 0.565-2.196 0.014-0.010 0.030-0.016 0.046-0.019s0.034-0.001 0.050 0.004c0.123 0.043 0.148 0.222 0.18 0.451 0.017 0.182 0.058 0.361 0.122 0.532 0.172 0.403 0.587 2.25 0.364 3.25-0.004 0.015-0.014 0.028-0.028 0.036s-0.030 0.011-0.045 0.007c-0.015-0.003-0.029-0.012-0.038-0.025s-0.012-0.029-0.010-0.044c0.213-0.976-0.189-2.781-0.357-3.176-0.067-0.18-0.111-0.368-0.13-0.56-0.020-0.141-0.045-0.319-0.091-0.348-0.115 0.072-0.393 0.919-0.506 2.102-0.107 1.155 0.878 2.121 0.887 2.128s0.016 0.019 0.019 0.031c0.003 0.012 0.002 0.025-0.003 0.037s-0.013 0.022-0.024 0.029c-0.011 0.007-0.023 0.010-0.036 0.010v0.002z"></path>
<path fill="#263238" d="M28.187 27.283c-0.012-0-0.024-0.003-0.034-0.010s-0.018-0.015-0.023-0.026c-0.533-1.177-0.62-2.829-0.62-2.845-0.001-0.008 0-0.016 0.003-0.024s0.007-0.015 0.012-0.021c0.005-0.006 0.012-0.011 0.019-0.014s0.015-0.006 0.023-0.006c0.016-0 0.031 0.006 0.043 0.017s0.018 0.026 0.019 0.042c0 0.016 0.091 1.646 0.61 2.801 0.006 0.015 0.007 0.032 0.001 0.047s-0.017 0.027-0.032 0.034c-0.007 0.003-0.015 0.005-0.022 0.005z"></path>
<path fill="#263238" d="M28.114 24.238c-0.016 0-0.031-0.006-0.042-0.017s-0.018-0.025-0.020-0.041c-0.095-1.624 0.58-3.025 0.905-3.697 0.059-0.116 0.113-0.236 0.159-0.358 0.072-0.239 0.163-0.28 0.226-0.271 0.093 0.012 0.219 0.125 0.241 0.949 0.029 1.041-0.275 2.86-0.277 2.873-0.001 0.008-0.004 0.016-0.009 0.023s-0.010 0.013-0.017 0.018c-0.007 0.005-0.014 0.008-0.022 0.010s-0.016 0.002-0.024 0.001c-0.008-0.001-0.016-0.004-0.023-0.009s-0.013-0.010-0.018-0.017c-0.005-0.007-0.008-0.014-0.010-0.022s-0.002-0.016-0.001-0.024c0-0.018 0.304-1.827 0.276-2.855-0.020-0.767-0.134-0.83-0.136-0.831-0.045 0.053-0.075 0.117-0.090 0.185-0.048 0.128-0.103 0.254-0.166 0.376-0.32 0.664-0.984 2.045-0.892 3.637 0 0.008-0.001 0.016-0.003 0.024s-0.007 0.015-0.012 0.021-0.012 0.011-0.019 0.014c-0.007 0.003-0.015 0.006-0.023 0.006l-0.003 0.005z"></path>
<path fill="#263238" d="M28.421 25.66c-0.015-0-0.030-0.006-0.041-0.016s-0.019-0.024-0.020-0.039c-0.020-0.184 0.046-0.465 0.167-0.976 0.061-0.258 0.135-0.578 0.221-0.974 0.178-0.915 0.31-1.838 0.394-2.766 0.002-0.016 0.010-0.031 0.022-0.041s0.029-0.016 0.045-0.015c0.008 0.001 0.016 0.003 0.023 0.007s0.014 0.009 0.019 0.015c0.005 0.006 0.009 0.013 0.011 0.021s0.003 0.016 0.002 0.024c-0.084 0.933-0.216 1.861-0.395 2.781-0.086 0.397-0.162 0.717-0.223 0.975-0.117 0.498-0.182 0.771-0.164 0.935 0.002 0.016-0.003 0.032-0.013 0.045s-0.025 0.021-0.041 0.023l-0.006 0.001z"></path>
<path fill="#263238" d="M29.373 27.862c-0.013 0-0.026-0.004-0.037-0.012s-0.019-0.019-0.023-0.031c-0.005-0.016-0.003-0.033 0.005-0.047s0.021-0.025 0.037-0.030l0.126-0.039c-0.006-0.003-0.012-0.007-0.017-0.012-0.012-0.011-0.021-0.025-0.025-0.041s-0.005-0.032-0-0.048c0.021-0.063 0.052-0.123 0.093-0.177l0.014-0.020c-0.232 0.087-0.553 0.182-0.773 0.086-0.008-0.003-0.014-0.008-0.020-0.014s-0.010-0.013-0.013-0.020-0.005-0.016-0.005-0.024c0-0.008 0.002-0.016 0.005-0.024 0.007-0.015 0.019-0.027 0.035-0.033s0.032-0.006 0.048 0.001c0.213 0.092 0.582-0.051 0.705-0.098 0.044-0.017 0.124-0.048 0.166 0.006s0 0.118-0.058 0.206c-0.020 0.030-0.043 0.064-0.059 0.094 0.035-0.008 0.083-0.023 0.122-0.035 0.103-0.038 0.211-0.061 0.32-0.068 0.068 0 0.089 0.033 0.092 0.061 0.009 0.057 0.015 0.095-0.717 0.319l-0.019-0.001z"></path>
<path fill="#263238" d="M27.898 27.393c-0.010 0-0.020-0.002-0.029-0.007-0.168-0.092-0.322-0.209-0.454-0.348-0.101-0.106-0.176-0.135-0.213-0.126-0.007 0.003-0.013 0.007-0.017 0.013s-0.007 0.013-0.007 0.021c-0.002 0.016-0.008 0.031-0.018 0.044s-0.023 0.023-0.038 0.029c-0.059 0.022-0.116-0.024-0.183-0.079l-0.017-0.013c0 0.007 0 0.015 0 0.021 0.011 0.125 0.028 0.312-0.107 0.373-0.007 0.003-0.015 0.005-0.024 0.005s-0.016-0.001-0.024-0.004c-0.008-0.003-0.015-0.007-0.021-0.013s-0.011-0.012-0.014-0.020c-0.003-0.007-0.005-0.015-0.006-0.024s0.001-0.016 0.004-0.024c0.003-0.008 0.007-0.015 0.013-0.021s0.012-0.011 0.020-0.014c0.054-0.024 0.042-0.166 0.034-0.25s-0.013-0.152 0.038-0.181 0.112 0.014 0.178 0.066l0.051 0.040c0.009-0.022 0.023-0.041 0.040-0.057s0.038-0.027 0.060-0.034c0.054-0.016 0.17-0.016 0.334 0.16 0.123 0.127 0.265 0.234 0.42 0.319 0.007 0.004 0.014 0.009 0.019 0.015s0.009 0.013 0.012 0.021c0.002 0.008 0.003 0.016 0.003 0.024s-0.003 0.016-0.007 0.023c-0.004 0.010-0.011 0.018-0.019 0.024s-0.018 0.011-0.029 0.012z"></path>
<path fill="#263238" d="M6.504 27.317c-0.11-0-0.22-0.008-0.33-0.022-0.484-0.065-1.19-0.319-1.801-1.132-1.012-1.354-1.052-2.457-1.067-2.928 0-0.071 0-0.127-0.010-0.167-0.027-0.213 0-0.464 0.125-0.516 0.032-0.015 0.097-0.026 0.166 0.058 0.045 0.062 0.071 0.136 0.077 0.213 0.022 0.136 0.048 0.292 0.35 0.467 0.631 0.365 2.735 1.712 3.317 3.712 0.003 0.008 0.005 0.017 0.004 0.025s-0.003 0.017-0.006 0.025c-0.004 0.008-0.009 0.015-0.016 0.020s-0.014 0.010-0.023 0.012-0.017 0.003-0.025 0.002c-0.009-0.001-0.017-0.004-0.024-0.009s-0.014-0.010-0.019-0.017c-0.005-0.007-0.008-0.015-0.010-0.024-0.57-1.956-2.64-3.28-3.261-3.64-0.353-0.204-0.386-0.406-0.41-0.553-0.003-0.054-0.021-0.106-0.050-0.151-0.007-0.010-0.017-0.019-0.028-0.024-0.020 0.013-0.076 0.151-0.046 0.388 0 0.043 0.007 0.106 0.011 0.178 0.016 0.46 0.054 1.535 1.043 2.859 0.582 0.781 1.252 1.019 1.712 1.083 0.291 0.043 0.587 0.025 0.87-0.051 0.016-0.005 0.032-0.004 0.047 0.004s0.026 0.020 0.031 0.036c0.003 0.008 0.004 0.016 0.003 0.024s-0.003 0.016-0.006 0.023-0.009 0.014-0.015 0.019c-0.006 0.005-0.013 0.009-0.021 0.012-0.192 0.054-0.391 0.080-0.591 0.076z"></path>
<path fill="#263238" d="M7.088 27.1h-0.011c-0.039-0.007-0.982-0.176-1.999-1.080-0.63-0.582-1.088-1.324-1.325-2.147-0.002-0.008-0.002-0.016-0.001-0.024s0.004-0.016 0.008-0.023c0.004-0.007 0.010-0.013 0.016-0.018s0.014-0.008 0.022-0.010c0.008-0.002 0.016-0.002 0.024-0.001s0.016 0.004 0.023 0.008c0.007 0.004 0.013 0.010 0.018 0.016s0.008 0.014 0.010 0.022c0.23 0.799 0.674 1.521 1.286 2.085 0.988 0.88 1.928 1.049 1.938 1.050 0.016 0.003 0.030 0.012 0.039 0.026s0.013 0.030 0.011 0.046c-0.003 0.014-0.010 0.027-0.021 0.035s-0.025 0.014-0.039 0.013z"></path>
<path fill="#263238" d="M7.692 27.079c-0.016 0.001-0.032-0.004-0.045-0.014s-0.020-0.025-0.022-0.041c-0.001-0.016 0.004-0.032 0.014-0.044s0.025-0.020 0.041-0.021c0.012 0 1.173-0.244 1.217-2.392 0.053-2.369-0.427-3.505-0.724-3.802-0.062-0.063-0.116-0.093-0.143-0.082-0.114 0.045-0.124 0.567-0.129 0.879-0.009 0.417-0.213 0.818-0.489 1.375-0.095 0.189-0.202 0.404-0.314 0.638-0.417 0.895-0.193 2.439-0.191 2.454 0.002 0.008 0.003 0.017 0.001 0.026s-0.005 0.017-0.009 0.024c-0.005 0.007-0.011 0.013-0.018 0.018s-0.016 0.008-0.024 0.009c-0.009 0.001-0.017 0.001-0.026-0.002s-0.016-0.006-0.023-0.012c-0.007-0.006-0.012-0.012-0.016-0.020s-0.006-0.016-0.006-0.025c-0.010-0.064-0.233-1.596 0.201-2.524 0.107-0.239 0.221-0.454 0.32-0.645 0.271-0.542 0.467-0.932 0.475-1.321 0.010-0.553 0.030-0.921 0.207-0.992 0.121-0.048 0.238 0.071 0.276 0.106 0.413 0.416 0.807 1.781 0.761 3.891-0.051 2.256-1.267 2.5-1.318 2.51l-0.016 0.007z"></path>
<path fill="#263238" d="M6.251 27.628c-0.364-0.013-0.377-0.077-0.383-0.106s0.019-0.081 0.082-0.106c0.088-0.039 0.186-0.054 0.282-0.044 0.072 0.008 0.144 0.001 0.213-0.020 0.163-0.050 0.189-0.112 0.189-0.112 0.002-0.008 0.005-0.015 0.010-0.021s0.011-0.012 0.018-0.016c0.007-0.004 0.014-0.007 0.022-0.008s0.016-0.001 0.024 0.001c0.016 0.004 0.030 0.015 0.038 0.029s0.011 0.031 0.008 0.047c0 0.020-0.039 0.128-0.272 0.199-0.084 0.025-0.172 0.034-0.259 0.026-0.046-0.006-0.092-0.006-0.138 0 0.050 0.006 0.107 0.011 0.167 0.013 0.016 0 0.032 0.006 0.044 0.018s0.018 0.027 0.018 0.044-0.007 0.032-0.018 0.044c-0.012 0.012-0.027 0.018-0.044 0.018l-0.001-0.003z"></path>
<path fill="#263238" d="M8.121 27.278c-0.008 0-0.017-0.002-0.024-0.005s-0.015-0.008-0.020-0.014c-0.012-0.012-0.018-0.027-0.018-0.044s0.007-0.032 0.018-0.044c0.039-0.036 0.075-0.075 0.107-0.117l-0.006 0.006c-0.044 0.052-0.107 0.13-0.195 0.086-0.035-0.021-0.065-0.048-0.089-0.081s-0.041-0.069-0.051-0.109c-0.004-0.016-0.001-0.033 0.007-0.047s0.022-0.024 0.038-0.028c0.016-0.004 0.033-0.001 0.047 0.007s0.024 0.022 0.028 0.038c0.012 0.044 0.039 0.082 0.077 0.106 0.013-0.020 0.027-0.039 0.044-0.056 0.045-0.052 0.121-0.14 0.213-0.079 0.013 0.009 0.024 0.021 0.032 0.035s0.013 0.029 0.014 0.045c0.006 0.099-0.122 0.229-0.177 0.28-0.012 0.011-0.027 0.018-0.044 0.018z"></path>
<path fill="#263238" d="M7.685 26.81c-0.008 0.002-0.016 0.002-0.025 0-0.008-0.003-0.014-0.008-0.020-0.014s-0.010-0.013-0.013-0.021c-0.003-0.008-0.004-0.016-0.004-0.024s0.002-0.016 0.006-0.024c0.599-1.495 0.824-3.113 0.655-4.715-0.002-0.016 0.003-0.033 0.013-0.046s0.025-0.021 0.041-0.024c0.008-0.001 0.016-0 0.024 0.002s0.015 0.006 0.021 0.011c0.006 0.005 0.012 0.011 0.016 0.019s0.006 0.015 0.007 0.023c0.307 2.594-0.656 4.758-0.666 4.78-0.006 0.010-0.014 0.018-0.024 0.023s-0.021 0.008-0.033 0.008z"></path>
<path fill="#263238" d="M6.81 25.795c-0.011 0-0.023-0.003-0.032-0.009s-0.018-0.014-0.023-0.024c-0.007-0.016-0.815-1.616-0.555-4.013 0.105-1.042 0.346-2.066 0.719-3.045 0.124-0.342 0.205-0.567 0.182-0.708-0.012-0.072-0.107-0.711 0.069-0.789 0.035-0.016 0.093-0.018 0.159 0.063 0.186 0.228 0.747 1.951 0.714 3.374 0 0.008-0.002 0.016-0.005 0.024s-0.008 0.014-0.013 0.020-0.013 0.010-0.020 0.013c-0.007 0.003-0.016 0.005-0.024 0.005s-0.016-0.002-0.024-0.005c-0.008-0.003-0.014-0.008-0.020-0.013s-0.010-0.012-0.013-0.020-0.005-0.015-0.005-0.024c0.033-1.434-0.543-3.119-0.686-3.298l-0.017-0.018c-0.032 0.068-0.044 0.328 0.007 0.648 0.027 0.171-0.059 0.409-0.189 0.768-0.369 0.97-0.608 1.984-0.713 3.016-0.256 2.359 0.533 3.928 0.542 3.944 0.004 0.007 0.006 0.015 0.007 0.023s-0 0.016-0.003 0.024c-0.003 0.008-0.006 0.015-0.012 0.021s-0.012 0.011-0.019 0.015c-0.008 0.005-0.018 0.008-0.028 0.009z"></path>
<path fill="#263238" d="M6.83 24.412c-0.016 0-0.031-0.006-0.043-0.017s-0.018-0.026-0.019-0.042c0-0.022-0.014-0.541 0.188-1.662s0.427-3.776 0.427-3.804c0.002-0.016 0.010-0.031 0.022-0.042s0.029-0.016 0.045-0.015c0.008 0.001 0.016 0.003 0.023 0.007s0.014 0.009 0.019 0.015 0.009 0.013 0.011 0.021c0.002 0.008 0.003 0.016 0.002 0.024 0 0.027-0.229 2.698-0.427 3.815s-0.187 1.63-0.186 1.635c0 0.016-0.006 0.032-0.018 0.044s-0.027 0.019-0.043 0.020h-0.002z"></path>
<path fill="#263238" d="M5.305 24.33c-0.009-0-0.018-0.002-0.026-0.006s-0.015-0.009-0.021-0.016c-0.009-0.011-0.894-1.035-1.11-2.411s-0.308-1.834-0.448-2.032c-0.081-0.116-0.084-0.24-0.007-0.312 0.042-0.039 0.213-0.144 0.592 0.167 0.502 0.41 1.686 1.915 1.985 2.897 0.004 0.015 0.001 0.031-0.007 0.045s-0.021 0.024-0.036 0.028c-0.015 0.004-0.031 0.003-0.045-0.004s-0.025-0.019-0.030-0.034c-0.287-0.944-1.465-2.447-1.946-2.837-0.24-0.196-0.388-0.213-0.427-0.172-0.023 0.022-0.023 0.081 0.026 0.15 0.156 0.22 0.244 0.666 0.468 2.084 0.213 1.341 1.074 2.341 1.083 2.349 0.005 0.006 0.009 0.013 0.012 0.021s0.004 0.016 0.003 0.024c-0.001 0.008-0.003 0.016-0.006 0.023s-0.009 0.014-0.015 0.019c-0.012 0.010-0.028 0.016-0.044 0.015z"></path>
<path fill="#263238" d="M6.662 25.455c-0.009 0-0.018-0.002-0.027-0.006s-0.016-0.010-0.021-0.017c0-0.006-0.521-0.628-1.205-1.62s-1.057-2.795-1.073-2.873c-0.002-0.008-0.002-0.016 0-0.024s0.005-0.015 0.009-0.022c0.005-0.007 0.010-0.012 0.017-0.017s0.014-0.008 0.022-0.009c0.016-0.003 0.032 0.001 0.046 0.009s0.023 0.023 0.027 0.038c0 0.019 0.379 1.847 1.054 2.827s1.194 1.604 1.199 1.611c0.010 0.013 0.015 0.029 0.014 0.045s-0.010 0.031-0.022 0.042c-0.011 0.009-0.025 0.015-0.039 0.015v0z"></path>
<path fill="#263238" d="M4.861 20.484c-0.013-0-0.026-0.005-0.037-0.013s-0.018-0.019-0.022-0.032c0-0.013-0.393-1.317-0.514-2.166-0.029-0.205-0.057-0.373-0.079-0.512-0.060-0.361-0.082-0.497-0.011-0.565 0.019-0.016 0.042-0.027 0.066-0.032s0.050-0.004 0.073 0.003c0.201 0.039 1.889 1.325 2.296 2.809 0.002 0.008 0.003 0.016 0.002 0.024s-0.003 0.016-0.007 0.023c-0.004 0.007-0.009 0.014-0.016 0.019s-0.014 0.009-0.022 0.011c-0.008 0.002-0.016 0.003-0.025 0.002s-0.016-0.004-0.023-0.008-0.013-0.010-0.018-0.017c-0.005-0.007-0.008-0.014-0.010-0.022-0.387-1.407-2.016-2.684-2.2-2.721-0.011-0.002-0.022-0.002-0.033 0-0.021 0.031 0.012 0.228 0.049 0.456 0.022 0.137 0.050 0.308 0.080 0.514 0.119 0.84 0.506 2.135 0.51 2.148 0.005 0.016 0.003 0.033-0.005 0.047s-0.021 0.025-0.037 0.030c-0.006 0.002-0.012 0.002-0.018 0.001z"></path>
<path fill="#263238" d="M6.221 22.324c-0.014 0-0.028-0.005-0.040-0.014s-0.019-0.022-0.021-0.036c-0.114-0.474-0.317-0.923-0.598-1.322-0.495-0.719-0.796-2.324-0.807-2.392-0.002-0.008-0.002-0.016 0-0.024s0.005-0.015 0.009-0.022c0.005-0.007 0.010-0.012 0.017-0.017s0.014-0.008 0.022-0.009c0.016-0.003 0.033 0.001 0.046 0.011s0.023 0.023 0.026 0.039c0 0.016 0.307 1.647 0.787 2.341 0.293 0.412 0.503 0.877 0.619 1.369 0.002 0.008 0.001 0.016-0 0.024s-0.005 0.015-0.010 0.022c-0.005 0.007-0.011 0.012-0.018 0.017s-0.015 0.007-0.023 0.008l-0.011 0.004z"></path>
<path fill="#263238" d="M6.949 18.86c-0.008-0-0.016-0.002-0.024-0.006s-0.014-0.008-0.020-0.014c-0.006-0.006-0.010-0.013-0.013-0.021s-0.004-0.016-0.004-0.024c0.022-0.588-0.050-0.977-0.259-1.383l-0.025-0.046c-0.412-0.808-0.895-1.778-0.965-2.114-0.046-0.213-0.117-0.299-0.151-0.3-0.007 0-0.096 0.007-0.204 0.364-0.183 0.602 0.247 2.846 0.253 2.873 0.003 0.016-0 0.033-0.010 0.046s-0.023 0.023-0.040 0.026c-0.016 0.003-0.033-0-0.046-0.009s-0.023-0.023-0.026-0.039c-0.018-0.094-0.442-2.297-0.25-2.928 0.092-0.304 0.197-0.452 0.32-0.452h0.001c0.16 0.006 0.236 0.252 0.267 0.398 0.077 0.363 0.715 1.613 0.96 2.083l0.023 0.047c0.22 0.426 0.297 0.835 0.273 1.446-0.002 0.015-0.010 0.028-0.021 0.038s-0.026 0.015-0.041 0.015z"></path>
<path fill="#263238" d="M6.508 19.845c-0.015-0-0.030-0.006-0.042-0.016s-0.019-0.025-0.020-0.040c0-0.007-0.060-0.788-0.118-1.286s-0.64-1.415-0.649-1.424c-0.009-0.014-0.012-0.031-0.008-0.047s0.014-0.030 0.028-0.039c0.014-0.009 0.031-0.012 0.047-0.008s0.030 0.014 0.039 0.028c0.025 0.038 0.606 0.958 0.667 1.475s0.118 1.284 0.119 1.292c0.001 0.016-0.004 0.032-0.015 0.045s-0.026 0.020-0.042 0.021h-0.007z"></path>
<path fill="#263238" d="M18.075 20.309c0 0.029-0.024 0.053-0.053 0.053s-0.053-0.024-0.053-0.053c0-0.029 0.024-0.053 0.053-0.053s0.053 0.024 0.053 0.053z"></path>
<path fill="#263238" d="M18.821 20.468c0 0.059-0.048 0.106-0.107 0.106s-0.107-0.048-0.107-0.106c0-0.059 0.048-0.106 0.107-0.106s0.107 0.048 0.107 0.106z"></path>
<path fill="#263238" d="M18.075 20.256c0 0.059-0.048 0.106-0.107 0.106s-0.107-0.048-0.107-0.106c0-0.059 0.048-0.106 0.107-0.106s0.107 0.048 0.107 0.106z"></path>
<path fill="#263238" d="M13.616 19.214c-0.099 0.198-0.211 0.342-0.251 0.322s0.008-0.196 0.107-0.394c0.099-0.198 0.211-0.342 0.251-0.322s-0.008 0.196-0.107 0.394z"></path>
</svg>
