<!-- Generated by IcoMoon.io -->
<svg version="1.1" xmlns="http://www.w3.org/2000/svg" width="32" height="32" viewBox="0 0 32 32">
<title>online</title>
<path fill="#c8c8c8" d="M23.164 24.625c0.749-0.527 1.362-1.223 1.79-2.032 2.675-5 2.071-12.372-3.081-15.534-2.381-1.461-5.809-2.386-8.383-0.885-2.087 1.217-3.367 3.509-4.426 5.594-0.665 1.313-1.213 2.723-2.033 3.95-1.063 1.591-2.234 3.716-1.052 5.565 1.611 2.518 4.652 3.668 7.41 4.425 2.993 0.821 6.358 0.938 9.122-0.664 0.224-0.13 0.441-0.269 0.653-0.419z"></path>
<path fill="#fff" opacity="0.7" d="M23.164 24.625c0.749-0.527 1.362-1.223 1.79-2.032 2.675-5 2.071-12.372-3.081-15.534-2.381-1.461-5.809-2.386-8.383-0.885-2.087 1.217-3.367 3.509-4.426 5.594-0.665 1.313-1.213 2.723-2.033 3.95-1.063 1.591-2.234 3.716-1.052 5.565 1.611 2.518 4.652 3.668 7.41 4.425 2.993 0.821 6.358 0.938 9.122-0.664 0.224-0.13 0.441-0.269 0.653-0.419z"></path>
<path fill="#263238" d="M19.568 7.4h-12.763v11.332h12.763v-11.332z"></path>
<path fill="#fff" d="M19.326 7.125h-12.763v11.332h12.763v-11.332z"></path>
<path fill="#fff" d="M16.841 11.698h0.635v-0.633h-0.635v0.633z"></path>
<path fill="#fff" d="M17.671 11.698h0.635v-0.633h-0.635v0.633z"></path>
<path fill="#fff" d="M16.841 13.192h0.635v-0.633h-0.635v0.633z"></path>
<path fill="#fff" d="M17.671 13.192h0.635v-0.633h-0.635v0.633z"></path>
<path fill="#fff" d="M16.841 14.687h0.635v-0.633h-0.635v0.633z"></path>
<path fill="#fff" d="M17.671 14.687h0.635v-0.633h-0.635v0.633z"></path>
<path fill="#fff" d="M10.773 11.698h0.635v-0.633h-0.635v0.633z"></path>
<path fill="#fff" d="M11.604 11.698h0.635v-0.633h-0.635v0.633z"></path>
<path fill="#fff" d="M10.773 13.192h0.635v-0.633h-0.635v0.633z"></path>
<path fill="#fff" d="M11.604 13.192h0.635v-0.633h-0.635v0.633z"></path>
<path fill="#fff" d="M10.773 14.687h0.635v-0.633h-0.635v0.633z"></path>
<path fill="#fff" d="M11.604 14.687h0.635v-0.633h-0.635v0.633z"></path>
<path fill="#fff" d="M8.195 16.863h-0.699v0.697h0.699v-0.697z"></path>
<path fill="#fff" d="M11.048 16.863h-0.699v0.697h0.699v-0.697z"></path>
<path fill="#fff" d="M14.015 16.863h-0.699v0.697h0.699v-0.697z"></path>
<path fill="#fff" d="M19.326 7.125h-12.763v1.77h12.763v-1.77z"></path>
<path fill="#dbdbdb" d="M19.326 7.125h-0.481v11.332h0.481v-11.332z"></path>
<path fill="#949494" d="M19.326 8.828h-0.481v2.187h0.481v-2.187z"></path>
<path fill="#dbdbdb" d="M19.326 7.125h-12.763v0.861h12.763v-0.861z"></path>
<path fill="#fff" d="M12.243 7.375h-5.033v0.359h5.033v-0.359z"></path>
<path fill="#263238" d="M11.021 9.611c0-0.111 0.059-0.174 0.165-0.174s0.165 0.063 0.165 0.174v0.359c0 0.11-0.058 0.173-0.165 0.173s-0.165-0.063-0.165-0.173v-0.359zM11.13 9.977c0 0.049 0.022 0.068 0.056 0.068s0.056-0.019 0.056-0.068v-0.373c0-0.050-0.021-0.068-0.056-0.068s-0.056 0.019-0.056 0.068v0.373z"></path>
<path fill="#263238" d="M11.518 9.636v0.499h-0.098v-0.69h0.136l0.112 0.413v-0.413h0.097v0.69h-0.112l-0.135-0.499z"></path>
<path fill="#263238" d="M11.843 9.445h0.109v0.591h0.18v0.098h-0.288l-0.001-0.69z"></path>
<path fill="#263238" d="M12.179 9.445h0.109v0.69h-0.109v-0.69z"></path>
<path fill="#263238" d="M12.463 9.636v0.499h-0.096v-0.69h0.136l0.112 0.413v-0.413h0.096v0.69h-0.111l-0.138-0.499z"></path>
<path fill="#263238" d="M12.896 9.736h0.149v0.098h-0.149v0.202h0.187v0.098h-0.296v-0.69h0.296v0.098h-0.187l-0.001 0.192z"></path>
<path fill="#263238" d="M13.273 9.445h0.336v0.098h-0.114v0.591h-0.109v-0.591h-0.113v-0.098z"></path>
<path fill="#263238" d="M13.765 9.736h0.149v0.098h-0.149v0.202h0.187v0.098h-0.296v-0.69h0.296v0.098h-0.187v0.192z"></path>
<path fill="#263238" d="M14.165 9.437c0.106 0 0.16 0.063 0.16 0.174v0.021h-0.103v-0.028c0-0.050-0.020-0.068-0.054-0.068s-0.054 0.019-0.054 0.068c0 0.14 0.212 0.169 0.212 0.366 0 0.11-0.055 0.173-0.162 0.173s-0.16-0.063-0.16-0.173v-0.043h0.103v0.050c0 0.049 0.022 0.067 0.056 0.067s0.056-0.018 0.056-0.067c0-0.14-0.212-0.169-0.212-0.366-0.003-0.111 0.052-0.174 0.158-0.174z"></path>
<path fill="#263238" d="M14.357 9.445h0.336v0.098h-0.113v0.591h-0.107v-0.591h-0.114l-0.001-0.098z"></path>
<path fill="#263238" d="M8.040 16.695h-0.11l-0.019-0.125h-0.132l-0.019 0.125h-0.102l0.111-0.69h0.159l0.111 0.69zM7.792 16.476h0.105l-0.052-0.349-0.052 0.349z"></path>
<path fill="#263238" d="M10.847 16.163v0.024c0 0.071-0.021 0.116-0.070 0.14 0.058 0.022 0.081 0.075 0.081 0.148v0.056c0 0.106-0.056 0.163-0.165 0.163h-0.171v-0.689h0.164c0.113 0 0.161 0.052 0.161 0.157zM10.631 16.103v0.182h0.043c0.040 0 0.065-0.018 0.065-0.073v-0.038c0-0.049-0.017-0.071-0.055-0.071h-0.052zM10.631 16.383v0.212h0.062c0.037 0 0.056-0.017 0.056-0.068v-0.060c0-0.064-0.021-0.084-0.070-0.084h-0.049z"></path>
<path fill="#263238" d="M13.842 16.438v0.093c0 0.111-0.055 0.174-0.162 0.174s-0.162-0.063-0.162-0.174v-0.359c0-0.11 0.055-0.173 0.162-0.173s0.162 0.063 0.162 0.173v0.067h-0.102v-0.077c0-0.049-0.022-0.068-0.057-0.068s-0.056 0.019-0.056 0.068v0.373c0 0.049 0.022 0.067 0.056 0.067s0.057-0.018 0.057-0.067v-0.099h0.102z"></path>
<path fill="#000" opacity="0.09" d="M23.743 17.392h-0.087l-0.015-0.099h-0.106l-0.015 0.099h-0.079l0.088-0.547h0.126l0.088 0.547zM23.547 17.218h0.083l-0.042-0.277-0.041 0.277z"></path>
<path fill="#000" opacity="0.09" d="M24.969 16.971v0.020c0.003 0.022-0 0.044-0.010 0.064s-0.026 0.036-0.045 0.046c0.022 0.010 0.040 0.027 0.052 0.048s0.016 0.045 0.012 0.069v0.047c0.002 0.018 0 0.035-0.006 0.052s-0.015 0.032-0.028 0.044c-0.013 0.013-0.028 0.022-0.045 0.028s-0.035 0.007-0.052 0.005h-0.135v-0.549h0.13c0.089 0 0.127 0.041 0.127 0.126zM24.798 16.924v0.145h0.034c0.032 0 0.051-0.014 0.051-0.058v-0.030c0-0.039-0.013-0.056-0.044-0.056h-0.041zM24.798 17.147v0.168h0.049c0.029 0 0.047-0.013 0.047-0.054v-0.047c0-0.050-0.017-0.066-0.056-0.066l-0.040-0.001z"></path>
<path fill="#000" opacity="0.09" d="M26.21 17.19v0.072c0 0.088-0.044 0.138-0.128 0.138s-0.129-0.050-0.129-0.138v-0.284c0-0.088 0.044-0.138 0.129-0.138s0.128 0.050 0.128 0.138v0.053h-0.081v-0.061c0-0.039-0.017-0.054-0.044-0.054s-0.047 0.014-0.047 0.054v0.296c0 0.039 0.017 0.053 0.047 0.053s0.044-0.014 0.044-0.053v-0.076h0.081z"></path>
<path fill="#9e9e9e" d="M21.102 25.37l0.301-4.566 0.222-2.171-0.608-0.677-0.305-0.221c0 0-0.43 0.373-0.734 0.456s-0.598 0.166-0.598 0.166c0 0-1.039 1.95-1.123 2.834s-0.222 4.162-0.222 4.162l0.116 0.017h2.952z"></path>
<path fill="#263238" d="M19.551 18.31c0.052 0.369 0.080 0.741 0.086 1.113 0 0 0.312-0.125 0.562-0.56 0.138-0.234 0.256-0.478 0.355-0.731l-1.002 0.178z"></path>
<path fill="#fff" d="M21.102 25.37l0.271-4.105c-0.266 0.135-0.79 0.359-1.369 0.369-0.694 0.012-1.552-0.526-1.552-0.526l-0.193 0.076c0 0.002 0 0.005 0 0.008-0.083 0.887-0.222 4.162-0.222 4.162l0.116 0.017h2.951z"></path>
<path fill="#fff" d="M20.651 23.072c0 1.057 0.037 2.075 0.047 2.297h2.043c0.028-0.33 0.204-2.381 0.294-3.116 0.099-0.803 0.747-2 0.747-2.428s0.131-0.36-0.46-0.672c-0.592-0.311-1.896-0.984-2.077-1.066s-0.378-0.28-0.378-0.28c0 0 0.066 0.41 0.047 1.524s-0.262 2.545-0.262 3.74z"></path>
<path fill="#000" opacity="0.04000000000000001" d="M20.866 17.812c0.024 0.194 0.038 0.389 0.042 0.584v-0.545c-0.026-0.024-0.042-0.040-0.042-0.040z"></path>
<path fill="#000" opacity="0.04000000000000001" d="M23.552 20.48v0.14c0.016-0.042 0.032-0.084 0.047-0.124v-0.017h0.006c0.006-0.015 0.012-0.031 0.017-0.047h-0.023v-0.581h0.181c0-0.007 0-0.014 0-0.021s0-0.017 0-0.025h-0.181v-0.498c-0.015-0.009-0.030-0.017-0.047-0.027v0.524h-0.491v-0.584h0.38l-0.088-0.047h-0.292v-0.154l-0.047-0.025v0.177h-0.491v-0.432l-0.047-0.024v0.457h-0.491v-0.582h0.245l-0.091-0.047h-0.154v-0.079l-0.047-0.024v0.103h-0.491v-0.352c-0.016-0.008-0.032-0.016-0.047-0.023v0.376h-0.487c0 0.015 0 0.031 0 0.047h0.487v0.584h-0.483c0 0.015 0 0.031 0 0.047h0.483v0.584h-0.491v-0.222c-0.009 0.228-0.026 0.467-0.047 0.71v0.14h-0.012l-0.004 0.047h0.016v0.585h-0.070l-0.005 0.047h0.077v0.584h-0.133l-0.004 0.047h0.137v0.584h-0.183l-0.003 0.047h0.187v0.584h-0.207c0 0.016 0 0.031 0 0.047h0.208v0.584h-0.206c0 0.016 0 0.031 0 0.047h0.206v0.584h-0.197c0 0.016 0 0.031 0 0.047h0.196v1.109h0.047v-1.11h0.488v1.109h0.047v-1.109h0.491v1.109h0.047v-1.109h0.491v1.109h0.047v-1.109h0.315c0-0.015 0-0.031 0.004-0.047h-0.319v-0.582h0.374c0-0.015 0.003-0.031 0.005-0.047h-0.379v-0.584h0.432c0-0.016 0.003-0.031 0.005-0.047h-0.437v-0.584h0.491v0.062l0.021-0.179c0.007-0.052 0.015-0.106 0.026-0.162v-0.352h0.088l0.014-0.047h-0.102v-0.584h0.304c0.006-0.015 0.012-0.031 0.018-0.047h-0.322v-0.584l0.491-0.001zM23.061 19.851h0.491v0.584h-0.491v-0.584zM21.399 24.215h-0.491v-0.582h0.491v0.582zM21.399 23.585h-0.491v-0.584h0.491v0.584zM21.399 22.954h-0.491v-0.582h0.491v0.582zM21.399 22.324h-0.491v-0.584h0.491v0.584zM21.399 21.694h-0.491v-0.582h0.491v0.582zM21.399 21.064h-0.491v-0.584h0.491v0.584zM21.399 20.433h-0.491v-0.582h0.491v0.582zM21.938 24.215h-0.491v-0.582h0.491v0.582zM21.938 23.585h-0.491v-0.584h0.491v0.584zM21.938 22.954h-0.491v-0.582h0.491v0.582zM21.938 22.324h-0.491v-0.584h0.491v0.584zM21.938 21.694h-0.491v-0.582h0.491v0.582zM21.938 21.064h-0.491v-0.584h0.491v0.584zM21.938 20.433h-0.491v-0.582h0.491v0.582zM21.938 19.803h-0.491v-0.584h0.491v0.584zM21.938 19.173h-0.491v-0.582h0.491v0.582zM22.476 24.215h-0.491v-0.582h0.491v0.582zM22.476 23.585h-0.491v-0.584h0.491v0.584zM22.476 22.954h-0.491v-0.582h0.491v0.582zM22.476 22.324h-0.491v-0.584h0.491v0.584zM22.476 21.694h-0.491v-0.582h0.491v0.582zM22.476 21.064h-0.491v-0.584h0.491v0.584zM22.476 20.433h-0.491v-0.582h0.491v0.582zM22.476 19.803h-0.491v-0.584h0.491v0.584zM23.014 22.324h-0.491v-0.584h0.491v0.584zM23.014 21.694h-0.491v-0.582h0.491v0.582zM23.014 21.064h-0.491v-0.584h0.491v0.584zM23.014 20.433h-0.491v-0.582h0.491v0.582zM23.014 19.803h-0.491v-0.584h0.491v0.584z"></path>
<path fill="#263238" d="M20.866 17.812c0 0 0.066 0.41 0.047 1.524-0.004 0.28-0.023 0.583-0.047 0.895 0.056-0.077 0.237-0.323 0.281-0.337 0.049-0.016 0.312 0.23 0.526 0.262s0.296 0.033 0.066-0.213c-0.23-0.246-0.328-0.967-0.411-1.508-0.016-0.116-0.041-0.23-0.076-0.342h-0.006c-0.182-0.084-0.38-0.281-0.38-0.281z"></path>
<path fill="#fff" d="M16.269 25.37h2.299c0.005-0.18 0.072-2.464 0.117-3.63 0.047-1.214 0.872-3.055 0.872-3.055s0.11-0.26-0.007-0.376c-0.117-0.117-0.398-0.070-0.608 0.093s-2.153 1.004-2.27 1.12c-0.117 0.117-0.094 0.514-0.14 0.98s-0.819 3.688-0.819 3.688c0 0-0.211 0.047-0.281 0.093s-0.070 0.187-0.070 0.187 0.094 0.023 0.374 0.163c0.258 0.129 0.497 0.652 0.533 0.735z"></path>
<path fill="#000" opacity="0.2" d="M19.246 19.219v0.239c0.016-0.043 0.031-0.084 0.047-0.125v-0.114h0.044l0.018-0.047h-0.062v-0.582h0.295c0.003-0.015 0.007-0.030 0.009-0.047h-0.304v-0.293c-0.015 0.002-0.031 0.005-0.047 0.008v0.285h-0.491v-0.032l-0.047 0.024v0.008h-0.016l-0.094 0.047h0.11v0.584h-0.491v-0.401l-0.047 0.022v0.378h-0.491v-0.149l-0.047 0.022v0.127h-0.272l-0.099 0.047h0.371v0.585h-0.491v-0.528l-0.047 0.022v0.505h-0.491v-0.118c-0.026 0.17-0.042 0.342-0.047 0.514v0.233h-0.017l-0.004 0.047h0.021v0.584h-0.126l-0.010 0.047h0.136v0.584h-0.263c-0.003 0.015-0.007 0.031-0.010 0.047h0.273v0.584h-0.405c-0.004 0.016-0.007 0.031-0.011 0.047h0.416v0.584h-0.491v-0.257l-0.047 0.202v0.053h-0.012l-0.011 0.047h0.023v0.586h-0.16l-0.011 0.047h0.171v0.584h-0.397c-0.048 0.013-0.095 0.028-0.14 0.047v0 0.254c0.014 0.006 0.030 0.012 0.047 0.020v-0.274h0.491v0.654c0.016 0.023 0.032 0.047 0.047 0.071v-0.724h0.491v1.109h0.047v-1.111h0.491v1.109h0.047v-1.109h0.491v1.109h0.047v-1.109h0.491v1.109h0.047v-1.109h0.384v-0.047h-0.384v-0.582h0.404v-0.047h-0.404v-0.584h0.424v-0.047h-0.424v-0.584h0.445c0-0.015 0-0.031 0-0.047h-0.445v-0.584h0.468c0-0.015 0-0.031 0.002-0.047h-0.47v-0.584h0.491v0.345c0.012-0.099 0.028-0.202 0.047-0.305v-0.040h0.008c0.003-0.015 0.006-0.031 0.009-0.047h-0.016v-0.584h0.157c0.004-0.015 0.009-0.031 0.013-0.047h-0.17v-0.584h0.351c0.006-0.015 0.011-0.031 0.016-0.047h-0.367v-0.584l0.491-0.001zM18.755 18.591h0.491v0.584h-0.491v-0.584zM16.555 24.216h-0.491v-0.584h0.491v0.584zM16.555 23.586h-0.491v-0.584h0.491v0.584zM17.093 24.216h-0.491v-0.584h0.491v0.584zM17.093 23.586h-0.491v-0.584h0.491v0.584zM17.093 22.956h-0.491v-0.584h0.491v0.584zM17.093 22.325h-0.491v-0.584h0.491v0.584zM17.093 21.695h-0.491v-0.584h0.491v0.584zM17.093 21.065h-0.491v-0.584h0.491v0.584zM17.093 20.435h-0.491v-0.584h0.491v0.584zM17.632 24.216h-0.491v-0.584h0.491v0.584zM17.632 23.586h-0.491v-0.584h0.491v0.584zM17.632 22.956h-0.491v-0.584h0.491v0.584zM17.632 22.325h-0.491v-0.584h0.491v0.584zM17.632 21.695h-0.491v-0.584h0.491v0.584zM17.632 21.065h-0.491v-0.584h0.491v0.584zM17.632 20.435h-0.491v-0.584h0.491v0.584zM18.17 24.216h-0.491v-0.584h0.491v0.584zM18.17 23.586h-0.491v-0.584h0.491v0.584zM18.17 22.956h-0.491v-0.584h0.491v0.584zM18.17 22.325h-0.491v-0.584h0.491v0.584zM18.17 21.695h-0.491v-0.584h0.491v0.584zM18.17 21.065h-0.491v-0.584h0.491v0.584zM18.17 20.435h-0.491v-0.584h0.491v0.584zM18.17 19.804h-0.491v-0.584h0.491v0.584zM18.708 21.065h-0.491v-0.584h0.491v0.584zM18.708 20.435h-0.491v-0.584h0.491v0.584zM18.708 19.804h-0.491v-0.584h0.491v0.584z"></path>
<path fill="#263238" d="M15.362 24.473c0 0 0.094 0.023 0.374 0.163s0.538 0.747 0.538 0.747h0.454c0.029-0.085 0.098-0.394-0.22-0.77-0.374-0.444-0.796-0.42-0.796-0.42s-0.211 0.047-0.281 0.093c-0.070 0.047-0.070 0.187-0.070 0.187z"></path>
<path fill="#263238" d="M19.268 18.253c-0.101 0.266-0.339 0.867-0.536 1.153-0.257 0.373-0.725 0.677-0.562 0.817s0.632-0.303 0.632-0.303 0.117 0.327 0.14 0.42c0.001 0.004 0.003 0.008 0.006 0.012 0.169-0.567 0.372-1.124 0.608-1.666 0 0 0.11-0.26-0.007-0.376-0.060-0.061-0.163-0.077-0.282-0.056z"></path>
<path fill="#9e9e9e" d="M18.721 17.76c0 0 0.441 0.633 0.836 0.925s0.732-0.117 0.995-0.555c0.264-0.438 0.439-0.759 0.571-1.139s0-1.007-0.527-1.503c-0.526-0.496-1.757-1.226-2.064-0.847s-0.6 1.214-0.395 1.927c0.122 0.429 0.32 0.832 0.583 1.192v0z"></path>
<path fill="#263238" d="M18.913 16.789c0.014 0.076-0.004 0.142-0.040 0.149s-0.076-0.049-0.090-0.126 0.004-0.142 0.040-0.149c0.036-0.007 0.076 0.049 0.090 0.126z"></path>
<path fill="#263238" d="M20.215 16.809c0.014 0.076-0.004 0.14-0.040 0.149s-0.076-0.049-0.090-0.126 0.004-0.142 0.040-0.149c0.036-0.007 0.076 0.049 0.090 0.126z"></path>
<path fill="#263238" d="M18.579 14.964c0 0 0.65 1.479 0.732 1.52s0.244-0.446 0.244-0.446 0.223 0.405 0.488 0.527c0.265 0.122 0.345-0.081 0.345-0.081 0.133 0.075 0.262 0.156 0.386 0.243l0.102 0.081 0.102 0.365c0 0-0.305 0.993-0.203 1.115s0.67-0.041 0.67-0.041c0 0-0.14 0.203 0.041 0.203s0.508 0.041 0.975-0.588 0.508-1.641 0.508-1.641c0 0 0.223 0.243 0.244-0.061s-0.264-0.81-0.264-0.81 0.447 0.446 0.406-0.020c-0.040-0.466-0.305-0.993-0.406-1.114s-0.711-0.467-0.711-0.467 0.244-0.041 0.061-0.324c-0.183-0.284-0.853-0.365-1.097-0.365s-0.752 0.081-0.752 0.081c0 0 0.325-0.628-0.020-0.669s-0.955 0.628-0.955 0.628-0.608-0.486-0.792-0.385c-0.184 0.101-0.061 0.243-0.061 0.243s-0.792 0.061-1.016 0.405c-0.224 0.345 0.041 0.547 0.041 0.547s-1.422 0.972-1.199 1.337c0.223 0.365 0.63 0.021 0.63 0.021s-0.569 1.459-0.488 1.56c0.081 0.101 0.468-0.041 0.468-0.041s-0.020 1.175 0.285 1.297c0.305 0.122 0.366-0.101 0.366-0.101s0.162 0.162 0.528 0.182c0.366 0.020 0.487-0.405 0.487-0.405s-0.406-0.952-0.386-1.742c0.021-0.79 0.241-1.053 0.241-1.053z"></path>
<path fill="#9e9e9e" d="M19.397 16.671c0 0-0.147 0.759-0.030 0.92s0.527 0 0.556-0.087z"></path>
<path fill="#9e9e9e" d="M14.581 24.749c0 0 0.735-0.207 0.961-0.244s0.679 0.376 0.754 0.601c0.075 0.226-0.021 0.276-0.021 0.276l-1.506-0.050-0.188-0.583z"></path>
<path fill="#9e9e9e" d="M14.847 24.676c0 0 0.555 0.207 0.693 0.29s0.097 0.249 0.014 0.331c-0.1 0.083-0.219 0.14-0.347 0.166-0.129 0.007-0.259 0.007-0.388 0-0.166-0.014-0.319 0.014-0.457 0.014s-0.555-0.042-0.555-0.042l-0.125-0.083c0 0-0.234 0.069-0.416 0.14s-0.125-0.083 0.014-0.194c0.139-0.111 0.485-0.387 0.541-0.415s0.762-0.233 0.762-0.233l0.263 0.024z"></path>
<path fill="#9e9e9e" d="M15.055 24.731c0 0-0.361-0.166-0.458-0.166s-0.79 0.233-0.887 0.304c-0.097 0.070-0.194 0.733-0.125 0.774s0.125-0.083 0.14-0.166c0.015-0.083 0.208-0.526 0.208-0.526l-0.14 0.705c0 0 0.056 0.11 0.111 0.014s0.402-0.761 0.43-0.802c0.036-0.039 0.079-0.071 0.125-0.097 0 0-0.069 0.304-0.125 0.595s-0.014 0.373 0.070 0.387c0.083 0.014 0.125-0.18 0.166-0.276s0.222-0.65 0.222-0.65z"></path>
<path fill="#9e9e9e" d="M15.455 25.008c0 0-0.416 0.429-0.471 0.525s-0.055 0.111 0.097 0.111c0.153 0 0.624-0.304 0.665-0.346s0.028-0.166-0.069-0.249c-0.031-0.024-0.067-0.040-0.106-0.047s-0.078-0.005-0.116 0.006z"></path>
<path fill="#9e9e9e" d="M18.051 24.96c0 0-0.555 0.179-0.691 0.28s-0.333 0.213-0.29 0.247c0.043 0.034 0.179 0 0.222-0.034s0.239-0.068 0.239-0.068 0.23-0.136 0.41-0.246c0.179-0.11 0.315-0.23 0.111-0.178z"></path>
<path fill="#9e9e9e" d="M21.112 24.024c0 0-1.544 0.28-2.103 0.476s-0.781 0.332-1.061 0.529c-0.279 0.197-0.846 0.569-0.761 0.634s0.378-0.164 0.427-0.213c0.050-0.049 0.41-0.197 0.41-0.197l0.241-0.123c0 0-0.364 0.447-0.495 0.56s-0.043 0.184 0.056 0.152 0.285-0.228 0.285-0.228l0.601-0.394c0 0-0.247 0.345-0.362 0.443s0.132 0.181 0.181 0.099c0.050-0.082 0.296-0.295 0.296-0.295s0.411-0.213 0.509-0.295c0.099-0.082 0.345-0.311 0.345-0.311l1.84 0.148c0 0 0.115-0.065 0.050-0.443s-0.46-0.541-0.46-0.541z"></path>
<path fill="#fff" d="M22.361 21.123l0.904 2.23-1.463 0.508 0.411 1.197c0 0 1.050 0.003 1.872-0.047s1.399-0.544 1.267-1.134c-0.132-0.59-0.624-1.443-1.019-2.459s-0.272-1.622-0.453-1.934c-0.181-0.311-0.69-0.394-0.69-0.394l-0.281-0.047z"></path>
<path fill="#263238" opacity="0.2" d="M25.214 24.497v-0.233h0.122c0.005-0.015 0.009-0.031 0.013-0.047h-0.135v-0.584h0.070c-0.005-0.015-0.011-0.031-0.016-0.047h-0.054v-0.142c-0.015-0.039-0.030-0.078-0.047-0.118v0.261h-0.491v-0.584h0.353c-0.007-0.015-0.014-0.031-0.021-0.047h-0.332v-0.584h0.066c-0.008-0.015-0.015-0.031-0.022-0.047h-0.044v-0.098c-0.015-0.035-0.031-0.069-0.047-0.104v0.202h-0.491v-0.584h0.328c-0.007-0.015-0.013-0.031-0.019-0.047h-0.308v-0.584h0.087c-0.005-0.015-0.010-0.031-0.015-0.047h-0.073v-0.266c-0.018-0.074-0.033-0.144-0.047-0.212v0.478h-0.491v-0.584h0.472l-0.008-0.047h-0.463v-0.584h0.384l-0.007-0.047h-0.377v-0.572c-0.041-0.022-0.083-0.042-0.126-0.059h-0.412v-0.105l-0.047-0.008v0.113h-0.138l-0.013 0.047h0.151v0.585h-0.304l-0.012 0.047h0.317v0.584h-0.471l-0.013 0.047h0.483v0.584h-0.491v-0.554l-0.047 0.177v0.373h-0.099l-0.012 0.047h0.111v0.296l0.047 0.115v-0.408h0.491v0.584h-0.421l0.019 0.047h0.402v0.584h-0.164l0.019 0.047h0.147v0.363l0.047 0.115v-0.478h0.489v0.584h-0.449l0.019 0.047h0.43v0.584h-0.491v-0.162l-0.047 0.016v0.145h-0.418l-0.135 0.047h0.015v0.584h-0.491v-0.42l-0.047 0.016v0.401h-0.014l0.060 0.176v-0.129h0.491v0.794h0.047v-0.794h0.491v0.788h0.047v-0.787h0.491v0.772h0.047v-0.772h0.491v0.747l0.047-0.004v-0.743h0.491v0.641l0.047-0.018v-0.623h0.491v0.293c0.016-0.019 0.032-0.038 0.047-0.058zM23.014 24.217h-0.491v-0.584h0.491v0.584zM23.552 24.217h-0.491v-0.584h0.491v0.584zM23.552 22.326h-0.491v-0.584h0.491v0.584zM23.552 21.696h-0.491v-0.584h0.491v0.584zM23.552 21.065h-0.491v-0.584h0.491v0.584zM23.552 20.435h-0.491v-0.584h0.491v0.584zM23.552 19.805h-0.491v-0.584h0.491v0.584zM24.091 24.217h-0.491v-0.584h0.491v0.584zM24.091 23.586h-0.491v-0.584h0.491v0.584zM24.091 22.956h-0.491v-0.584h0.491v0.584zM24.091 22.326h-0.491v-0.584h0.491v0.584zM24.091 21.696h-0.491v-0.584h0.491v0.584zM24.629 24.217h-0.491v-0.584h0.491v0.584zM24.629 23.586h-0.491v-0.584h0.491v0.584zM24.629 22.956h-0.491v-0.584h0.491v0.584zM24.676 24.217v-0.584h0.491v0.584l-0.491 0z"></path>
<path fill="#263238" d="M22.23 23.679c0 0 0.332 0.317 0.431 0.563s0.062 0.913-0.003 0.978-1.288 0.057-1.49-0.193c-0.052-0.065 0.307-0.216 0.126-0.577s-0.263-0.393-0.263-0.393-0.148-0.082 0.132-0.262c0.279-0.18 0.92-0.311 1.068-0.115z"></path>
<path fill="#263238" d="M25.143 26.207h-1.213l-0.152-2.392h1.516l-0.152 2.392z"></path>
<path fill="#fff" d="M25.362 23.818h-1.651v0.348h1.651v-0.348z"></path>
<path fill="#fff" d="M25.362 23.831h-1.651l0.165-0.206h1.321l0.165 0.206z"></path>
<path fill="#fff" d="M25.188 25.505l0.060-0.953h-1.423l0.060 0.953h1.302z"></path>
<path fill="#263238" d="M18.152 26.366l1.495-0.394v0.202l-1.495 0.418v-0.226z"></path>
<path fill="#fff" d="M19.647 25.972h-7.816l-1.511 0.394h7.832l1.495-0.394z"></path>
<path fill="#fff" d="M18.152 21.861h-7.832v4.731h7.832v-4.731z"></path>
<path fill="#263238" d="M18.152 22.545c-1.704 0.081-2.718 1.647-4.226 2.697-1.374 0.957-3.071 1.12-3.604 1.146v0.204h7.83v-4.046z"></path>
<path fill="#fff" d="M18.152 26.366h-7.832v0.226h7.832v-0.226z"></path>
<path fill="#fff" d="M8.002 24.805c0 0-0.652-1.041-0.129-1.627s1.37-0.304 1.545 0.239-0.196 1.454-0.196 1.454l-1.22-0.065z"></path>
<path fill="#fff" d="M8.023 23.612c-0.109 0-0.522-0.152-0.652-0.347s-0.153-0.629 0.218-0.629c0.371 0 0.5 0.651 0.5 0.651l0.022 0.239z"></path>
<path fill="#fff" d="M8.358 23.207c-0.097-0.047-0.399-0.368-0.429-0.601s0.146-0.631 0.476-0.467c0.331 0.164 0.156 0.805 0.156 0.805l-0.088 0.223z"></path>
<path fill="#fff" d="M8.753 23.316c-0.054-0.093-0.127-0.527-0.023-0.737s0.472-0.444 0.655-0.124c0.183 0.32-0.318 0.756-0.318 0.756l-0.197 0.137z"></path>
<path fill="#fff" d="M8.883 24.094c-0.018-0.107 0.064-0.539 0.234-0.7s0.597-0.254 0.658 0.109c0.061 0.364-0.562 0.6-0.562 0.6l-0.234 0.061z"></path>
<path fill="#263238" d="M9.456 24.442h-1.784v1.78h1.784v-1.78z"></path>
</svg>
