<!-- Generated by IcoMoon.io -->
<svg version="1.1" xmlns="http://www.w3.org/2000/svg" width="32" height="32" viewBox="0 0 32 32">
<title>shared-goals-bro-1</title>
<path fill="#fff" d="M11.692 24.013h-0.49v1.665h0.49v-1.665z"></path>
<path fill="#000" opacity="0.2" d="M11.692 24.013h-0.49v1.665h0.49v-1.665z"></path>
<path fill="#fff" d="M12.182 24.197h-0.49v1.482h0.49v-1.482z"></path>
<path fill="#fff" d="M12.794 24.197h-0.346v1.482h0.346v-1.482z"></path>
<path fill="#fff" opacity="0.9" d="M12.794 24.197h-0.346v1.482h0.346v-1.482z"></path>
<path fill="#fff" d="M12.449 24.040h-0.314v1.638h0.314v-1.638z"></path>
<path fill="#000" opacity="0.1" d="M12.449 24.040h-0.314v1.638h0.314v-1.638z"></path>
<path fill="#fff" d="M13.284 24.013h-0.49v1.665h0.49v-1.665z"></path>
<path fill="#fff" d="M13.773 24.197h-0.49v1.482h0.49v-1.482z"></path>
<path fill="#263238" opacity="0.2" d="M13.773 24.197h-0.49v1.482h0.49v-1.482z"></path>
<path fill="#fff" d="M14.385 24.197h-0.346v1.482h0.346v-1.482z"></path>
<path fill="#fff" opacity="0.8" d="M14.385 24.197h-0.346v1.482h0.346v-1.482z"></path>
<path fill="#fff" d="M14.040 24.040h-0.314v1.638h0.314v-1.638z"></path>
<path fill="#000" opacity="0.1" d="M14.040 24.040h-0.314v1.638h0.314v-1.638z"></path>
<path fill="#fff" d="M16.721 25.679h0.49v-1.665h-0.49v1.665z"></path>
<path fill="#000" opacity="0.2" d="M16.721 25.679h0.49v-1.665h-0.49v1.665z"></path>
<path fill="#fff" d="M16.231 25.679h0.49v-1.482h-0.49v1.482z"></path>
<path fill="#fff" d="M15.62 25.679h0.346v-1.482h-0.346v1.482z"></path>
<path fill="#fff" opacity="0.9" d="M15.62 25.679h0.346v-1.482h-0.346v1.482z"></path>
<path fill="#fff" d="M15.965 25.678h0.314v-1.638h-0.314v1.638z"></path>
<path fill="#000" opacity="0.1" d="M15.965 25.678h0.314v-1.638h-0.314v1.638z"></path>
<path fill="#fff" d="M15.13 25.679h0.49v-1.665h-0.49v1.665z"></path>
<path fill="#fff" d="M14.64 25.679h0.49v-1.482h-0.49v1.482z"></path>
<path fill="#263238" opacity="0.2" d="M14.64 25.679h0.49v-1.482h-0.49v1.482z"></path>
<path fill="#fff" d="M14.374 25.678h0.314v-1.638h-0.314v1.638z"></path>
<path fill="#000" opacity="0.1" d="M14.374 25.678h0.314v-1.638h-0.314v1.638z"></path>
<path fill="#fff" d="M19.544 25.679h0.49v-1.665h-0.49v1.665z"></path>
<path fill="#000" opacity="0.2" d="M19.544 25.679h0.49v-1.665h-0.49v1.665z"></path>
<path fill="#fff" d="M19.053 25.679h0.49v-1.482h-0.49v1.482z"></path>
<path fill="#fff" d="M18.442 25.679h0.346v-1.482h-0.346v1.482z"></path>
<path fill="#fff" opacity="0.9" d="M18.442 25.679h0.346v-1.482h-0.346v1.482z"></path>
<path fill="#fff" d="M18.787 25.678h0.314v-1.638h-0.314v1.638z"></path>
<path fill="#000" opacity="0.1" d="M18.787 25.678h0.314v-1.638h-0.314v1.638z"></path>
<path fill="#fff" d="M17.952 25.679h0.49v-1.665h-0.49v1.665z"></path>
<path fill="#fff" d="M20.352 25.62l0.322-0.086-0.433-1.615-0.322 0.086 0.433 1.615z"></path>
<path fill="#fff" d="M17.462 25.679h0.49v-1.482h-0.49v1.482z"></path>
<path fill="#263238" opacity="0.2" d="M17.462 25.679h0.49v-1.482h-0.49v1.482z"></path>
<path fill="#fff" d="M17.196 25.678h0.314v-1.638h-0.314v1.638z"></path>
<path fill="#000" opacity="0.1" d="M17.196 25.678h0.314v-1.638h-0.314v1.638z"></path>
<path fill="#fff" d="M20.516 27.841l0.329-0.088-0.431-1.608-0.329 0.088 0.431 1.608z"></path>
<path fill="#000" opacity="0.2" d="M20.516 27.841l0.329-0.088-0.431-1.608-0.329 0.088 0.431 1.608z"></path>
<path fill="#fff" d="M19.671 27.825h0.49v-1.482h-0.49v1.482z"></path>
<path fill="#fff" d="M19.059 27.825h0.346v-1.482h-0.346v1.482z"></path>
<path fill="#fff" opacity="0.9" d="M19.059 27.825h0.346v-1.482h-0.346v1.482z"></path>
<path fill="#fff" d="M19.404 27.825h0.314v-1.638h-0.314v1.638z"></path>
<path fill="#000" opacity="0.1" d="M19.404 27.825h0.314v-1.638h-0.314v1.638z"></path>
<path fill="#fff" d="M18.57 27.825h0.49v-1.665h-0.49v1.665z"></path>
<path fill="#fff" d="M18.079 27.825h0.49v-1.482h-0.49v1.482z"></path>
<path fill="#263238" opacity="0.2" d="M18.079 27.825h0.49v-1.482h-0.49v1.482z"></path>
<path fill="#fff" d="M17.468 27.825h0.346v-1.482h-0.346v1.482z"></path>
<path fill="#fff" opacity="0.8" d="M17.468 27.825h0.346v-1.482h-0.346v1.482z"></path>
<path fill="#fff" d="M17.813 27.825h0.314v-1.638h-0.314v1.638z"></path>
<path fill="#000" opacity="0.1" d="M17.813 27.825h0.314v-1.638h-0.314v1.638z"></path>
<path fill="#fff" d="M15.132 26.161h-0.49v1.665h0.49v-1.665z"></path>
<path fill="#000" opacity="0.2" d="M15.132 26.161h-0.49v1.665h0.49v-1.665z"></path>
<path fill="#fff" d="M15.622 26.344h-0.49v1.482h0.49v-1.482z"></path>
<path fill="#fff" d="M16.234 26.344h-0.346v1.482h0.346v-1.482z"></path>
<path fill="#fff" opacity="0.9" d="M16.234 26.344h-0.346v1.482h0.346v-1.482z"></path>
<path fill="#fff" d="M15.888 26.187h-0.314v1.638h0.314v-1.638z"></path>
<path fill="#000" opacity="0.1" d="M15.888 26.187h-0.314v1.638h0.314v-1.638z"></path>
<path fill="#fff" d="M16.723 26.161h-0.49v1.665h0.49v-1.665z"></path>
<path fill="#fff" d="M17.213 26.344h-0.49v1.482h0.49v-1.482z"></path>
<path fill="#263238" opacity="0.2" d="M17.213 26.344h-0.49v1.482h0.49v-1.482z"></path>
<path fill="#fff" d="M17.479 26.187h-0.314v1.638h0.314v-1.638z"></path>
<path fill="#000" opacity="0.1" d="M17.479 26.187h-0.314v1.638h0.314v-1.638z"></path>
<path fill="#fff" d="M12.31 26.161h-0.49v1.665h0.49v-1.665z"></path>
<path fill="#000" opacity="0.2" d="M12.31 26.161h-0.49v1.665h0.49v-1.665z"></path>
<path fill="#fff" d="M12.799 26.344h-0.49v1.482h0.49v-1.482z"></path>
<path fill="#fff" d="M13.411 26.344h-0.346v1.482h0.346v-1.482z"></path>
<path fill="#fff" opacity="0.9" d="M13.411 26.344h-0.346v1.482h0.346v-1.482z"></path>
<path fill="#fff" d="M13.066 26.187h-0.314v1.638h0.314v-1.638z"></path>
<path fill="#000" opacity="0.1" d="M13.066 26.187h-0.314v1.638h0.314v-1.638z"></path>
<path fill="#fff" d="M13.901 26.161h-0.49v1.665h0.49v-1.665z"></path>
<path fill="#fff" d="M11.819 26.232l-0.32-0.086-0.431 1.608 0.32 0.086 0.431-1.608z"></path>
<path fill="#fff" d="M14.39 26.344h-0.49v1.482h0.49v-1.482z"></path>
<path fill="#263238" opacity="0.2" d="M14.39 26.344h-0.49v1.482h0.49v-1.482z"></path>
<path fill="#fff" d="M14.657 26.187h-0.314v1.638h0.314v-1.638z"></path>
<path fill="#000" opacity="0.1" d="M14.657 26.187h-0.314v1.638h0.314v-1.638z"></path>
<path fill="#263238" d="M11.579 29.084h-0.49l-0.067-0.947h0.624l-0.067 0.947z"></path>
<path fill="#263238" d="M20.911 29.084h-0.49l-0.067-0.947h0.624l-0.067 0.947z"></path>
<path fill="#fff" d="M21.45 23.385h-10.9c-0.062 0-0.122 0.025-0.166 0.069s-0.069 0.104-0.069 0.166v4.453c0 0.062 0.025 0.122 0.069 0.166s0.104 0.069 0.166 0.069h10.9c0.062 0 0.122-0.025 0.166-0.069s0.069-0.104 0.069-0.166v-4.453c0-0.062-0.025-0.122-0.069-0.166s-0.104-0.069-0.166-0.069zM21.215 23.855v1.823h-10.432v-1.823h10.432zM10.785 27.84v-1.825h10.432v1.825h-10.432z"></path>
<path fill="#263238" d="M19.839 14.031h-7.542c-0.242 0-0.439 0.197-0.439 0.439v1.619c0 0.242 0.197 0.439 0.439 0.439h7.542c0.242 0 0.439-0.197 0.439-0.439v-1.619c0-0.242-0.197-0.439-0.439-0.439z"></path>
<path fill="#fff" d="M19.704 13.897h-7.542c-0.242 0-0.439 0.197-0.439 0.439v1.619c0 0.242 0.197 0.439 0.439 0.439h7.542c0.243 0 0.439-0.197 0.439-0.439v-1.619c0-0.242-0.197-0.439-0.439-0.439z"></path>
<path fill="#fff" d="M13.587 15.883h-1.109v-1.403h0.739l0.37 0.37v1.033z"></path>
<path fill="#fff" opacity="0.5" d="M13.587 15.883h-1.109v-1.403h0.739l0.37 0.37v1.033z"></path>
<path fill="#fff" d="M13.217 14.85h0.37l-0.37-0.37v0.37z"></path>
<path fill="#858585" d="M12.725 15.224c-0.017-0.002-0.034-0.010-0.045-0.023s-0.018-0.030-0.018-0.047c0-0.017 0.007-0.034 0.018-0.047s0.028-0.021 0.045-0.023h0.616c0.017 0.002 0.034 0.010 0.045 0.023s0.018 0.030 0.018 0.047c0 0.018-0.006 0.034-0.018 0.047s-0.028 0.021-0.045 0.023h-0.616z"></path>
<path fill="#858585" d="M12.725 15.519c-0.017-0.002-0.034-0.010-0.045-0.023s-0.018-0.030-0.018-0.047c0-0.017 0.007-0.034 0.018-0.047s0.028-0.021 0.045-0.023h0.482c0.017 0.002 0.034 0.010 0.045 0.023s0.018 0.030 0.018 0.047c0 0.018-0.006 0.034-0.018 0.047s-0.028 0.021-0.045 0.023h-0.482z"></path>
<path fill="#fff" d="M16.391 15.305h-2.064c-0.037 0.002-0.071 0.019-0.097 0.046s-0.039 0.062-0.039 0.099c0 0.037 0.014 0.072 0.039 0.099s0.060 0.043 0.097 0.046h2.064v-0.29z"></path>
<path fill="#263238" d="M16.438 14.912h-0.156v-0.074l0.148-0.35h0.089v0.35h0.038v0.074h-0.038v0.094h-0.081v-0.094zM16.438 14.838v-0.202l-0.080 0.202 0.080-0.001z"></path>
<path fill="#263238" d="M16.595 14.884v-0.040h0.077v0.046c0 0.037 0.016 0.051 0.042 0.051s0.042-0.013 0.042-0.051v-0.116c0-0.037-0.017-0.051-0.042-0.051s-0.042 0.014-0.042 0.051v0.005h-0.077l0.015-0.289h0.214v0.074h-0.142l-0.006 0.123c0.007-0.012 0.017-0.022 0.030-0.029s0.026-0.010 0.041-0.009c0.059 0 0.090 0.042 0.090 0.118v0.117c0 0.083-0.042 0.128-0.122 0.128s-0.12-0.045-0.12-0.128z"></path>
<path fill="#263238" d="M16.888 14.694v-0.128c-0.001-0.011 0-0.022 0.004-0.032s0.009-0.020 0.016-0.028c0.007-0.008 0.016-0.015 0.026-0.019s0.021-0.007 0.032-0.007c0.011 0 0.022 0.002 0.032 0.007s0.019 0.011 0.026 0.019c0.007 0.008 0.013 0.018 0.017 0.028s0.005 0.021 0.004 0.032v0.128c0.001 0.011-0 0.022-0.004 0.032s-0.009 0.020-0.017 0.028c-0.007 0.008-0.016 0.015-0.026 0.019s-0.021 0.007-0.032 0.007c-0.011 0-0.022-0.002-0.032-0.007s-0.019-0.011-0.026-0.019c-0.007-0.008-0.013-0.018-0.016-0.028s-0.005-0.021-0.004-0.032zM16.993 14.698v-0.137c0-0.022-0.010-0.032-0.026-0.032s-0.027 0.010-0.027 0.032v0.137c0 0.023 0.010 0.033 0.027 0.033s0.026-0.010 0.026-0.033zM17.155 14.489h0.052l-0.2 0.518h-0.052l0.2-0.518zM17.116 14.931v-0.128c-0.001-0.011 0-0.022 0.004-0.032s0.009-0.020 0.017-0.028c0.007-0.008 0.016-0.015 0.026-0.019s0.021-0.007 0.032-0.007c0.011 0 0.022 0.002 0.032 0.007s0.019 0.011 0.026 0.019c0.007 0.008 0.013 0.018 0.017 0.028s0.005 0.021 0.004 0.032v0.128c0.001 0.011-0 0.022-0.004 0.032s-0.009 0.020-0.017 0.028c-0.007 0.008-0.016 0.015-0.026 0.019s-0.021 0.007-0.032 0.007c-0.011 0-0.022-0.002-0.032-0.007s-0.019-0.011-0.026-0.019c-0.007-0.008-0.013-0.018-0.017-0.028s-0.005-0.021-0.004-0.032zM17.22 14.935v-0.137c0-0.023-0.010-0.033-0.027-0.033s-0.026 0.010-0.026 0.033v0.137c0 0.023 0.010 0.033 0.026 0.033s0.027-0.010 0.027-0.033z"></path>
<path fill="#263238" d="M19.839 16.929h-7.542c-0.242 0-0.439 0.197-0.439 0.439v1.619c0 0.243 0.197 0.439 0.439 0.439h7.542c0.242 0 0.439-0.197 0.439-0.439v-1.619c0-0.242-0.197-0.439-0.439-0.439z"></path>
<path fill="#fff" d="M19.704 16.795h-7.542c-0.242 0-0.439 0.197-0.439 0.439v1.619c0 0.243 0.197 0.439 0.439 0.439h7.542c0.243 0 0.439-0.197 0.439-0.439v-1.619c0-0.242-0.197-0.439-0.439-0.439z"></path>
<path fill="#fff" d="M18.019 18.185h-3.692c-0.037 0.002-0.071 0.019-0.097 0.046s-0.039 0.062-0.039 0.099c0 0.037 0.014 0.072 0.039 0.099s0.060 0.043 0.097 0.046h3.692v-0.29z"></path>
<path fill="#263238" d="M16.292 17.766v-0.046c-0.003-0.021 0.001-0.042 0.011-0.061s0.024-0.034 0.043-0.045c-0.017-0.010-0.031-0.025-0.040-0.043s-0.012-0.038-0.010-0.058v-0.021c0-0.033 0.013-0.064 0.036-0.088s0.055-0.036 0.088-0.036c0.033 0 0.064 0.013 0.088 0.036s0.036 0.055 0.036 0.088v0.021c0.002 0.020-0.001 0.040-0.010 0.058s-0.023 0.033-0.040 0.043c0.018 0.010 0.033 0.026 0.043 0.045s0.013 0.040 0.011 0.061v0.046c0 0.034-0.013 0.067-0.038 0.090s-0.057 0.038-0.090 0.038-0.067-0.013-0.090-0.038c-0.024-0.024-0.038-0.057-0.038-0.090h0.001zM16.465 17.762v-0.050c0-0.039-0.016-0.058-0.046-0.058s-0.046 0.019-0.046 0.058v0.050c0 0.039 0.016 0.058 0.046 0.058s0.046-0.019 0.046-0.058zM16.465 17.528v-0.041c0-0.034-0.015-0.052-0.043-0.052s-0.043 0.018-0.043 0.052v0.041c0 0.034 0.015 0.052 0.043 0.052s0.040-0.018 0.040-0.052h0.003z"></path>
<path fill="#263238" d="M16.595 17.764v-0.040h0.077v0.046c0 0.037 0.016 0.051 0.042 0.051s0.042-0.013 0.042-0.051v-0.116c0-0.037-0.017-0.051-0.042-0.051s-0.042 0.014-0.042 0.051v0.005h-0.077l0.015-0.289h0.214v0.074h-0.142l-0.006 0.124c0.007-0.012 0.017-0.022 0.030-0.029s0.026-0.010 0.041-0.009c0.059 0 0.090 0.042 0.090 0.118v0.116c0.001 0.017-0.001 0.033-0.007 0.049s-0.014 0.030-0.026 0.043c-0.011 0.012-0.025 0.022-0.041 0.029s-0.032 0.010-0.049 0.010c-0.017 0-0.033-0.003-0.049-0.010s-0.029-0.016-0.040-0.029c-0.011-0.012-0.020-0.027-0.026-0.043s-0.008-0.032-0.007-0.049h0.001z"></path>
<path fill="#263238" d="M16.888 17.574v-0.128c-0.001-0.011 0-0.022 0.004-0.032s0.009-0.020 0.016-0.028c0.007-0.008 0.016-0.015 0.026-0.019s0.021-0.007 0.032-0.007c0.011 0 0.022 0.002 0.032 0.007s0.019 0.011 0.026 0.019c0.007 0.008 0.013 0.018 0.017 0.028s0.005 0.021 0.004 0.032v0.128c0.001 0.011-0 0.022-0.004 0.032s-0.009 0.020-0.017 0.028c-0.007 0.008-0.016 0.015-0.026 0.019s-0.021 0.007-0.032 0.007c-0.011 0-0.022-0.002-0.032-0.007s-0.019-0.011-0.026-0.019c-0.007-0.008-0.013-0.018-0.016-0.028s-0.005-0.021-0.004-0.032zM16.993 17.578v-0.137c0-0.022-0.010-0.033-0.026-0.033s-0.027 0.010-0.027 0.033v0.137c0 0.023 0.010 0.033 0.027 0.033s0.026-0.010 0.026-0.033zM17.155 17.369h0.052l-0.2 0.518h-0.052l0.2-0.518zM17.116 17.811v-0.128c-0.001-0.011 0-0.022 0.004-0.032s0.009-0.020 0.017-0.028c0.007-0.008 0.016-0.015 0.026-0.019s0.021-0.007 0.032-0.007c0.011 0 0.022 0.002 0.032 0.007s0.019 0.011 0.026 0.019c0.007 0.008 0.013 0.018 0.017 0.028s0.005 0.021 0.004 0.032v0.128c0.001 0.011-0 0.022-0.004 0.032s-0.009 0.020-0.017 0.028c-0.007 0.008-0.016 0.015-0.026 0.019s-0.021 0.007-0.032 0.007c-0.011 0-0.022-0.002-0.032-0.007s-0.019-0.011-0.026-0.019c-0.007-0.008-0.013-0.018-0.017-0.028s-0.005-0.021-0.004-0.032zM17.22 17.815v-0.137c0-0.023-0.010-0.033-0.027-0.033s-0.026 0.010-0.026 0.033v0.137c0 0.023 0.010 0.033 0.026 0.033s0.027-0.010 0.027-0.033z"></path>
<path fill="#fff" d="M13.587 18.763h-1.109v-1.403h0.739l0.37 0.37v1.033z"></path>
<path fill="#fff" opacity="0.5" d="M13.587 18.763h-1.109v-1.403h0.739l0.37 0.37v1.033z"></path>
<path fill="#858585" d="M12.725 18.104c-0.017-0.002-0.034-0.010-0.045-0.023s-0.018-0.030-0.018-0.047c0-0.017 0.007-0.034 0.018-0.047s0.028-0.021 0.045-0.023h0.616c0.017 0.002 0.034 0.010 0.045 0.023s0.018 0.030 0.018 0.047c0 0.018-0.006 0.034-0.018 0.047s-0.028 0.021-0.045 0.023h-0.616z"></path>
<path fill="#858585" d="M12.725 18.399c-0.017-0.002-0.034-0.010-0.045-0.023s-0.018-0.030-0.018-0.047c0-0.017 0.007-0.034 0.018-0.047s0.028-0.021 0.045-0.023h0.482c0.017 0.002 0.034 0.010 0.045 0.023s0.018 0.030 0.018 0.047c0 0.018-0.006 0.034-0.018 0.047s-0.028 0.021-0.045 0.023h-0.482z"></path>
<path fill="#fff" d="M13.217 17.73h0.37l-0.37-0.37v0.37z"></path>
<path fill="#263238" d="M20.87 10.162h-9.605c-0.242 0-0.439 0.197-0.439 0.439v2.232c0 0.242 0.197 0.439 0.439 0.439h9.605c0.242 0 0.439-0.197 0.439-0.439v-2.232c0-0.242-0.197-0.439-0.439-0.439z"></path>
<path fill="#fff" d="M20.735 10.027h-9.605c-0.243 0-0.439 0.197-0.439 0.439v2.232c0 0.242 0.197 0.439 0.439 0.439h9.605c0.242 0 0.439-0.197 0.439-0.439v-2.232c0-0.242-0.197-0.439-0.439-0.439z"></path>
<path fill="#fff" d="M14.35 12.881h-2.054v-2.598h1.369l0.685 0.684v1.914z"></path>
<path fill="#fff" opacity="0.7" d="M14.35 12.881h-2.054v-2.598h1.369l0.685 0.684v1.914z"></path>
<path fill="#fff" d="M13.665 10.968h0.685l-0.685-0.684v0.684z"></path>
<path fill="#263238" d="M15.158 11.499h-0.118v-0.078c0.093 0 0.128-0.021 0.152-0.089h0.074v0.704h-0.111l0.002-0.537z"></path>
<path fill="#263238" d="M15.398 11.871v-0.371c0-0.045 0.018-0.087 0.049-0.119s0.074-0.049 0.119-0.049c0.045 0 0.087 0.018 0.119 0.049s0.049 0.074 0.049 0.119v0.371c0 0.045-0.018 0.087-0.049 0.119s-0.074 0.049-0.119 0.049c-0.045 0-0.087-0.018-0.119-0.049s-0.049-0.074-0.049-0.119v0zM15.624 11.878v-0.384c0-0.050-0.022-0.069-0.058-0.069s-0.058 0.019-0.058 0.069v0.384c0 0.051 0.022 0.070 0.058 0.070s0.058-0.019 0.058-0.070z"></path>
<path fill="#263238" d="M15.801 11.871v-0.371c0-0.045 0.018-0.087 0.049-0.119s0.074-0.049 0.119-0.049c0.045 0 0.087 0.018 0.119 0.049s0.049 0.074 0.049 0.119v0.371c0 0.045-0.018 0.087-0.049 0.119s-0.074 0.049-0.119 0.049c-0.045 0-0.087-0.018-0.119-0.049s-0.049-0.074-0.049-0.119v0zM16.027 11.878v-0.384c0-0.050-0.022-0.069-0.058-0.069s-0.058 0.019-0.058 0.069v0.384c0 0.051 0.022 0.070 0.058 0.070s0.058-0.019 0.058-0.070z"></path>
<path fill="#263238" d="M16.206 11.611v-0.176c0-0.028 0.011-0.055 0.031-0.076s0.047-0.031 0.076-0.031c0.028 0 0.056 0.011 0.076 0.031s0.031 0.047 0.031 0.076v0.176c0 0.028-0.011 0.056-0.031 0.076s-0.047 0.031-0.076 0.031c-0.028 0-0.056-0.011-0.076-0.031s-0.031-0.047-0.031-0.076zM16.349 11.617v-0.186c0-0.031-0.014-0.045-0.036-0.045s-0.037 0.013-0.037 0.045v0.186c0 0.031 0.013 0.044 0.037 0.044s0.036-0.013 0.036-0.044zM16.569 11.332h0.071l-0.273 0.704h-0.070l0.273-0.704zM16.515 11.935v-0.177c0-0.014 0.003-0.028 0.008-0.041s0.013-0.025 0.023-0.035 0.022-0.018 0.035-0.023c0.013-0.005 0.027-0.008 0.041-0.008s0.028 0.003 0.041 0.008c0.013 0.005 0.025 0.013 0.035 0.023s0.018 0.022 0.023 0.035c0.005 0.013 0.008 0.027 0.008 0.041v0.177c0 0.014-0.003 0.028-0.008 0.041s-0.013 0.025-0.023 0.035-0.022 0.018-0.035 0.023c-0.013 0.005-0.027 0.008-0.041 0.008s-0.028-0.003-0.041-0.008c-0.013-0.005-0.025-0.013-0.035-0.023s-0.018-0.022-0.023-0.035c-0.005-0.013-0.008-0.027-0.008-0.041zM16.659 11.941v-0.187c0-0.031-0.014-0.044-0.037-0.044s-0.036 0.013-0.036 0.044v0.187c0 0.031 0.013 0.044 0.036 0.044s0.037-0.013 0.037-0.044z"></path>
<path fill="#263238" d="M16.908 11.818v-0.278c0-0.032 0.013-0.062 0.035-0.085s0.053-0.035 0.085-0.035c0.032 0 0.062 0.013 0.085 0.035s0.035 0.053 0.035 0.085v0.055h-0.077v-0.060c0-0.034-0.017-0.048-0.041-0.048s-0.040 0.014-0.040 0.048v0.289c0 0.034 0.016 0.047 0.040 0.047s0.041-0.013 0.041-0.047v-0.079h0.077v0.074c0 0.032-0.013 0.062-0.035 0.085s-0.053 0.035-0.085 0.035c-0.032 0-0.062-0.013-0.085-0.035s-0.035-0.053-0.035-0.085z"></path>
<path fill="#263238" d="M17.192 11.814v-0.272c0-0.033 0.013-0.064 0.036-0.087s0.055-0.036 0.087-0.036 0.064 0.013 0.087 0.036c0.023 0.023 0.036 0.055 0.036 0.087v0.272c0 0.033-0.013 0.064-0.036 0.087s-0.055 0.036-0.087 0.036-0.064-0.013-0.087-0.036c-0.023-0.023-0.036-0.055-0.036-0.087zM17.357 11.819v-0.282c0-0.037-0.016-0.051-0.042-0.051s-0.042 0.014-0.042 0.051v0.282c0 0.037 0.017 0.051 0.042 0.051s0.042-0.014 0.042-0.051z"></path>
<path fill="#263238" d="M17.493 11.419h0.116l0.052 0.371 0.052-0.371h0.116v0.518h-0.077v-0.392l-0.059 0.392h-0.068l-0.059-0.392v0.392h-0.071l-0.002-0.518z"></path>
<path fill="#263238" d="M17.891 11.419h0.12c0.081 0 0.121 0.045 0.121 0.128v0.051c0 0.083-0.040 0.128-0.121 0.128h-0.038v0.211h-0.081v-0.518zM18.011 11.652c0.026 0 0.040-0.012 0.040-0.049v-0.064c0-0.037-0.014-0.049-0.040-0.049h-0.038v0.159l0.038 0.003z"></path>
<path fill="#263238" d="M18.176 11.419h0.081v0.444h0.134v0.074h-0.215v-0.518z"></path>
<path fill="#263238" d="M18.432 11.419h0.221v0.074h-0.14v0.136h0.111v0.074h-0.111v0.159h0.14v0.074h-0.221v-0.518z"></path>
<path fill="#263238" d="M18.762 11.494h-0.084v-0.074h0.251v0.074h-0.085v0.444h-0.081v-0.444z"></path>
<path fill="#263238" d="M18.968 11.419h0.221v0.074h-0.14v0.136h0.111v0.074h-0.111v0.159h0.14v0.074h-0.221v-0.518z"></path>
<path fill="#263238" d="M19.236 11.419h0.124c0.081 0 0.121 0.045 0.121 0.128v0.262c0 0.083-0.040 0.128-0.121 0.128h-0.124v-0.518zM19.359 11.863c0.026 0 0.042-0.013 0.042-0.050v-0.269c0-0.037-0.015-0.050-0.042-0.050h-0.041v0.369h0.041z"></path>
<path fill="#263238" d="M19.839 19.828h-7.542c-0.242 0-0.439 0.197-0.439 0.439v1.619c0 0.242 0.197 0.439 0.439 0.439h7.542c0.242 0 0.439-0.197 0.439-0.439v-1.619c0-0.242-0.197-0.439-0.439-0.439z"></path>
<path fill="#fff" d="M19.704 19.693h-7.542c-0.242 0-0.439 0.197-0.439 0.439v1.619c0 0.242 0.197 0.439 0.439 0.439h7.542c0.243 0 0.439-0.197 0.439-0.439v-1.619c0-0.242-0.197-0.439-0.439-0.439z"></path>
<path fill="#fff" d="M17.759 21.066h-3.432c-0.038 0-0.075 0.015-0.102 0.042s-0.042 0.064-0.042 0.102c0 0.038 0.015 0.075 0.042 0.102s0.064 0.042 0.102 0.042h3.432v-0.289z"></path>
<path fill="#fff" d="M13.587 21.643h-1.109v-1.403h0.739l0.37 0.369v1.034z"></path>
<path fill="#fff" opacity="0.5" d="M13.587 21.643h-1.109v-1.403h0.739l0.37 0.369v1.034z"></path>
<path fill="#858585" d="M12.725 20.985c-0.017-0.002-0.034-0.010-0.045-0.023s-0.018-0.030-0.018-0.047c0-0.017 0.007-0.034 0.018-0.047s0.028-0.021 0.045-0.023h0.616c0.017 0.002 0.034 0.010 0.045 0.023s0.018 0.030 0.018 0.047c0 0.018-0.006 0.034-0.018 0.047s-0.028 0.021-0.045 0.023h-0.616z"></path>
<path fill="#858585" d="M12.724 21.279c-0.018 0-0.036-0.007-0.049-0.020s-0.020-0.031-0.020-0.049c0-0.018 0.007-0.036 0.020-0.049s0.031-0.020 0.049-0.020h0.482c0.018 0 0.036 0.007 0.049 0.020s0.020 0.031 0.020 0.049c0 0.019-0.007 0.036-0.020 0.049s-0.031 0.020-0.049 0.020h-0.482z"></path>
<path fill="#fff" d="M13.217 20.61h0.37l-0.37-0.369v0.369z"></path>
<path fill="#263238" d="M16.461 20.323h-0.165v-0.074h0.244v0.071l-0.128 0.448h-0.083l0.132-0.445z"></path>
<path fill="#263238" d="M16.591 20.645v-0.272c0-0.033 0.013-0.064 0.036-0.087s0.055-0.036 0.087-0.036c0.033 0 0.064 0.013 0.087 0.036s0.036 0.055 0.036 0.087v0.272c0 0.033-0.013 0.064-0.036 0.087s-0.055 0.036-0.087 0.036c-0.033 0-0.064-0.013-0.087-0.036s-0.036-0.055-0.036-0.087zM16.757 20.65v-0.282c0-0.037-0.017-0.051-0.042-0.051s-0.042 0.014-0.042 0.051v0.282c0 0.037 0.017 0.051 0.042 0.051s0.042-0.013 0.042-0.051z"></path>
<path fill="#263238" d="M16.888 20.454v-0.128c-0.001-0.011 0-0.022 0.004-0.032s0.009-0.020 0.016-0.028c0.007-0.008 0.016-0.015 0.026-0.019s0.021-0.007 0.032-0.007c0.011 0 0.022 0.002 0.032 0.007s0.019 0.011 0.026 0.019c0.007 0.008 0.013 0.018 0.017 0.028s0.005 0.021 0.004 0.032v0.128c0.001 0.011-0 0.022-0.004 0.032s-0.009 0.020-0.017 0.028c-0.007 0.008-0.016 0.015-0.026 0.019s-0.021 0.007-0.032 0.007c-0.011 0-0.022-0.002-0.032-0.007s-0.019-0.011-0.026-0.019c-0.007-0.008-0.013-0.018-0.016-0.028s-0.005-0.021-0.004-0.032zM16.993 20.458v-0.137c0-0.023-0.010-0.033-0.026-0.033s-0.027 0.010-0.027 0.033v0.137c0 0.022 0.010 0.032 0.027 0.032s0.026-0.010 0.026-0.032zM17.152 20.25h0.052l-0.2 0.517h-0.052l0.2-0.517zM17.113 20.692v-0.128c-0.001-0.011 0-0.022 0.004-0.032s0.009-0.020 0.017-0.028c0.007-0.008 0.016-0.015 0.026-0.019s0.021-0.007 0.032-0.007c0.011 0 0.022 0.002 0.032 0.007s0.019 0.011 0.026 0.019c0.007 0.008 0.013 0.018 0.017 0.028s0.005 0.021 0.004 0.032v0.128c0.001 0.011-0 0.022-0.004 0.032s-0.009 0.020-0.017 0.028c-0.007 0.008-0.016 0.015-0.026 0.019s-0.021 0.007-0.032 0.007c-0.011 0-0.022-0.002-0.032-0.007s-0.019-0.011-0.026-0.019c-0.007-0.008-0.013-0.018-0.017-0.028s-0.005-0.021-0.004-0.032zM17.218 20.695v-0.136c0-0.023-0.010-0.033-0.027-0.033s-0.026 0.010-0.026 0.033v0.136c0 0.023 0.010 0.033 0.026 0.033s0.029-0.010 0.029-0.033h-0.003z"></path>
<path fill="#263238" d="M7.58 7.053l1.689-1.306 1.689 1.306h-3.378z"></path>
<path fill="#263238" d="M9.711 5.645h-0.883v0.755h0.883v-0.755z"></path>
<path fill="#263238" d="M21.041 7.053l1.69-1.306 1.689 1.306h-3.379z"></path>
<path fill="#263238" d="M23.172 5.645h-0.883v0.755h0.883v-0.755z"></path>
<path fill="#fff" d="M23.39 27.43l-0.036 1.056 0.547 0.026 0.199-1.082h-0.71z"></path>
<path fill="#fff" d="M22.321 28.81c0.184-0.064 0.503-0.173 0.623-0.248 0.096-0.060 0.23-0.256 0.329-0.311 0.021-0.009 0.043-0.014 0.066-0.014s0.045 0.005 0.066 0.014c0.016 0.018 0.027 0.040 0.030 0.064 0.003 0.010 0.008 0.020 0.016 0.027s0.018 0.012 0.028 0.013 0.021-0 0.031-0.005c0.010-0.005 0.018-0.012 0.023-0.021 0.015-0.030 0.037-0.056 0.064-0.077 0.084-0.047 0.313-0.061 0.388 0 0.124 0.102 0.169 0.453 0.192 0.611 0.006 0.035 0 0.227 0 0.227h-1.994v-0.088c-0-0.042 0.013-0.084 0.038-0.118s0.060-0.060 0.1-0.074z"></path>
<path fill="#858585" d="M24.179 29.088h-1.996v-0.088c0-0.022 0.004-0.043 0.011-0.064h1.987c0 0.067-0.003 0.152-0.003 0.152z"></path>
<path fill="#263238" d="M23.735 19.243l-0.419 8.589 0.768 0.128c0 0 0.484-2.486 0.543-3.3 0.014-0.192 0-0.771 0-0.771l0.543-2.675c0 0 0.358-0.33 0.399-1.903l-1.834-0.068z"></path>
<path fill="#000" opacity="0.7" d="M24.872 22.567c0.029-0.124 0.064-0.246 0.106-0.368 0.006-0.017 0.014-0.033 0.022-0.049 0.019-0.182 0.048-0.362 0.088-0.541 0.014-0.067 0.049-0.127 0.102-0.17 0.015-0.034 0.037-0.064 0.065-0.088s0.061-0.042 0.097-0.051c-0.024-0.165-0.059-0.329-0.108-0.488-0.049-0.168-0.128-0.328-0.152-0.502-0.006-0.045-0.032-0.091-0.024-0.097-0.055-0.021-0.109-0.046-0.161-0.073l-0.010-0.008c-0.049 0.811-0.057 1.623-0.025 2.435z"></path>
<path fill="#fff" d="M23.215 27.995l0.929 0.076 0.069-0.301-0.998-0.078v0.303z"></path>
<path fill="#fff" d="M25.896 27.3l0.198 1.235 0.506-0.040-0.017-1.264-0.687 0.069z"></path>
<path fill="#fff" d="M25.050 28.81c0.185-0.064 0.504-0.173 0.623-0.248 0.096-0.060 0.23-0.256 0.329-0.311 0.021-0.009 0.044-0.014 0.066-0.014s0.045 0.005 0.066 0.014c0.012 0.012 0.020 0.027 0.024 0.043 0.003 0.012 0.010 0.023 0.020 0.031s0.022 0.013 0.034 0.015c0.013 0.001 0.025-0.001 0.037-0.007s0.021-0.015 0.027-0.026c0.013-0.022 0.030-0.041 0.051-0.056 0.084-0.047 0.313-0.061 0.388 0 0.124 0.102 0.169 0.452 0.192 0.611 0.005 0.035 0 0.227 0 0.227h-1.994v-0.088c-0-0.042 0.013-0.083 0.038-0.117s0.059-0.060 0.099-0.073z"></path>
<path fill="#858585" d="M26.908 29.088h-1.995v-0.088c-0-0.022 0.003-0.043 0.010-0.064h1.987c0 0.067-0.002 0.152-0.002 0.152z"></path>
<path fill="#263238" d="M24.804 19.502c0 0 0.192 1.112 0.369 2.044 0.12 0.632 0.128 2.5 0.128 2.5l0.613 3.857 0.756-0.102c0 0 0.009-2.374-0.076-3.136-0.019-0.17-0.051-0.673-0.051-0.673s0.029-2.015 0.184-2.688c0.111-0.48 0.333-0.984 0.064-1.968l-1.987 0.165z"></path>
<path fill="#fff" d="M25.787 27.731l0.044 0.283 0.937-0.101-0.006-0.305-0.974 0.122z"></path>
<path fill="#858585" d="M21.237 14.36l-0.207-0.348c0 0-0.050-0.568-0.165-0.678s-0.371-0.436-0.408-0.372c-0.058 0.102 0.155 0.285 0.155 0.285l0.039 0.211c0 0-0.345-0.248-0.442-0.248 0 0-0.275-0.326-0.372-0.326s0.040 0.225 0.040 0.225-0.093-0.071-0.111-0.027c-0.018 0.044 0.12 0.195 0.12 0.195s-0.053 0.058 0.027 0.181c-0.011 0.040-0.011 0.082 0 0.122s0.033 0.076 0.064 0.104c0.106 0.085 0.677 0.408 0.677 0.408l0.192 0.452 0.391-0.183z"></path>
<path fill="#fff" d="M23.371 14.272l-1.319 1.028-0.904-1.231-0.46 0.23c0 0 0.723 1.998 1.27 1.998 0.582 0 1.688-0.934 1.688-0.934s0.070-0.179-0.275-1.091z"></path>
<path fill="#fff" d="M23.371 14.272l0.281 3.719v1.545c0 0 1.619 0.192 3.215-0.041l-0.055-1.59 0.162-3.545c0 0-0.741-0.536-1.879-0.536s-1.724 0.448-1.724 0.448z"></path>
<path fill="#000" opacity="0.2" d="M26.867 19.495l-0.051-1.425c-0.027 0.687-0.785 0.429-0.957 0.397-0.184-0.035-0.395 0.571-0.395 0.571s-0.704 0.121-1.255 0.078c-0.551-0.043-0.559-0.546-0.559-0.546v0.966c0 0 1.62 0.195 3.217-0.041z"></path>
<path fill="#fff" d="M24.41 17.955c0.679-0.073 1.33-0.308 1.899-0.684l-1.899 0.684z"></path>
<path fill="#fff" d="M24.128 17.974c0 0 0.054 0 0.15-0.007l-0.15 0.007z"></path>
<path fill="#fff" d="M24.676 14.451l-0.28-0.102-0.267 0.259 0.196-0.8 0.236-0.186 0.12 0.076 0.538-0.020 0.418 0.034 0.199-0.061 0.212 0.213-0.473 0.904-0.198-0.342-0.438 0.054-0.262-0.028z"></path>
<path fill="#fff" opacity="0.5" d="M24.676 14.451l-0.28-0.102-0.267 0.259 0.196-0.8 0.236-0.186 0.12 0.076 0.538-0.020 0.418 0.034 0.199-0.061 0.212 0.213-0.473 0.904-0.198-0.342-0.438 0.054-0.262-0.028z"></path>
<path fill="#858585" d="M25.607 13.861l-0.064-0.978-0.618 0.109-0.128 0.46-0.128 0.398-0.061 0.006 0.168 0.914 0.892-0.896-0.061-0.013z"></path>
<path fill="#263238" d="M24.087 12.95c0 0.248 0.038 0.804 0.38 0.869 0.353 0.067 0.758-0.335 0.904-0.495 0.036-0.040 0.065-0.086 0.084-0.137l0.077-0.205c0.051 0.004 0.101-0.007 0.146-0.031h-1.59z"></path>
<path fill="#263238" d="M24.499 11.695c0 0-0.293-0.223-0.149-0.398 0.075-0.091 0.172 0.029 0.172 0.029s-0.052-0.279 0.156-0.32c0.192-0.036 0.184 0.184 0.184 0.184s0.099-0.189 0.273-0.147c0.138 0.033 0.085 0.229 0.085 0.229s0.184-0.229 0.375-0.128c0.165 0.086 0.029 0.294 0.029 0.294s0.196-0.069 0.305 0.041c0.109 0.11 0 0.256 0 0.256s0.216 0 0.225 0.161c0.010 0.161-0.167 0.192-0.167 0.192s0.25 0.081 0.252 0.277c0.002 0.196-0.165 0.133-0.165 0.133s0.104 0.184 0.017 0.282c-0.010 0.013-0.022 0.024-0.037 0.031s-0.031 0.011-0.047 0.011c-0.016 0-0.032-0.004-0.047-0.011s-0.027-0.018-0.037-0.031c0 0 0.108 0.232-0.029 0.3-0.098 0.048-0.156-0.070-0.156-0.070s-0.083 0.201-0.182 0.078c-0.1-0.123-0.595-1.069-0.595-1.069l-0.463-0.325z"></path>
<path fill="#fff" d="M24.415 11.704l-0.184 0.384c-0.019 0.040-0.029 0.084-0.029 0.128v0.12l-0.102 0.256c-0.005 0.013-0.010 0.027-0.013 0.041-0.033 0.136-0.188 0.869 0.192 1.018 0.335 0.132 0.808-0.186 0.981-0.317 0.043-0.033 0.080-0.073 0.108-0.12l0.115-0.187c0.049 0.015 0.101 0.013 0.149-0.004s0.090-0.049 0.119-0.091c0.103-0.148 0.222-0.228 0.081-0.361s-0.272 0.080-0.272 0.080l0.019-0.376-0.164-0.288-0.008-0.181c0 0-0.536-0.059-0.896-0.256l-0.096 0.152z"></path>
<path fill="#858585" d="M24.415 11.704l-0.184 0.384c-0.019 0.040-0.029 0.084-0.029 0.128v0.12l-0.102 0.256c-0.005 0.013-0.010 0.027-0.013 0.041-0.033 0.136-0.188 0.869 0.192 1.018 0.335 0.132 0.808-0.186 0.981-0.317 0.043-0.033 0.080-0.073 0.108-0.12l0.115-0.187c0.049 0.015 0.101 0.013 0.149-0.004s0.090-0.049 0.119-0.091c0.103-0.148 0.222-0.228 0.081-0.361s-0.272 0.080-0.272 0.080l0.019-0.376-0.164-0.288-0.008-0.181c0 0-0.536-0.059-0.896-0.256l-0.096 0.152z"></path>
<path fill="#263238" d="M24.743 12.56c-0.014 0.045-0.043 0.077-0.064 0.070s-0.028-0.049-0.014-0.095c0.014-0.045 0.043-0.077 0.064-0.070s0.028 0.049 0.014 0.095z"></path>
<path fill="#263238" d="M24.316 12.428c-0.014 0.046-0.043 0.077-0.064 0.070s-0.028-0.049-0.014-0.095c0.014-0.045 0.044-0.077 0.064-0.070s0.028 0.049 0.014 0.094z"></path>
<path fill="#fff" d="M25.191 19.805l-0.033 0.198c-0.005 0.033 0.003 0.066 0.023 0.093s0.048 0.045 0.081 0.051l2.052 0.337c0.033 0.005 0.066-0.003 0.093-0.023s0.045-0.048 0.051-0.080l0.032-0.198-2.299-0.378z"></path>
<path fill="#fff" d="M27.582 18.937l-2.076-0.341c-0.062-0.010-0.12 0.032-0.13 0.093l-0.206 1.254c-0.010 0.062 0.032 0.12 0.093 0.13l2.076 0.341c0.062 0.010 0.12-0.032 0.13-0.093l0.206-1.254c0.010-0.062-0.032-0.12-0.093-0.13z"></path>
<path fill="#fff" opacity="0.5" d="M27.582 18.937l-2.076-0.341c-0.062-0.010-0.12 0.032-0.13 0.093l-0.206 1.254c-0.010 0.062 0.032 0.12 0.093 0.13l2.076 0.341c0.062 0.010 0.12-0.032 0.13-0.093l0.206-1.254c0.010-0.062-0.032-0.12-0.093-0.13z"></path>
<path fill="#858585" d="M26.781 19.171l-0.113 0.384-0.384 0.275c-0.054 0.168-0.118 0.333-0.192 0.493-0.005 0.009-0.007 0.019-0.007 0.029s0.003 0.020 0.008 0.029c0.005 0.009 0.012 0.016 0.021 0.022s0.019 0.008 0.029 0.009c0.053 0 0.115-0.025 0.149-0.128 0 0 0.015 0.202 0.14 0.079 0 0 0.076 0.196 0.195 0.042 0 0 0.276 0.041 0.32-0.158s0.109-0.55 0.109-0.55l0.175-0.412-0.449-0.114z"></path>
<path fill="#fff" d="M26.974 14.36c0 0 0.96 2.667 0.942 3.057s-0.701 2.085-0.701 2.085l-0.527-0.168 0.352-1.988-0.316-1.382c0 0-0.072-1.013 0.25-1.604z"></path>
<path fill="#fff" d="M26.534 19.377c-0.019-0.025-0.033-0.054-0.042-0.084-0.037-0.001-0.073 0.013-0.1 0.037s-0.045 0.059-0.048 0.096c-0.003 0.037 0.007 0.073 0.030 0.103s0.055 0.049 0.092 0.055c0.038 0.006 0.078-0.003 0.109-0.025s0.053-0.057 0.059-0.095c-0.041-0.017-0.076-0.047-0.1-0.085z"></path>
<path fill="#fff" d="M7.804 13.747l0.116 0.574-1.294 0.054 0.225-1.591 0.872 0.101 0.081 0.861z"></path>
<path fill="#263238" d="M8.384 12.876l-1.082 0.32c0.013 0.124 0.039 0.246 0.077 0.365 0.064 0.184 0.454 0.512 0.704 0.508s0.278-0.801 0.278-0.801l0.151-0.084c0.009-0.005 0.016-0.012 0.022-0.020s0.010-0.017 0.012-0.027c0.002-0.010 0.002-0.020-0-0.030s-0.006-0.019-0.012-0.027l-0.15-0.205z"></path>
<path fill="#263238" d="M7.864 11.724c0 0 0.314 0.064 0.282-0.277s-0.618-0.133-0.923-0.094-1.291 0.406-0.942 0.988c0 0-0.205 0.328 0.534 0.877 0 0 0.351-0.165 0.544 0.076l0.15-0.293 0.384-0.675-0.030-0.602z"></path>
<path fill="#263238" d="M7.841 11.673c0 0 0.301 0.168 0.474-0.042 0 0 0.019 0.448-0.474 0.042z"></path>
<path fill="#fff" d="M7.872 11.626c0 0 0.448 0.472 0.433 0.795v0.295l0.237 0.266c0.007 0.007 0.012 0.015 0.015 0.024s0.004 0.019 0.003 0.028c-0.001 0.009-0.004 0.019-0.009 0.027s-0.012 0.015-0.020 0.020l-0.138 0.095c0 0 0.040 0.755-0.196 0.782s-0.631-0.256-0.71-0.422c-0.059-0.153-0.102-0.311-0.128-0.473-0.069-0.019-0.131-0.058-0.177-0.112s-0.076-0.121-0.084-0.192c-0.028-0.248 0.223-0.241 0.287-0.079l0.052 0.133 0.163-0.006c0 0-0.093-0.234-0.038-0.303s0.271-0.237 0.172-0.398-0.066-0.434 0.139-0.48z"></path>
<path fill="#263238" d="M8.171 12.718c0 0.044-0.017 0.081-0.041 0.081s-0.044-0.035-0.045-0.079c-0.001-0.044 0.017-0.081 0.041-0.081s0.044 0.033 0.045 0.079z"></path>
<path fill="#fff" d="M6.118 26.895l-0.187 1.608 0.556 0.086 0.307-1.59-0.676-0.104z"></path>
<path fill="#fff" d="M5.857 19.789c0 0 0.022 0.932 0.351 1.587l0.075 2.473-0.38 3.985 0.844 0.081 0.768-4.168 0.256-3.776-1.915-0.182z"></path>
<path fill="#000" opacity="0.2" d="M7.652 21.786l-0.070-0.444-0.32-1.396-0.059-0.030-1.344-0.128c0 0 0 0.153 0.030 0.379l0.664 0.376c0.016 0.236 0.069 0.469 0.158 0.688 0.008 0.019 0.011 0.040 0.008 0.061s-0.010 0.040-0.022 0.057c-0.012 0.017-0.029 0.030-0.047 0.039s-0.040 0.012-0.060 0.011c-0.068-0.005-0.128 0-0.128 0.045 0 0.104 0.5 0.438 0.5 0.438s0.505 1.632 0.487 2.235l0.068-0.371 0.135-1.96z"></path>
<path fill="#fff" d="M7.816 27.001l0.061 1.618h0.563l0.060-1.618h-0.684z"></path>
<path fill="#263238" d="M9.335 28.847c-0.186-0.057-0.366-0.128-0.54-0.215-0.083-0.052-0.2-0.221-0.285-0.269-0.018-0.008-0.037-0.012-0.057-0.012s-0.039 0.004-0.057 0.012c-0.041 0.033-0.043 0.207-0.043 0.207s-0.072-0.177-0.125-0.207c-0.073-0.041-0.271-0.053-0.336 0-0.108 0.088-0.147 0.392-0.168 0.529-0.005 0.030 0 0.197 0 0.197h1.728v-0.076c0-0.036-0.011-0.072-0.032-0.101s-0.051-0.052-0.085-0.064z"></path>
<path fill="#fff" d="M8.993 19.866l-0.138 3.738-0.231 4.268h-0.879c0 0-0.184-3.276-0.138-4.224l-0.461-2.192c0 0-0.484-0.646-0.369-1.43l2.218-0.16z"></path>
<path fill="#fff" d="M7.666 27.555l0.029 0.513h0.963l0.075-0.513h-1.067z"></path>
<path fill="#fff" d="M5.833 27.51l-0.020 0.513 0.959 0.091 0.124-0.504-1.062-0.101z"></path>
<path fill="#fff" d="M10.451 17.405l-1.331-0.846 1.402-1.402 1.331 0.846-1.403 1.402z"></path>
<path fill="#fff" d="M10.527 17.116l-1.070-0.68 1.128-1.128 1.070 0.68-1.128 1.128z"></path>
<path fill="#858585" d="M11.062 15.375l-0.177 0.177c-0.008 0.008-0.015 0.018-0.019 0.030s-0.005 0.023-0.004 0.035 0.005 0.023 0.011 0.033c0.006 0.010 0.015 0.019 0.025 0.025l0.256 0.164c0.028 0.018 0.062 0.026 0.095 0.022s0.064-0.018 0.088-0.042l0.163-0.164-0.439-0.28z"></path>
<path fill="#858585" d="M6.328 14.282l0.231-0.508c0 0 1.338-0.15 1.695 0.969l-1.926-0.461z"></path>
<path fill="#858585" d="M5.568 14.715c0 0-0.33 2.53-0.243 3.427 0.069 0.709 0.536 1.309 0.536 1.309l0.692-0.271-0.352-1.038c0 0 0.109-1.869 0.213-2.304l-0.847-1.123z"></path>
<path fill="#858585" d="M5.661 19.327l0.195 0.234 0.8-0.312-0.104-0.312-0.892 0.39z"></path>
<path fill="#858585" d="M5.568 14.715c0 0-0.104 1.453 0.192 2.475s0 2.699 0 2.699c0 0 1.364 0.883 3.456 0.207 0 0-0.259-4.966-0.605-5.243s-2.3-1.332-3.043-0.138z"></path>
<path fill="#000" opacity="0.2" d="M9.216 20.096c0 0-0.089-1.702-0.232-3.169-0.303-0.735-0.797-1.713-0.824-0.339-0.038 1.987 1.185 1.87 0.216 2.216-0.217 0.082-0.449 0.115-0.68 0.097s-0.455-0.087-0.657-0.201c-0.016-0.008-0.035-0.011-0.052-0.007s-0.034 0.013-0.045 0.027c-0.011 0.014-0.018 0.032-0.018 0.050s0.006 0.036 0.017 0.050c0.243 0.309 0.612 0.502 0.896 0.612 0.026 0.010 0.047 0.028 0.062 0.051s0.021 0.051 0.018 0.078c-0.003 0.027-0.015 0.053-0.034 0.073s-0.044 0.033-0.071 0.037c-0.913 0.135-1.628-0.35-1.956-0.632-0.038 0.489-0.102 0.85-0.102 0.85s1.37 0.883 3.462 0.207z"></path>
<path fill="#858585" d="M8.612 14.854c0.125 0.057 0.233 0.145 0.315 0.255s0.134 0.239 0.153 0.376c0.069 0.476 0.512 1.939 0.512 1.939l0.147-0.095c0.123 0.055 0.224 0.149 0.288 0.268s0.087 0.255 0.065 0.388c0 0-0.36 0.704-0.753 0.572-0.404-0.137-0.63-0.467-0.832-1.007-0.107-0.288-0.415-1.156-0.415-1.156z"></path>
<path fill="#fff" d="M9.835 17.288l0.461-0.329c0.023-0.102 0.073-0.196 0.145-0.273s0.163-0.131 0.264-0.16c0 0 0.213-0.352 0.334-0.311s-0.144 0.184-0.167 0.369l0.098 0.131c0 0 0.32-0.056 0.398-0.16 0 0-0.017 0.22-0.144 0.256 0 0 0 0.167-0.086 0.161l-0.635 0.179-0.369 0.689-0.3-0.553z"></path>
<path fill="#858585" d="M9.636 17.299c0 0 0.481 0.363 0.435 0.802l0.173-0.332c0 0-0.006-0.28-0.404-0.576l-0.205 0.106z"></path>
<path fill="#fff" d="M7.724 29.088h1.728v-0.076c0-0.019-0.003-0.037-0.009-0.055h-1.722c0 0.058 0.003 0.131 0.003 0.131z"></path>
<path fill="#263238" d="M7.36 28.847c-0.186-0.057-0.366-0.128-0.54-0.215-0.083-0.052-0.2-0.221-0.285-0.269-0.018-0.008-0.038-0.012-0.057-0.012s-0.039 0.004-0.057 0.012c-0.041 0.033-0.043 0.207-0.043 0.207s-0.072-0.177-0.125-0.207c-0.073-0.041-0.271-0.053-0.336 0-0.108 0.088-0.147 0.392-0.168 0.529-0.005 0.030 0 0.197 0 0.197h1.728v-0.076c0-0.036-0.011-0.072-0.032-0.101s-0.051-0.052-0.085-0.064v0z"></path>
<path fill="#fff" d="M5.748 29.088h1.728v-0.076c0-0.019-0.003-0.037-0.009-0.055h-1.722c0 0.058 0.003 0.131 0.003 0.131z"></path>
<path fill="#fff" d="M10.456 15.586l0.046 0.229h0.408l-0.332-0.077 0.016-0.156-0.138 0.004z"></path>
</svg>
