<!-- Generated by IcoMoon.io -->
<svg version="1.1" xmlns="http://www.w3.org/2000/svg" width="32" height="32" viewBox="0 0 32 32">
<title>webinar</title>
<path fill="#cbcbcb" d="M27.556 15.387c-0.267-1.309-0.736-2.586-1.293-3.761-0.961-2.026-2.535-3.708-4.549-4.707-4.942-2.451-8.508-1.43-10.444 0.562s-1.376 5.412-3.464 6.893c-2.089 1.481-3.566 2.145-3.668 4.851s1.223 4.749 3.363 5.412c2.14 0.664 5.349 2.808 11.769 1.583s7.999-4.646 8.406-7.097c0.204-1.233 0.133-2.498-0.119-3.736z"></path>
<path fill="#fff" opacity="0.7" d="M27.556 15.387c-0.267-1.309-0.736-2.586-1.293-3.761-0.961-2.026-2.535-3.708-4.549-4.707-4.942-2.451-8.508-1.43-10.444 0.562s-1.376 5.412-3.464 6.893c-2.089 1.481-3.566 2.145-3.668 4.851s1.223 4.749 3.363 5.412c2.14 0.664 5.349 2.808 11.769 1.583s7.999-4.646 8.406-7.097c0.204-1.233 0.133-2.498-0.119-3.736z"></path>
<path fill="#c9c9c9" d="M12.509 7.916h-0.462v2.050h0.462v-2.050z"></path>
<path fill="#fff" d="M12.509 8.225h-0.462v0.2h0.462v-0.2z"></path>
<path fill="#fff" d="M12.509 9.497h-0.462v0.2h0.462v-0.2z"></path>
<path fill="#878787" d="M13.047 7.916h-0.646v2.050h0.646v-2.050z"></path>
<path fill="#c9c9c9" d="M13.001 7.916h-0.462v2.050h0.462v-2.050z"></path>
<path fill="#fff" d="M13.001 8.225h-0.462v0.2h0.462v-0.2z"></path>
<path fill="#fff" d="M13.001 9.497h-0.462v0.2h0.462v-0.2z"></path>
<path fill="#878787" d="M13.539 7.916h-0.646v2.050h0.646v-2.050z"></path>
<path fill="#c9c9c9" d="M13.493 7.916h-0.462v2.050h0.462v-2.050z"></path>
<path fill="#fff" d="M13.493 8.225h-0.462v0.2h0.462v-0.2z"></path>
<path fill="#fff" d="M13.493 9.497h-0.462v0.2h0.462v-0.2z"></path>
<path fill="#c9c9c9" d="M14.031 7.916h-0.646v2.050h0.646v-2.050z"></path>
<path fill="#fff" d="M14.452 9.987h1.084l0.288-0.261h-1.372v0.261z"></path>
<path fill="#fff" d="M15.702 10.001l-0.035-0.060-1.237-0.003 0.036 0.062h1.236z"></path>
<path fill="#c9c9c9" d="M13.825 7.959l-0.4 0.232 1.024 1.775 0.4-0.232-1.024-1.775z"></path>
<path fill="#fff" d="M13.979 8.225l-0.4 0.232 0.1 0.173 0.4-0.232-0.1-0.173z"></path>
<path fill="#fff" d="M14.614 9.326l-0.4 0.232 0.1 0.173 0.4-0.232-0.1-0.173z"></path>
<path fill="#c9c9c9" d="M15.818 9.744l-0.98-0.003-1.024-1.775 0.98 0.003 1.024 1.775z"></path>
<path fill="#cbcbcb" d="M16.352 8.949c0 0-0.178-0.064-0.229-0.345s-0.14-0.677-0.038-0.766c0.102-0.089 0.293-0.14 0.318 0.038s-0.013 0.523 0.025 0.6c0.038 0.077 0.166 0.026 0.166-0.128 0-0.252-0.102-0.511-0.066-0.766 0.051-0.353 0.408-0.392 0.446 0 0.021 0.216 0.027 0.438 0.027 0.655 0 0.089 0.153 0.14 0.14-0.077-0.009-0.153 0.102-0.332 0.255-0.281s0.025 0.728-0.025 0.842-0.369 0.136-0.369 0.136v0.294l-0.382 0.013-0.013-0.294c-0.078 0.045-0.165 0.071-0.255 0.077z"></path>
<path fill="#fff" d="M17.345 9.039l-0.115 0.942h-0.916l-0.037-0.302-0.032-0.259-0.046-0.381h1.146z"></path>
<path fill="#cbcbcb" d="M17.299 9.42l-0.032 0.259h-0.99l-0.032-0.259h1.053z"></path>
<path fill="#fff" d="M17.848 9.981h-5.883v0.391h5.883v-0.391z"></path>
<path fill="#fff" d="M17.848 9.981h-1.356v0.391h1.356v-0.391z"></path>
<path fill="#919191" d="M16.36 10.373c0.63 0.233 0.517 0.673 0.517 0.673h0.597v-0.673h-1.113z"></path>
<path fill="#fff" d="M16.561 10.373c0.63 0.233 0.516 0.673 0.516 0.673h0.597v-0.673h-1.113z"></path>
<path fill="#919191" d="M12.323 10.373c0.63 0.233 0.517 0.673 0.517 0.673h0.597v-0.673h-1.113z"></path>
<path fill="#fff" d="M12.524 10.373c0.63 0.233 0.516 0.673 0.516 0.673h0.597v-0.673h-1.113z"></path>
<path fill="#919191" d="M26.046 7.989h-5.276v7.34h5.276v-7.34z"></path>
<path fill="#cbcbcb" d="M25.818 8.308h-4.818v6.703h4.818v-6.703z"></path>
<path fill="#fff" opacity="0.5" d="M25.818 8.308h-4.818v6.703h4.818v-6.703z"></path>
<path fill="#263238" d="M17.943 17.866h-1.309v0.494h1.309v-0.494z"></path>
<path fill="#919191" d="M19.699 17.941h-5.209l0.247-4.047h5.21l-0.247 4.047z"></path>
<path fill="#263238" d="M19.55 17.941h-5.209l0.247-4.047h5.209l-0.247 4.047z"></path>
<path fill="#fff" d="M19.274 17.716h-4.631l0.219-3.597h4.631l-0.219 3.597z"></path>
<path fill="#919191" d="M17.927 17.18h-3.145l0.169-2.772h3.146l-0.169 2.772z"></path>
<path fill="#fff" d="M16.023 15.989c0 0-0.655 0.26-0.659 0.33s-0.133 0.861-0.133 0.861h1.948l-0.164-0.911-0.721-0.3-0.272 0.020z"></path>
<path fill="#fff" d="M16.042 15.829c-0.049 0.013-0.095 0.037-0.134 0.070-0.051 0.051-0.113 0.22-0.113 0.22l-0.003 0.2 0.258-0.14 0.262-0.017 0.246 0.23 0.032-0.35c0 0-0.038-0.2-0.117-0.21s-0.431-0.003-0.431-0.003z"></path>
<path fill="#fff" d="M16.034 15.639l-0.011 0.35 0.154 0.25 0.255-0.26 0.040-0.32-0.438-0.020z"></path>
<path fill="#fff" d="M16.664 15.229c-0.018 0.294-0.213 0.649-0.426 0.649s-0.365-0.357-0.347-0.649c0.018-0.292 0.204-0.532 0.419-0.532s0.372 0.238 0.355 0.532z"></path>
<path fill="#fff" d="M15.887 15.268c0 0-0.069-0.18-0.097-0.040s0.112 0.29 0.112 0.29l-0.015-0.25z"></path>
<path fill="#fff" d="M16.664 15.229c0 0 0.169-0.071 0.119 0.079-0.013 0.042-0.034 0.082-0.064 0.114s-0.066 0.059-0.107 0.075l0.052-0.269z"></path>
<path fill="#fff" d="M16.216 15.268c0.001-0.018-0.001-0.036-0.007-0.053s-0.016-0.033-0.028-0.046c-0.012-0.013-0.027-0.024-0.044-0.031s-0.035-0.011-0.053-0.010c-0.038 0.001-0.073 0.016-0.101 0.042s-0.044 0.061-0.047 0.098c-0.001 0.018 0.001 0.036 0.007 0.053s0.015 0.033 0.028 0.046c0.012 0.013 0.027 0.024 0.044 0.031s0.034 0.011 0.052 0.011c0.038-0.001 0.074-0.016 0.101-0.042s0.044-0.061 0.047-0.099z"></path>
<path fill="#fff" d="M16.556 15.268c0.001-0.018-0.001-0.036-0.007-0.053s-0.015-0.033-0.028-0.046c-0.012-0.013-0.027-0.024-0.044-0.031s-0.034-0.011-0.052-0.010c-0.038 0.001-0.074 0.016-0.101 0.041s-0.044 0.061-0.048 0.098c-0.001 0.018 0.001 0.036 0.007 0.053s0.015 0.033 0.028 0.046c0.012 0.013 0.027 0.024 0.044 0.031s0.034 0.011 0.053 0.011c0.038-0.001 0.074-0.016 0.101-0.042s0.044-0.061 0.047-0.099z"></path>
<path fill="#263238" d="M16.275 14.637c0 0-0.153-0.080-0.267-0.030s-0.199 0.32-0.194 0.39c0.018 0.092 0.043 0.182 0.073 0.27l0.121-0.35 0.318-0.14-0.051-0.14z"></path>
<path fill="#263238" d="M16.121 14.708c0 0 0.252-0.2 0.456-0.102 0.062 0.027 0.114 0.074 0.146 0.134s0.044 0.129 0.033 0.196c-0.003 0.051-0.007 0.28-0.007 0.28l-0.121 0.020-0.060-0.188c-0.069-0.027-0.136-0.059-0.201-0.095 0 0-0.27-0.035-0.247-0.245z"></path>
<path fill="#fff" d="M16.216 15.268l-0.018 0.29h0.070z"></path>
<path fill="#fff" d="M17.153 16.609l0.069-0.31 0.117-0.12 0.111-0.18h0.050l-0.061 0.191 0.155-0.090 0.1-0.16 0.058 0.030-0.143 0.371-0.226 0.11-0.039 0.15-0.19 0.010z"></path>
<path fill="#fff" d="M17.347 17.18l0.019-0.62-0.227-0.040-0.179 0.661h0.388z"></path>
<path fill="#fff" d="M17.914 17.41h-3.146l0.014-0.23h3.145l-0.014 0.23z"></path>
<path fill="#cbcbcb" d="M19.279 15.148h-1.059l0.045-0.731h1.059l-0.045 0.731z"></path>
<path fill="#fff" d="M19.279 15.148h-1.059l0.008-0.12h1.059l-0.008 0.12z"></path>
<path fill="#fff" d="M18.938 14.74l-0.275-0.165-0.020 0.33 0.295-0.165z"></path>
<path fill="#cbcbcb" d="M19.211 16.278h-1.059l0.044-0.73h1.059l-0.044 0.73z"></path>
<path fill="#fff" d="M19.211 16.278h-1.059l0.008-0.12h1.058l-0.007 0.12z"></path>
<path fill="#fff" d="M18.869 15.871l-0.275-0.165-0.020 0.33 0.295-0.165z"></path>
<path fill="#cbcbcb" d="M19.141 17.41h-1.058l0.044-0.731h1.059l-0.045 0.731z"></path>
<path fill="#fff" d="M19.141 17.41h-1.058l0.007-0.12h1.059l-0.008 0.12z"></path>
<path fill="#fff" d="M18.799 17.002l-0.275-0.165-0.020 0.33 0.295-0.165z"></path>
<path fill="#fff" d="M17.698 18.36h-0.773c0-0.077 0.031-0.151 0.085-0.206s0.129-0.085 0.206-0.085h0.191c0.077 0 0.151 0.031 0.206 0.085s0.085 0.129 0.085 0.206h0.001z"></path>
<path fill="#919191" d="M16.556 18.201h-3.781v0.159h3.781v-0.159z"></path>
<path fill="#fff" d="M16.555 18.201h-0.95v0.159h0.95v-0.159z"></path>
<path fill="#919191" d="M18.1 19.419l0.459 6.195c0.002 0.023 0.013 0.043 0.030 0.058s0.039 0.023 0.062 0.022c0.023-0.001 0.044-0.011 0.060-0.027s0.025-0.038 0.025-0.061l-0.069-6.187h-0.567z"></path>
<path fill="#fff" d="M18.446 19.419l0.242 6.267c0.014-0.008 0.026-0.019 0.034-0.033s0.013-0.030 0.012-0.046l-0.067-6.187h-0.222z"></path>
<path fill="#919191" d="M20.982 19.419l0.459 6.195c0.002 0.023 0.013 0.043 0.030 0.058s0.039 0.023 0.062 0.022 0.044-0.011 0.060-0.027c0.016-0.016 0.025-0.038 0.025-0.061l-0.069-6.187h-0.567z"></path>
<path fill="#fff" d="M21.301 19.419l0.282 6.257c0.011-0.008 0.019-0.019 0.025-0.031s0.009-0.025 0.009-0.039l-0.067-6.187h-0.249z"></path>
<path fill="#263238" d="M13.385 19.487l-0.459 6.127c-0.002 0.023-0.012 0.044-0.028 0.059s-0.038 0.024-0.061 0.024c-0.012 0-0.024-0.002-0.034-0.006s-0.021-0.011-0.029-0.019c-0.008-0.008-0.015-0.018-0.020-0.029s-0.007-0.023-0.007-0.034l0.068-6.137 0.57 0.016z"></path>
<path fill="#263238" d="M10.505 19.487l-0.459 6.127c-0.002 0.022-0.012 0.044-0.028 0.059s-0.038 0.024-0.061 0.024c-0.012-0-0.023-0.002-0.034-0.007s-0.021-0.011-0.029-0.020c-0.008-0.008-0.015-0.018-0.019-0.029s-0.007-0.023-0.006-0.034l0.068-6.137 0.568 0.018z"></path>
<path fill="#919191" d="M21.718 18.504h-11.954v0.965h11.954v-0.965z"></path>
<path fill="#fff" d="M21.718 18.504h-3.426v0.965h3.426v-0.965z"></path>
<path fill="#263238" d="M21.718 18.657h-11.954v0.266h11.954v-0.266z"></path>
<path fill="#919191" d="M21.89 18.366h-12.298v0.323h12.298v-0.323z"></path>
<path fill="#fff" d="M21.89 18.366h-3.377v0.323h3.377v-0.323z"></path>
<path fill="#fff" d="M18.264 12.383h-1.66c-0.086 0-0.169 0.034-0.231 0.096s-0.095 0.144-0.095 0.231v0.613c-0 0.043 0.008 0.085 0.025 0.125s0.040 0.076 0.071 0.106c0.030 0.030 0.066 0.054 0.106 0.071s0.082 0.025 0.125 0.025h0.869l-0.326 0.911 0.624-0.911h0.493c0.043 0 0.085-0.008 0.125-0.025s0.076-0.040 0.106-0.071 0.054-0.066 0.071-0.106c0.016-0.040 0.025-0.082 0.025-0.125v-0.613c0-0.087-0.034-0.17-0.095-0.231s-0.144-0.096-0.231-0.096z"></path>
<path fill="#263238" d="M16.989 13.156c0.066 0 0.119-0.053 0.119-0.119s-0.053-0.119-0.119-0.119-0.119 0.053-0.119 0.119c0 0.066 0.053 0.119 0.119 0.119z"></path>
<path fill="#263238" d="M17.434 13.156c0.066 0 0.119-0.053 0.119-0.119s-0.053-0.119-0.119-0.119-0.119 0.053-0.119 0.119c0 0.066 0.053 0.119 0.119 0.119z"></path>
<path fill="#263238" d="M17.997 13.037c0-0.024-0.007-0.047-0.020-0.066s-0.032-0.035-0.053-0.044c-0.022-0.009-0.046-0.011-0.069-0.007s-0.044 0.016-0.061 0.033c-0.017 0.017-0.028 0.038-0.032 0.061s-0.002 0.047 0.007 0.069c0.009 0.022 0.024 0.040 0.044 0.053s0.043 0.020 0.066 0.020c0.016 0 0.031-0.003 0.045-0.009s0.027-0.015 0.038-0.026c0.011-0.011 0.020-0.024 0.026-0.039s0.009-0.030 0.009-0.046z"></path>
<path fill="#fff" d="M12.525 16.686c-0.149-0.255-0.588-1.238-0.588-1.238 0.013-0.105 0.035-0.209 0.064-0.31 0.036-0.102 0.127-0.412 0.109-0.476s-0.283-0.183-0.31-0.192c-0.027-0.009 0.036-0.164-0.064-0.201s-0.137 0.018-0.137 0.018l-0.038 0.255-0.117 0.184c-0.049-0.037-0.1-0.071-0.153-0.102-0.082-0.046-0.274-0.064-0.283 0.009s0.153 0.137 0.209 0.183 0.128 0.265 0.192 0.329c0.058 0.064 0.113 0.131 0.164 0.201l0.037 0.119c0 0 0.125 1.204 0.14 1.504s0.060 1.093 0.149 1.212c0.090 0.119 0.105 0.195 0.357 0.105s0.299-0.21 0.357-0.479 0.062-0.866-0.088-1.121z"></path>
<path fill="#cbcbcb" d="M12.615 17.809c0.060-0.269 0.060-0.868-0.090-1.123-0.016-0.028-0.036-0.064-0.059-0.107-0.338-0.099-0.659 0.062-0.659 0.062l-0.082 0.036c0.011 0.125 0.019 0.23 0.022 0.294 0.015 0.299 0.060 1.093 0.149 1.212s0.105 0.195 0.357 0.105c0.252-0.090 0.301-0.209 0.361-0.478z"></path>
<path fill="#fff" d="M11.436 12.639c0.037 0.135 0.057 0.275 0.061 0.415 0 0.2-0.061 0.323 0.031 0.384s0.169 0.062 0.153 0.185c-0.006 0.068-0.033 0.132-0.077 0.184 0 0-0.031 0.63-0.061 0.692s-0.429-0.015-0.522-0.031c-0.092-0.016-0.353 0.108-0.522-0.23s-0.031-0.846 0.276-1.107c0.211-0.176 0.431-0.34 0.66-0.492v0z"></path>
<path fill="#fff" d="M11.749 16.917c0 0-0.051 0.234-0.096 0.357s-0.858 0.35-1.213 0.397c-0.233 0.029-0.468 0.045-0.703 0.047l0.022 0.646c0 0 0.686 0.014 0.734 0s1.203-0.531 1.203-0.531l0.498-0.065c0 0 0.209-0.051 0.218-0.214s-0.177-0.626-0.261-0.698c-0.084-0.072-0.261-0.263-0.368-0.145s-0.035 0.206-0.035 0.206z"></path>
<path fill="#cbcbcb" d="M10.22 18.078c0-0.279 0.071-0.286 0.153-0.397-0.211 0.024-0.422 0.036-0.634 0.038l-0.017 0.593c0 0 0.375 0.035 0.604 0.051-0.019 0.029-0.106-0.105-0.106-0.285z"></path>
<path fill="#cbcbcb" d="M12.434 19.334c-0.271-0.305-0.616-0.536-1.002-0.67l-0.895 0.383c-0.069-0.171-0.162-0.332-0.274-0.478l-0.167-0.204 0.107-0.586c0 0 0.644-0.442 0.727-0.634l0.003-0.006c0.129 0.201 0.691 1.069 0.796 1.153 0.119 0.096 0.477 0.108 0.632-0.036s0.227-0.239 0.191-0.454c0 0-0.238-0.514-0.37-0.741s-0.417-1.040-0.56-1.291c-0.102-0.18-0.144-0.306-0.216-0.391-0.050-0.087-0.11-0.168-0.177-0.242-0.143-0.153-0.537-0.191-0.621-0.227s-0.095-0.048-0.572-0.191c-0.477-0.143-1.014-0.227-1.395 0.072 0 0-0.513 0.61-0.713 1.614s-0.215 2.020-0.238 2.199c-0.023 0.179-0.227 1.052-0.286 1.554s0.463 1.006 0.785 1.162c0.322 0.156 1.705 0.179 2.516 0s2.099-0.992 2.099-0.992 0.047-0.502-0.37-0.993z"></path>
<path fill="#fff" d="M12.48 17.166c0.047 0.074 0.076 0.158 0.085 0.246 0 0.113 0.019 0.264-0.028 0.217s-0.066-0.208-0.066-0.208l0.010-0.255z"></path>
<path fill="#fff" d="M12.197 17.035c0 0 0.176-0.096 0.255 0.019s0.058 0.346 0 0.46c-0.058 0.114-0.123 0.005-0.115-0.096s-0.14-0.383-0.14-0.383z"></path>
<path fill="#fff" d="M12.131 16.912c0 0 0.177-0.096 0.255 0.019s0.057 0.345 0 0.46c-0.057 0.114-0.123 0.005-0.115-0.096s-0.14-0.383-0.14-0.383z"></path>
<path fill="#fff" d="M12.050 16.78c0 0 0.177-0.096 0.255 0.019s0.058 0.346 0 0.46c-0.058 0.114-0.123 0.005-0.115-0.096s-0.14-0.383-0.14-0.383z"></path>
<path fill="#263238" d="M11.603 12.159c0.003 0.184-0.044 0.364-0.136 0.523-0.261 0.4-0.506 0.353-0.611 0.677s-0.263 0.659-0.095 0.846c0.168 0.187 0.306 0.077 0.306 0.077s0.107 0.277-0.169 0.553c-0.276 0.277-0.751 0.169-0.874 0.123-0.077-0.030-0.15-0.071-0.214-0.123 0 0-0.077 0.215-0.459 0.215s-0.815-0.261-0.815-0.738c0-0.477 0.26-0.799 0.322-0.984s-0.107-0.753 0.153-1.106c0.26-0.353 0.662-0.613 0.968-0.613s0.902 0.168 0.905 0.169c0.040 0.022 0.298-0.083 0.368-0.079 0.256 0.014 0.35 0.225 0.353 0.461z"></path>
<path fill="#fff" d="M13.119 21.232c0 0 0.318 1.637 0.59 2.432s0.544 1.523 0.611 1.591c0.067 0.068 0.25 0.318 0.25 0.318-0.084 0.067-0.187 0.107-0.295 0.114-0.159 0-0.363-0.204-0.545-0.319s-0.204-0.182-0.567-0.318c-0.363-0.136-0.068-0.5 0.023-0.682 0.053-0.098 0.083-0.207 0.091-0.318-0.144-0.512-0.4-0.986-0.748-1.387-0.566-0.636-0.68-2.112-0.68-2.112l1.089-0.409 0.181 1.088z"></path>
<path fill="#cbcbcb" d="M14.275 25.175l-0.066 0.013c0 0-0.386-0.523-0.68-0.705-0.1-0.069-0.218-0.109-0.34-0.113-0.091 0.182-0.386 0.545-0.023 0.682s0.386 0.204 0.567 0.318c0.181 0.114 0.386 0.319 0.545 0.319 0.108-0.007 0.211-0.046 0.295-0.114 0 0-0.182-0.25-0.25-0.318-0.019-0.025-0.035-0.053-0.048-0.082z"></path>
<path fill="#cbcbcb" d="M14.093 25.623c-0.179-0.124-0.341-0.4-0.633-0.572-0.265-0.156-0.402-0.162-0.459-0.151 0.014 0.037 0.036 0.069 0.065 0.095s0.064 0.045 0.101 0.055c0.363 0.136 0.386 0.204 0.567 0.318 0.115 0.074 0.241 0.187 0.359 0.254z"></path>
<path fill="#cbcbcb" d="M14.275 25.688c-0.012-0-0.023-0.002-0.035-0.004 0.011 0.002 0.023 0.003 0.035 0.004z"></path>
<path fill="#fff" d="M11.097 18.766c0 0 1.090-0.387 1.192-0.132s0.569 1.208 0.398 1.599c-0.17 0.391-1.366-1.123-1.537-1.156s-0.074-0.197-0.054-0.311z"></path>
<path fill="#fff" d="M12.166 19.264c0 0 1.239-0.102 1.477 0.119s-0.577 2.876-1.019 3.71c-0.692 1.304-0.483 1.646-0.483 1.646s0.051 0.204 0.391 0.528c0.34 0.324 0.442 0.374 0.322 0.425s-0.628 0-0.679-0.034c-0.051-0.034-0.424-0.34-0.764-0.442s-0.289-0.171-0.136-0.477c0.153-0.306 0.136-0.051 0.306-0.578 0.203-0.65 0.364-1.313 0.481-1.984 0.090-0.547 0.228-1.147 0.189-1.703l-0.085-1.21z"></path>
<path fill="#263238" d="M13.074 20.096c-0.13-0.314-0.353-0.58-0.639-0.762-0.542-0.347-1.002-0.67-1.002-0.67l-0.895 0.383c0 0 0.218 0.371-0.903 0.558-0.863 0.144-1.655-0.065-2.083-0.317-0.060 0.297-0.122 0.626-0.153 0.868-0.060 0.502 0.465 1.004 0.787 1.16s2.916 0.478 3.615 0.028c1.272-0.815 1.272-1.247 1.272-1.247z"></path>
<path fill="#cbcbcb" d="M10.437 19.327c-0.12 0.099-0.353 0.204-0.801 0.277-0.863 0.144-1.655-0.065-2.083-0.317-0.015 0.076-0.031 0.153-0.046 0.232 0.293 0.177 0.908 0.476 1.602 0.391 0.828-0.102 1.196-0.328 1.328-0.584z"></path>
<path fill="#cbcbcb" d="M12.532 25.266c-0.34-0.323-0.391-0.527-0.391-0.527-0.011-0.011-0.020-0.023-0.027-0.038-0.023 0.024-0.092 0.069-0.262 0.004-0.147-0.057-0.287-0.153-0.434-0.218-0.035 0.063-0.069 0.102-0.144 0.252-0.153 0.306-0.204 0.375 0.136 0.477s0.713 0.409 0.764 0.442c0.051 0.034 0.56 0.085 0.679 0.034s0.017-0.103-0.322-0.426z"></path>
<path fill="#919191" d="M5.943 17.033c0 0 1.84-0.231 3.016 0.102l0.179 4.484h-2.759c0 0 0.178-2.408-0.436-4.586z"></path>
<path fill="#757575" d="M8.959 17.135c-1.176-0.333-3.016-0.102-3.016-0.102 0.197 0.726 0.328 1.468 0.391 2.217 1.028 0.514 1.969 1.186 2.789 1.991l-0.164-4.106z"></path>
<path fill="#fff" d="M12.429 25.812c-0.021 0-0.041-0.006-0.058-0.018s-0.030-0.029-0.037-0.048c-0.408-1.101-0.509-3.959-0.516-4.080-0.001-0.027 0.009-0.053 0.027-0.073s0.044-0.032 0.071-0.032c0.027-0.001 0.053 0.009 0.073 0.027s0.031 0.044 0.032 0.071c0 0.030 0.106 2.946 0.503 4.015 0.009 0.025 0.008 0.053-0.003 0.078s-0.032 0.044-0.057 0.053c-0.011 0.005-0.023 0.007-0.035 0.007z"></path>
<path fill="#fff" d="M10.21 25.812c-0.021-0-0.041-0.006-0.058-0.018s-0.030-0.029-0.037-0.048c-0.408-1.101-0.509-3.959-0.516-4.080-0.001-0.027 0.009-0.053 0.027-0.073s0.044-0.032 0.071-0.032c0.027-0.001 0.053 0.009 0.073 0.027s0.031 0.044 0.032 0.071c0 0.030 0.106 2.946 0.503 4.015 0.009 0.025 0.008 0.053-0.003 0.078s-0.032 0.044-0.057 0.053c-0.011 0.005-0.023 0.007-0.036 0.007v0z"></path>
<path fill="#919191" d="M12.402 21.616h-6.071v-0.204h5.869c0.054 0 0.106 0.022 0.144 0.060s0.060 0.090 0.060 0.144h-0.001z"></path>
<path fill="#fff" d="M12.401 21.567h-6.071v0.203h6.071v-0.203z"></path>
<path fill="#fff" d="M8.914 25.812c-0.015 0-0.030-0.003-0.044-0.009s-0.026-0.016-0.036-0.028c-0.010-0.012-0.017-0.026-0.020-0.041s-0.004-0.030-0.001-0.046c0.576-2.736 0.051-8.489 0.044-8.546-0.001-0.013 0-0.027 0.004-0.040s0.010-0.025 0.019-0.035c0.009-0.010 0.019-0.019 0.031-0.025s0.025-0.010 0.038-0.011c0.027-0.002 0.054 0.006 0.075 0.023s0.034 0.042 0.037 0.069c0.006 0.058 0.535 5.841-0.047 8.607-0.005 0.023-0.017 0.043-0.035 0.058s-0.040 0.023-0.063 0.023z"></path>
<path fill="#fff" d="M5.755 25.737c-0.010 0-0.019-0.001-0.028-0.004-0.026-0.007-0.048-0.025-0.061-0.048s-0.017-0.051-0.009-0.077c1.325-4.713 0.2-8.508 0.189-8.545-0.006-0.025-0.003-0.052 0.010-0.075s0.034-0.040 0.059-0.048c0.025-0.008 0.052-0.005 0.075 0.006s0.041 0.032 0.050 0.057c0.012 0.038 1.155 3.887-0.188 8.66-0.006 0.021-0.019 0.040-0.036 0.054s-0.039 0.021-0.061 0.021z"></path>
<path fill="#cbcbcb" d="M23.887 17.477c0 0-0.24 0.153-0.376-0.022s0.092-0.498-0.109-0.636c-0.201-0.138-0.549 0.073-0.549 0.073s0.267 0.079 0.259 0.225c-0.009 0.146-0.138 0.202-0.153 0.138s-0.145-0.387-0.362-0.252c-0.063 0.037-0.117 0.086-0.16 0.145s-0.074 0.126-0.090 0.197c0 0 0.506-0.054 0.537 0.136s-0.207-0.033-0.416-0.045c-0.209-0.012-0.399 0.018-0.386 0.145 0.005 0.112-0.002 0.224-0.020 0.335 0.114-0.095 0.259-0.146 0.408-0.144 0.23 0.014 0.221 0.16 0.012 0.148s-0.388 0.187-0.388 0.187 0.191 0.326 0.433 0.488c0.242 0.161 0.329 0.102 0.357-0.021s-0.037-0.443 0.11-0.434c0.146 0.009-0.242 0.552-0.055 0.585s0.337-0.022 0.386-0.145l0.051-0.123c0 0-0.065-0.319-0.037-0.443s0.063 0.004 0.096 0.153c0.033 0.15 0.054 0.507 0.118 0.49s0.268-0.278 0.316-0.38c0.048-0.103-0.269-0.415-0.265-0.477s0.248 0.057 0.286 0.122c0.028 0.050 0.053 0.101 0.075 0.153 0 0 0.153-0.096 0.149-0.39s-0.222-0.204-0.222-0.204z"></path>
<path fill="#263238" opacity="0.3" d="M23.887 17.477c0 0-0.24 0.153-0.376-0.022s0.092-0.498-0.109-0.636c-0.201-0.138-0.549 0.073-0.549 0.073s0.267 0.079 0.259 0.225c-0.009 0.146-0.138 0.202-0.153 0.138s-0.145-0.387-0.362-0.252c-0.063 0.037-0.117 0.086-0.16 0.145s-0.074 0.126-0.090 0.197c0 0 0.506-0.054 0.537 0.136s-0.207-0.033-0.416-0.045c-0.209-0.012-0.399 0.018-0.386 0.145 0.005 0.112-0.002 0.224-0.020 0.335 0.114-0.095 0.259-0.146 0.408-0.144 0.23 0.014 0.221 0.16 0.012 0.148s-0.388 0.187-0.388 0.187 0.191 0.326 0.433 0.488c0.242 0.161 0.329 0.102 0.357-0.021s-0.037-0.443 0.11-0.434c0.146 0.009-0.242 0.552-0.055 0.585s0.337-0.022 0.386-0.145l0.051-0.123c0 0-0.065-0.319-0.037-0.443s0.063 0.004 0.096 0.153c0.033 0.15 0.054 0.507 0.118 0.49s0.268-0.278 0.316-0.38c0.048-0.103-0.269-0.415-0.265-0.477s0.248 0.057 0.286 0.122c0.028 0.050 0.053 0.101 0.075 0.153 0 0 0.153-0.096 0.149-0.39s-0.222-0.204-0.222-0.204z"></path>
<path fill="#cbcbcb" d="M24.741 16.857c0 0-0.010 0.345-0.279 0.362s-0.435-0.432-0.71-0.324c-0.275 0.108-0.302 0.6-0.302 0.6s0.261-0.215 0.401-0.107c0.141 0.108 0.108 0.276 0.032 0.249s-0.485-0.118-0.499 0.191c-0.006 0.088 0.006 0.177 0.036 0.26s0.075 0.16 0.135 0.225c0 0 0.291-0.545 0.503-0.446s-0.175 0.186-0.33 0.387c-0.155 0.201-0.255 0.413-0.118 0.486 0.115 0.071 0.223 0.154 0.321 0.248 0 0-0.037-0.285 0.133-0.506s0.31-0.113 0.156 0.088c-0.154 0.201-0.078 0.517-0.078 0.517s0.455 0.031 0.782-0.102c0.326-0.133 0.328-0.26 0.223-0.373s-0.468-0.265-0.36-0.409 0.387 0.619 0.547 0.454c0.159-0.165 0.207-0.353 0.118-0.486l-0.090-0.133c0 0-0.363-0.153-0.468-0.266s0.046-0.060 0.218 0.008c0.172 0.068 0.543 0.292 0.57 0.215s-0.095-0.459-0.165-0.576c-0.069-0.116-0.598-0.013-0.658-0.059s0.226-0.21 0.317-0.204c0.068 0.006 0.136 0.015 0.204 0.028 0 0 0.008-0.219-0.288-0.415s-0.352 0.085-0.352 0.085z"></path>
<path fill="#263238" opacity="0.2" d="M24.741 16.857c0 0-0.010 0.345-0.279 0.362s-0.435-0.432-0.71-0.324c-0.275 0.108-0.302 0.6-0.302 0.6s0.261-0.215 0.401-0.107c0.141 0.108 0.108 0.276 0.032 0.249s-0.485-0.118-0.499 0.191c-0.006 0.088 0.006 0.177 0.036 0.26s0.075 0.16 0.135 0.225c0 0 0.291-0.545 0.503-0.446s-0.175 0.186-0.33 0.387c-0.155 0.201-0.255 0.413-0.118 0.486 0.115 0.071 0.223 0.154 0.321 0.248 0 0-0.037-0.285 0.133-0.506s0.31-0.113 0.156 0.088c-0.154 0.201-0.078 0.517-0.078 0.517s0.455 0.031 0.782-0.102c0.326-0.133 0.328-0.26 0.223-0.373s-0.468-0.265-0.36-0.409 0.387 0.619 0.547 0.454c0.159-0.165 0.207-0.353 0.118-0.486l-0.090-0.133c0 0-0.363-0.153-0.468-0.266s0.046-0.060 0.218 0.008c0.172 0.068 0.543 0.292 0.57 0.215s-0.095-0.459-0.165-0.576c-0.069-0.116-0.598-0.013-0.658-0.059s0.226-0.21 0.317-0.204c0.068 0.006 0.136 0.015 0.204 0.028 0 0 0.008-0.219-0.288-0.415s-0.352 0.085-0.352 0.085z"></path>
<path fill="#cbcbcb" d="M23.542 18.915c0 0-0.044 0.397-0.357 0.391s-0.459-0.54-0.789-0.441c-0.33 0.099-0.405 0.664-0.405 0.664s0.322-0.224 0.474-0.085c0.152 0.139 0.098 0.328 0.013 0.29s-0.548-0.182-0.593 0.174c-0.015 0.101-0.009 0.205 0.017 0.303s0.072 0.191 0.135 0.272c0 0 0.387-0.601 0.622-0.466s-0.219 0.198-0.417 0.415c-0.198 0.218-0.332 0.452-0.182 0.549 0.126 0.093 0.243 0.199 0.347 0.317 0 0-0.016-0.332 0.201-0.571s0.369-0.102 0.172 0.117c-0.198 0.219-0.139 0.589-0.139 0.589s0.523 0.079 0.912-0.043c0.389-0.123 0.403-0.269 0.292-0.409s-0.515-0.35-0.377-0.502c0.138-0.152 0.388 0.752 0.588 0.575s0.272-0.387 0.181-0.549l-0.091-0.162c0 0-0.404-0.21-0.515-0.35s0.059-0.065 0.251 0.030c0.192 0.095 0.6 0.388 0.637 0.303s-0.067-0.538-0.136-0.681c-0.069-0.142-0.689-0.072-0.754-0.131s0.281-0.221 0.385-0.204c0.078 0.013 0.155 0.030 0.231 0.051 0 0 0.030-0.251-0.294-0.507s-0.413 0.061-0.413 0.061z"></path>
<path fill="#263238" opacity="0.3" d="M23.542 18.915c0 0-0.044 0.397-0.357 0.391s-0.459-0.54-0.789-0.441c-0.33 0.099-0.405 0.664-0.405 0.664s0.322-0.224 0.474-0.085c0.152 0.139 0.098 0.328 0.013 0.29s-0.548-0.182-0.593 0.174c-0.015 0.101-0.009 0.205 0.017 0.303s0.072 0.191 0.135 0.272c0 0 0.387-0.601 0.622-0.466s-0.219 0.198-0.417 0.415c-0.198 0.218-0.332 0.452-0.182 0.549 0.126 0.093 0.243 0.199 0.347 0.317 0 0-0.016-0.332 0.201-0.571s0.369-0.102 0.172 0.117c-0.198 0.219-0.139 0.589-0.139 0.589s0.523 0.079 0.912-0.043c0.389-0.123 0.403-0.269 0.292-0.409s-0.515-0.35-0.377-0.502c0.138-0.152 0.388 0.752 0.588 0.575s0.272-0.387 0.181-0.549l-0.091-0.162c0 0-0.404-0.21-0.515-0.35s0.059-0.065 0.251 0.030c0.192 0.095 0.6 0.388 0.637 0.303s-0.067-0.538-0.136-0.681c-0.069-0.142-0.689-0.072-0.754-0.131s0.281-0.221 0.385-0.204c0.078 0.013 0.155 0.030 0.231 0.051 0 0 0.030-0.251-0.294-0.507s-0.413 0.061-0.413 0.061z"></path>
<path fill="#cbcbcb" d="M24.080 21.291c-0.158-0.179-0.495-0.179-0.693 0.278s-0.020 0.377-0.020 0.377c0 0 0.376-0.119 0.614-0.199s0.554-0.278 0.574-0.159c0.020 0.119-0.158 0.238-0.377 0.278s-0.792 0.199-0.733 0.32 0.198 0.476 0.198 0.476c0.169-0.144 0.348-0.277 0.534-0.397 0.258-0.159 0.416-0.1 0.278 0.079s-0.535 0.377-0.455 0.615c0.079 0.238 0.554 0.536 0.554 0.536s0.060-0.496 0.198-0.655c0.139-0.159 0.139 0.020 0.099 0.298-0.020 0.118-0.033 0.238-0.040 0.357l0.554 0.199c0.091-0.138 0.19-0.271 0.297-0.397l0.102-0.102c0 0-0.436-0.377-0.456-0.613s0.297 0 0.396 0.040c0.099 0.040 0.257 0.318 0.257 0.318s0.099-0.456 0.119-0.615l0.020-0.159c0 0-0.416-0.159-0.575-0.159s-0.237 0.119-0.237-0.039 0.158-0.258 0.337-0.238c0.161 0.027 0.32 0.067 0.475 0.119 0 0 0.119-0.099 0.079-0.397s-0.139-0.298-0.376-0.219c-0.237 0.079-0.396 0.258-0.575 0.258s-0.079-0.219 0.040-0.278c0.119-0.059 0.416-0.179 0.475-0.199s-0.317-0.298-0.515-0.337c-0.198-0.040-0.454 0.102-0.436 0.298 0.037 0.414-0.557 0.495-0.715 0.315z"></path>
<path fill="#cbcbcb" d="M25.982 19.583c-0.215-0.128-0.454-0.131-0.571-0.266s0.113-0.204 0.235-0.153c0.123 0.051 0.408 0.198 0.461 0.229s0.017-0.435-0.083-0.613c-0.1-0.178-0.373-0.278-0.509-0.134-0.288 0.303-0.737-0.095-0.707-0.331s-0.19-0.492-0.662-0.343c-0.472 0.149-0.297 0.232-0.297 0.232s0.336 0.207 0.552 0.334c0.216 0.128 0.573 0.237 0.496 0.33s-0.283 0.036-0.456-0.102c-0.173-0.138-0.668-0.469-0.719-0.346s-0.229 0.462-0.229 0.462c0.22 0.034 0.436 0.082 0.65 0.145 0.288 0.091 0.348 0.25 0.122 0.262s-0.635-0.157-0.764 0.059c-0.129 0.216-0.040 0.77-0.040 0.77s0.413-0.28 0.623-0.279c0.21 0.001 0.076 0.118-0.159 0.27-0.102 0.062-0.201 0.131-0.295 0.204l0.214 0.55c0.164-0.022 0.329-0.034 0.494-0.036l0.14 0.010c0 0 0-0.577 0.165-0.748s0.195 0.225 0.23 0.326-0.070 0.403-0.070 0.403c0 0 0.408-0.224 0.541-0.314l0.133-0.089c0 0-0.153-0.419-0.257-0.539s-0.245-0.102-0.126-0.204c0.119-0.102 0.299-0.051 0.4 0.099 0.085 0.14 0.16 0.286 0.222 0.438 0 0 0.153 0.025 0.351-0.2s0.133-0.3-0.082-0.427zM24.108 20.218c-0.159-0.080 0.218-0.238 0.218-0.238 0.139-0.019-0.060 0.318-0.218 0.238zM24.375 19.477c-0.067-0.034 0.135-0.102 0.135-0.102 0.292 0.055-0.068 0.136-0.136 0.102h0.001z"></path>
<path fill="#cbcbcb" d="M22.904 22.332c-0.173-0.102-0.365-0.105-0.459-0.213s0.090-0.163 0.189-0.123c0.099 0.041 0.328 0.159 0.371 0.185s0.013-0.35-0.067-0.492-0.301-0.224-0.41-0.108c-0.232 0.244-0.593-0.076-0.569-0.267s-0.153-0.396-0.534-0.276c-0.382 0.12-0.239 0.187-0.239 0.187s0.27 0.166 0.444 0.269c0.174 0.103 0.461 0.191 0.399 0.266s-0.228 0.030-0.367-0.082c-0.139-0.112-0.538-0.378-0.579-0.279s-0.184 0.372-0.184 0.372c0.177 0.027 0.351 0.066 0.523 0.116 0.232 0.073 0.279 0.201 0.098 0.21s-0.509-0.127-0.611 0.047c-0.102 0.174-0.033 0.62-0.033 0.62s0.332-0.226 0.501-0.225c0.169 0.001 0.061 0.095-0.128 0.218-0.082 0.050-0.162 0.105-0.237 0.164l0.172 0.442c0.132-0.018 0.264-0.027 0.397-0.028l0.113 0.008c0 0 0-0.464 0.133-0.602s0.156 0.181 0.184 0.262c0.028 0.082-0.057 0.324-0.057 0.324s0.329-0.181 0.436-0.252l0.107-0.072c0 0-0.123-0.337-0.207-0.433s-0.198-0.082-0.102-0.165c0.096-0.084 0.24-0.040 0.322 0.079 0.069 0.113 0.129 0.23 0.179 0.352 0 0 0.123 0.020 0.282-0.161s0.106-0.241-0.068-0.345zM21.396 22.843c-0.127-0.064 0.175-0.191 0.175-0.191 0.112-0.015-0.048 0.256-0.175 0.192v-0.001zM21.612 22.247c-0.055-0.028 0.109-0.082 0.109-0.082 0.235 0.045-0.055 0.109-0.109 0.082z"></path>
<path fill="#cbcbcb" d="M22.197 19.055c0 0-0.218 0.159-0.357 0s0.060-0.476-0.139-0.595c-0.198-0.119-0.515 0.099-0.515 0.099s0.257 0.060 0.257 0.199c0 0.139-0.119 0.199-0.139 0.139s-0.158-0.357-0.357-0.218c-0.057 0.039-0.106 0.088-0.143 0.146s-0.063 0.123-0.074 0.191c0 0 0.475-0.079 0.515 0.1s-0.198-0.020-0.396-0.020c-0.198 0-0.377 0.040-0.357 0.159 0.011 0.106 0.011 0.212 0 0.318 0.103-0.096 0.236-0.153 0.377-0.159 0.218 0 0.218 0.139 0.020 0.139s-0.357 0.199-0.357 0.199 0.198 0.298 0.436 0.437c0.237 0.139 0.317 0.079 0.337-0.040s-0.060-0.417 0.079-0.417-0.198 0.536-0.020 0.555c0.178 0.020 0.317-0.040 0.357-0.159l0.040-0.119c0 0-0.079-0.298-0.060-0.417s0.060 0 0.099 0.139c0.039 0.139 0.079 0.476 0.139 0.456s0.237-0.278 0.277-0.377c0.040-0.099-0.277-0.377-0.277-0.436s0.237 0.040 0.277 0.099c0.040 0.059 0.079 0.139 0.079 0.139s0.139-0.099 0.119-0.377c-0.020-0.278-0.218-0.179-0.218-0.179z"></path>
<path fill="#263238" d="M24.197 23.501h-1.531v2.208h1.531v-2.208z"></path>
</svg>
