<svg width="26" height="26" viewBox="0 0 26 26" fill="none" xmlns="http://www.w3.org/2000/svg">
<path d="M13 25C19.6274 25 25 19.6274 25 13C25 6.37258 19.6274 1 13 1C6.37258 1 1 6.37258 1 13C1 19.6274 6.37258 25 13 25Z" stroke="white" stroke-linejoin="round"/>
<path d="M7.46863 11.1656C8.09347 10.5408 9.10653 10.5408 9.73137 11.1656L14.8225 16.2568L12.5598 18.5196L7.46863 13.4284C6.84379 12.8036 6.84379 11.7905 7.46863 11.1656Z" fill="white"/>
<path d="M19.348 9.46863C19.9729 10.0935 19.9729 11.1065 19.348 11.7314L12.5598 18.5196L10.2971 16.2569L17.0853 9.46863C17.7101 8.84379 18.7232 8.84379 19.348 9.46863Z" fill="white"/>
</svg>
