<!-- Generated by IcoMoon.io -->
<svg version="1.1" xmlns="http://www.w3.org/2000/svg" width="32" height="32" viewBox="0 0 32 32">
<title>house-bookshelves-bro-1</title>
<path fill="#fff" d="M23.39 17.352c0 0-0.185 0.118-0.291-0.017s0.071-0.384-0.084-0.49-0.425 0.056-0.425 0.056c0 0 0.207 0.061 0.2 0.173s-0.106 0.157-0.118 0.106-0.112-0.298-0.28-0.194c-0.048 0.029-0.090 0.067-0.124 0.112s-0.057 0.097-0.070 0.151c0 0 0.391-0.042 0.415 0.105s-0.16-0.026-0.322-0.035c-0.161-0.009-0.309 0.014-0.298 0.112 0.004 0.086-0.002 0.173-0.015 0.258 0.088-0.073 0.2-0.113 0.315-0.111 0.178 0.010 0.171 0.123 0.010 0.114s-0.3 0.144-0.3 0.144c0 0 0.147 0.251 0.334 0.376s0.254 0.079 0.276-0.016c0.021-0.095-0.028-0.341 0.085-0.335s-0.187 0.426-0.043 0.451 0.26-0.017 0.298-0.112l0.039-0.095c0 0-0.050-0.245-0.028-0.341s0.048 0.003 0.074 0.118c0.026 0.115 0.042 0.391 0.091 0.378s0.207-0.214 0.244-0.293c0.037-0.079-0.208-0.32-0.205-0.368s0.192 0.044 0.221 0.094c0.021 0.038 0.041 0.078 0.058 0.118 0 0 0.118-0.074 0.115-0.3s-0.172-0.157-0.172-0.157z"></path>
<path fill="#263238" opacity="0.3" d="M23.39 17.352c0 0-0.185 0.118-0.291-0.017s0.071-0.384-0.084-0.49-0.425 0.056-0.425 0.056c0 0 0.207 0.061 0.2 0.173s-0.106 0.157-0.118 0.106-0.112-0.298-0.28-0.194c-0.048 0.029-0.090 0.067-0.124 0.112s-0.057 0.097-0.070 0.151c0 0 0.391-0.042 0.415 0.105s-0.16-0.026-0.322-0.035c-0.161-0.009-0.309 0.014-0.298 0.112 0.004 0.086-0.002 0.173-0.015 0.258 0.088-0.073 0.2-0.113 0.315-0.111 0.178 0.010 0.171 0.123 0.010 0.114s-0.3 0.144-0.3 0.144c0 0 0.147 0.251 0.334 0.376s0.254 0.079 0.276-0.016c0.021-0.095-0.028-0.341 0.085-0.335s-0.187 0.426-0.043 0.451 0.26-0.017 0.298-0.112l0.039-0.095c0 0-0.050-0.245-0.028-0.341s0.048 0.003 0.074 0.118c0.026 0.115 0.042 0.391 0.091 0.378s0.207-0.214 0.244-0.293c0.037-0.079-0.208-0.32-0.205-0.368s0.192 0.044 0.221 0.094c0.021 0.038 0.041 0.078 0.058 0.118 0 0 0.118-0.074 0.115-0.3s-0.172-0.157-0.172-0.157z"></path>
<path fill="#fff" d="M24.050 16.874c0 0-0.007 0.266-0.215 0.279s-0.336-0.333-0.549-0.25c-0.213 0.083-0.233 0.463-0.233 0.463s0.202-0.166 0.31-0.082c0.109 0.084 0.083 0.212 0.025 0.192s-0.375-0.091-0.386 0.147c-0.004 0.068 0.005 0.136 0.028 0.2s0.058 0.123 0.104 0.173c0 0 0.225-0.419 0.389-0.343s-0.135 0.143-0.255 0.298-0.197 0.318-0.091 0.374c0.089 0.055 0.172 0.119 0.248 0.191 0 0-0.028-0.22 0.103-0.39s0.24-0.087 0.121 0.068c-0.119 0.155-0.060 0.398-0.060 0.398s0.352 0.024 0.604-0.079c0.252-0.103 0.254-0.2 0.173-0.288s-0.362-0.204-0.278-0.313c0.084-0.109 0.299 0.478 0.423 0.35s0.16-0.272 0.091-0.374l-0.069-0.103c0 0-0.28-0.118-0.362-0.204s0.036-0.047 0.169 0.006c0.133 0.053 0.42 0.225 0.44 0.166s-0.074-0.354-0.127-0.444c-0.053-0.090-0.462-0.010-0.509-0.046s0.174-0.162 0.245-0.157c0.071 0.005 0.158 0.022 0.158 0.022s0.006-0.168-0.223-0.32c-0.229-0.152-0.272 0.064-0.272 0.064z"></path>
<path fill="#263238" opacity="0.2" d="M24.050 16.874c0 0-0.007 0.266-0.215 0.279s-0.336-0.333-0.549-0.25c-0.213 0.083-0.233 0.463-0.233 0.463s0.202-0.166 0.31-0.082c0.109 0.084 0.083 0.212 0.025 0.192s-0.375-0.091-0.386 0.147c-0.004 0.068 0.005 0.136 0.028 0.2s0.058 0.123 0.104 0.173c0 0 0.225-0.419 0.389-0.343s-0.135 0.143-0.255 0.298-0.197 0.318-0.091 0.374c0.089 0.055 0.172 0.119 0.248 0.191 0 0-0.028-0.22 0.103-0.39s0.24-0.087 0.121 0.068c-0.119 0.155-0.060 0.398-0.060 0.398s0.352 0.024 0.604-0.079c0.252-0.103 0.254-0.2 0.173-0.288s-0.362-0.204-0.278-0.313c0.084-0.109 0.299 0.478 0.423 0.35s0.16-0.272 0.091-0.374l-0.069-0.103c0 0-0.28-0.118-0.362-0.204s0.036-0.047 0.169 0.006c0.133 0.053 0.42 0.225 0.44 0.166s-0.074-0.354-0.127-0.444c-0.053-0.090-0.462-0.010-0.509-0.046s0.174-0.162 0.245-0.157c0.071 0.005 0.158 0.022 0.158 0.022s0.006-0.168-0.223-0.32c-0.229-0.152-0.272 0.064-0.272 0.064z"></path>
<path fill="#fff" d="M23.124 18.46c0 0-0.034 0.306-0.276 0.302s-0.357-0.416-0.61-0.34c-0.253 0.076-0.313 0.511-0.313 0.511s0.249-0.172 0.366-0.065c0.118 0.107 0.076 0.253 0.010 0.224s-0.424-0.14-0.459 0.134c-0.011 0.078-0.007 0.158 0.014 0.234s0.056 0.148 0.105 0.21c0 0 0.299-0.463 0.481-0.36s-0.169 0.152-0.322 0.32c-0.153 0.168-0.256 0.349-0.141 0.424 0.098 0.072 0.188 0.154 0.269 0.244 0 0-0.012-0.256 0.158-0.44s0.285-0.079 0.133 0.090-0.107 0.454-0.107 0.454c0 0 0.404 0.061 0.705-0.033s0.311-0.207 0.226-0.315c-0.085-0.108-0.398-0.27-0.291-0.387s0.3 0.579 0.454 0.444c0.154-0.135 0.21-0.299 0.14-0.424l-0.074-0.125c0 0-0.312-0.162-0.398-0.27s0.046-0.050 0.194 0.023c0.148 0.073 0.463 0.299 0.492 0.233s-0.052-0.414-0.104-0.524c-0.052-0.11-0.532-0.055-0.583-0.101s0.217-0.171 0.298-0.157c0.060 0.010 0.12 0.023 0.178 0.039 0 0 0.023-0.194-0.227-0.39s-0.319 0.046-0.319 0.046z"></path>
<path fill="#263238" opacity="0.3" d="M23.124 18.46c0 0-0.034 0.306-0.276 0.302s-0.357-0.416-0.61-0.34c-0.253 0.076-0.313 0.511-0.313 0.511s0.249-0.172 0.366-0.065c0.118 0.107 0.076 0.253 0.010 0.224s-0.424-0.14-0.459 0.134c-0.011 0.078-0.007 0.158 0.014 0.234s0.056 0.148 0.105 0.21c0 0 0.299-0.463 0.481-0.36s-0.169 0.152-0.322 0.32c-0.153 0.168-0.256 0.349-0.141 0.424 0.098 0.072 0.188 0.154 0.269 0.244 0 0-0.012-0.256 0.158-0.44s0.285-0.079 0.133 0.090-0.107 0.454-0.107 0.454c0 0 0.404 0.061 0.705-0.033s0.311-0.207 0.226-0.315c-0.085-0.108-0.398-0.27-0.291-0.387s0.3 0.579 0.454 0.444c0.154-0.135 0.21-0.299 0.14-0.424l-0.074-0.125c0 0-0.312-0.162-0.398-0.27s0.046-0.050 0.194 0.023c0.148 0.073 0.463 0.299 0.492 0.233s-0.052-0.414-0.104-0.524c-0.052-0.11-0.532-0.055-0.583-0.101s0.217-0.171 0.298-0.157c0.060 0.010 0.12 0.023 0.178 0.039 0 0 0.023-0.194-0.227-0.39s-0.319 0.046-0.319 0.046z"></path>
<path fill="#fff" d="M23.539 20.29c-0.122-0.137-0.383-0.137-0.536 0.214s-0.015 0.29-0.015 0.29 0.291-0.092 0.473-0.153c0.182-0.061 0.429-0.214 0.444-0.122s-0.122 0.183-0.291 0.214-0.612 0.153-0.566 0.245c0.046 0.092 0.153 0.367 0.153 0.367 0.131-0.111 0.269-0.213 0.413-0.306 0.199-0.122 0.322-0.076 0.215 0.061s-0.414 0.291-0.352 0.474c0.061 0.183 0.43 0.413 0.43 0.413s0.046-0.382 0.153-0.505c0.108-0.122 0.107 0.015 0.076 0.229-0.015 0.091-0.026 0.183-0.031 0.275l0.429 0.153c0.070-0.107 0.147-0.209 0.23-0.306l0.079-0.076c0 0-0.337-0.291-0.352-0.472s0.23 0 0.306 0.031c0.076 0.031 0.199 0.244 0.199 0.244s0.077-0.351 0.092-0.472l0.015-0.122c0 0-0.322-0.122-0.444-0.122s-0.183 0.092-0.183-0.031c0-0.122 0.122-0.199 0.26-0.183 0.125 0.021 0.248 0.051 0.367 0.092 0 0 0.092-0.077 0.061-0.306s-0.107-0.229-0.291-0.168c-0.183 0.061-0.306 0.197-0.444 0.197s-0.061-0.168 0.031-0.214c0.092-0.046 0.321-0.138 0.367-0.153s-0.245-0.229-0.398-0.26-0.351 0.079-0.337 0.229c0.029 0.319-0.43 0.382-0.553 0.243z"></path>
<path fill="#fff" d="M25.009 18.975c-0.167-0.098-0.351-0.101-0.442-0.205s0.087-0.157 0.182-0.118 0.315 0.152 0.356 0.177c0.041 0.025 0.013-0.335-0.064-0.472s-0.289-0.214-0.394-0.104c-0.223 0.234-0.57-0.073-0.546-0.255s-0.147-0.379-0.512-0.263c-0.365 0.115-0.23 0.179-0.23 0.179s0.26 0.159 0.427 0.258c0.167 0.099 0.443 0.183 0.383 0.254s-0.219 0.028-0.352-0.079c-0.134-0.107-0.517-0.361-0.556-0.267s-0.177 0.354-0.177 0.354c0.17 0.026 0.337 0.063 0.502 0.111 0.223 0.070 0.269 0.192 0.095 0.201s-0.491-0.121-0.591 0.045c-0.1 0.166-0.031 0.594-0.031 0.594s0.319-0.216 0.482-0.215c0.163 0.001 0.059 0.091-0.123 0.208-0.079 0.048-0.155 0.101-0.228 0.157l0.165 0.424c0.127-0.017 0.254-0.026 0.382-0.027l0.108 0.007c0 0 0-0.444 0.128-0.576s0.15 0.173 0.178 0.251c0.027 0.078-0.054 0.31-0.054 0.31s0.315-0.173 0.418-0.241l0.103-0.069c0 0-0.118-0.322-0.197-0.415s-0.189-0.079-0.097-0.157 0.231-0.039 0.31 0.076c0.066 0.108 0.123 0.22 0.171 0.337 0 0 0.118 0.019 0.271-0.154s0.102-0.229-0.065-0.327zM23.561 19.464c-0.122-0.061 0.168-0.183 0.168-0.183 0.108-0.016-0.046 0.245-0.168 0.182l-0 0.001zM23.767 18.893c-0.052-0.026 0.104-0.079 0.104-0.079 0.227 0.042-0.052 0.104-0.104 0.078l-0 0.001z"></path>
<path fill="#fff" d="M22.631 21.092c-0.134-0.079-0.282-0.081-0.354-0.165s0.070-0.126 0.146-0.094c0.076 0.032 0.253 0.122 0.287 0.142s0.010-0.269-0.052-0.378c-0.062-0.109-0.232-0.173-0.315-0.083-0.179 0.188-0.459-0.059-0.439-0.206s-0.118-0.305-0.413-0.212c-0.295 0.093-0.185 0.144-0.185 0.144s0.209 0.128 0.343 0.207c0.134 0.079 0.354 0.147 0.308 0.205s-0.176 0.022-0.284-0.064c-0.108-0.086-0.416-0.291-0.448-0.215s-0.142 0.287-0.142 0.287c0.137 0.021 0.271 0.051 0.404 0.089 0.179 0.056 0.216 0.155 0.076 0.162s-0.394-0.098-0.473 0.036c-0.079 0.134-0.025 0.478-0.025 0.478s0.257-0.173 0.388-0.173c0.131 0 0.047 0.073-0.099 0.168-0.064 0.039-0.125 0.081-0.184 0.126l0.133 0.341c0.102-0.014 0.204-0.021 0.307-0.022l0.087 0.006c0 0 0-0.358 0.103-0.464s0.121 0.139 0.143 0.202c0.022 0.063-0.044 0.25-0.044 0.25s0.254-0.139 0.337-0.194l0.083-0.055c0 0-0.095-0.26-0.16-0.334s-0.153-0.063-0.079-0.128c0.074-0.065 0.185-0.030 0.249 0.061 0.053 0.087 0.099 0.177 0.138 0.271 0 0 0.095 0.015 0.218-0.124s0.079-0.186-0.055-0.265zM21.465 21.486c-0.098-0.049 0.135-0.148 0.135-0.148 0.086-0.012-0.037 0.197-0.136 0.148l0-0zM21.631 21.026c-0.042-0.021 0.084-0.063 0.084-0.063 0.183 0.035-0.042 0.085-0.084 0.063v-0z"></path>
<path fill="#fff" d="M22.084 18.568c0 0-0.169 0.122-0.276 0s0.046-0.367-0.108-0.459-0.398 0.076-0.398 0.076c0 0 0.199 0.046 0.199 0.153s-0.092 0.153-0.107 0.107c-0.015-0.046-0.122-0.275-0.276-0.168-0.044 0.030-0.082 0.068-0.111 0.113s-0.048 0.095-0.057 0.147c0 0 0.367-0.061 0.398 0.076s-0.153-0.015-0.306-0.015c-0.153 0-0.291 0.031-0.276 0.122 0.008 0.081 0.008 0.163 0 0.245 0.079-0.074 0.183-0.118 0.291-0.122 0.168 0 0.168 0.107 0.015 0.107s-0.276 0.153-0.276 0.153 0.153 0.229 0.337 0.336c0.183 0.107 0.245 0.061 0.26-0.031s-0.046-0.321 0.061-0.321c0.107 0-0.153 0.413-0.015 0.428s0.245-0.030 0.276-0.122l0.031-0.092c0 0-0.061-0.229-0.046-0.321s0.046 0 0.076 0.107c0.030 0.107 0.061 0.367 0.107 0.352s0.184-0.214 0.215-0.29c0.031-0.076-0.215-0.291-0.215-0.336s0.184 0.030 0.215 0.076c0.022 0.035 0.043 0.070 0.061 0.107 0 0 0.107-0.076 0.092-0.291s-0.168-0.137-0.168-0.137z"></path>
<path fill="#fff" d="M12.839 7.249c-0.097-0.074-0.42-0.061-0.482 0.093s0.136 0.407 0.325 0.389c0.074-0.007 0.107-0.012 0.136-0.054l-0.266-0.26 0.288 0.231c0.008-0.015 0.015-0.031 0.020-0.047 0.003-0.011 0.006-0.024 0.009-0.037 0.020-0.092 0.062-0.246-0.029-0.316z"></path>
<path fill="#fff" d="M13.466 7.070v0.005c-0.026 0.115-0.158 0.181-0.269 0.171-0.015-0.001-0.031-0.004-0.046-0.008-0.026 0.041-0.042 0.088-0.047 0.136s0.001 0.097 0.019 0.143c0.005 0.013 0.011 0.025 0.019 0.037 0.033-0.027 0.382-0.325 0.382-0.325l-0.363 0.349c0.11 0.118 0.366 0.101 0.456-0.116s-0.024-0.362-0.15-0.393z"></path>
<path fill="#fff" d="M13.288 6.667c-0.188-0.039-0.357 0.044-0.354 0.24 0.001 0.043 0.011 0.086 0.029 0.125s0.044 0.074 0.076 0.103l0.194-0.264-0.163 0.288c0.037 0.025 0.079 0.040 0.123 0.044 0.111 0.009 0.243-0.056 0.269-0.171 0.027-0.129 0.014-0.324-0.174-0.366z"></path>
<path fill="#fff" d="M13.068 5.985c0 0-0.019 0.006-0.14 0.064-0.071 0.039-0.123 0.104-0.145 0.181s-0.014 0.16 0.025 0.231c0.033 0.066 0.091 0.117 0.161 0.141l0.049-0.468-0.021 0.474c0.009 0.001 0.018 0.001 0.028 0 0.079-0.008 0.202-0.101 0.214-0.293s-0.17-0.331-0.17-0.331z"></path>
<path fill="#fff" d="M12.518 6.41l0.364 0.29c0.004-0.013 0.005-0.026 0.004-0.039-0.017-0.166-0.183-0.262-0.292-0.297s-0.185 0.027-0.115 0.186 0.255 0.236 0.337 0.212c0.020-0.005 0.037-0.016 0.050-0.031l-0.348-0.321z"></path>
<path fill="#fff" d="M12.768 6.782c-0.056-0.004-0.11-0.021-0.158-0.049s-0.090-0.066-0.121-0.113c-0.039-0.004-0.077 0.008-0.107 0.032s-0.050 0.059-0.054 0.098c-0.037 0.173 0.088 0.354 0.269 0.332 0.057-0.003 0.111-0.026 0.152-0.065l-0.323-0.295 0.346 0.263c0.007-0.012 0.011-0.026 0.013-0.039 0.011-0.055 0.006-0.113-0.016-0.165z"></path>
<path fill="#fff" d="M12.766 7.744c-0.029 0.013-0.061 0.020-0.093 0.022-0.118 0.011-0.239-0.081-0.299-0.19-0.035 0.002-0.069 0.016-0.095 0.040s-0.044 0.055-0.050 0.090c-0.036 0.203 0.152 0.47 0.342 0.427 0.049-0.010 0.095-0.033 0.132-0.067l-0.414-0.398 0.438 0.372c0.025-0.032 0.041-0.070 0.047-0.111 0.021-0.061 0.017-0.127-0.009-0.186z"></path>
<path fill="#fff" d="M13.6 8.158c-0.139-0.161-0.305-0.017-0.305-0.017s-0.102 0.033-0.14 0.177c-0.012 0.044-0.010 0.090 0.005 0.133l0.419-0.244-0.409 0.267c0.039 0.072 0.121 0.118 0.236 0.085 0.184-0.050 0.333-0.238 0.194-0.4z"></path>
<path fill="#fff" d="M16.505 12.299h0.349l-0.307 0.128 0.772 1.826h-0.814v-1.954z"></path>
<path fill="#fff" d="M16.505 16.972h0.349l-0.307 0.128 0.772 1.826h-0.814v-1.954z"></path>
<path fill="#263238" d="M4.955 18.242c0 0-0.236-3.146-0.118-3.5s0.847-0.334 0.985-0.334c0.138 0 3.013 0 3.426 0.197s0.473 5.034 0.473 5.034h-4.569l-0.197-1.396z"></path>
<path fill="#263238" d="M9.877 17.987c0 0-0.473 0-0.567 0.472s0.278 2.419 0.305 2.97c0.028 0.551 0.124 1.318 0.124 1.318h1.674l0.374-4.759h-1.911z"></path>
<path fill="#636363" d="M11.788 17.987c0 0-0.473 0-0.591 0.472s0.158 2.419 0.158 2.97c0 0.551 0.059 1.318 0.059 1.318h0.591c0 0 0.059-1.416 0.059-1.613s0.236-2.242 0.118-2.655c-0.118-0.413-0.217-0.452-0.394-0.492z"></path>
<path fill="#fff" d="M6.796 14.614c0 0-1.566 0.639-1.566 0.708s0.532 1.917 0.729 2.203 0.335 0.6 0.394 0.718c0.059 0.118 0.315 0.413 0.522 0.413s0.453-0.246 1.113-0.344c0.66-0.098 1.251-0.088 1.369-0.177s-0.030-0.325-0.049-0.374-0.098-0.226-0.098-0.226c0 0 0.64 0.531 0.896 0.551s0.443-0.108 0.482-0.275c0.039-0.167-0.108-0.57-0.207-0.787s-0.561-0.56-0.768-0.826-0.473-0.58-0.66-0.796c-0.163-0.19-0.364-0.345-0.591-0.452-0.177-0.079-0.63-0.275-0.916-0.305s-0.65-0.030-0.65-0.030z"></path>
<path fill="#fff" d="M6.697 14.201l0.049 0.59 1.044 1.023 0.158-0.728 0.069-0.305c0 0-0.679-0.118-0.896-0.265s-0.423-0.315-0.423-0.315z"></path>
<path fill="#263238" d="M8.017 14.781c0 0-0.679-0.118-0.896-0.265s-0.423-0.315-0.423-0.315l0.049 0.59 0.264 0.258c0.205 0.058 0.41 0.086 0.549 0.032 0.154-0.056 0.302-0.129 0.44-0.218l0.018-0.082z"></path>
<path fill="#263238" d="M6.385 13.745c0 0-0.184-0.839-0.184-0.983s0.499-0.879 1.182-0.761c0.683 0.118 1.063 0.511 1.090 0.629s-0.079 0.354-0.079 0.354c0.021 0.068 0.034 0.139 0.039 0.21 0 0.079-0.118 0.419-0.118 0.419l-0.039-0.354c0 0-0.328 0.092-0.512 0.092s-0.499-0.118-0.499-0.118c0 0 0.066 0.21 0 0.315s-0.262 0.197-0.262 0.197c0 0-0.026 0.21-0.105 0.21-0.097-0.005-0.194-0.018-0.289-0.039-0.053-0.013-0.223-0.17-0.223-0.17z"></path>
<path fill="#fff" d="M6.688 13.837c0 0-0.026-0.315-0.289-0.236s-0.092 0.367 0.053 0.511c0.145 0.144 0.184 0.039 0.184 0.039s0.039 0.302 0.236 0.472c0.197 0.17 0.499 0.485 0.814 0.446s0.538-0.433 0.578-0.721c0.039-0.288 0.065-0.97 0.065-1.049-0.010-0.089-0.027-0.176-0.052-0.262 0 0-0.276 0.197-0.525 0.144s-0.512-0.157-0.63-0.157c-0.118 0-0.092 0.171-0.053 0.223s0.145 0.157 0.026 0.223c-0.118 0.066-0.276 0.131-0.276 0.131v0.275l-0.131-0.039z"></path>
<path fill="#263238" d="M7.671 14.368c0 0-0.158 0-0.244 0.007-0.052 0.009-0.105 0.011-0.158 0.007-0.036-0.007-0.079-0.036-0.007 0.036s0.287 0.157 0.402 0.172 0.194-0.022 0.28-0.079c0.086-0.057 0.158-0.115 0.115-0.129-0.059-0.011-0.119-0.015-0.18-0.015v0.036l-0.209-0.037z"></path>
<path fill="#fff" d="M8.578 15.853l0.069-0.177c0 0 0.089 0.088 0.325 0.088s0.62 0.167 0.62 0.167l0.030 0.049c0 0 0.069-0.207 0.197-0.246s0.335-0.177 0.364-0.216l0.030-0.039 0.138 0.118-0.61 0.806-1.142-0.443-0.020-0.108z"></path>
<path fill="#fff" d="M7.318 17.062l0.446-0.184c0 0 0.394-0.419 0.433-0.459s0.433-0.079 0.433-0.079l0.433 0.288c0 0 0.079 0.066 0 0.092s-0.249-0.052-0.249-0.052l-0.171-0.105-0.105 0.053 0.223 0.183c0 0 0.066 0.171 0.066 0.262-0.001 0.059-0.015 0.117-0.039 0.17l-0.131 0.184-0.394-0.197c0 0-0.236 0.17-0.289 0.197s-0.551-0.013-0.551-0.013l-0.105-0.341z"></path>
<path fill="#fff" d="M5.506 15.135c0 0-0.289 0.039-0.328 0.288s-0.302 2.347-0.223 2.583c0.079 0.236 1.536-0.17 1.588-0.197s0.879-0.275 0.893-0.328c0.013-0.052 0.039-0.485-0.079-0.511s-1.247 0.013-1.247 0.013l-0.158-1.364z"></path>
<path fill="#fff" d="M10.173 16.246c0 0-0.266 0.275-0.256 0.344s0.148-0.039 0.177-0.069c0.030-0.030 0.167-0.108 0.167-0.187s-0.030-0.167-0.089-0.089z"></path>
<path fill="#fff" d="M10.203 16.413c0 0 0.079 0.079 0.079 0.148s-0.167 0.295-0.246 0.295c-0.079 0-0.020-0.157 0.020-0.226s0.148-0.216 0.148-0.216z"></path>
<path fill="#fff" d="M10.281 16.561c0 0 0.098 0.030 0.098 0.118s-0.187 0.236-0.236 0.246-0.039-0.079 0-0.147c0.039-0.069 0.138-0.216 0.138-0.216z"></path>
<path fill="#fff" d="M10.38 16.679c0.020 0.050 0.027 0.104 0.020 0.157-0.010 0.098-0.158 0.157-0.207 0.157s-0.049-0.069-0.049-0.069c0.083-0.077 0.162-0.16 0.236-0.246z"></path>
<path fill="#fff" d="M7.283 23.749h-0.187l-0.093-1.239h0.374l-0.094 1.239z"></path>
<path fill="#fff" d="M5.57 23.749h-0.187l-0.093-1.239h0.374l-0.094 1.239z"></path>
<path fill="#fff" d="M11.753 23.749h-0.187l-0.093-1.239h0.374l-0.094 1.239z"></path>
<path fill="#fff" d="M10.040 23.749h-0.187l-0.093-1.239h0.374l-0.094 1.239z"></path>
<path fill="#263238" d="M11.492 20.139h-4.47v2.596h4.47v-2.596z"></path>
<path fill="#fff" d="M14.735 19.724c0 0 0.473-0.197 0.578-0.275s0.249 0.092 0.183 0.275c-0.066 0.184-0.236 0.511-0.499 0.669s-0.473 0.288-0.525 0.341c-0.053 0.052-0.039 0.249-0.262 0.328s-0.499-0.079-0.657-0.328-0.263-0.419-0.263-0.419c0 0 0.013-0.184 0.276-0.275s0.709-0.131 0.709-0.131l0.46-0.183z"></path>
<path fill="#fff" d="M9.356 18.134c0 0 0.312-0.076 0.39-0.036s0.341 0.289 0.341 0.289 1.588 0.026 1.707 0.079c0.118 0.053 1.339 0.983 1.602 1.114s0.486 0.249 0.486 0.249l-0.197 0.865v0.079l0.013 0.131c0 0-0.683-0.21-0.854-0.249s-0.879-0.406-0.945-0.406c-0.066 0-0.604-0.157-0.604-0.157s-0.079-0.052-0.932-0.131c-0.853-0.079-1.812-0.171-2.153-0.184s-0.788-0.039-0.958-0.105c-0.171-0.066-0.473-0.524-0.525-0.8s0.499-0.511 0.735-0.616c0.236-0.105 1.116-0.236 1.274-0.236s0.62 0.115 0.62 0.115z"></path>
<path fill="#fff" d="M9.654 18.518l-0.263 0.38 0.354-0.236z"></path>
<path fill="#fff" d="M13.685 19.658c0 0 0.381-0.302 0.46-0.393s0.341-0.59 0.394-0.747c0.052-0.157 0.184-0.236 0.276-0.118s0.158 0.354 0.21 0.459c0.052 0.105-0.026 0.616-0.184 0.787s-0.375 0.584-0.42 0.669c-0.118 0.223-0.302 0.249-0.42 0.262s-0.407-0.301-0.407-0.301l0.092-0.616z"></path>
<path fill="#fff" d="M7.843 18.78c0 0 0.394-0.079 0.748-0.039s1.076 0.262 1.378 0.341c0.302 0.079 0.84 0.118 1.090 0.21s0.906 0.21 1.404 0.21c0.499 0 1.26 0.066 1.26 0.066s-0.105 0.76-0.079 0.905c0.026 0.116 0.061 0.23 0.105 0.341 0 0-1.011 0.079-1.3 0.118s-1.457-0.144-1.654-0.197-0.486-0.131-0.67-0.131c-0.184 0-0.538 0.079-1.050 0.131s-1.234-0.17-1.326-0.183-0.42-0.131-0.499-0.184c-0.079-0.052-0.538-0.865-0.381-1.206s0.354-0.393 0.354-0.393z"></path>
<path fill="#fff" d="M10.258 20.103c0.253 0.050 0.521 0.204 0.884 0.346 0.484 0.189 1.453 0.172 1.578 0.189s0.442 0 0.442 0z"></path>
<path fill="#fff" d="M8.305 20.28l0.145 0.021c0.421 0.063 1.221-0.168 1.556-0.21z"></path>
<path fill="#fff" d="M7.882 20.238c0 0 0.076 0 0.273 0.023l-0.273-0.023z"></path>
<path fill="#263238" d="M5.328 17.987c0 0-0.473 0-0.567 0.472s0.276 2.419 0.305 2.97c0.030 0.551 0.124 1.318 0.124 1.318h1.674l0.374-4.759h-1.911z"></path>
<path fill="#636363" d="M7.239 17.987c0 0-0.473 0-0.591 0.472s0.158 2.419 0.158 2.97c0 0.551 0.059 1.318 0.059 1.318h0.591c0 0 0.059-1.416 0.059-1.613s0.236-2.242 0.118-2.655c-0.118-0.413-0.217-0.452-0.394-0.492z"></path>
<path fill="#fff" d="M11.084 23.749h-0.187l-0.093-1.239h0.374l-0.094 1.239z"></path>
<path fill="#fff" d="M12.679 23.749h-0.187l-0.093-1.239h0.374l-0.094 1.239z"></path>
<path fill="#fff" d="M13.427 23.749h-0.187l-0.093-1.239h0.374l-0.094 1.239z"></path>
<path fill="#fff" d="M15.002 23.749h-0.187l-0.093-1.239h0.374l-0.094 1.239z"></path>
<path fill="#263238" d="M10.852 20.897h4.114c0.076 0 0.148 0.030 0.202 0.084s0.084 0.126 0.084 0.202v2.016h-4.687v-2.016c0-0.038 0.007-0.075 0.022-0.11s0.036-0.066 0.062-0.093c0.027-0.026 0.058-0.047 0.093-0.062s0.072-0.021 0.11-0.021z"></path>
<path fill="#636363" d="M14.968 20.897h-1.497c-0.076 0-0.148 0.030-0.202 0.084s-0.084 0.126-0.084 0.202v2.016h2.068v-2.016c-0-0.076-0.030-0.148-0.084-0.202s-0.126-0.084-0.202-0.084z"></path>
</svg>
