<!-- Generated by IcoMoon.io -->
<svg version="1.1" xmlns="http://www.w3.org/2000/svg" width="32" height="32" viewBox="0 0 32 32">
<title>podcast-audience-bro-1</title>
<path fill="#263238" d="M15.992 21.465c-0.582-0.001-1.14-0.234-1.551-0.648s-0.643-0.976-0.644-1.563v-0.744c0-0.032 0.013-0.063 0.035-0.085s0.053-0.035 0.084-0.035h0.299c0.032 0 0.062 0.013 0.084 0.035s0.035 0.053 0.035 0.085-0.013 0.063-0.035 0.085c-0.022 0.023-0.053 0.035-0.084 0.035h-0.178v0.624c0 0.523 0.206 1.024 0.573 1.393s0.864 0.577 1.383 0.577 1.016-0.208 1.383-0.577c0.367-0.369 0.573-0.871 0.573-1.393v-0.624h-0.179c-0.032 0-0.062-0.013-0.084-0.035s-0.035-0.053-0.035-0.085 0.013-0.063 0.035-0.085c0.022-0.023 0.053-0.035 0.084-0.035h0.299c0.032 0 0.062 0.013 0.084 0.035s0.035 0.053 0.035 0.085v0.744c-0.001 0.586-0.232 1.149-0.644 1.563s-0.97 0.648-1.552 0.648z"></path>
<path fill="#263238" d="M18.306 23.315v-0.241c0-0.032-0.006-0.063-0.018-0.092s-0.030-0.056-0.052-0.078-0.049-0.040-0.078-0.052c-0.029-0.012-0.060-0.018-0.091-0.018h-4.151c-0.031-0-0.063 0.006-0.091 0.018s-0.055 0.030-0.078 0.052-0.040 0.049-0.052 0.078c-0.012 0.029-0.018 0.061-0.018 0.092v0.241h4.628z"></path>
<path fill="#263238" d="M16.225 23.127c0.004-0.017 0.006-0.035 0.006-0.052v-1.73h-0.478v1.73c0 0.018 0.002 0.035 0.006 0.052h0.466z"></path>
<path fill="#e8e8e8" d="M17.47 16.276c0.003-0.198-0.032-0.394-0.105-0.578s-0.181-0.351-0.319-0.492c-0.138-0.141-0.302-0.253-0.483-0.329s-0.375-0.116-0.572-0.116-0.39 0.039-0.572 0.116c-0.181 0.076-0.345 0.188-0.483 0.329s-0.246 0.308-0.319 0.492-0.109 0.38-0.105 0.578v2.978c0.007 0.39 0.165 0.763 0.442 1.037s0.649 0.427 1.036 0.427 0.76-0.154 1.036-0.427c0.277-0.274 0.435-0.646 0.442-1.037v-2.978z"></path>
<path fill="#fff" d="M15.38 16.433h-0.866v0.361h0.866c0.048 0 0.093-0.019 0.127-0.053s0.052-0.080 0.052-0.128c0-0.048-0.019-0.094-0.052-0.128s-0.079-0.053-0.127-0.053z"></path>
<path fill="#fff" d="M17.47 16.433h-0.866c-0.048 0-0.093 0.019-0.127 0.053s-0.052 0.080-0.052 0.128c0 0.048 0.019 0.094 0.052 0.128s0.079 0.053 0.127 0.053h0.866v-0.361z"></path>
<path fill="#fff" d="M15.992 16.433c-0.035 0-0.070 0.011-0.1 0.030s-0.052 0.048-0.066 0.081c-0.014 0.033-0.017 0.069-0.010 0.104s0.024 0.067 0.049 0.092c0.025 0.025 0.057 0.042 0.092 0.049s0.071 0.003 0.104-0.010c0.033-0.014 0.061-0.037 0.080-0.066s0.030-0.065 0.030-0.1c0-0.048-0.019-0.094-0.053-0.128s-0.079-0.053-0.127-0.053z"></path>
<path fill="#fff" d="M15.992 17.163c-0.035 0-0.070 0.011-0.1 0.030s-0.052 0.048-0.066 0.081c-0.014 0.033-0.017 0.069-0.010 0.104s0.024 0.067 0.049 0.092c0.025 0.025 0.057 0.043 0.092 0.049s0.071 0.003 0.104-0.010c0.033-0.014 0.061-0.037 0.080-0.066s0.030-0.065 0.030-0.1c0-0.048-0.019-0.094-0.053-0.128s-0.079-0.053-0.127-0.053z"></path>
<path fill="#fff" d="M15.992 17.891c-0.035 0-0.070 0.011-0.1 0.030s-0.052 0.048-0.066 0.081c-0.014 0.033-0.017 0.069-0.010 0.104s0.024 0.067 0.049 0.092c0.025 0.025 0.057 0.042 0.092 0.049s0.071 0.003 0.104-0.010c0.033-0.014 0.061-0.037 0.080-0.067s0.030-0.065 0.030-0.1c0-0.048-0.019-0.094-0.053-0.128s-0.079-0.053-0.127-0.053z"></path>
<path fill="#fff" d="M15.38 17.163h-0.866v0.361h0.866c0.048 0 0.093-0.019 0.127-0.053s0.052-0.080 0.052-0.128-0.019-0.094-0.052-0.128c-0.034-0.034-0.079-0.053-0.127-0.053z"></path>
<path fill="#fff" d="M17.47 17.163h-0.866c-0.048 0-0.093 0.019-0.127 0.053s-0.052 0.080-0.052 0.128 0.019 0.094 0.052 0.128c0.034 0.034 0.079 0.053 0.127 0.053h0.866v-0.361z"></path>
<path fill="#fff" d="M15.38 17.891h-0.866v0.361h0.866c0.048 0 0.093-0.019 0.127-0.053s0.052-0.080 0.052-0.128c0-0.048-0.019-0.094-0.052-0.128s-0.079-0.053-0.127-0.053v0z"></path>
<path fill="#fff" d="M17.47 17.891h-0.866c-0.048 0-0.093 0.019-0.127 0.053s-0.052 0.080-0.052 0.128c0 0.048 0.019 0.094 0.052 0.128s0.079 0.053 0.127 0.053h0.866v-0.361z"></path>
<path fill="#263238" d="M14.514 19.254c0.007 0.39 0.165 0.763 0.442 1.037s0.649 0.427 1.036 0.427 0.76-0.154 1.036-0.427c0.276-0.274 0.435-0.646 0.442-1.037h-2.956z"></path>
<path fill="#e8e8e8" d="M28.53 18.504c1.846-1.859 1.846-4.874 0-6.734s-4.839-1.859-6.684 0c-1.846 1.859-1.846 4.874 0 6.734s4.839 1.859 6.684 0z"></path>
<path fill="#fff" d="M24.51 13.167h-3.302c-0.166 0-0.301 0.136-0.301 0.303v3.326c0 0.168 0.135 0.303 0.301 0.303h3.302c0.166 0 0.301-0.136 0.301-0.303v-3.326c0-0.168-0.135-0.303-0.301-0.303z"></path>
<path fill="#000" opacity="0.010000000000000002" d="M21.275 17.101h1.303l0.83-3.934h-1.356l-0.829 3.929c0.017 0.003 0.034 0.004 0.052 0.004v0z"></path>
<path fill="#000" opacity="0.010000000000000002" d="M23.961 13.167h-0.326l-0.83 3.934h0.326l0.83-3.934z"></path>
<path fill="#fff" d="M24.443 17.199h-3.168c-0.123-0-0.241-0.050-0.329-0.137s-0.136-0.207-0.137-0.331v-3.193c0-0.124 0.049-0.243 0.137-0.331s0.206-0.137 0.329-0.138h3.168c0.123 0 0.242 0.050 0.329 0.137s0.136 0.207 0.137 0.332v3.193c-0 0.124-0.050 0.243-0.137 0.331s-0.206 0.137-0.329 0.137zM21.275 13.266c-0.072 0-0.141 0.029-0.191 0.080s-0.079 0.12-0.080 0.193v3.193c0 0.072 0.029 0.142 0.079 0.193s0.12 0.080 0.192 0.080h3.168c0.036 0 0.071-0.007 0.104-0.021s0.063-0.034 0.088-0.059c0.025-0.025 0.045-0.056 0.059-0.089s0.021-0.069 0.020-0.105v-3.193c0-0.036-0.007-0.071-0.021-0.104s-0.034-0.063-0.059-0.088-0.055-0.045-0.088-0.059c-0.033-0.014-0.068-0.021-0.104-0.021h-3.168z"></path>
<path fill="#fff" d="M29.102 13.167h-3.302c-0.166 0-0.301 0.136-0.301 0.303v3.326c0 0.168 0.135 0.303 0.301 0.303h3.302c0.166 0 0.301-0.136 0.301-0.303v-3.326c0-0.168-0.135-0.303-0.301-0.303z"></path>
<path fill="#000" opacity="0.010000000000000002" d="M26.208 17.101h1.303l0.83-3.934h-1.356l-0.831 3.929c0.018 0.003 0.036 0.004 0.054 0.004v0z"></path>
<path fill="#000" opacity="0.010000000000000002" d="M28.894 13.167h-0.326l-0.83 3.934h0.326l0.83-3.934z"></path>
<path fill="#fff" d="M29.036 17.199h-3.168c-0.123-0-0.241-0.050-0.329-0.137s-0.136-0.207-0.137-0.331v-3.193c0-0.124 0.049-0.243 0.137-0.331s0.206-0.137 0.329-0.138h3.168c0.123 0 0.242 0.050 0.329 0.137s0.137 0.207 0.137 0.332v3.193c-0 0.124-0.050 0.243-0.137 0.331s-0.206 0.137-0.329 0.137zM25.868 13.266c-0.072 0-0.141 0.029-0.191 0.080s-0.079 0.12-0.079 0.193v3.193c0 0.072 0.028 0.142 0.079 0.193s0.12 0.080 0.192 0.080h3.168c0.036 0 0.071-0.007 0.104-0.021s0.063-0.034 0.088-0.059c0.025-0.025 0.045-0.056 0.059-0.089s0.021-0.069 0.020-0.105v-3.193c0-0.036-0.007-0.071-0.021-0.104s-0.034-0.063-0.059-0.088c-0.025-0.025-0.055-0.045-0.088-0.059s-0.068-0.021-0.104-0.021h-3.168z"></path>
<path fill="#e8e8e8" d="M25.316 24.315c1.174 0 2.126-0.141 2.126-0.315s-0.952-0.315-2.126-0.315-2.126 0.141-2.126 0.315c0 0.174 0.952 0.315 2.126 0.315z"></path>
<path fill="#fff" d="M26.255 22.165c0 0-0.006 0.882-0.098 1.028-0.11 0.172-0.189 0.412 0.104 0.477s0.467 0.391 0.815 0.412c0.349 0.021 0.384-0.129 0.232-0.25s-0.538-0.456-0.588-0.618 0.048-1.049 0.048-1.049h-0.512z"></path>
<path fill="#000" opacity="0.1" d="M26.721 22.677c0.019-0.26 0.047-0.512 0.047-0.512h-0.512c0 0 0 0.226-0.015 0.468 0.159 0.028 0.319 0.043 0.48 0.045z"></path>
<path fill="#bfbfbf" d="M27.307 23.833c-0.142-0.114-0.277-0.236-0.404-0.367-0.122 0.093-0.478 0.005-0.583-0.078-0.128-0.102-0.101-0.154-0.162-0.199l-0.002 0.004c-0.11 0.172-0.189 0.412 0.104 0.477s0.467 0.391 0.815 0.412c0.349 0.021 0.385-0.131 0.232-0.25z"></path>
<path fill="#fff" d="M24.287 21.845c0 0-0.384 0.807-0.529 0.906-0.175 0.118-0.349 0.307-0.109 0.476s0.262 0.533 0.572 0.683c0.31 0.15 0.407 0.023 0.32-0.142s-0.299-0.619-0.275-0.787 0.496-0.963 0.496-0.963l-0.474-0.172z"></path>
<path fill="#000" opacity="0.1" d="M24.287 21.845c0 0-0.137 0.29-0.279 0.543 0.114 0.114 0.245 0.209 0.389 0.281 0.147-0.287 0.363-0.65 0.363-0.65l-0.474-0.173z"></path>
<path fill="#bfbfbf" d="M24.54 23.765c-0.082-0.157-0.153-0.32-0.213-0.487-0.151 0.040-0.466-0.164-0.501-0.289-0.067-0.24-0.027-0.178-0.064-0.243l-0.003 0.003c-0.175 0.118-0.349 0.307-0.109 0.476s0.262 0.532 0.572 0.683 0.406 0.023 0.319-0.142z"></path>
<path fill="#263238" d="M26.317 16.134c0 0 0.588 2.837 0.627 3.762s-0.113 2.576-0.113 2.576l-0.652-0.043c0 0-0.004-0.488-0.070-1.167-0.039-0.404-0.161-0.875-0.147-1.351 0 0-0.62-1.852-0.597-2.665s0-1.046 0-1.046l0.953-0.066z"></path>
<path fill="#263238" d="M24.747 16.134c0 0-0.609 0.507-0.256 1.53 0.139 0.406 0.676 2.262 0.676 2.262-0.147 0.17-0.272 0.358-0.371 0.561-0.245 0.487-0.423 1.246-0.725 1.682l0.447 0.304c0 0 1.444-1.823 1.536-2.402s-0.341-2.894-0.341-2.894l-0.139-0.941-0.826-0.101z"></path>
<path fill="#fff" d="M27.449 14.211c-0.008-0.096-0.040-0.188-0.093-0.269 0.045-0.059 0.083-0.123 0.116-0.19 0.032-0.079-0.011-0.19-0.101-0.057s-0.189 0.23-0.153 0.397c0.019 0.107-0.001 0.218-0.055 0.312l0.208 0.164 0.414-0.331-0.336-0.027z"></path>
<path fill="#263238" d="M27.644 13.361l-0.348 0.095c-0.032 0.009-0.051 0.042-0.042 0.074l0.198 0.735c0.009 0.032 0.042 0.051 0.074 0.043l0.348-0.095c0.032-0.009 0.051-0.042 0.042-0.074l-0.198-0.735c-0.009-0.032-0.042-0.051-0.074-0.043z"></path>
<path fill="#e8e8e8" d="M27.72 13.413l-0.464 0.127 0.194 0.718 0.464-0.127-0.194-0.717z"></path>
<path fill="#263238" d="M27.627 13.661c-0.006-0.022-0.020-0.041-0.039-0.053s-0.043-0.015-0.065-0.009c-0.022 0.006-0.041 0.020-0.052 0.040s-0.015 0.043-0.009 0.065c0.006 0.021 0.033 0.123 0.043 0.158l0.166-0.045c-0.009-0.033-0.038-0.138-0.043-0.156z"></path>
<path fill="#263238" d="M27.612 13.934c0.020-0.006 0.038-0.019 0.050-0.037s0.016-0.040 0.012-0.061l-0.164 0.043c0.007 0.020 0.022 0.037 0.041 0.048s0.041 0.013 0.062 0.007z"></path>
<path fill="#263238" d="M27.766 14.023l-0.108 0.030-0.022-0.082c0.031-0.012 0.056-0.035 0.070-0.064s0.018-0.064 0.010-0.095l-0.012-0.043c-0-0.001-0.001-0.002-0.001-0.002s-0.001-0.001-0.002-0.002-0.002-0.001-0.003-0.001-0.002-0-0.003 0l-0.018 0.005c-0.001 0-0.002 0.001-0.003 0.001s-0.001 0.001-0.002 0.002-0.001 0.002-0.001 0.003 0 0.002 0 0.003 0.001 0.002 0.001 0.002 0.001 0.001 0.002 0.002 0.002 0.001 0.003 0.001 0.002 0 0.003-0l0.011-0.003 0.010 0.037c0.004 0.015 0.005 0.031 0.003 0.047s-0.007 0.031-0.015 0.044-0.018 0.026-0.030 0.035c-0.012 0.010-0.026 0.017-0.041 0.021s-0.031 0.005-0.046 0.003c-0.016-0.002-0.030-0.007-0.044-0.015s-0.025-0.018-0.035-0.031c-0.010-0.012-0.017-0.027-0.021-0.042l-0.010-0.037 0.011-0.002c0.002-0.001 0.003-0.002 0.004-0.004s0.001-0.004 0.001-0.006c-0-0.001-0.001-0.002-0.001-0.002s-0.001-0.001-0.002-0.002-0.002-0.001-0.003-0.001-0.002-0-0.003 0l-0.017 0.005c-0.001 0-0.002 0.001-0.003 0.001s-0.001 0.001-0.002 0.002-0.001 0.002-0.001 0.003 0 0.002 0 0.003l0.012 0.043c0.009 0.032 0.029 0.059 0.056 0.077s0.061 0.025 0.093 0.020l0.022 0.082-0.108 0.029c-0.002 0.001-0.004 0.001-0.005 0.003s-0.003 0.003-0.004 0.004-0.002 0.004-0.002 0.005-0 0.004 0 0.006l0.004 0.014 0.271-0.074-0.004-0.014c-0-0.002-0.001-0.004-0.003-0.005s-0.003-0.003-0.004-0.004c-0.002-0.001-0.003-0.002-0.005-0.002s-0.004-0-0.006 0z"></path>
<path fill="#fff" d="M27.81 13.58c-0.043 0.005-0.078 0.072-0.065 0.167s0.1-0.008 0.105-0.038c0.005-0.030 0.041-0.137-0.040-0.129z"></path>
<path fill="#fff" d="M27.904 13.722c-0.011-0-0.023 0.002-0.033 0.007s-0.019 0.012-0.027 0.021c-0.007 0.009-0.012 0.019-0.015 0.030s-0.003 0.023-0.001 0.034c0.008 0.092 0.026 0.071 0.026 0.071 0 0.038 0.008 0.076 0.023 0.111 0.021 0.041 0.078-0.021 0.078-0.058s-0.006-0.231-0.051-0.216z"></path>
<path fill="#fff" d="M27.855 13.883c0 0 0.074-0.022 0.091-0.076l-0.091 0.076z"></path>
<path fill="#fff" d="M27.214 14.274c0.014-0.059 0.015-0.121 0.003-0.181-0.036-0.166 0.063-0.264 0.153-0.397s0.133-0.022 0.101 0.057c-0.032 0.067-0.071 0.131-0.116 0.19 0.058 0.078 0.090 0.172 0.093 0.269 0 0.031 0 0.125 0 0.125z"></path>
<path fill="#263238" d="M26.069 13.235c0.148-0.031 0.194-0.070 0.194-0.070-0.111-0.452 0.288-1.971-0.971-2.041s-0.555 2.083-0.555 2.083l0.137 0.018-0.070-0.433 0.164 0.444c0.485 0.053 0.795 0.043 0.991 0.018-0.026-0.195-0.029-0.393-0.008-0.589 0.025 0.193 0.064 0.384 0.118 0.57v0z"></path>
<path fill="#fff" d="M26.251 13.511v-0.014c-0.003 0.006-0.005 0.010 0 0.014z"></path>
<path fill="#fff" d="M27.162 14.405l-0.597 0.559 0.011-0.837c0.002-0.126-0.028-0.251-0.087-0.363s-0.145-0.207-0.25-0.276l0.023 2.204c0.587 0.037 1.109-1.122 1.109-1.122-0.021-0.041-0.051-0.077-0.087-0.105s-0.078-0.048-0.122-0.059v0z"></path>
<path fill="#000" opacity="0.1" d="M26.473 15.421c-0.089 0.008-0.109-0.163-0.108-0.329-0.025 0.063-0.041 0.128-0.049 0.195-0.008 0.19-0.008 0.377-0.005 0.538 0.668-0.305 0.676-0.577 0.848-0.855-0.109 0.14-0.515 0.435-0.686 0.451z"></path>
<path fill="#e8e8e8" d="M27.036 14.477l0.131-0.125 0.287 0.198-0.084 0.14-0.334-0.214z"></path>
<path fill="#fff" d="M26.476 14.539c-0.241 1.075-0.121 1.781-0.121 1.781s-0.581 0.415-1.801 0.063c0 0 0.222-0.556 0.162-0.98-0.036-0.261-0.279-1.199-0.279-1.199s-0.115-0.41-0.062-0.741c0.102-0.067 0.32-0.147 0.706-0.175 0.006-0.022 0.011-0.044 0.013-0.067 0.012-0.109 0.015-0.219 0.008-0.329-0.006-0.129-0.016-0.232-0.016-0.232h0.466c0 0 0.006 0.119 0.021 0.258 0.008 0.082 0.020 0.172 0.034 0.249 0.007 0.039 0.016 0.077 0.028 0.115 0.465 0.070 0.64 0.193 0.674 0.299 0.158 0.479 0.219 0.728 0.168 0.958z"></path>
<path fill="#263238" d="M25.574 12.994c-0.038 0.086-0.085 0.154-0.25 0.153-0.122 0-0.232-0.109-0.244-0.15 0.013-0.094 0-0.129-0.006-0.236 0.157-0.004 0.314 0.005 0.469 0.027 0.007 0.069 0.017 0.138 0.030 0.205z"></path>
<path fill="#fff" d="M25.883 12.074c0-0.064 0-0.103 0-0.103-0.035-0.167-0.239-0.175-0.334-0.175-0.099 0.003-0.198-0.014-0.291-0.051 0.030 0.073 0.080 0.136 0.145 0.181-0.351-0.079-0.378-0.265-0.365-0.366-0.125 0.439-0.286 0.457-0.286 0.457s0 0.039 0.007 0.102c-0.042 0.010-0.079 0.034-0.104 0.069s-0.037 0.078-0.034 0.121c-0 0.046 0.017 0.091 0.049 0.125s0.076 0.053 0.122 0.055c0.009-0 0.018-0.002 0.027-0.004 0.074 0.291 0.227 0.606 0.538 0.594s0.439-0.34 0.489-0.636c0.009 0.001 0.018 0.001 0.028 0 0.046-0.005 0.089-0.028 0.118-0.064s0.044-0.083 0.039-0.129c0-0.043-0.015-0.084-0.042-0.117s-0.065-0.054-0.107-0.061v0z"></path>
<path fill="#fff" d="M24.617 11.973l-0.047 0.002 0.007 0.17 0.047-0.002-0.007-0.17z"></path>
<path fill="#fff" d="M26.061 11.911l-0.047 0.002 0.007 0.17 0.047-0.002-0.007-0.17z"></path>
<path fill="#e8e8e8" d="M25.286 11.203c-0.201 0.008-0.391 0.095-0.53 0.241s-0.216 0.341-0.216 0.544c0 0.004 0.001 0.008 0.002 0.011s0.004 0.007 0.006 0.009 0.006 0.005 0.010 0.006c0.004 0.001 0.007 0.002 0.011 0.002h0.050c0.007-0 0.014-0.004 0.019-0.009s0.008-0.012 0.008-0.020c0.001-0.174 0.069-0.34 0.189-0.465s0.283-0.198 0.456-0.205 0.341 0.053 0.47 0.168c0.13 0.115 0.21 0.275 0.225 0.449 0 0.007 0.004 0.014 0.009 0.019s0.013 0.007 0.020 0.007h0.050c0.004-0 0.007-0.001 0.011-0.003s0.006-0.004 0.009-0.007 0.004-0.006 0.006-0.010c0.001-0.004 0.002-0.007 0.001-0.011-0.014-0.203-0.107-0.392-0.257-0.527s-0.347-0.207-0.549-0.198z"></path>
<path fill="#e8e8e8" d="M24.704 12.076h-0.011c-0.032 0.001-0.064 0.009-0.093 0.023s-0.056 0.033-0.077 0.057c-0.044 0.048-0.067 0.112-0.065 0.177s0.031 0.127 0.079 0.171c0.048 0.044 0.111 0.068 0.176 0.065h0.011l-0.020-0.493z"></path>
<path fill="#fff" d="M24.77 12.32c0.007 0.183 0.020 0.301-0.043 0.305s-0.089-0.116-0.096-0.301c-0.007-0.185 0.009-0.301 0.072-0.305s0.060 0.118 0.067 0.301z"></path>
<path fill="#e8e8e8" d="M25.937 12.026h0.011c0.032-0.001 0.064 0.004 0.094 0.015s0.058 0.028 0.082 0.050c0.024 0.022 0.043 0.048 0.056 0.078s0.021 0.061 0.022 0.094c0.001 0.032-0.004 0.065-0.015 0.095s-0.028 0.058-0.050 0.082c-0.022 0.024-0.048 0.043-0.077 0.057s-0.061 0.021-0.093 0.023h-0.011l-0.020-0.493z"></path>
<path fill="#fff" d="M25.888 12.275c0.007 0.183 0.004 0.301 0.067 0.301s0.079-0.123 0.072-0.306c-0.007-0.183-0.034-0.301-0.096-0.299s-0.050 0.12-0.043 0.303z"></path>
<path fill="#e8e8e8" d="M25.019 13.228c0 0 0.097 0.246 0.458 0.301 0 0-0.144 0.301-0.341 0.183-0.236-0.141-0.281-0.434-0.281-0.434l0.164-0.050z"></path>
<path fill="#e8e8e8" d="M25.68 13.259c0.001 0.065-0.020 0.129-0.061 0.18s-0.098 0.086-0.162 0.099c0 0 0.175 0.29 0.319 0.129s0.032-0.38 0.032-0.38l-0.128-0.028z"></path>
<path fill="#e8e8e8" d="M25.6 14.112c0 0.009-0.003 0.017-0.007 0.024s-0.011 0.013-0.019 0.016c-0.008 0.003-0.016 0.004-0.025 0.002s-0.016-0.006-0.022-0.012-0.010-0.014-0.012-0.022c-0.002-0.008-0.001-0.017 0.002-0.025s0.009-0.015 0.016-0.019c0.007-0.005 0.015-0.007 0.024-0.007 0.011 0 0.022 0.005 0.030 0.013s0.012 0.019 0.012 0.030z"></path>
<path fill="#e8e8e8" d="M25.658 14.958c0 0.009-0.003 0.017-0.007 0.024s-0.011 0.013-0.019 0.016c-0.008 0.003-0.016 0.004-0.025 0.002s-0.016-0.006-0.022-0.012-0.010-0.014-0.012-0.022c-0.002-0.008-0.001-0.017 0.002-0.025s0.009-0.015 0.016-0.019c0.007-0.005 0.015-0.007 0.024-0.007 0.011 0 0.022 0.005 0.030 0.013s0.012 0.019 0.012 0.030z"></path>
<path fill="#e8e8e8" d="M25.713 15.825c0 0.009-0.003 0.017-0.007 0.024s-0.011 0.013-0.019 0.016c-0.008 0.003-0.016 0.004-0.025 0.002s-0.016-0.006-0.022-0.012c-0.006-0.006-0.010-0.014-0.012-0.022s-0.001-0.017 0.002-0.025c0.003-0.008 0.009-0.014 0.016-0.019s0.015-0.007 0.024-0.007c0.011 0 0.022 0.005 0.030 0.013s0.012 0.019 0.012 0.030z"></path>
<path fill="#fff" d="M29.472 10.062h-8.645c-0.040 0-0.072 0.033-0.072 0.073v0.157c0 0.040 0.032 0.073 0.072 0.073h8.645c0.040 0 0.072-0.033 0.072-0.073v-0.157c0-0.040-0.032-0.073-0.072-0.073z"></path>
<path fill="#fff" d="M23.524 12.101c0 0-0.356-0.050-0.375 0.046s-0.009 0.251 0.053 0.301c0.116 0.095 0.095 0.274 0.095 0.274l0.299-0.029 0.008-0.15c0.015-0.049 0.043-0.093 0.080-0.129 0.108-0.102 0.065-0.215 0.047-0.351s-0.108-0.076-0.115-0.005c-0.002 0.063 0.003 0.126 0.015 0.187l-0.105-0.143z"></path>
<path fill="#fff" d="M23.607 12.234c0 0-0.085 0.018-0.153 0.139l0.153-0.139z"></path>
<path fill="#263238" d="M23.608 12.265h-0.432c-0.030 0.001-0.060-0.005-0.087-0.018s-0.050-0.032-0.069-0.056c-0.015-0.022-0.024-0.048-0.024-0.075s0.008-0.053 0.024-0.075l0.216-0.319c0.019-0.024 0.042-0.043 0.069-0.056s0.057-0.020 0.087-0.020c0.030 0 0.060 0.007 0.087 0.020s0.051 0.032 0.069 0.056l0.216 0.319c0.015 0.022 0.024 0.048 0.024 0.075s-0.008 0.053-0.024 0.075c-0.018 0.024-0.042 0.044-0.070 0.057s-0.058 0.019-0.088 0.018zM23.096 12.076c-0.008 0.011-0.013 0.025-0.013 0.039s0.004 0.028 0.013 0.039c0.009 0.012 0.022 0.022 0.036 0.029s0.029 0.010 0.045 0.009h0.431c0.016 0.001 0.031-0.003 0.045-0.009s0.026-0.017 0.036-0.029c0.008-0.011 0.013-0.025 0.013-0.039s-0.004-0.028-0.013-0.039l-0.216-0.319c-0.009-0.013-0.022-0.023-0.036-0.030s-0.030-0.010-0.046-0.010c-0.016-0.001-0.031 0.003-0.045 0.010s-0.026 0.017-0.036 0.030l-0.216 0.319 0.002-0z"></path>
<path fill="#fff" d="M23.262 12.106c0.022 0.113 0.009 0.154-0.043 0.148s-0.103-0.145-0.032-0.177c0.071-0.032 0.128-0.056 0.128-0.056 0.023-0.012 0.048-0.019 0.074-0.020s0.051 0.004 0.075 0.015c0.102-0.036 0.119 0.039 0.119 0.039s0.073 0.215 0.012 0.222c-0.061 0.007-0.111-0.179-0.111-0.179s0.076 0.205 0.006 0.208c-0.070 0.003-0.11-0.199-0.11-0.199s0.046 0.178-0.020 0.184c-0.066 0.006-0.098-0.184-0.098-0.184z"></path>
<path fill="#fff" d="M23.424 10.284h-0.070v1.411h0.070v-1.411z"></path>
<path fill="#fff" d="M23.462 11.673l-0.046 0.067c-0.003 0.004-0.007 0.007-0.011 0.009s-0.009 0.003-0.014 0.003c-0.005 0-0.010-0.001-0.014-0.003s-0.008-0.005-0.011-0.009l-0.045-0.067c-0.011-0.016 0.003-0.036 0.025-0.036h0.091c0.022 0 0.036 0.021 0.025 0.036z"></path>
<path fill="#fff" d="M23.429 11.2h-0.075c-0.020 0-0.037 0.017-0.037 0.037v0.313c0 0.021 0.017 0.037 0.037 0.037h0.075c0.021 0 0.037-0.017 0.037-0.037v-0.313c0-0.021-0.017-0.037-0.037-0.037z"></path>
<path fill="#fff" d="M23.429 10.014h-0.075c-0.020 0-0.037 0.017-0.037 0.037v0.313c0 0.021 0.017 0.037 0.037 0.037h0.075c0.021 0 0.037-0.017 0.037-0.037v-0.313c0-0.021-0.017-0.037-0.037-0.037z"></path>
<path fill="#263238" d="M22.592 12.265h-0.432c-0.030 0.001-0.060-0.005-0.087-0.018s-0.051-0.032-0.069-0.056c-0.015-0.022-0.024-0.048-0.024-0.075s0.008-0.053 0.024-0.075l0.216-0.319c0.019-0.024 0.043-0.043 0.070-0.056s0.057-0.020 0.087-0.020c0.030 0 0.060 0.007 0.087 0.020s0.051 0.032 0.070 0.056l0.216 0.319c0.015 0.022 0.024 0.048 0.024 0.075s-0.008 0.053-0.024 0.075c-0.018 0.024-0.042 0.044-0.070 0.057s-0.058 0.019-0.088 0.018zM22.080 12.076c-0.008 0.011-0.012 0.025-0.012 0.039s0.004 0.028 0.012 0.039c0.009 0.012 0.022 0.022 0.036 0.029s0.029 0.010 0.045 0.009h0.432c0.016 0 0.031-0.003 0.045-0.009s0.026-0.017 0.036-0.029c0.008-0.011 0.012-0.025 0.012-0.039s-0.004-0.028-0.012-0.039l-0.216-0.319c-0.009-0.013-0.022-0.023-0.036-0.030s-0.030-0.010-0.046-0.010c-0.016-0.001-0.031 0.003-0.045 0.010s-0.026 0.017-0.036 0.030l-0.216 0.319 0.001-0z"></path>
<path fill="#fff" d="M22.409 10.284h-0.070v1.411h0.070v-1.411z"></path>
<path fill="#fff" d="M22.447 11.673l-0.047 0.067c-0.003 0.004-0.007 0.007-0.011 0.009s-0.009 0.003-0.014 0.003-0.010-0.001-0.014-0.003c-0.004-0.002-0.008-0.005-0.011-0.009l-0.045-0.067c-0.011-0.016 0.003-0.036 0.025-0.036h0.091c0.022 0 0.038 0.021 0.027 0.036z"></path>
<path fill="#fff" d="M22.414 11.2h-0.075c-0.021 0-0.037 0.017-0.037 0.037v0.313c0 0.021 0.017 0.037 0.037 0.037h0.075c0.020 0 0.037-0.017 0.037-0.037v-0.313c0-0.021-0.017-0.037-0.037-0.037z"></path>
<path fill="#fff" d="M22.414 10.014h-0.075c-0.021 0-0.037 0.017-0.037 0.037v0.313c0 0.021 0.017 0.037 0.037 0.037h0.075c0.020 0 0.037-0.017 0.037-0.037v-0.313c0-0.021-0.017-0.037-0.037-0.037z"></path>
<path fill="#263238" d="M26.991 12.265h-0.432c-0.030 0.001-0.060-0.005-0.087-0.018s-0.051-0.032-0.069-0.056c-0.015-0.022-0.024-0.048-0.024-0.075s0.008-0.053 0.024-0.075l0.216-0.319c0.019-0.024 0.042-0.043 0.069-0.056s0.057-0.020 0.087-0.020c0.030 0 0.060 0.007 0.087 0.020s0.051 0.032 0.069 0.056l0.216 0.319c0.015 0.022 0.024 0.048 0.024 0.075s-0.008 0.053-0.024 0.075c-0.018 0.024-0.042 0.044-0.069 0.057s-0.057 0.019-0.088 0.018zM26.479 12.076c-0.008 0.011-0.013 0.025-0.013 0.039s0.004 0.028 0.013 0.039c0.009 0.012 0.022 0.023 0.036 0.029s0.029 0.010 0.045 0.009h0.432c0.016 0.001 0.031-0.003 0.045-0.009s0.026-0.017 0.036-0.029c0.008-0.011 0.013-0.025 0.013-0.039s-0.004-0.028-0.013-0.039l-0.216-0.319c-0.010-0.012-0.022-0.022-0.036-0.029s-0.030-0.010-0.045-0.010c-0.016 0-0.031 0.004-0.045 0.010s-0.026 0.017-0.036 0.029l-0.216 0.319 0.002-0z"></path>
<path fill="#fff" d="M26.807 10.284h-0.070v1.411h0.070v-1.411z"></path>
<path fill="#fff" d="M26.846 11.673l-0.045 0.067c-0.003 0.004-0.007 0.007-0.011 0.009s-0.009 0.003-0.014 0.003c-0.005 0-0.010-0.001-0.014-0.003s-0.008-0.005-0.011-0.009l-0.045-0.067c-0.011-0.016 0.003-0.036 0.025-0.036h0.091c0.022 0 0.036 0.021 0.025 0.036z"></path>
<path fill="#fff" d="M26.813 11.2h-0.075c-0.020 0-0.037 0.017-0.037 0.037v0.313c0 0.021 0.017 0.037 0.037 0.037h0.075c0.020 0 0.037-0.017 0.037-0.037v-0.313c0-0.021-0.017-0.037-0.037-0.037z"></path>
<path fill="#fff" d="M26.813 10.014h-0.075c-0.020 0-0.037 0.017-0.037 0.037v0.313c0 0.021 0.017 0.037 0.037 0.037h0.075c0.020 0 0.037-0.017 0.037-0.037v-0.313c0-0.021-0.017-0.037-0.037-0.037z"></path>
<path fill="#263238" d="M27.959 12.265h-0.432c-0.030 0.001-0.060-0.005-0.087-0.018s-0.050-0.032-0.069-0.056c-0.015-0.022-0.024-0.048-0.024-0.075s0.008-0.053 0.024-0.075v0l0.216-0.319c0.019-0.024 0.042-0.043 0.070-0.056s0.057-0.020 0.087-0.020c0.030 0 0.060 0.007 0.087 0.020s0.051 0.032 0.070 0.056l0.216 0.319c0.015 0.022 0.024 0.048 0.024 0.075s-0.008 0.053-0.024 0.075c-0.018 0.024-0.042 0.044-0.070 0.057s-0.058 0.019-0.088 0.018v0zM27.447 12.076c-0.008 0.011-0.013 0.025-0.013 0.039s0.004 0.028 0.013 0.039c0.009 0.012 0.022 0.022 0.036 0.029s0.029 0.010 0.045 0.009h0.432c0.016 0 0.031-0.003 0.045-0.009s0.026-0.017 0.036-0.029c0.008-0.011 0.012-0.025 0.012-0.039s-0.004-0.028-0.012-0.039l-0.216-0.319c-0.009-0.013-0.022-0.023-0.036-0.030s-0.030-0.010-0.046-0.010c-0.016-0.001-0.031 0.003-0.045 0.010s-0.026 0.017-0.036 0.030l-0.216 0.319 0.001-0z"></path>
<path fill="#fff" d="M27.775 10.284h-0.070v1.411h0.070v-1.411z"></path>
<path fill="#fff" d="M27.814 11.673l-0.046 0.067c-0.003 0.004-0.007 0.007-0.011 0.009s-0.009 0.003-0.014 0.003c-0.005 0-0.010-0.001-0.014-0.003s-0.008-0.005-0.011-0.009l-0.045-0.067c-0.011-0.016 0.003-0.036 0.025-0.036h0.091c0.022 0 0.036 0.021 0.025 0.036z"></path>
<path fill="#fff" d="M27.78 11.2h-0.075c-0.020 0-0.037 0.017-0.037 0.037v0.313c0 0.021 0.017 0.037 0.037 0.037h0.075c0.021 0 0.037-0.017 0.037-0.037v-0.313c0-0.021-0.017-0.037-0.037-0.037z"></path>
<path fill="#fff" d="M27.78 10.014h-0.075c-0.020 0-0.037 0.017-0.037 0.037v0.313c0 0.021 0.017 0.037 0.037 0.037h0.075c0.021 0 0.037-0.017 0.037-0.037v-0.313c0-0.021-0.017-0.037-0.037-0.037z"></path>
<path fill="#e8e8e8" d="M23.641 12.625l0.023 0.184-0.464 0.022 0.039-0.184 0.403-0.021z"></path>
<path fill="#fff" d="M24.428 14.167c0 0-0.806 0.747-0.992 0.758-0.046 0.003-0.085 0.032-0.124 0.006-0.085-0.058-0.209-0.182-0.191-0.685 0.009-0.275 0.174-1.421 0.174-1.421l0.299-0.013 0.073 1.289c0.256-0.267 0.701-0.638 0.701-0.638 0.139 0.448 0.059 0.704 0.059 0.704z"></path>
<path fill="#fff" d="M26.461 15.205c0.020-0.089 0.058-0.173 0.112-0.247l-0.112 0.247z"></path>
<path fill="#fff" d="M23.862 11.342v-0.514c0-0.025 0.010-0.049 0.027-0.066s0.041-0.027 0.066-0.028h0.8c0.025 0 0.048 0.010 0.066 0.028s0.027 0.041 0.027 0.066v0.514c0 0.025-0.010 0.049-0.027 0.066s-0.041 0.027-0.066 0.027h-0.279l0.022 0.196h-0.144v0.185l-0.171-0.301h0.14l-0.015-0.079h-0.355c-0.012-0-0.024-0.003-0.036-0.007s-0.021-0.012-0.030-0.020c-0.009-0.009-0.015-0.019-0.020-0.030s-0.007-0.024-0.007-0.036z"></path>
<path fill="#e8e8e8" d="M6.060 24.055c1.1 0 1.992-0.132 1.992-0.295s-0.892-0.295-1.992-0.295-1.992 0.132-1.992 0.295c0 0.163 0.892 0.295 1.992 0.295z"></path>
<path fill="#e8e8e8" d="M5.886 19.054c1.916 0 3.469-1.565 3.469-3.495s-1.553-3.495-3.469-3.495-3.469 1.565-3.469 3.495c0 1.93 1.553 3.495 3.469 3.495z"></path>
<path fill="#fff" d="M4.286 17.844c0 0 0.088 0.516-0.21 1.096h3.729c0 0-0.171-0.27-0.349-1.096h-3.17z"></path>
<path fill="#263238" d="M5.136 17.963c-0.204 0.016-0.4 0.089-0.565 0.211s-0.295 0.286-0.373 0.477c-0.040 0.098-0.082 0.197-0.122 0.29-0.227 0.529-0.012 1.299 0.568 1.299h2.661c0.526 0 0.67-0.671 0.544-1.176-0.081-0.325-0.244-0.651-0.523-0.88-0.373-0.307-1.463-0.279-2.189-0.22z"></path>
<path fill="#fff" d="M2.596 17.396c0 0-0.477 0.291-0.493 0.449h0.585l0.233-0.168-0.079 0.169h0.178c0 0 0.189-0.148 0.199-0.312l-0.019-0.138-0.341-0.153-0.263 0.153z"></path>
<path fill="#fff" d="M8.183 16.328c0 0-0.076-0.506-0.244-1.234s-0.495-0.786-0.495-0.786h-0.003c-0.427-0.185-1.536-0.285-1.536-0.285h-0.051c0 0-1.112 0.1-1.536 0.285h-0.003c0 0-0.331 0.058-0.498 0.786s-0.244 1.234-0.244 1.234c0 0-0.303 0.082-0.848 0.774-0.086 0.11-0.158 0.229-0.217 0.355v0c0 0 0.419-0.139 0.713 0.074 0 0 0.962-0.411 1.010-0.844 0-0.015 0.004-0.033 0.006-0.051 0.027 0.658 0.051 1.207 0.051 1.207h3.184c0 0 0.024-0.549 0.051-1.207 0 0.018 0.004 0.036 0.006 0.051 0.049 0.433 1.113 0.919 1.113 0.919 0.292-0.452 0.716-0.202 0.716-0.202l-1.172-1.075z"></path>
<path fill="#000" opacity="0.3" d="M4.229 16.688c0-0.013 0.003-0.028 0.005-0.043l-0.070-1.522c0 0-0.192 0.040-0.137 0.507s0.171 0.387 0.106 0.567c-0.064 0.18-0.314-0.026-0.397 0.129s0.462 0.122 0.237 0.522c-0.225 0.4-0.755 0.688-0.755 0.688s0.962-0.413 1.010-0.847z"></path>
<path fill="#000" opacity="0.09" d="M7.541 16.688c0-0.013 0.125 0.009 0 0l0.038-1.303c0 0-0.009 0.63 0.058 0.811s0.314-0.026 0.397 0.129c0.082 0.155-0.463 0.122-0.237 0.522s0.754 0.688 0.754 0.688-0.961-0.413-1.010-0.847z"></path>
<path fill="#000" opacity="0.3" d="M7.493 16.984c-0.021 0.493-0.037 0.86-0.037 0.86h-2.862c1.92 0 2.901-0.86 2.901-0.86h-0.002z"></path>
<path fill="#fff" d="M6.476 14.093c-0.052 0.26-0.302 0.355-0.603 0.355s-0.55-0.094-0.603-0.353h0.012c0.031-0.004 0.060-0.018 0.084-0.039s0.040-0.049 0.047-0.080c0.004-0.012 0.006-0.025 0.006-0.038v-0.306h0.922v0.306c-0 0.019 0.003 0.038 0.010 0.056 0.010 0.027 0.027 0.050 0.049 0.068s0.048 0.029 0.076 0.033z"></path>
<path fill="#263238" d="M6.333 13.86c-0.153 0.151-0.323 0.245-0.487 0.253-0.171 0.008-0.369-0.133-0.449-0.272 0.003-0.012 0.005-0.024 0.005-0.037v-0.094l0.922 0.010v0.084c0 0.020 0.023 0.043 0.010 0.056z"></path>
<path fill="#263238" d="M5.199 12.975c0 0-0.32-0.364-0.278-0.866s0.451-0.502 0.451-0.502c0 0 0.493-0.438 1.043-0.164s0.512 1.225 0.105 1.461l-1.321 0.070z"></path>
<path fill="#fff" d="M6.608 12.73c0.004-0.083 0.004-0.135 0.004-0.135-0.037-0.222-0.306-0.244-0.43-0.248-0.518-0.018-0.655-0.338-0.655-0.338-0.314-0.095-0.404 0.586-0.404 0.586s0 0.052 0.004 0.135c-0.056 0.011-0.105 0.041-0.141 0.086s-0.053 0.101-0.051 0.157c0 0.136 0.097 0.245 0.218 0.245 0.012-0 0.024-0.001 0.036-0.003l0.056 0.32c0.011 0.072 0.078 0.242 0.138 0.282 0.128 0.086 0.331 0.208 0.483 0.208 0.131 0 0.316-0.109 0.452-0.184 0.076-0.043 0.16-0.208 0.167-0.294l0.035-0.323c0.020-0.001 0.040-0.003 0.060-0.006 0.12 0 0.218-0.11 0.218-0.245 0.002-0.057-0.016-0.113-0.051-0.157s-0.085-0.075-0.141-0.086z"></path>
<path fill="#fff" d="M5.021 12.524h-0.056v0.202h0.056v-0.202z"></path>
<path fill="#fff" d="M6.741 12.524h-0.056v0.202h0.056v-0.202z"></path>
<path fill="#fff" d="M5.853 11.641c-0.24-0-0.47 0.094-0.642 0.261s-0.274 0.396-0.282 0.637c-0 0.005 0.001 0.009 0.002 0.013s0.004 0.008 0.007 0.011c0.003 0.003 0.007 0.006 0.011 0.007s0.009 0.003 0.013 0.002h0.060c0.009 0 0.017-0.003 0.023-0.009s0.010-0.014 0.010-0.023c0.010-0.207 0.098-0.402 0.246-0.545s0.346-0.223 0.552-0.223c0.206 0 0.403 0.080 0.552 0.223s0.237 0.338 0.246 0.545c0 0.009 0.004 0.017 0.010 0.023s0.015 0.009 0.023 0.009h0.059c0.004 0 0.009-0.001 0.013-0.002s0.008-0.004 0.011-0.007c0.003-0.003 0.006-0.007 0.007-0.011s0.002-0.009 0.002-0.013c-0.009-0.241-0.11-0.469-0.283-0.637s-0.403-0.261-0.642-0.261z"></path>
<path fill="#263238" d="M5.117 12.653h-0.013c-0.076 0.003-0.147 0.035-0.199 0.090s-0.082 0.128-0.082 0.204c0 0.076 0.029 0.149 0.082 0.204s0.124 0.087 0.199 0.090h0.013v-0.588z"></path>
<path fill="#fff" d="M5.186 12.948c0 0.218 0.009 0.36-0.065 0.36s-0.1-0.142-0.1-0.36c0-0.218 0.026-0.36 0.1-0.36s0.065 0.14 0.065 0.36z"></path>
<path fill="#263238" d="M6.589 12.653h0.013c0.076 0.003 0.147 0.035 0.199 0.090s0.082 0.128 0.082 0.204c0 0.076-0.029 0.149-0.082 0.204s-0.124 0.087-0.199 0.090h-0.013v-0.588z"></path>
<path fill="#fff" d="M6.519 12.948c0 0.218-0.009 0.36 0.066 0.36s0.1-0.142 0.1-0.36c0-0.218-0.026-0.36-0.1-0.36s-0.066 0.14-0.066 0.36z"></path>
<path fill="#263238" d="M5.401 13.041c0.018 0.037 0.060 0.079 0.152 0.081s0.109-0.035 0.111-0.071c-0.041 0.020-0.087 0.030-0.133 0.028s-0.091-0.015-0.13-0.038v0z"></path>
<path fill="#263238" d="M6.323 13.041c-0.018 0.037-0.060 0.079-0.152 0.081s-0.109-0.035-0.111-0.071c0.041 0.020 0.087 0.030 0.133 0.028s0.091-0.015 0.13-0.038v0z"></path>
<path fill="#263238" d="M5.878 14.582c0.147 0 0.291-0.046 0.411-0.131s0.211-0.206 0.261-0.345c-0.039-0.006-0.077-0.011-0.114-0.016-0.058 0.096-0.14 0.175-0.238 0.23s-0.207 0.084-0.319 0.084c-0.112 0-0.222-0.029-0.319-0.084s-0.179-0.134-0.238-0.23c-0.037 0.005-0.076 0.010-0.114 0.016 0.050 0.139 0.141 0.26 0.261 0.345s0.263 0.131 0.41 0.131z"></path>
<path fill="#fff" d="M7.535 12.356v-0.463c0-0.023-0.009-0.045-0.025-0.061s-0.038-0.025-0.060-0.025h-0.719c-0.023 0-0.044 0.009-0.060 0.025s-0.025 0.038-0.025 0.061v0.463c0 0.023 0.009 0.045 0.025 0.061s0.038 0.025 0.060 0.025h0.251l-0.020 0.176h0.128v0.166l0.153-0.271h-0.126l0.013-0.071h0.32c0.011 0 0.022-0.002 0.033-0.006s0.020-0.011 0.028-0.019c0.008-0.008 0.014-0.017 0.019-0.028s0.007-0.022 0.007-0.033z"></path>
<path fill="#fff" d="M9.745 17.62c0 0.137-0.213 0.222-0.475 0.222s-0.475-0.086-0.475-0.222c0-0.136 0.213-0.248 0.475-0.248s0.475 0.111 0.475 0.248z"></path>
<path fill="#fff" d="M8.962 17.793c0.013-0.003 0.023-0.075-0.093-0.129-0.080-0.037-0.082-0.076-0.036-0.124s0.125-0.089 0.185-0.071c0.099 0.028 0.164 0.235 0.208 0.19 0.066-0.017-0.014-0.207-0.132-0.269 0.213 0.053 0.224 0.301 0.322 0.281 0.075-0.015-0.055-0.26-0.167-0.333 0.072 0.034 0.135 0.084 0.183 0.147 0.071 0.104 0.079 0.14 0.128 0.125 0.063-0.020-0.087-0.25-0.106-0.275 0.095 0.038 0.113 0.118 0.142 0.15s0.043 0.086 0.083 0.065c0.040-0.021 0.003-0.096-0.024-0.14-0.128-0.208-0.341-0.243-0.544-0.218-0.16 0.021-0.345 0.089-0.442 0.218-0.025 0.032-0.039 0.071-0.042 0.112s0.007 0.081 0.028 0.116c0.034 0.073 0.156 0.189 0.308 0.154z"></path>
<path fill="#bfbfbf" d="M9.87 17.844h-7.852c-0.023 0-0.042 0.019-0.042 0.043v0.068c0 0.023 0.019 0.043 0.042 0.043h7.852c0.023 0 0.042-0.019 0.042-0.043v-0.068c0-0.023-0.019-0.043-0.042-0.043z"></path>
<path fill="#263238" d="M2.248 17.844l-0.578-1.769c-0.002-0.007-0.003-0.014-0.002-0.021s0.004-0.014 0.008-0.020c0.004-0.006 0.010-0.011 0.016-0.014s0.013-0.005 0.020-0.006h1.825l0.65 1.83h-1.94z"></path>
<path fill="#fff" d="M3.588 16.015l0.597 1.727h1.6v0.061c0 0.011-0.005 0.022-0.013 0.030s-0.019 0.013-0.030 0.013h-1.66l-0.575-1.759c-0.003-0.008-0.003-0.016-0.002-0.024s0.004-0.016 0.009-0.023 0.011-0.012 0.018-0.016c0.007-0.004 0.015-0.006 0.024-0.006l0.030-0.002z"></path>
<path fill="#fff" d="M2.74 16.93c-0.006-0.030-0.020-0.058-0.040-0.080 0.009-0.011 0.020-0.019 0.033-0.025s0.026-0.008 0.040-0.008c0.032 0.001 0.063 0.013 0.088 0.034s0.042 0.049 0.050 0.081c0.004 0.014 0.005 0.028 0.002 0.042s-0.009 0.027-0.017 0.038-0.020 0.020-0.033 0.026c-0.013 0.006-0.027 0.009-0.041 0.008-0.033-0.001-0.064-0.013-0.089-0.035 0.012-0.025 0.015-0.054 0.008-0.082z"></path>
<path fill="#fff" d="M6.438 17.844h0.583c0.078-0.057 0.141-0.133 0.184-0.219s0.065-0.183 0.063-0.28v-0.276c0-0.011-0.002-0.021-0.006-0.031s-0.010-0.018-0.017-0.026-0.016-0.013-0.026-0.017c-0.010-0.004-0.020-0.006-0.030-0.006h-0.916c-0.010 0-0.021 0.002-0.030 0.006s-0.018 0.010-0.026 0.017c-0.007 0.007-0.013 0.016-0.017 0.026s-0.006 0.020-0.006 0.031v0.276c-0.002 0.097 0.020 0.193 0.062 0.279s0.105 0.162 0.182 0.22z"></path>
<path fill="#fff" d="M7.433 17.107c-0.025-0.016-0.053-0.024-0.082-0.026s-0.058 0.005-0.084 0.018v0.1c0.025-0.004 0.051 0.001 0.073 0.015 0.082 0.048 0.065 0.147 0.007 0.247-0.026 0.057-0.072 0.102-0.128 0.129-0.017 0.041-0.038 0.081-0.064 0.117 0.11 0.024 0.21-0.070 0.288-0.206 0.092-0.161 0.12-0.317-0.012-0.393z"></path>
<path fill="#fff" d="M7.546 20.239h-3.195c-0.233 0-0.422 0.191-0.422 0.425v2.128c0 0.235 0.189 0.425 0.422 0.425h3.195c0.233 0 0.422-0.191 0.422-0.425v-2.128c0-0.235-0.189-0.425-0.422-0.425z"></path>
<path fill="#fff" d="M4.939 22.288l0.048 0.85 0.006 0.007c0.038 0.052 0.088 0.093 0.145 0.122s0.12 0.043 0.184 0.042c0.064-0.001 0.127-0.017 0.183-0.046s0.105-0.073 0.142-0.125l0.018-0.85h-0.727z"></path>
<path fill="#bfbfbf" d="M5.825 23.968c-0.324 0.057-0.655 0.057-0.978 0-0.030-0.030-0.056-0.064-0.077-0.101-0.033-0.059-0.051-0.124-0.054-0.192s0.010-0.134 0.038-0.195l0.195-0.35 0.773 0.009 0.174 0.32c0.042 0.076 0.060 0.163 0.052 0.249s-0.042 0.168-0.097 0.235c-0.008 0.009-0.016 0.018-0.025 0.026z"></path>
<path fill="#bfbfbf" d="M5.635 23.527c0.048 0.021 0.093 0.047 0.136 0.077l-0.136-0.077z"></path>
<path fill="#bfbfbf" d="M4.907 23.605c0.085-0.058 0.18-0.099 0.281-0.12s0.204-0.022 0.305-0.002z"></path>
<path fill="#263238" d="M4.523 18.781l0.341 3.94h0.883c0 0 0.087-2.407 0.143-3.97 0.004-0.093-0.011-0.185-0.044-0.272s-0.083-0.166-0.147-0.233c-0.064-0.067-0.141-0.12-0.225-0.156s-0.176-0.055-0.268-0.054c-0.095-0-0.188 0.019-0.275 0.057s-0.165 0.094-0.229 0.164c-0.064 0.070-0.113 0.153-0.144 0.243s-0.043 0.186-0.035 0.28z"></path>
<path fill="#fff" d="M6.375 22.288l0.048 0.85 0.006 0.007c0.038 0.052 0.088 0.093 0.145 0.122s0.12 0.043 0.184 0.042c0.064-0.001 0.127-0.017 0.183-0.046s0.105-0.073 0.142-0.125l0.018-0.85h-0.727z"></path>
<path fill="#bfbfbf" d="M7.261 23.968c-0.324 0.057-0.655 0.057-0.978 0-0.030-0.030-0.056-0.064-0.077-0.101-0.033-0.059-0.051-0.124-0.054-0.191s0.010-0.134 0.038-0.195l0.195-0.35 0.772 0.009 0.174 0.32c0.042 0.076 0.060 0.163 0.052 0.249s-0.042 0.168-0.097 0.235c-0.008 0.009-0.016 0.018-0.025 0.026z"></path>
<path fill="#bfbfbf" d="M7.072 23.527c0.048 0.021 0.093 0.047 0.136 0.077l-0.136-0.077z"></path>
<path fill="#bfbfbf" d="M6.344 23.605c0.085-0.058 0.18-0.099 0.281-0.12s0.204-0.022 0.305-0.002z"></path>
<path fill="#263238" d="M5.96 18.781l0.341 3.94h0.883c0 0 0.087-2.407 0.143-3.97 0.003-0.093-0.012-0.186-0.045-0.272s-0.083-0.166-0.148-0.233c-0.064-0.067-0.141-0.12-0.226-0.156s-0.177-0.054-0.269-0.054c-0.094 0-0.188 0.020-0.274 0.058s-0.164 0.094-0.228 0.164c-0.064 0.070-0.113 0.152-0.143 0.242s-0.042 0.185-0.035 0.28z"></path>
<path fill="#fff" d="M17.76 12.075v-1.834c0-0.089-0.035-0.174-0.097-0.236s-0.147-0.098-0.235-0.098h-2.856c-0.088 0-0.172 0.035-0.235 0.098s-0.097 0.148-0.097 0.236v1.834c0 0.089 0.035 0.174 0.097 0.236s0.147 0.098 0.235 0.098h0.995l-0.079 0.698h0.512v0.658l0.608-1.075h-0.498l0.052-0.282h1.266c0.088 0 0.172-0.035 0.235-0.098s0.097-0.148 0.097-0.236z"></path>
<path fill="#e8e8e8" d="M19.942 19.928l1.725 0.579-0.428 0.432 0.799 0.805-1.726-0.579 0.428-0.432-0.799-0.805z"></path>
<path fill="#e8e8e8" d="M12.058 19.928l-1.725 0.579 0.428 0.432-0.799 0.805 1.725-0.579-0.428-0.432 0.799-0.805z"></path>
<path fill="#e8e8e8" d="M15.952 6.636l-0.814 1.639h0.606v1.138l0.813-1.639h-0.605v-1.138z"></path>
</svg>
