<!-- Generated by IcoMoon.io -->
<svg version="1.1" xmlns="http://www.w3.org/2000/svg" width="32" height="32" viewBox="0 0 32 32">
<title>typewriter-bro-1</title>
<path fill="#fff" d="M25.018 7.826h-11.951c-0.233 0-0.421 0.188-0.421 0.42v10.734c0 0.232 0.189 0.42 0.421 0.42h11.951c0.233 0 0.421-0.188 0.421-0.42v-10.734c0-0.232-0.189-0.42-0.421-0.42z"></path>
<path fill="#000" opacity="0.2" d="M25.439 14.166v4.827c0 0.108-0.043 0.212-0.12 0.288s-0.18 0.119-0.289 0.12h-11.977c-0.108 0-0.212-0.043-0.289-0.119s-0.12-0.18-0.12-0.288v-0.956h0.025v0.644c0 0.061 0.012 0.122 0.036 0.178s0.058 0.108 0.101 0.151c0.043 0.043 0.095 0.078 0.152 0.101s0.118 0.035 0.179 0.035h11.57c0.061 0 0.122-0.012 0.179-0.035s0.108-0.058 0.152-0.101c0.044-0.043 0.078-0.095 0.101-0.151s0.036-0.117 0.036-0.178v-3.799c0-0.086-0.034-0.169-0.095-0.229s-0.144-0.095-0.23-0.095h-12.206v-0.391h12.794z"></path>
<path fill="#263238" d="M24.325 15.54v-0.553c0-0.027-0.005-0.053-0.015-0.078s-0.025-0.047-0.044-0.066c-0.019-0.019-0.042-0.034-0.067-0.044s-0.052-0.015-0.079-0.015h-10.156c-0.054 0-0.107 0.021-0.145 0.060s-0.060 0.090-0.060 0.145v0.553c0 0.054-0.022 0.106-0.060 0.145s-0.091 0.060-0.145 0.060v0c-0.054 0-0.107 0.022-0.145 0.060s-0.060 0.091-0.060 0.145v1.091c0 0.252 0.1 0.493 0.279 0.671s0.42 0.278 0.673 0.278v0c0.041 0 0.079 0.016 0.108 0.045s0.045 0.067 0.045 0.108v0.327c0 0.121 0.048 0.236 0.134 0.322s0.202 0.133 0.323 0.133h8.266c0.121 0 0.237-0.048 0.323-0.133s0.134-0.201 0.134-0.322v-0.327c0-0.040 0.016-0.079 0.045-0.108s0.068-0.045 0.108-0.045c0.125 0 0.249-0.025 0.364-0.072s0.22-0.117 0.309-0.206c0.088-0.088 0.158-0.193 0.206-0.308s0.072-0.238 0.072-0.363v-1.091c0-0.054-0.022-0.106-0.060-0.145s-0.091-0.060-0.145-0.060c-0.054 0-0.107-0.022-0.145-0.060s-0.060-0.090-0.060-0.145v0z"></path>
<path fill="#fff" d="M14.537 15.096h-0.355c-0.043 0-0.085 0.017-0.116 0.048s-0.048 0.072-0.048 0.116v0.091c0 0.188 0.153 0.427 0.342 0.427s0.342-0.239 0.342-0.427v-0.091c-0-0.043-0.017-0.085-0.048-0.116s-0.073-0.048-0.116-0.048z"></path>
<path fill="#fff" d="M15.387 15.096h-0.355c-0.044 0-0.085 0.017-0.116 0.048s-0.048 0.072-0.048 0.116v0.091c0 0.188 0.153 0.427 0.342 0.427s0.342-0.239 0.342-0.427v-0.091c0-0.043-0.017-0.085-0.048-0.116s-0.072-0.048-0.116-0.048v0z"></path>
<path fill="#fff" d="M16.24 15.096h-0.355c-0.043 0-0.085 0.017-0.116 0.048s-0.048 0.072-0.048 0.116v0.091c0 0.188 0.153 0.427 0.341 0.427s0.342-0.239 0.342-0.427v-0.091c0-0.043-0.017-0.085-0.048-0.116s-0.072-0.048-0.116-0.048z"></path>
<path fill="#fff" d="M17.091 15.096h-0.355c-0.044 0-0.085 0.017-0.116 0.048s-0.048 0.072-0.048 0.116v0.091c0 0.188 0.153 0.427 0.342 0.427s0.341-0.239 0.341-0.427v-0.091c0-0.021-0.004-0.043-0.012-0.063s-0.020-0.038-0.036-0.053-0.033-0.027-0.053-0.035c-0.020-0.008-0.041-0.012-0.063-0.012v0z"></path>
<path fill="#fff" d="M17.943 15.096h-0.355c-0.044 0-0.085 0.017-0.116 0.048s-0.048 0.072-0.048 0.116v0.091c0 0.188 0.153 0.427 0.342 0.427s0.342-0.239 0.342-0.427v-0.091c-0-0.043-0.018-0.085-0.048-0.116s-0.073-0.048-0.116-0.048v0z"></path>
<path fill="#fff" d="M18.794 15.096h-0.355c-0.044 0-0.085 0.017-0.116 0.048s-0.048 0.072-0.048 0.116v0.091c0 0.188 0.153 0.427 0.342 0.427s0.342-0.239 0.342-0.427v-0.091c0-0.043-0.017-0.085-0.048-0.116s-0.072-0.048-0.116-0.048z"></path>
<path fill="#fff" d="M19.646 15.096h-0.355c-0.043 0-0.085 0.017-0.116 0.048s-0.048 0.072-0.048 0.116v0.091c0 0.188 0.153 0.427 0.341 0.427s0.342-0.239 0.342-0.427v-0.091c0-0.043-0.017-0.085-0.048-0.116s-0.072-0.048-0.116-0.048v0z"></path>
<path fill="#fff" d="M20.497 15.096h-0.355c-0.043 0-0.085 0.017-0.116 0.048s-0.048 0.072-0.048 0.116v0.091c0 0.188 0.153 0.427 0.342 0.427s0.341-0.239 0.341-0.427v-0.091c0-0.043-0.017-0.085-0.048-0.116s-0.072-0.048-0.116-0.048z"></path>
<path fill="#fff" d="M21.348 15.096h-0.353c-0.022 0-0.043 0.004-0.063 0.012s-0.038 0.020-0.053 0.035c-0.015 0.015-0.027 0.033-0.036 0.053s-0.012 0.041-0.012 0.063v0.091c0 0.188 0.153 0.427 0.342 0.427s0.342-0.239 0.342-0.427v-0.091c0-0.022-0.004-0.043-0.013-0.063s-0.021-0.038-0.036-0.053c-0.015-0.015-0.034-0.027-0.054-0.035s-0.042-0.012-0.063-0.012z"></path>
<path fill="#fff" d="M22.2 15.096h-0.355c-0.044 0-0.085 0.017-0.116 0.048s-0.048 0.072-0.048 0.116v0.091c0 0.188 0.153 0.427 0.342 0.427s0.342-0.239 0.342-0.427v-0.091c0-0.043-0.017-0.085-0.048-0.116s-0.072-0.048-0.116-0.048z"></path>
<path fill="#fff" d="M23.051 15.096h-0.355c-0.044 0-0.085 0.017-0.116 0.048s-0.048 0.072-0.048 0.116v0.091c0 0.188 0.153 0.427 0.341 0.427s0.342-0.239 0.342-0.427v-0.091c0-0.043-0.017-0.085-0.048-0.116s-0.072-0.048-0.116-0.048z"></path>
<path fill="#fff" d="M23.902 15.096h-0.355c-0.044 0-0.085 0.017-0.116 0.048s-0.048 0.072-0.048 0.116v0.091c0 0.188 0.152 0.427 0.344 0.427s0.341-0.239 0.341-0.427v-0.091c-0-0.022-0.004-0.043-0.013-0.063s-0.021-0.038-0.036-0.053c-0.015-0.015-0.034-0.027-0.054-0.035s-0.042-0.012-0.063-0.012v0z"></path>
<path fill="#fff" d="M14.537 16.895h-0.355c-0.043 0-0.085 0.017-0.116 0.048s-0.048 0.072-0.048 0.116v0.091c0 0.188 0.153 0.427 0.342 0.427s0.342-0.239 0.342-0.427v-0.091c-0-0.043-0.017-0.085-0.048-0.116s-0.073-0.048-0.116-0.048v0z"></path>
<path fill="#fff" d="M15.387 16.895h-0.355c-0.044 0-0.085 0.017-0.116 0.048s-0.048 0.072-0.048 0.116v0.091c0 0.188 0.153 0.427 0.342 0.427s0.342-0.239 0.342-0.427v-0.091c0-0.043-0.017-0.085-0.048-0.116s-0.072-0.048-0.116-0.048v0z"></path>
<path fill="#fff" d="M16.24 16.895h-0.355c-0.043 0-0.085 0.017-0.116 0.048s-0.048 0.072-0.048 0.116v0.091c0 0.188 0.153 0.427 0.341 0.427s0.342-0.239 0.342-0.427v-0.091c0-0.043-0.017-0.085-0.048-0.116s-0.072-0.048-0.116-0.048v0z"></path>
<path fill="#fff" d="M17.091 16.895h-0.355c-0.044 0-0.085 0.017-0.116 0.048s-0.048 0.072-0.048 0.116v0.091c0 0.188 0.153 0.427 0.342 0.427s0.341-0.239 0.341-0.427v-0.091c0-0.021-0.004-0.043-0.012-0.063s-0.020-0.038-0.036-0.053c-0.015-0.015-0.033-0.027-0.053-0.035s-0.041-0.012-0.063-0.012z"></path>
<path fill="#fff" d="M17.943 16.895h-0.355c-0.044 0-0.085 0.017-0.116 0.048s-0.048 0.072-0.048 0.116v0.091c0 0.188 0.153 0.427 0.342 0.427s0.342-0.239 0.342-0.427v-0.091c-0-0.043-0.018-0.085-0.048-0.116s-0.073-0.048-0.116-0.048z"></path>
<path fill="#fff" d="M18.794 16.895h-0.355c-0.044 0-0.085 0.017-0.116 0.048s-0.048 0.072-0.048 0.116v0.091c0 0.188 0.153 0.427 0.342 0.427s0.342-0.239 0.342-0.427v-0.091c0-0.043-0.017-0.085-0.048-0.116s-0.072-0.048-0.116-0.048z"></path>
<path fill="#fff" d="M19.646 16.895h-0.355c-0.043 0-0.085 0.017-0.116 0.048s-0.048 0.072-0.048 0.116v0.091c0 0.188 0.153 0.427 0.341 0.427s0.342-0.239 0.342-0.427v-0.091c0-0.043-0.017-0.085-0.048-0.116s-0.072-0.048-0.116-0.048z"></path>
<path fill="#fff" d="M20.497 16.895h-0.355c-0.043 0-0.085 0.017-0.116 0.048s-0.048 0.072-0.048 0.116v0.091c0 0.188 0.153 0.427 0.342 0.427s0.341-0.239 0.341-0.427v-0.091c0-0.043-0.017-0.085-0.048-0.116s-0.072-0.048-0.116-0.048z"></path>
<path fill="#fff" d="M21.348 16.895h-0.353c-0.022 0-0.043 0.004-0.063 0.012s-0.038 0.020-0.053 0.035c-0.015 0.015-0.027 0.033-0.036 0.053s-0.012 0.041-0.012 0.063v0.091c0 0.188 0.153 0.427 0.342 0.427s0.342-0.239 0.342-0.427v-0.091c0-0.022-0.004-0.043-0.013-0.063s-0.021-0.038-0.036-0.053c-0.015-0.015-0.034-0.027-0.054-0.035s-0.042-0.012-0.063-0.012z"></path>
<path fill="#fff" d="M22.2 16.895h-0.355c-0.044 0-0.085 0.017-0.116 0.048s-0.048 0.072-0.048 0.116v0.091c0 0.188 0.153 0.427 0.342 0.427s0.342-0.239 0.342-0.427v-0.091c0-0.043-0.017-0.085-0.048-0.116s-0.072-0.048-0.116-0.048z"></path>
<path fill="#fff" d="M23.051 16.895h-0.355c-0.044 0-0.085 0.017-0.116 0.048s-0.048 0.072-0.048 0.116v0.091c0 0.188 0.153 0.427 0.341 0.427s0.342-0.239 0.342-0.427v-0.091c0-0.043-0.017-0.085-0.048-0.116s-0.072-0.048-0.116-0.048z"></path>
<path fill="#fff" d="M23.902 16.895h-0.355c-0.044 0-0.085 0.017-0.116 0.048s-0.048 0.072-0.048 0.116v0.091c0 0.188 0.153 0.427 0.342 0.427s0.341-0.239 0.341-0.427v-0.091c0-0.043-0.017-0.085-0.048-0.116s-0.072-0.048-0.116-0.048v0z"></path>
<path fill="#fff" d="M14.111 16.025h-0.354c-0.043 0-0.085 0.017-0.116 0.048s-0.048 0.072-0.048 0.116v0.091c0 0.188 0.153 0.427 0.342 0.427s0.341-0.239 0.341-0.427v-0.091c0-0.022-0.004-0.043-0.013-0.063s-0.020-0.038-0.036-0.053-0.033-0.027-0.053-0.035c-0.020-0.008-0.041-0.012-0.063-0.012v0z"></path>
<path fill="#fff" d="M14.963 16.025h-0.355c-0.043 0-0.085 0.017-0.116 0.048s-0.048 0.072-0.048 0.116v0.091c0 0.188 0.153 0.427 0.342 0.427s0.342-0.239 0.342-0.427v-0.091c-0-0.043-0.017-0.085-0.048-0.116s-0.073-0.048-0.116-0.048z"></path>
<path fill="#fff" d="M15.814 16.025h-0.355c-0.044 0-0.085 0.017-0.116 0.048s-0.048 0.072-0.048 0.116v0.091c0 0.188 0.153 0.427 0.342 0.427s0.342-0.239 0.342-0.427v-0.091c0-0.043-0.017-0.085-0.048-0.116s-0.072-0.048-0.116-0.048v0z"></path>
<path fill="#fff" d="M16.666 16.025h-0.355c-0.044 0-0.085 0.017-0.116 0.048s-0.048 0.072-0.048 0.116v0.091c0 0.188 0.153 0.427 0.341 0.427s0.342-0.239 0.342-0.427v-0.091c0-0.021-0.004-0.043-0.012-0.063s-0.020-0.038-0.036-0.053c-0.015-0.015-0.033-0.027-0.053-0.035s-0.041-0.012-0.063-0.012z"></path>
<path fill="#fff" d="M17.517 16.025h-0.357c-0.043 0-0.085 0.017-0.116 0.048s-0.048 0.072-0.048 0.116v0.091c0 0.188 0.153 0.427 0.342 0.427s0.341-0.239 0.341-0.427v-0.091c0-0.043-0.017-0.084-0.047-0.115s-0.072-0.048-0.115-0.048z"></path>
<path fill="#fff" d="M18.368 16.025h-0.355c-0.044 0-0.085 0.017-0.116 0.048s-0.048 0.072-0.048 0.116v0.091c0 0.188 0.153 0.427 0.342 0.427s0.342-0.239 0.342-0.427v-0.091c-0-0.043-0.017-0.085-0.048-0.116s-0.073-0.048-0.116-0.048z"></path>
<path fill="#fff" d="M19.221 16.025h-0.355c-0.044 0-0.085 0.017-0.116 0.048s-0.048 0.072-0.048 0.116v0.091c0 0.188 0.153 0.427 0.342 0.427s0.342-0.239 0.342-0.427v-0.091c0-0.043-0.017-0.085-0.048-0.116s-0.072-0.048-0.116-0.048z"></path>
<path fill="#fff" d="M20.071 16.025h-0.355c-0.044 0-0.085 0.017-0.116 0.048s-0.048 0.072-0.048 0.116v0.091c0 0.188 0.153 0.427 0.341 0.427s0.342-0.239 0.342-0.427v-0.091c0-0.043-0.017-0.085-0.048-0.116s-0.072-0.048-0.116-0.048z"></path>
<path fill="#fff" d="M20.922 16.025h-0.355c-0.044 0-0.085 0.017-0.116 0.048s-0.048 0.072-0.048 0.116v0.091c0 0.188 0.153 0.427 0.342 0.427s0.341-0.239 0.341-0.427v-0.091c0-0.043-0.017-0.085-0.048-0.116s-0.072-0.048-0.116-0.048z"></path>
<path fill="#fff" d="M21.774 16.025h-0.355c-0.044 0-0.085 0.017-0.116 0.048s-0.048 0.072-0.048 0.116v0.091c0 0.188 0.153 0.427 0.342 0.427s0.342-0.239 0.342-0.427v-0.091c-0-0.043-0.017-0.085-0.048-0.116s-0.073-0.048-0.116-0.048z"></path>
<path fill="#fff" d="M22.625 16.025h-0.355c-0.044 0-0.085 0.017-0.116 0.048s-0.048 0.072-0.048 0.116v0.091c0 0.188 0.153 0.427 0.342 0.427s0.342-0.239 0.342-0.427v-0.091c0-0.043-0.017-0.085-0.048-0.116s-0.072-0.048-0.116-0.048z"></path>
<path fill="#fff" d="M23.477 16.025h-0.355c-0.043 0.001-0.084 0.018-0.114 0.049s-0.047 0.072-0.047 0.115v0.091c0 0.188 0.153 0.427 0.341 0.427s0.342-0.239 0.342-0.427v-0.091c0-0.022-0.004-0.043-0.013-0.063s-0.021-0.038-0.036-0.053c-0.015-0.015-0.034-0.027-0.054-0.035s-0.042-0.012-0.063-0.012z"></path>
<path fill="#fff" d="M24.328 16.025h-0.355c-0.044 0-0.085 0.017-0.116 0.048s-0.048 0.072-0.048 0.116v0.091c0 0.188 0.153 0.427 0.342 0.427s0.341-0.239 0.341-0.427v-0.091c0-0.043-0.017-0.085-0.048-0.116s-0.072-0.048-0.116-0.048z"></path>
<path fill="#fff" d="M22.294 17.801h-6.503c-0.085 0-0.154 0.069-0.154 0.153v0.465c0 0.085 0.069 0.153 0.154 0.153h6.503c0.085 0 0.154-0.069 0.154-0.153v-0.465c0-0.085-0.069-0.153-0.154-0.153z"></path>
<path fill="#fff" d="M23.165 17.846h-0.355c-0.044 0-0.085 0.017-0.116 0.048s-0.048 0.072-0.048 0.116v0.091c0 0.188 0.153 0.427 0.342 0.427s0.341-0.239 0.341-0.427v-0.091c0-0.043-0.017-0.085-0.048-0.116s-0.072-0.048-0.116-0.048z"></path>
<path fill="#fff" d="M15.275 17.846h-0.355c-0.043 0-0.085 0.017-0.116 0.048s-0.048 0.072-0.048 0.116v0.091c0 0.188 0.153 0.427 0.342 0.427s0.342-0.239 0.342-0.427v-0.091c-0-0.043-0.017-0.085-0.048-0.116s-0.073-0.048-0.116-0.048z"></path>
<path fill="#000" opacity="0.2" d="M14.557 15.355c0.017 0 0.034 0.002 0.051 0.005 0-0.003 0-0.007 0-0.010v-0.091c-0-0.019-0.008-0.037-0.021-0.050s-0.031-0.021-0.050-0.021h-0.355c-0.019 0-0.037 0.008-0.050 0.021s-0.021 0.031-0.021 0.050v0.091c0 0.13 0.096 0.295 0.209 0.328-0.035-0.145 0.044-0.323 0.237-0.323z"></path>
<path fill="#000" opacity="0.2" d="M15.427 15.331c0.011-0.001 0.022-0.001 0.033 0v-0.074c-0-0.019-0.008-0.037-0.021-0.050s-0.031-0.021-0.050-0.021h-0.355c-0.019 0-0.037 0.007-0.050 0.021s-0.021 0.031-0.021 0.050v0.091c0 0.143 0.114 0.323 0.24 0.335-0.058-0.148 0.018-0.352 0.225-0.352z"></path>
<path fill="#000" opacity="0.2" d="M16.304 15.319h0.007v-0.060c0-0.019-0.007-0.037-0.021-0.050s-0.031-0.021-0.050-0.021h-0.355c-0.019 0-0.037 0.007-0.050 0.021s-0.021 0.031-0.021 0.050v0.091c0 0.146 0.121 0.335 0.249 0.335 0.006 0.001 0.012 0.001 0.019 0-0.064-0.151 0.010-0.366 0.223-0.366z"></path>
<path fill="#000" opacity="0.2" d="M17.101 15.294c0.020-0.001 0.040 0.001 0.059 0.005v-0.042c0-0.019-0.007-0.037-0.021-0.050s-0.031-0.021-0.050-0.021h-0.355c-0.019 0-0.037 0.007-0.050 0.021s-0.021 0.031-0.021 0.050v0.091c0 0.137 0.105 0.311 0.224 0.335-0.081-0.15-0.011-0.389 0.213-0.389z"></path>
<path fill="#000" opacity="0.2" d="M17.996 15.294h0.018v-0.036c-0-0.019-0.008-0.037-0.021-0.050s-0.031-0.021-0.050-0.021h-0.355c-0.019 0-0.037 0.008-0.050 0.021s-0.021 0.031-0.021 0.050v0.091c0 0.146 0.121 0.335 0.249 0.335 0.007 0.001 0.013 0.001 0.020 0-0.084-0.151-0.013-0.389 0.211-0.389z"></path>
<path fill="#000" opacity="0.2" d="M18.854 15.299h0.011v-0.042c-0-0.019-0.008-0.037-0.021-0.050s-0.031-0.021-0.050-0.021h-0.355c-0.019 0-0.037 0.007-0.050 0.021s-0.021 0.031-0.021 0.050v0.091c0 0.146 0.121 0.335 0.249 0.335 0.008 0.001 0.016 0.001 0.023 0-0.079-0.151-0.007-0.384 0.214-0.384z"></path>
<path fill="#000" opacity="0.2" d="M19.676 15.294c0.014 0 0.027 0.001 0.041 0.003v-0.038c0-0.019-0.007-0.037-0.021-0.050s-0.031-0.021-0.050-0.021h-0.355c-0.019 0-0.037 0.007-0.050 0.021s-0.021 0.031-0.021 0.050v0.091c0 0.143 0.119 0.332 0.246 0.335-0.085-0.15-0.015-0.39 0.21-0.39z"></path>
<path fill="#000" opacity="0.2" d="M20.568 15.307v-0.048c0-0.019-0.007-0.037-0.021-0.050s-0.031-0.021-0.050-0.021h-0.355c-0.019 0-0.037 0.007-0.050 0.021s-0.021 0.031-0.021 0.050v0.091c0 0.146 0.12 0.335 0.249 0.335 0.013-0 0.026-0.002 0.038-0.006-0.069-0.147 0.001-0.365 0.21-0.371z"></path>
<path fill="#000" opacity="0.2" d="M21.35 15.288c0.024-0 0.047 0.003 0.070 0.009v-0.038c-0-0.019-0.008-0.037-0.021-0.050s-0.032-0.021-0.050-0.021h-0.353c-0.019 0-0.037 0.008-0.050 0.021s-0.021 0.031-0.021 0.050v0.091c0 0.135 0.103 0.305 0.219 0.331-0.090-0.15-0.020-0.393 0.207-0.393z"></path>
<path fill="#000" opacity="0.2" d="M22.22 15.288c0.017 0 0.034 0.002 0.051 0.005v-0.033c-0-0.019-0.008-0.037-0.021-0.050s-0.031-0.021-0.050-0.021h-0.355c-0.019 0-0.037 0.007-0.050 0.021s-0.021 0.031-0.021 0.050v0.091c0 0.143 0.115 0.325 0.24 0.335-0.090-0.15-0.021-0.397 0.207-0.397z"></path>
<path fill="#000" opacity="0.2" d="M23.085 15.313c0.012 0 0.025 0.001 0.037 0.003v-0.056c0-0.019-0.007-0.037-0.021-0.050s-0.031-0.021-0.050-0.021h-0.355c-0.009 0-0.019 0.002-0.027 0.005s-0.016 0.009-0.023 0.015c-0.007 0.007-0.012 0.014-0.015 0.023s-0.005 0.018-0.005 0.027v0.091c0 0.143 0.115 0.325 0.24 0.335-0.070-0.151 0.004-0.372 0.22-0.372z"></path>
<path fill="#000" opacity="0.2" d="M23.973 15.302v-0.042c0-0.019-0.008-0.037-0.021-0.050s-0.031-0.021-0.050-0.021h-0.355c-0.019 0-0.037 0.007-0.050 0.021s-0.021 0.031-0.021 0.050v0.091c0 0.146 0.12 0.335 0.249 0.335 0.018-0 0.037-0.004 0.054-0.011-0.068-0.144-0.004-0.356 0.195-0.372z"></path>
<path fill="#000" opacity="0.2" d="M14.581 17.067c0.009-0 0.018-0 0.027 0v-0.010c-0-0.019-0.008-0.037-0.021-0.050s-0.031-0.021-0.050-0.021h-0.355c-0.019 0-0.037 0.008-0.050 0.021s-0.021 0.031-0.021 0.050v0.091c0 0.146 0.121 0.335 0.249 0.335 0.009-0 0.018-0.001 0.026-0.003-0.107-0.145-0.042-0.412 0.195-0.412z"></path>
<path fill="#000" opacity="0.2" d="M15.415 17.067c0.015 0 0.030 0.001 0.045 0.004v-0.012c-0-0.019-0.008-0.037-0.021-0.050s-0.031-0.021-0.050-0.021h-0.355c-0.019 0-0.037 0.007-0.050 0.021s-0.021 0.031-0.021 0.050v0.091c0 0.146 0.121 0.334 0.249 0.334h0.011c-0.11-0.147-0.045-0.417 0.194-0.417z"></path>
<path fill="#000" opacity="0.2" d="M16.261 17.079c0.016 0 0.032 0.001 0.048 0.004v-0.025c0-0.009-0.002-0.018-0.005-0.027s-0.009-0.016-0.015-0.023-0.014-0.012-0.023-0.015c-0.009-0.004-0.018-0.005-0.027-0.005h-0.355c-0.019 0-0.037 0.007-0.050 0.021s-0.021 0.031-0.021 0.050v0.091c0 0.143 0.119 0.331 0.246 0.335-0.095-0.149-0.029-0.404 0.204-0.404z"></path>
<path fill="#000" opacity="0.2" d="M17.125 17.085c0.012 0 0.025 0.001 0.037 0.002v-0.030c0-0.009-0.002-0.018-0.005-0.027s-0.009-0.016-0.015-0.023-0.014-0.012-0.023-0.015c-0.009-0.004-0.018-0.005-0.027-0.005h-0.355c-0.009 0-0.019 0.002-0.027 0.005s-0.016 0.009-0.023 0.015c-0.007 0.007-0.012 0.014-0.015 0.023s-0.005 0.018-0.005 0.027v0.091c0 0.146 0.12 0.335 0.249 0.335h0.006c-0.092-0.15-0.023-0.398 0.206-0.398z"></path>
<path fill="#000" opacity="0.2" d="M17.959 17.067c0.018 0 0.037 0.002 0.055 0.005v-0.014c-0-0.019-0.008-0.037-0.021-0.050s-0.031-0.021-0.050-0.021h-0.355c-0.019 0-0.037 0.008-0.050 0.021s-0.021 0.031-0.021 0.050v0.091c0 0.146 0.121 0.334 0.249 0.334-0.109-0.146-0.045-0.417 0.194-0.417z"></path>
<path fill="#000" opacity="0.2" d="M18.823 17.073c0.014 0 0.028 0.001 0.042 0.003v-0.018c-0-0.019-0.008-0.037-0.021-0.050s-0.031-0.021-0.050-0.021h-0.355c-0.019 0-0.037 0.007-0.050 0.021s-0.021 0.031-0.021 0.050v0.091c0 0.146 0.121 0.335 0.249 0.335h0.009c-0.104-0.148-0.037-0.41 0.198-0.41z"></path>
<path fill="#000" opacity="0.2" d="M19.706 17.091h0.010v-0.033c0-0.019-0.007-0.037-0.021-0.050s-0.031-0.021-0.050-0.021h-0.355c-0.019 0-0.037 0.007-0.050 0.021s-0.021 0.031-0.021 0.050v0.091c0 0.146 0.12 0.335 0.248 0.335 0.009-0 0.019-0.001 0.028-0.003-0.082-0.149-0.014-0.389 0.211-0.389z"></path>
<path fill="#000" opacity="0.2" d="M20.564 17.073h0.003v-0.015c0-0.009-0.002-0.018-0.005-0.027s-0.009-0.016-0.015-0.023c-0.007-0.007-0.014-0.012-0.023-0.015s-0.018-0.005-0.027-0.005h-0.354c-0.009 0-0.019 0.002-0.027 0.005s-0.016 0.009-0.023 0.015c-0.007 0.007-0.012 0.014-0.015 0.023s-0.005 0.018-0.005 0.027v0.091c0 0.146 0.12 0.335 0.249 0.335 0.015-0 0.029-0.003 0.043-0.008-0.097-0.148-0.030-0.403 0.201-0.403z"></path>
<path fill="#000" opacity="0.2" d="M21.392 17.055h0.027c-0.001-0.018-0.009-0.036-0.022-0.048s-0.031-0.020-0.049-0.020h-0.353c-0.019 0-0.037 0.008-0.050 0.021s-0.021 0.031-0.021 0.050v0.091c0 0.146 0.121 0.335 0.249 0.335 0.012-0 0.023-0.002 0.035-0.005-0.12-0.142-0.058-0.422 0.185-0.422z"></path>
<path fill="#000" opacity="0.2" d="M22.269 17.067v-0.009c-0-0.019-0.008-0.037-0.021-0.050s-0.031-0.021-0.050-0.021h-0.355c-0.019 0-0.037 0.007-0.050 0.021s-0.021 0.031-0.021 0.050v0.091c0 0.146 0.121 0.334 0.249 0.334 0.016-0 0.033-0.003 0.048-0.009-0.1-0.148-0.034-0.408 0.201-0.408z"></path>
<path fill="#000" opacity="0.2" d="M23.104 17.067h0.019v-0.010c0-0.009-0.002-0.018-0.005-0.027s-0.009-0.016-0.015-0.023c-0.007-0.007-0.014-0.012-0.023-0.015s-0.018-0.005-0.027-0.005h-0.355c-0.019 0-0.037 0.007-0.050 0.021s-0.021 0.031-0.021 0.050v0.091c0 0.146 0.12 0.335 0.248 0.335 0.011-0 0.023-0.002 0.034-0.005-0.107-0.146-0.041-0.411 0.196-0.411z"></path>
<path fill="#000" opacity="0.2" d="M23.943 17.104c0.011 0 0.021 0 0.031 0v-0.048c0-0.019-0.008-0.037-0.021-0.050s-0.031-0.021-0.050-0.021h-0.355c-0.019 0-0.037 0.007-0.050 0.021s-0.021 0.031-0.021 0.050v0.091c0 0.146 0.12 0.334 0.249 0.334-0.074-0.148-0.002-0.378 0.218-0.378z"></path>
<path fill="#000" opacity="0.2" d="M14.177 16.211h0.006v-0.023c-0-0.019-0.008-0.037-0.021-0.050s-0.031-0.021-0.050-0.021h-0.354c-0.019 0-0.037 0.007-0.050 0.021s-0.021 0.031-0.021 0.050v0.091c0 0.146 0.12 0.335 0.249 0.335 0.012-0 0.025-0.002 0.036-0.006-0.092-0.149-0.023-0.396 0.205-0.396z"></path>
<path fill="#000" opacity="0.2" d="M15.010 16.211h0.024v-0.024c-0-0.019-0.008-0.037-0.021-0.050s-0.031-0.021-0.050-0.021h-0.355c-0.019 0-0.037 0.008-0.050 0.021s-0.021 0.031-0.021 0.050v0.091c0 0.146 0.121 0.335 0.249 0.335 0.007 0 0.014 0 0.021 0-0.094-0.15-0.026-0.401 0.204-0.401z"></path>
<path fill="#000" opacity="0.2" d="M15.881 16.211h0.004v-0.023c-0-0.019-0.008-0.037-0.021-0.050s-0.031-0.021-0.050-0.021h-0.355c-0.009-0-0.019 0.002-0.027 0.005s-0.017 0.009-0.023 0.015c-0.007 0.007-0.012 0.014-0.016 0.023s-0.006 0.018-0.006 0.027v0.091c0 0.146 0.121 0.335 0.249 0.335 0.013-0 0.026-0.002 0.038-0.006-0.090-0.149-0.021-0.396 0.207-0.396z"></path>
<path fill="#000" opacity="0.2" d="M16.715 16.207h0.022v-0.018c0-0.019-0.007-0.037-0.021-0.050s-0.031-0.021-0.050-0.021h-0.355c-0.019 0-0.037 0.007-0.050 0.021s-0.021 0.031-0.021 0.050v0.091c0 0.146 0.12 0.335 0.248 0.335 0.009-0 0.017-0.001 0.026-0.003-0.099-0.149-0.032-0.404 0.201-0.404z"></path>
<path fill="#000" opacity="0.2" d="M17.544 16.211c0.015 0 0.031 0.001 0.046 0.004v-0.027c0-0.019-0.007-0.037-0.021-0.050s-0.031-0.021-0.050-0.021h-0.358c-0.019 0-0.037 0.007-0.050 0.021s-0.021 0.031-0.021 0.050v0.091c0 0.146 0.12 0.335 0.249 0.335-0.095-0.149-0.027-0.402 0.206-0.402z"></path>
<path fill="#000" opacity="0.2" d="M18.401 16.181c0.013 0 0.026 0.001 0.038 0.002-0.001-0.018-0.009-0.035-0.022-0.047s-0.030-0.019-0.048-0.019h-0.355c-0.019 0-0.037 0.008-0.050 0.021s-0.021 0.031-0.021 0.050v0.091c0 0.146 0.121 0.335 0.249 0.335 0.009-0 0.018-0.001 0.027-0.003-0.125-0.142-0.064-0.429 0.183-0.429z"></path>
<path fill="#000" opacity="0.2" d="M19.259 16.217c0.011 0 0.022 0 0.032 0v-0.031c-0-0.019-0.008-0.037-0.021-0.050s-0.031-0.021-0.050-0.021h-0.355c-0.019 0-0.037 0.007-0.050 0.021s-0.021 0.031-0.021 0.050v0.091c0 0.146 0.121 0.335 0.249 0.335h0.010c-0.090-0.148-0.022-0.394 0.207-0.394z"></path>
<path fill="#000" opacity="0.2" d="M20.142 16.188c0-0.019-0.007-0.037-0.021-0.050s-0.031-0.021-0.050-0.021h-0.355c-0.009 0-0.019 0.002-0.027 0.005s-0.016 0.009-0.023 0.015c-0.007 0.007-0.012 0.014-0.015 0.023s-0.005 0.018-0.005 0.027v0.091c0 0.146 0.12 0.335 0.248 0.335 0.026-0.001 0.051-0.008 0.073-0.020-0.097-0.142-0.038-0.386 0.176-0.405z"></path>
<path fill="#000" opacity="0.2" d="M20.995 16.207v-0.018c0-0.019-0.007-0.037-0.021-0.050s-0.031-0.021-0.050-0.021h-0.355c-0.019 0-0.037 0.007-0.050 0.021s-0.021 0.031-0.021 0.050v0.091c0 0.146 0.12 0.335 0.249 0.335 0.021-0 0.041-0.005 0.059-0.014-0.088-0.146-0.025-0.381 0.189-0.393z"></path>
<path fill="#000" opacity="0.2" d="M21.815 16.193c0.010 0 0.020 0 0.030 0v-0.006c-0-0.019-0.008-0.037-0.021-0.050s-0.031-0.021-0.050-0.021h-0.355c-0.019 0-0.037 0.008-0.050 0.021s-0.021 0.031-0.021 0.050v0.091c0 0.146 0.121 0.334 0.249 0.334 0.009-0 0.018-0.001 0.027-0.003-0.111-0.144-0.047-0.416 0.192-0.416z"></path>
<path fill="#000" opacity="0.2" d="M22.696 16.224v-0.036c-0-0.019-0.008-0.037-0.021-0.050s-0.031-0.021-0.050-0.021h-0.355c-0.019 0-0.037 0.007-0.050 0.021s-0.021 0.031-0.021 0.050v0.091c0 0.146 0.121 0.335 0.249 0.335 0.015-0 0.029-0.003 0.043-0.007-0.078-0.148-0.010-0.377 0.206-0.382z"></path>
<path fill="#000" opacity="0.2" d="M23.508 16.199c0.013 0 0.027 0.001 0.040 0.003v-0.014c0-0.019-0.008-0.037-0.021-0.050s-0.031-0.021-0.050-0.021h-0.355c-0.009 0-0.019 0.002-0.027 0.005s-0.016 0.009-0.023 0.015-0.012 0.014-0.015 0.023c-0.004 0.009-0.005 0.018-0.005 0.027v0.091c0 0.146 0.12 0.335 0.248 0.335 0.004 0 0.009 0 0.013 0-0.107-0.148-0.042-0.414 0.195-0.414z"></path>
<path fill="#000" opacity="0.2" d="M24.366 16.236c0.011-0.001 0.022-0.001 0.033 0v-0.048c0-0.019-0.007-0.037-0.021-0.050s-0.031-0.021-0.050-0.021h-0.355c-0.019 0-0.037 0.007-0.050 0.021s-0.021 0.031-0.021 0.050v0.091c0 0.143 0.119 0.335 0.247 0.335-0.075-0.151-0.002-0.378 0.217-0.378z"></path>
<path fill="#000" opacity="0.2" d="M22.355 18.422v-0.471c0-0.032-0.026-0.058-0.058-0.058h-6.509c-0.032 0-0.058 0.026-0.058 0.058v0.471c0 0.032 0.026 0.058 0.058 0.058h6.509c0.032 0 0.058-0.026 0.058-0.058z"></path>
<path fill="#000" opacity="0.2" d="M23.236 18.057v-0.048c0-0.009-0.002-0.018-0.005-0.027s-0.009-0.016-0.015-0.023-0.014-0.012-0.023-0.015c-0.009-0.004-0.018-0.005-0.027-0.005h-0.355c-0.009 0-0.019 0.002-0.027 0.005s-0.016 0.009-0.023 0.015c-0.007 0.007-0.012 0.014-0.015 0.023s-0.005 0.018-0.005 0.027v0.091c0 0.146 0.12 0.335 0.249 0.335 0.011-0 0.021-0.002 0.032-0.004-0.071-0.149 0.001-0.372 0.217-0.373z"></path>
<path fill="#000" opacity="0.2" d="M15.304 18.026c0.014 0 0.028 0.001 0.042 0.003v-0.020c-0-0.019-0.008-0.037-0.021-0.050s-0.031-0.021-0.050-0.021h-0.355c-0.019 0-0.037 0.008-0.050 0.021s-0.021 0.031-0.021 0.050v0.091c0 0.146 0.121 0.334 0.249 0.334h0.008c-0.102-0.148-0.035-0.409 0.199-0.409z"></path>
<path fill="#000" opacity="0.2" d="M13.168 8.059h11.749c0.081 0 0.158 0.032 0.215 0.089s0.089 0.134 0.089 0.215v2.676h-12.358v-2.676c0-0.080 0.032-0.158 0.089-0.215s0.134-0.089 0.215-0.089z"></path>
<path fill="#fff" d="M23.956 8.564h-9.826c-0.082-0.678-0.226-1.348-0.431-2h10.691c-0.208 0.651-0.353 1.321-0.433 2z"></path>
<path fill="#000" opacity="0.2" d="M24.053 7.919c-0.071 0.389-0.096 0.645-0.096 0.645h-9.826c0 0-0.025-0.251-0.098-0.645h10.020z"></path>
<path fill="#263238" d="M23.822 10.248h-9.64v3.954h9.64v-3.954z"></path>
<path fill="#fff" opacity="0.16000000000000003" d="M18.762 13.852l0.051 0.002c0.064-0.986 0.128-1.974 0.192-2.963-0.081 0.989-0.162 1.976-0.242 2.96z"></path>
<path fill="#fff" opacity="0.16000000000000003" d="M18.598 13.84l0.051 0.004c0.111-0.98 0.222-1.964 0.332-2.952-0.128 0.989-0.255 1.971-0.383 2.947z"></path>
<path fill="#fff" opacity="0.16000000000000003" d="M18.439 13.822c0.017 0 0.034 0.004 0.051 0.006 0.157-0.969 0.315-1.948 0.474-2.936-0.176 0.989-0.351 1.965-0.525 2.93z"></path>
<path fill="#fff" opacity="0.16000000000000003" d="M18.277 13.797l0.051 0.008c0.204-0.956 0.409-1.927 0.616-2.915-0.224 0.989-0.446 1.957-0.668 2.907z"></path>
<path fill="#fff" opacity="0.16000000000000003" d="M18.116 13.767l0.052 0.011c0.249-0.938 0.502-1.9 0.758-2.886-0.272 0.987-0.542 1.946-0.81 2.876z"></path>
<path fill="#fff" opacity="0.16000000000000003" d="M17.956 13.731l0.052 0.013c0.294-0.917 0.596-1.867 0.899-2.853-0.321 0.986-0.64 1.932-0.95 2.84z"></path>
<path fill="#fff" opacity="0.16000000000000003" d="M17.796 13.688l0.052 0.015c0.336-0.891 0.687-1.828 1.039-2.813-0.37 0.985-0.738 1.917-1.091 2.798z"></path>
<path fill="#fff" opacity="0.16000000000000003" d="M17.64 13.639l0.052 0.017c0.379-0.86 0.777-1.783 1.178-2.766-0.42 0.983-0.836 1.9-1.23 2.75z"></path>
<path fill="#fff" opacity="0.16000000000000003" d="M17.48 13.583l0.053 0.019c0.42-0.828 0.866-1.732 1.316-2.714-0.468 0.982-0.933 1.878-1.369 2.695z"></path>
<path fill="#fff" opacity="0.16000000000000003" d="M17.325 13.52l0.053 0.022c0.458-0.79 0.953-1.673 1.452-2.655-0.519 0.98-1.031 1.857-1.505 2.633z"></path>
<path fill="#fff" opacity="0.16000000000000003" d="M17.171 13.449l0.053 0.025c0.495-0.748 1.038-1.61 1.587-2.588-0.569 0.978-1.13 1.832-1.639 2.563z"></path>
<path fill="#fff" opacity="0.16000000000000003" d="M17.020 13.371l0.053 0.029c0.527-0.701 1.12-1.539 1.719-2.515-0.546 0.859-1.137 1.689-1.772 2.486z"></path>
<path fill="#fff" opacity="0.16000000000000003" d="M16.873 13.285c0.017 0.011 0.035 0.021 0.053 0.032 0.665-0.772 1.282-1.585 1.848-2.432-0.579 0.842-1.214 1.644-1.901 2.401z"></path>
<path fill="#fff" opacity="0.16000000000000003" d="M16.726 13.19l0.052 0.036c0.718-0.729 1.378-1.512 1.975-2.342-0.609 0.824-1.288 1.595-2.027 2.306z"></path>
<path fill="#fff" opacity="0.16000000000000003" d="M18.734 10.881c-0.771 0.963-1.526 1.697-2.149 2.205l0.051 0.040c0.769-0.68 1.472-1.431 2.098-2.245z"></path>
<path fill="#fff" opacity="0.16000000000000003" d="M18.715 10.88c-0.822 0.956-1.624 1.654-2.266 2.094l0.051 0.043c0.633-0.467 1.415-1.179 2.215-2.138z"></path>
<path fill="#fff" opacity="0.16000000000000003" d="M18.694 10.878c-0.871 0.949-1.719 1.606-2.376 1.973 0.016 0.016 0.032 0.033 0.048 0.048 0.65-0.397 1.48-1.070 2.328-2.021z"></path>
<path fill="#fff" opacity="0.16000000000000003" d="M18.676 10.876c-0.918 0.939-1.811 1.553-2.478 1.845l0.048 0.052c0.66-0.324 1.532-0.955 2.43-1.897z"></path>
<path fill="#fff" opacity="0.16000000000000003" d="M16.089 12.581c0.014 0.019 0.028 0.038 0.043 0.057 0.669-0.246 1.582-0.833 2.527-1.763-0.964 0.926-1.897 1.494-2.569 1.706z"></path>
<path fill="#fff" opacity="0.16000000000000003" d="M15.991 12.436c0.012 0.020 0.025 0.040 0.038 0.060 0.671-0.168 1.624-0.709 2.609-1.625-1.005 0.911-1.974 1.431-2.648 1.565z"></path>
<path fill="#fff" opacity="0.16000000000000003" d="M15.907 12.289c0.011 0.021 0.022 0.042 0.033 0.063 0.671-0.091 1.657-0.583 2.679-1.479-1.040 0.887-2.041 1.359-2.712 1.416z"></path>
<path fill="#fff" opacity="0.16000000000000003" d="M15.839 12.137c0.009 0.021 0.018 0.043 0.027 0.064 0.667-0.016 1.678-0.46 2.732-1.332-1.067 0.863-2.093 1.285-2.759 1.269z"></path>
<path fill="#fff" opacity="0.16000000000000003" d="M18.925 13.859h0.050c0.015-0.988 0.031-1.976 0.048-2.967-0.034 0.989-0.066 1.978-0.098 2.967z"></path>
<path fill="#fff" opacity="0.16000000000000003" d="M19.087 13.86h0.051c-0.032-0.988-0.064-1.976-0.096-2.967l0.045 2.967z"></path>
<path fill="#fff" opacity="0.16000000000000003" d="M19.249 13.855h0.051c-0.080-0.984-0.16-1.972-0.24-2.963 0.063 0.989 0.126 1.977 0.189 2.963z"></path>
<path fill="#fff" opacity="0.16000000000000003" d="M19.413 13.845l0.051-0.004c-0.128-0.977-0.256-1.96-0.383-2.949 0.11 0.989 0.221 1.974 0.333 2.953z"></path>
<path fill="#fff" opacity="0.16000000000000003" d="M19.573 13.83l0.051-0.006c-0.174-0.966-0.35-1.943-0.527-2.932 0.16 0.989 0.319 1.969 0.476 2.938z"></path>
<path fill="#fff" opacity="0.16000000000000003" d="M19.734 13.809l0.051-0.008c-0.22-0.951-0.443-1.921-0.669-2.909 0.207 0.989 0.413 1.961 0.617 2.917z"></path>
<path fill="#fff" opacity="0.16000000000000003" d="M19.895 13.781l0.051-0.010c-0.266-0.932-0.536-1.892-0.811-2.881 0.255 0.988 0.508 1.952 0.759 2.89z"></path>
<path fill="#fff" opacity="0.16000000000000003" d="M20.055 13.748l0.052-0.012c-0.311-0.908-0.631-1.857-0.952-2.845 0.304 0.988 0.604 1.94 0.9 2.857z"></path>
<path fill="#fff" opacity="0.16000000000000003" d="M20.215 13.709l0.052-0.015c-0.354-0.883-0.722-1.816-1.093-2.804 0.352 0.987 0.703 1.924 1.041 2.819z"></path>
<path fill="#fff" opacity="0.16000000000000003" d="M20.374 13.662l0.053-0.017c-0.396-0.852-0.815-1.768-1.233-2.756 0.402 0.986 0.8 1.91 1.181 2.773z"></path>
<path fill="#fff" opacity="0.16000000000000003" d="M20.532 13.609l0.053-0.020c-0.436-0.817-0.902-1.716-1.372-2.701 0.451 0.985 0.898 1.891 1.319 2.721z"></path>
<path fill="#fff" opacity="0.16000000000000003" d="M20.688 13.55c0.018-0.008 0.036-0.014 0.053-0.022-0.474-0.777-0.989-1.657-1.509-2.64 0.501 0.983 0.996 1.87 1.456 2.662z"></path>
<path fill="#fff" opacity="0.16000000000000003" d="M20.843 13.483l0.053-0.025c-0.51-0.733-1.075-1.589-1.645-2.571 0.551 0.981 1.095 1.846 1.592 2.596z"></path>
<path fill="#fff" opacity="0.16000000000000003" d="M20.995 13.408c0.018-0.009 0.035-0.019 0.053-0.029-0.637-0.8-1.23-1.632-1.778-2.495 0.602 0.98 1.198 1.82 1.726 2.523z"></path>
<path fill="#fff" opacity="0.16000000000000003" d="M21.145 13.325l0.054-0.032c-0.69-0.76-1.328-1.565-1.91-2.41 0.568 0.851 1.188 1.666 1.856 2.441z"></path>
<path fill="#fff" opacity="0.16000000000000003" d="M19.309 10.883c0.599 0.834 1.263 1.62 1.984 2.352l0.053-0.036c-0.744-0.713-1.425-1.488-2.037-2.316z"></path>
<path fill="#fff" opacity="0.16000000000000003" d="M19.328 10.881c0.629 0.817 1.335 1.572 2.109 2.254 0.018-0.013 0.035-0.026 0.052-0.040-0.625-0.508-1.385-1.245-2.161-2.214z"></path>
<path fill="#fff" opacity="0.16000000000000003" d="M19.347 10.88c0.805 0.964 1.592 1.679 2.227 2.146 0.017-0.014 0.035-0.029 0.052-0.043-0.644-0.439-1.452-1.139-2.279-2.103z"></path>
<path fill="#fff" opacity="0.16000000000000003" d="M19.365 10.878c0.856 0.956 1.69 1.634 2.341 2.030 0.017-0.016 0.033-0.033 0.048-0.048-0.657-0.367-1.511-1.026-2.389-1.982z"></path>
<path fill="#fff" opacity="0.16000000000000003" d="M19.385 10.876c0.904 0.949 1.784 1.583 2.445 1.904l0.048-0.053c-0.667-0.288-1.566-0.905-2.492-1.852z"></path>
<path fill="#fff" opacity="0.16000000000000003" d="M21.948 12.645c0.015-0.019 0.029-0.038 0.043-0.058-0.673-0.208-1.615-0.778-2.588-1.712 0.953 0.938 1.875 1.527 2.545 1.77z"></path>
<path fill="#fff" opacity="0.16000000000000003" d="M22.052 12.501l0.039-0.061c-0.674-0.127-1.653-0.648-2.668-1.567 0.997 0.924 1.955 1.466 2.629 1.628z"></path>
<path fill="#fff" opacity="0.16000000000000003" d="M22.145 12.353c0.012-0.021 0.023-0.042 0.034-0.064-0.671-0.048-1.683-0.52-2.732-1.418 1.030 0.905 2.028 1.399 2.699 1.481z"></path>
<path fill="#fff" opacity="0.16000000000000003" d="M19.461 10.869c1.066 0.882 2.090 1.326 2.756 1.333 0.010-0.021 0.019-0.043 0.028-0.065-0.665 0.027-1.703-0.396-2.784-1.268z"></path>
<path fill="#000" opacity="0.2" d="M17.64 10.963c-0.182 0.464 0.015 1.816 1.326 1.816s1.787-0.95 1.734-1.536l1.75-0.281c0 0 0.536 1.478-0.602 2.511s-5.087 0.967-5.921 0.181c-0.834-0.786-0.371-2.338-0.371-2.338l2.086-0.353z"></path>
<path fill="#999" d="M25.32 8.959v-0.326c0-0.012 0.004-0.024 0.011-0.034s0.017-0.017 0.029-0.020l0.24-0.075v-0.326c0-0.039 0.016-0.076 0.043-0.104s0.065-0.043 0.104-0.043h0.288c0.014-0 0.028 0.005 0.038 0.015s0.017 0.023 0.017 0.037v0.105c0 0.014-0.006 0.028-0.016 0.038s-0.024 0.016-0.038 0.016h-0.366v0.319c-0 0.010-0.003 0.019-0.008 0.027s-0.012 0.015-0.020 0.020l-0.204 0.123v0.227l-0.119-0z"></path>
<path fill="#263238" d="M25.636 8.959h-0.315v0.94h0.315v-0.94z"></path>
<path fill="#757575" d="M26.030 8.879h-0.395v1.1h0.395v-1.1z"></path>
<path fill="#000" opacity="0.2" d="M26.029 9.549h-0.394v0.43h0.394v-0.43z"></path>
<path fill="#263238" d="M12.448 9.899h0.315v-0.94h-0.315v0.94z"></path>
<path fill="#757575" d="M12.054 9.979h0.395v-1.1h-0.395v1.1z"></path>
<path fill="#000" opacity="0.2" d="M12.449 9.549h-0.395v0.42h0.395v-0.42z"></path>
<path fill="#fff" d="M12.716 9.485c0.028-0.075 0.033-0.156 0.013-0.233s-0.064-0.146-0.126-0.197l-0.232-0.191c-0.015-0.012-0.032-0.022-0.050-0.027s-0.038-0.007-0.057-0.005c-0.019 0.002-0.038 0.009-0.054 0.018s-0.031 0.023-0.042 0.038l-0.92 1.265c-0.018 0.024-0.027 0.052-0.027 0.082v1.359c-0 0.018 0.004 0.036 0.011 0.053s0.017 0.032 0.030 0.045c0.013 0.013 0.028 0.023 0.045 0.030s0.035 0.010 0.053 0.010c0.037 0 0.072-0.014 0.098-0.040s0.040-0.061 0.040-0.097v-1.103c0-0.027 0.009-0.054 0.024-0.076l0.688-0.956c0.006-0.008 0.014-0.015 0.023-0.021s0.019-0.009 0.029-0.010c0.010-0.001 0.021-0 0.031 0.003s0.019 0.008 0.027 0.015l0.127 0.107c0.031 0.027 0.071 0.041 0.112 0.041 0.034-0 0.067-0.011 0.096-0.030s0.050-0.047 0.062-0.078z"></path>
<path fill="#999" d="M12.527 9.362c0.036 0 0.066-0.029 0.066-0.065s-0.029-0.065-0.066-0.065c-0.036 0-0.066 0.029-0.066 0.065s0.029 0.065 0.066 0.065z"></path>
<path fill="#263238" d="M25.028 8.505h-11.971v1.848h11.971v-1.848z"></path>
<path fill="#fff" opacity="0.2" d="M24.855 8.644h-11.63c-0.037 0-0.066 0.030-0.066 0.066v0.299c0 0.036 0.030 0.066 0.066 0.066h11.63c0.037 0 0.066-0.030 0.066-0.066v-0.299c0-0.036-0.030-0.066-0.066-0.066z"></path>
<path fill="#fff" d="M23.956 10.725h-9.826c-0.277-0.631-0.424-1.311-0.431-2h10.691c0 0.926-0.433 2-0.433 2z"></path>
<path fill="#000" opacity="0.2" d="M24.056 10.449c-0.058 0.172-0.1 0.276-0.1 0.276h-9.826c0 0-0.048-0.1-0.114-0.276h10.040z"></path>
<path fill="#000" opacity="0.2" d="M24.261 9.725c-0.033 0.143-0.070 0.283-0.105 0.407h-10.246c-0.035-0.121-0.072-0.259-0.104-0.407h10.455z"></path>
<path fill="#757575" d="M13.054 8.41h-0.293v2.040h0.293v-2.040z"></path>
<path fill="#000" opacity="0.2" d="M13.049 9.844h-0.285v0.605h0.285v-0.605z"></path>
<path fill="#757575" d="M25.323 8.41h-0.293v2.040h0.293v-2.040z"></path>
<path fill="#000" opacity="0.2" d="M25.323 9.844h-0.295v0.605h0.295v-0.605z"></path>
<path fill="#999" d="M25.032 8.324v1.488h-11.98v-1.488h-0.115v1.587h12.21v-1.587h-0.115z"></path>
<path fill="#fff" d="M25.74 10.83v3.336c0 0.056-0.022 0.11-0.062 0.15s-0.094 0.062-0.15 0.062h-12.972c-0.056 0-0.111-0.022-0.15-0.062s-0.062-0.094-0.062-0.15v-3.336c0-0.056 0.022-0.11 0.062-0.15s0.094-0.062 0.15-0.062h5.977v0.212c0 0-1.020 0.883-2.78 1.208 0.252 1.138 1.63 2.007 3.292 2.007s3.040-0.87 3.292-2.007c-1.762-0.325-2.782-1.208-2.782-1.208v-0.214h5.974c0.028 0 0.056 0.006 0.081 0.017s0.049 0.027 0.069 0.047c0.020 0.020 0.035 0.043 0.046 0.069s0.016 0.054 0.015 0.081z"></path>
<path fill="#fff" d="M25.74 10.83v3.336c0 0.028-0.006 0.056-0.016 0.081s-0.026 0.049-0.046 0.069c-0.020 0.020-0.043 0.035-0.069 0.046s-0.054 0.016-0.082 0.016h-12.972c-0.028 0-0.056-0.005-0.082-0.016s-0.049-0.026-0.069-0.046c-0.020-0.020-0.036-0.043-0.046-0.069s-0.016-0.053-0.016-0.081v-3.336c0-0.056 0.023-0.11 0.063-0.15s0.094-0.062 0.151-0.062h5.977v0.213c0 0-1.021 0.882-2.78 1.208 0.252 1.138 1.63 2.007 3.292 2.007s3.039-0.87 3.292-2.007c-1.762-0.326-2.782-1.208-2.782-1.208v-0.214h5.974c0.057 0.001 0.111 0.023 0.15 0.063s0.062 0.094 0.061 0.151z"></path>
<path fill="#fff" opacity="0.2" d="M25.453 10.881v3.080c0 0.020-0.004 0.041-0.012 0.060s-0.019 0.036-0.034 0.050c-0.015 0.014-0.032 0.026-0.051 0.034s-0.039 0.012-0.060 0.011h-12.613c-0.020 0-0.041-0.004-0.060-0.012s-0.036-0.019-0.051-0.034c-0.014-0.014-0.026-0.032-0.034-0.050s-0.012-0.039-0.012-0.059v-3.080c-0-0.020 0.004-0.041 0.012-0.060s0.019-0.036 0.034-0.051c0.015-0.014 0.032-0.026 0.051-0.034s0.039-0.012 0.060-0.012h5.848v0.105c0 0-1.021 0.882-2.78 1.208 0.252 1.138 1.63 2.007 3.292 2.007s3.039-0.87 3.292-2.007c-1.762-0.326-2.782-1.208-2.782-1.208v-0.105h5.745c0.041 0 0.081 0.017 0.11 0.046s0.045 0.069 0.045 0.11z"></path>
<path fill="#000" opacity="0.13999999999999999" d="M21.455 15.367l0.637 1.772c0 0 0.276-1.95 0.44-1.95s0.519 1.066 0.519 1.066 0.219-0.556 0.426-0.576c0.207-0.020 0.395 1.366 0.395 1.366l0.032 3.076-0.261 4.652c0 0-1.667-1.83-2.153-2.302s-0.95-1.51-1.085-1.72-0.168-1.314-0.168-1.314c0.17-0.217 0.259-0.486 0.251-0.761 0 0 0.391-0.653 0.367-1.134s-0.084-2.354 0.601-2.174z"></path>
<path fill="#fff" d="M26.469 23.949l-2.523 1.323c0-0.013-0.332-0.549-0.732-1.155-0.181-0.274-0.377-0.562-0.562-0.823-0.304-0.427-0.69-0.795-0.723-0.875-0.096-0.239-0.835-1.134-1-1.481s-0.203-1.43-0.276-1.685c-0.073-0.255 0.136-0.498 0.304-0.616s0.344-0.43 0.344-0.43-0.186-0.721-0.187-1.087c-0.002-0.367-0.127-1.646 0.022-1.765s0.283-0.069 0.321 0.013c0.123 0.271 0.233 0.952 0.327 1.266s0.272 1.225 0.359 1.29 0.243-0.18 0.243-0.18c0 0 0.015-0.765 0.048-1.081l-0.048-1.004c0 0-0.090-0.603 0.119-0.66 0.288-0.079 0.393 0.101 0.425 0.177s0.167 0.514 0.167 0.514l0.008 0.030c0 0.003 0 0.006 0 0.009v0.005c0.002 0.008 0.005 0.017 0.007 0.027 0.005 0.020 0.012 0.044 0.018 0.071 0.064 0.249 0.186 0.747 0.181 0.87-0.007 0.166-0.065 1.084 0.017 1.275l0.128-1.269c0 0-0.206-0.978-0.146-1.119s0.342 0.015 0.376 0.070c0.034 0.055 0.308 0.391 0.357 0.519l0.048 0.128c0 0 0.068-0.303 0.226-0.224s0.178 0.464 0.189 0.632 0.126 1.25 0.144 1.252c0.018 0.002 0.201 0.564 0.176 0.935-0.052 0.795 0.086 1.386 0.091 1.691s-0.226 1.011-0.226 1.011c0.008 0.014 0.159 0.269 0.2 0.493 0.030 0.164 0.568 0.758 1.007 1.231 0.305 0.326 0.561 0.593 0.575 0.622z"></path>
<path fill="#fff" opacity="0.4" d="M23.214 24.118c-0.181-0.274-0.377-0.562-0.562-0.823-0.304-0.427-0.69-0.795-0.723-0.875-0.096-0.239-0.835-1.133-1-1.481s-0.203-1.43-0.276-1.685 0.136-0.498 0.304-0.616c0.168-0.118 0.344-0.43 0.344-0.43s-0.186-0.721-0.188-1.087c-0.002-0.367-0.127-1.646 0.023-1.765s0.283-0.069 0.321 0.013c0.123 0.271 0.233 0.952 0.327 1.266s0.272 1.225 0.359 1.29c0.087 0.065 0.243-0.18 0.243-0.18s0.015-0.765 0.048-1.081l-0.048-1.004c0 0-0.090-0.603 0.119-0.66 0.288-0.079 0.393 0.101 0.425 0.177s0.167 0.514 0.167 0.514l0.008 0.030c0 0.003 0 0.006 0 0.009v0.005c0.002 0.008 0.004 0.017 0.007 0.027 0.005 0.020 0.012 0.044 0.018 0.071-0.074-0.117-0.176-0.217-0.313-0.243-0.383-0.075-0.301 0.351-0.264 0.606 0.021 0.169 0.017 0.341-0.012 0.509l0.096-0.055c-0.069 0.123-0.168 1.144-0.168 1.371s-0.18 0.302-0.342 0.236c-0.162-0.066-0.219-1.108-0.342-1.295s-0.464 0.17-0.479 0.497c-0.015 0.326 0.29 1.3 0.218 1.529s-0.071 1.099-0.071 1.099l-0.088-0.224c0.006 0.031 0 0.133-0.185 0.436-0.069 0.109-0.114 0.233-0.131 0.361s-0.007 0.259 0.031 0.383c0.113 0.248 0.684 0.902 0.78 0.969 0 0 0.070-0.284 0.288-0.208-0.074 0.118-0.128 0.247-0.16 0.382-0.045 0.208 0.41 0.342 0.552 0.54 0.087 0.121 0.146 0.489 0.677 1.395z"></path>
<path fill="#fff" opacity="0.4" d="M25.897 23.327c-0.449-0.451-1.238-0.88-1.19-0.992 0.064-0.151-0.017-0.473-0.155-0.734s0.048-0.684 0.048-0.684l0.085 0.246c0.068-0.284 0.076-0.579 0.023-0.866-0.087-0.488-0.155-0.316-0.155-0.316s0.018-0.44 0.096-0.68c0.078-0.24 0.144-0.822 0.036-1.167s-0.336-0.28-0.396-0.161c-0.061 0.119 0.004 0.581 0.055 0.732s-0.164 0.406-0.168 0.217c-0.004-0.189-0.085-0.717-0.085-0.717l0.163-1.059-0.163-0.842c0 0 0.068-0.303 0.226-0.224s0.178 0.464 0.189 0.632 0.126 1.25 0.144 1.252c0.018 0.002 0.201 0.564 0.176 0.935-0.052 0.795 0.086 1.386 0.091 1.691s-0.226 1.011-0.226 1.011c0.008 0.014 0.159 0.269 0.2 0.493 0.030 0.164 0.568 0.758 1.007 1.231l0.001 0.001z"></path>
<path fill="#fff" opacity="0.4" d="M24.040 16.177c0.009 0.024 0.017 0.044 0.022 0.059-0.152-0.353-0.412-0.244-0.458-0.143s0.109 0.723 0.144 0.82c0.035 0.096-0.139 0.867-0.164 1.123s-0.093 0.307-0.093 0.307c-0.172 0.013-0.192-0.461-0.192-0.526 0.003 0.054 0.014 0.108 0.032 0.16l0.128-1.269c0 0-0.21-0.979-0.151-1.12s0.342 0.015 0.376 0.070c0.034 0.055 0.308 0.391 0.357 0.519z"></path>
<path fill="#fff" d="M21.867 16.962c0 0-0.078-0.114-0.282-0.076s-0.296 0.326-0.296 0.326z"></path>
<path fill="#000" opacity="0.13999999999999999" d="M17.378 16.159c0.288 0.222 0.045 1.586 0.045 1.586l0.025 0.444 0.493-0.214 0.225 0.948c0 0-0.006 0.347 0.177 0.478 0 0 0.045 0.779 0 1.349s-0.959 1.239-1.274 1.837-2.369 2.355-2.369 2.355l-1.739-0.825 1.257-5.063 1.126-1.444 0.668-1.661c0 0 0.115 1.085 0.048 1.816l1.317-1.608z"></path>
<path fill="#fff" d="M17.862 19.189c-0.044 0.209 0.061 1.357 0.043 1.511s-0.934 1.195-0.98 1.274c-0.046 0.079-0.658 0.43-0.8 0.598-0.665 0.774-1.029 1.486-1.321 2.201-0.056 0.138-0.11 0.276-0.163 0.414l-2.64-1.529c0.222-0.274 0.431-0.518 0.623-0.74 0.383-0.45 0.689-0.81 0.838-1.149 0.046-0.087 0.098-0.17 0.157-0.248 0.059-0.084 0.113-0.153 0.113-0.153s-0.192-0.539-0.147-0.708c0.045-0.169-0.055-1.56-0.055-1.56s-0.13-0.947-0.258-1.186c-0.031-0.062-0.046-0.132-0.041-0.202 0.006-0.218 0.133-0.494 0.196-0.812 0.083-0.43 0.043-0.643 0.305-0.494s0.139 1.051 0.139 1.051l0.395 0.874c0.104-0.211 0-0.828-0.005-0.973 0-0.024 0-0.064-0.004-0.115-0.008-0.251-0.025-0.775-0.003-0.981 0-0.012 0-0.022 0.004-0.032 0.032-0.213 0.147-0.891 0.22-0.967 0.108-0.112 0.28-0.206 0.442 0.048 0.091 0.143 0.052 1.28 0.052 1.28s0.376-0.452 0.49-0.562c0.114-0.11 0.46-0.312 0.553-0.078s-0.249 0.956-0.249 0.956c0.071 0.167 0.080 0.63 0.080 0.63s0.162 0.579 0.261 0.573h0.004c0.029-0.006 0.060-0.111 0.093-0.259 0.082-0.362 0.17-0.981 0.24-1.035l0.048-0.038c0.002-0.003 0.005-0.005 0.008-0.007l0.018-0.016c0.17-0.15 0.527-0.485 0.527-0.485s0.025-0.16 0.338-0.111c0.313 0.049-0.139 0.97-0.139 0.97-0.063 0.293-0.159 1.046-0.159 1.046-0.029 0.314-0.012 1.156-0.012 1.156s0.148-0.49 0.139-0.669c-0.010-0.179 0.294-0.616 0.383-0.729s0.487-0.073 0.376 0.143c-0.111 0.216-0.066 0.903-0.109 1.113z"></path>
<path fill="#fff" opacity="0.4" d="M13.462 21.77c0.046-0.087 0.098-0.17 0.157-0.248 0 0-0.156 0.43-0.171 0.659-0.010 0.151-0.409 0.412-0.824 0.739 0.386-0.45 0.689-0.81 0.838-1.149z"></path>
<path fill="#fff" opacity="0.4" d="M13.62 21.522c0.059-0.084 0.113-0.153 0.113-0.153s-0.192-0.538-0.147-0.708c0.045-0.169-0.055-1.56-0.055-1.56s-0.13-0.947-0.258-1.186l0.298 0.519c0 0-0.029 0.41 0.056 0.636s0.192 0.912 0.192 0.912c0 0-0.126 0.577-0.083 0.785s0.235 0.132 0.235 0.132 0.094 0.38-0.35 0.622z"></path>
<path fill="#fff" opacity="0.4" d="M14.315 17.611c0.206 1.2-0.149 0.868-0.277 0.609s-0.428-0.749-0.655-0.645c-0.064 0.030-0.117 0.078-0.153 0.138 0.006-0.218 0.133-0.494 0.196-0.812 0.083-0.43 0.043-0.643 0.305-0.494s0.139 1.051 0.139 1.051l0.395 0.874c0.104-0.211 0-0.828-0.005-0.973 0-0.024 0-0.064-0.004-0.115 0.016 0.11 0.035 0.233 0.058 0.368z"></path>
<path fill="#fff" opacity="0.4" d="M14.818 16.425c0 0-0.222-0.29-0.415-0.275-0.033 0.002-0.065 0.013-0.092 0.033s-0.047 0.047-0.059 0.078c0-0.012 0-0.022 0.004-0.032 0.032-0.213 0.147-0.891 0.22-0.967 0.108-0.112 0.28-0.206 0.442 0.048 0.091 0.143 0.052 1.28 0.052 1.28s0.376-0.452 0.49-0.562c0.114-0.11 0.46-0.312 0.553-0.078s-0.249 0.956-0.249 0.956c0.071 0.167 0.080 0.63 0.080 0.63s0.162 0.579 0.261 0.573c-0.219 0.41-0.364-0.497-0.364-0.497 0.033-0.187-0.083-0.594-0.072-0.701s-0.201-0.485-0.56-0.382c-0.359 0.103-0.1 1.516-0.1 1.516-0.071 0.113-0.112 0.241-0.12 0.374-0.111-0.136 0-0.526 0-0.526-0.098-0.373-0.072-1.468-0.072-1.468z"></path>
<path fill="#fff" opacity="0.4" d="M16.489 16.776c-0.153 0.16-0.132 0.565-0.288 1.073 0.081-0.362 0.17-0.981 0.24-1.035l0.048-0.038z"></path>
<path fill="#fff" opacity="0.4" d="M17.862 19.189c-0.044 0.209 0.061 1.357 0.043 1.511s-0.934 1.195-0.98 1.274c-0.046 0.079-0.658 0.43-0.8 0.598-0.665 0.774-1.029 1.486-1.321 2.201 0.11-0.37 0.243-0.734 0.397-1.088 0.315-0.706 0.443-0.831 0.632-1.033s0.168-0.63 0.168-0.63c0.139-0.033 0.282-0.050 0.426-0.050 0.24 0 0.949-1.008 1.193-1.185s0.288-0.177 0-0.567c-0.288-0.39-0.206 0.063-0.292 0.048s-0.133 0.173-0.133 0.173c-0.030-0.398-0.288-0.86-0.342-0.976s0.131-0.794 0.093-0.982c-0.038-0.189 0.165-1.338 0.165-1.338s-0.025-0.441-0.426-0.442c-0.062-0.003-0.122 0.015-0.172 0.052 0.17-0.15 0.527-0.485 0.527-0.485s0.025-0.16 0.338-0.111c0.313 0.049-0.139 0.97-0.139 0.97-0.063 0.293-0.159 1.046-0.159 1.046-0.029 0.314-0.012 1.156-0.012 1.156s0.148-0.49 0.139-0.669c-0.010-0.179 0.294-0.616 0.384-0.729s0.487-0.073 0.376 0.143c-0.111 0.216-0.062 0.904-0.105 1.114z"></path>
</svg>
