<svg width="26" height="26" viewBox="0 0 26 26" fill="none" xmlns="http://www.w3.org/2000/svg">
<path d="M13 25C19.6274 25 25 19.6274 25 13C25 6.37258 19.6274 1 13 1C6.37258 1 1 6.37258 1 13C1 19.6274 6.37258 25 13 25Z" fill="black"/>
<path d="M13 25C19.6274 25 25 19.6274 25 13C25 6.37258 19.6274 1 13 1C6.37258 1 1 6.37258 1 13C1 19.6274 6.37258 25 13 25Z" fill="white"/>
<path d="M13 25C19.6274 25 25 19.6274 25 13C25 6.37258 19.6274 1 13 1C6.37258 1 1 6.37258 1 13C1 19.6274 6.37258 25 13 25Z" stroke="#86C9FF" stroke-linejoin="round"/>
<path d="M20 11.5573C20 11.5905 20 11.6237 20 11.6569C19.8974 15.6032 13.7843 19.5162 13.0024 20C12.2157 19.5162 6.10262 15.5984 6 11.6569C6 11.6237 6 11.5905 6 11.5573C6 9.59368 7.64188 8 9.66492 8C11.1455 8 12.4258 8.85375 13.0024 10.0822C13.5791 8.85375 14.8545 8 16.3351 8C18.3581 8 20 9.59368 20 11.5573Z" fill="#2196F3"/>
</svg>
